<svg xmlns="http://www.w3.org/2000/svg" width="243" height="50" viewBox="0 0 243 50">
  <g fill="none" fill-rule="evenodd">
    <path fill="#FFF" d="M156.400943,4.69146226 L156.400943,15.7924057 L166.180425,15.7924057 L166.180425,24.1841509 L156.400943,24.1841509 L156.400943,35.6815566 C156.400943,39.1176415 158.053066,40.5051415 160.828302,40.5051415 C162.282075,40.5051415 164.264151,39.9766038 165.651887,39.1836792 L168.096698,47.5093868 C165.519575,48.8968868 162.810613,49.9541981 159.044104,49.9541981 C150.78467,49.9541981 145.828774,45.4610377 145.828774,36.7388679 L145.828774,24.1841509 L139.815802,24.1841509 L139.815802,15.7924057 L145.828774,15.7924057 L145.828774,4.69146226 L156.400943,4.69146226 Z M187.060212,14.8012264 C196.377193,14.8012264 202.25809,19.4927358 202.25809,27.9505189 L202.25809,48.9630189 L192.082146,48.9630189 L192.082146,46.5182075 C189.769175,48.5005189 186.597712,49.9542925 182.17059,49.9542925 C174.769882,49.9542925 169.813986,45.6592453 169.813986,39.1177358 C169.813986,32.6420283 174.769882,28.4130189 183.624363,28.4130189 L192.082146,28.4130189 L192.082146,27.7524057 C192.082146,24.976934 190.165873,23.126934 187.390401,23.126934 C184.218939,23.126934 182.368703,24.3823585 181.840165,27.2899057 L171.862571,25.2415566 C173.316344,18.8318868 179.130967,14.8012264 187.060212,14.8012264 Z M218.908514,15.7923113 L218.908514,33.8975 C218.908514,37.7960849 221.22125,40.4390094 224.591297,40.4390094 C228.754033,40.4390094 231.463231,37.5979717 231.463231,31.1883019 L231.463231,15.7923113 L242.035637,15.7923113 L242.035637,48.963066 L231.463231,48.963066 L231.463231,45.7913679 C228.952146,48.4345283 225.450259,49.9543396 221.287288,49.9543396 C213.556392,49.9543396 208.402146,44.4699057 208.402146,36.1439623 L208.402146,15.7923113 L218.908514,15.7923113 Z M92.8375472,15.7262736 L100.833066,36.2102358 L108.762075,15.7262736 L119.929057,15.7262736 L106.185189,48.963066 L95.414434,48.963066 L81.670566,15.7262736 L92.8375472,15.7262736 Z M135.323349,15.7924528 L135.323349,48.9632075 L124.751179,48.9632075 L124.751179,15.7924528 L135.323349,15.7924528 Z M192.082146,35.1528774 L184.81375,35.1528774 C182.17059,35.1528774 180.518703,36.5406132 180.518703,38.5889623 C180.518703,40.7033491 182.368703,42.0250472 185.143939,42.0250472 C188.778137,42.0250472 192.082146,39.58 192.082146,35.8797642 L192.082146,35.1528774 Z M130.037264,1.42108547e-14 C133.605425,1.42108547e-14 136.182547,2.77523585 136.182547,6.0129717 C136.182547,9.38301887 133.605425,11.8938679 130.037264,11.8938679 C126.469104,11.8938679 123.958255,9.38301887 123.958255,6.0129717 C123.958255,2.77523585 126.469104,1.42108547e-14 130.037264,1.42108547e-14 Z"/>
    <path fill="#0AF" d="M46.0052123,35.5858019 C49.6797406,35.5858019 52.6686557,38.5714151 52.6686557,42.2414623 C52.6686557,45.9112736 49.6797406,48.8966509 46.0052123,48.8966509 C42.3309198,48.8966509 39.3417689,45.9112736 39.3417689,42.2414623 C39.3417689,38.5714151 42.3309198,35.5858019 46.0052123,35.5858019 Z M20.5468632,35.5858019 C24.2211557,35.5858019 27.2105425,38.5714151 27.2105425,42.2414623 C27.2105425,45.9112736 24.2211557,48.8966509 20.5468632,48.8966509 C16.8725708,48.8966509 13.883184,45.9112736 13.883184,42.2414623 C13.883184,38.5714151 16.8725708,35.5858019 20.5468632,35.5858019 Z M46.0052123,38.2558491 C43.8052123,38.2558491 42.0153538,40.0438208 42.0153538,42.2414623 C42.0153538,44.4388679 43.8052123,46.2268396 46.0052123,46.2268396 C48.205684,46.2268396 49.9955425,44.4388679 49.9955425,42.2414623 C49.9955425,40.0438208 48.205684,38.2558491 46.0052123,38.2558491 Z M20.5468632,38.2558491 C18.3466274,38.2558491 16.5567689,40.0438208 16.5567689,42.2414623 C16.5567689,44.4388679 18.3466274,46.2268396 20.5468632,46.2268396 C22.7470991,46.2268396 24.5369575,44.4388679 24.5369575,42.2414623 C24.5369575,40.0438208 22.7470991,38.2558491 20.5468632,38.2558491 Z M42.9020519,15.738184 C46.1553538,15.700684 49.4961557,15.6907783 52.8095991,15.7917217 C56.0232783,15.8900708 58.1572406,18.3377123 58.1572406,21.8410142 L58.1572406,21.8410142 L58.1572406,37.1933726 C58.1572406,37.9304009 57.6586557,38.5282783 56.9204481,38.5282783 C56.1820047,38.5282783 55.6836557,37.9304009 55.6836557,37.1933726 L55.6836557,37.1933726 L55.6836557,21.8410142 C55.6836557,20.8587028 55.3379009,18.5655425 52.8277594,18.4886557 C49.5704481,18.3893632 46.1970991,18.4270991 42.9695047,18.4645991 C41.2447406,18.4839387 39.5013443,18.5032783 37.7798821,18.5032783 L37.7798821,18.5032783 L34.9603066,18.5039858 C32.8515802,18.5039858 30.7383726,18.5054009 28.6289387,18.5028066 L28.6289387,18.5028066 L22.7499292,18.5002123 C22.4874292,18.5002123 22.219033,18.4962028 21.9492217,18.4931368 C20.0961557,18.4655425 18.3508726,18.4447877 17.2176179,19.5353538 C16.3966274,20.3254481 15.844033,21.4171934 15.2593632,22.5737972 C14.7029953,23.6726179 14.1277594,24.8089387 13.2662028,25.8061085 C11.7923821,27.5112972 9.27658019,28.2664858 7.4246934,28.5999764 C4.94639151,29.0471462 3.91290094,29.8513915 3.1728066,31.9122406 C2.70205189,33.2223821 2.71596698,34.6929009 2.73082547,36.2487972 C2.73318396,36.525684 2.73601415,36.8016274 2.73601415,37.0761557 C2.7357783,37.4620047 2.72115566,37.881816 2.70606132,38.3195519 C2.64875,39.9388915 2.57799528,41.9565802 3.35370283,42.7594104 C3.45959906,42.8686085 3.78200472,43.2056368 4.74096698,43.2056368 L4.74096698,43.2056368 L9.41974057,43.2056368 C10.1579481,43.2056368 10.7562972,43.8579953 10.7562972,44.5952594 C10.7562972,45.3322877 10.1579481,45.9848821 9.41974057,45.9848821 L9.41974057,45.9848821 L4.74073113,45.9848821 C3.35134434,45.9848821 2.23742925,45.5035142 1.42988208,44.6679009 C-0.133561321,43.0499764 -0.0406367925,40.3780425 0.0341273585,38.2544575 C0.0485141509,37.849033 0.0621933962,37.4462028 0.0629009434,37.0888915 C0.0629009434,36.8237972 0.0603066038,36.5492689 0.0577122642,36.2813443 C0.0414386792,34.5587028 0.0244575472,32.774033 0.656533019,31.0141274 C1.72068396,28.0502123 3.54426887,26.588184 6.95063679,25.974033 C8.96714623,25.6112972 10.4912028,24.9313443 11.2419104,24.0624764 C11.8900236,23.313184 12.3673821,22.3688443 12.8725708,21.369316 C13.5329481,20.0655425 14.214316,18.7174292 15.3619575,17.6124764 C17.2867217,15.7598821 19.8888443,15.7957311 21.9841274,15.8230896 C22.2416745,15.8268632 22.4973349,15.8304009 22.7482783,15.8304009 L22.7482783,15.8304009 L28.626816,15.7766274 C30.7341274,15.7782783 32.8414387,15.7216745 34.9504009,15.7216745 L34.9504009,15.7216745 L37.7610142,15.7216745 C39.4728066,15.7216745 41.1869575,15.7579953 42.9020519,15.738184 Z M36.1525236,43.2055896 C36.8907311,43.2055896 37.489316,43.858184 37.489316,44.5952123 C37.489316,45.3322406 36.8907311,45.9848349 36.1525236,45.9848349 L36.1525236,45.9848349 L30.8062972,45.9848349 C30.0678538,45.9848349 29.4697406,45.3322406 29.4697406,44.5952123 C29.4697406,43.858184 30.0678538,43.2055896 30.8062972,43.2055896 L30.8062972,43.2055896 Z M29.7304481,20.7862028 C31.3092217,20.7862028 32.7627594,21.5050708 33.718184,22.7590802 L33.718184,22.7590802 L38.6344575,29.0795991 C40.2990802,31.2647406 39.8441274,34.510967 37.6495519,36.1791274 C36.7549764,36.8588443 35.69625,37.2180425 34.5887028,37.2180425 C33.0387028,37.2180425 31.6101651,36.5102594 30.6693632,35.2748821 L30.6693632,35.2748821 L25.7486085,28.815684 C24.0769104,26.6201651 24.5042689,23.4772406 26.7012028,21.8071934 C27.580684,21.1387972 28.6283255,20.7862028 29.7304481,20.7862028 Z M68.9003066,32.3973113 C69.6385142,32.3973113 70.2368632,33.0499057 70.2368632,33.786934 C70.2368632,34.5239623 69.6385142,35.1765566 68.9003066,35.1765566 L68.9003066,35.1765566 L64.2220047,35.1765566 C63.484033,35.1765566 62.8852123,34.5239623 62.8852123,33.786934 C62.8852123,33.0499057 63.484033,32.3973113 64.2220047,32.3973113 L64.2220047,32.3973113 Z M34.9099292,28.6435142 L31.1521462,31.4989387 L32.7941274,33.6543632 C33.5453066,34.6418632 35.0247877,34.8194575 36.0309198,34.0538915 C37.0724292,33.2628538 37.2941274,31.7295991 36.5148821,30.7067217 L36.5148821,30.7067217 L34.9099292,28.6435142 Z M70.2368632,27.1474764 C70.9750708,27.1474764 71.5738915,27.8000708 71.5738915,28.5370991 C71.5738915,29.2743632 70.9750708,29.9267217 70.2368632,29.9267217 L70.2368632,29.9267217 L64.2220047,29.9267217 C63.484033,29.9267217 62.8852123,29.2743632 62.8852123,28.5370991 C62.8852123,27.8000708 63.484033,27.1474764 64.2220047,27.1474764 L64.2220047,27.1474764 Z M29.7304481,23.45625 C29.2174764,23.45625 28.7299764,23.6204009 28.3195991,23.9319575 C27.2960142,24.7102594 27.0967217,26.1758255 27.875967,27.198467 L27.875967,27.198467 L29.5335142,29.3741745 L33.2700708,26.5350236 L31.599316,24.3869104 C31.1455425,23.7911557 30.4672406,23.45625 29.7304481,23.45625 Z M72.9104245,21.2801651 C73.6486321,21.2801651 74.2469811,21.7782783 74.2469811,22.5153066 C74.2469811,23.2525708 73.6486321,23.750684 72.9104245,23.750684 L72.9104245,23.750684 L64.2219811,23.750684 C63.4840094,23.750684 62.8851887,23.2525708 62.8851887,22.5153066 C62.8851887,21.7782783 63.4840094,21.2801651 64.2219811,21.2801651 L64.2219811,21.2801651 Z"/>
  </g>
</svg>
