<?xml version="1.0" standalone="no"?>
<!DOCTYPE svg PUBLIC "-//W3C//DTD SVG 1.1//EN" "http://www.w3.org/Graphics/SVG/1.1/DTD/svg11.dtd" >
<svg xmlns="http://www.w3.org/2000/svg" xmlns:xlink="http://www.w3.org/1999/xlink" version="1.1">
<metadata>
Created by FontForge 20170731 at Fri Jan  1 02:30:17 1904
 By Aleksey,,,
Copyright (c) 2014 by Rene' Bieder. All rights reserved.
</metadata>
<defs>
<font id="GalanoGrotesqueAlt-SemiBold" horiz-adv-x="610" >
  <font-face 
    font-family="Galano Grotesque Alt"
    font-weight="400"
    font-stretch="normal"
    units-per-em="1000"
    panose-1="0 0 7 0 0 0 0 0 0 0"
    ascent="757"
    descent="-243"
    x-height="499"
    cap-height="670"
    bbox="-180 -250 1212 982"
    underline-thickness="50"
    underline-position="-175"
    unicode-range="U+0020-FB02"
  />
<missing-glyph horiz-adv-x="769" 
d="M385 684q145 0 246 -100q102 -100 102 -251q0 -149 -102 -248q-103 -100 -246 -100q-144 0 -247 100q-102 99 -102 248q0 151 102 251q101 100 247 100zM385 629q-120 0 -204 -84q-85 -85 -85 -211q0 -125 85 -210q84 -84 204 -84t204 84t84 210q0 127 -84 211t-204 84z
M518 399q0 -42 -29 -69q-30 -28 -78 -34v-31h-67v86h42q27 0 44 14t17 34q0 26 -17 41q-16 15 -44 15t-47 -17q-20 -18 -24 -46l-70 13q3 47 43 81t98 34q60 0 96 -33t36 -88zM376 223q20 0 32 -12t12 -30q0 -19 -12 -31q-13 -13 -32 -13q-18 0 -31 13q-12 12 -12 31
q0 17 13 30q12 12 30 12z" />
    <glyph glyph-name="fi" unicode="fi" horiz-adv-x="645" 
d="M568 499v-499h-132v391h-208v-391h-132v391h-76v108h76v92q0 86 55 138q54 51 145 51q47 0 89 -18l-29 -107q-30 8 -51 8q-35 0 -56 -18t-21 -54v-92h340zM502 571q-35 0 -57 22q-23 23 -23 55q0 31 23 56q22 23 57 23t57 -23q23 -25 23 -56q0 -32 -23 -55
q-22 -22 -57 -22z" />
    <glyph glyph-name="fl" unicode="fl" horiz-adv-x="699" 
d="M302 663q-33 0 -53 -19q-21 -20 -21 -53v-92h151v-108h-151v-391h-132v391h-76v108h76v92q0 87 54 138t143 51q50 0 89 -19l-30 -107q-27 9 -50 9zM681 123l23 -111q-58 -27 -108 -27q-74 0 -120 46t-46 119v620h132v-612q0 -22 16 -35q17 -14 41 -14q23 0 62 14z" />
    <glyph glyph-name=".notdef" horiz-adv-x="769" 
d="M385 684q145 0 246 -100q102 -100 102 -251q0 -149 -102 -248q-103 -100 -246 -100q-144 0 -247 100q-102 99 -102 248q0 151 102 251q101 100 247 100zM385 629q-120 0 -204 -84q-85 -85 -85 -211q0 -125 85 -210q84 -84 204 -84t204 84t84 210q0 127 -84 211t-204 84z
M518 399q0 -42 -29 -69q-30 -28 -78 -34v-31h-67v86h42q27 0 44 14t17 34q0 26 -17 41q-16 15 -44 15t-47 -17q-20 -18 -24 -46l-70 13q3 47 43 81t98 34q60 0 96 -33t36 -88zM376 223q20 0 32 -12t12 -30q0 -19 -12 -31q-13 -13 -32 -13q-18 0 -31 13q-12 12 -12 31
q0 17 13 30q12 12 30 12z" />
    <glyph glyph-name=".null" horiz-adv-x="0" 
 />
    <glyph glyph-name="nonmarkingreturn" horiz-adv-x="333" 
 />
    <glyph glyph-name="space" unicode=" " horiz-adv-x="243" 
 />
    <glyph glyph-name="exclam" unicode="!" horiz-adv-x="288" 
d="M217 670v-31l-5 -420h-135l-5 420v31h145zM144 149q34 0 57 -23q22 -22 22 -54t-22 -54t-57 -22q-34 0 -56 22q-23 23 -23 54t23 54t56 23z" />
    <glyph glyph-name="quotedbl" unicode="&#x22;" horiz-adv-x="424" 
d="M50 372v298h134v-298h-134zM240 372v298h134v-298h-134z" />
    <glyph glyph-name="numbersign" unicode="#" horiz-adv-x="693" 
d="M541 390l-31 -127h106l-31 -110h-102l-38 -153h-116l38 153h-128l-38 -153h-116l38 153h-106l30 110h103l31 127h-105l29 110h103l42 170h116l-42 -170h128l42 170h116l-42 -170h106l-31 -110h-102zM425 390h-128l-31 -127h128z" />
    <glyph glyph-name="dollar" unicode="$" horiz-adv-x="602" 
d="M552 206q0 -80 -52 -132q-54 -54 -140 -64v-110h-112v114q-85 17 -141 68q-58 53 -62 133l133 26q5 -83 75 -110v157l-26 5q-68 12 -119 55q-50 42 -50 120t52 130t138 62v110h112v-113q82 -17 132 -68q50 -52 55 -132l-132 -23q1 76 -60 105v-146l32 -7q78 -16 122 -62
q43 -44 43 -118zM194 476q0 -48 59 -62v133q-27 -9 -43 -28t-16 -43zM355 267v-142q34 8 52 29t18 47q0 25 -16 41t-54 25z" />
    <glyph glyph-name="percent" unicode="%" horiz-adv-x="833" 
d="M208 685q71 0 119 -45t48 -117t-49 -117q-50 -45 -118 -45q-70 0 -119 45t-49 117t49 117t119 45zM124 0l491 670h87l-491 -670h-87zM208 595q-28 0 -48 -19q-21 -20 -21 -52q0 -33 21 -53q22 -20 48 -20t48 20q20 19 20 53q0 33 -20 52t-48 19zM626 309q71 0 119 -45
t48 -117t-49 -117q-50 -45 -118 -45q-70 0 -119 45t-49 117t49 117t119 45zM626 219q-28 0 -48 -19q-21 -20 -21 -52q0 -34 21 -53q22 -20 48 -20t48 20q20 19 20 53q0 33 -20 52t-48 19z" />
    <glyph glyph-name="ampersand" unicode="&#x26;" horiz-adv-x="700" 
d="M602 -29l-90 79q-79 -65 -195 -65q-120 0 -193 58q-74 59 -74 154q0 107 114 169q-48 60 -48 134q0 82 61 134q60 51 152 51t147 -52t67 -139l-124 -22q-7 102 -90 102q-37 0 -62 -20q-24 -20 -24 -57q0 -31 19 -59q18 -27 68 -71l159 -139q9 31 9 70v51h117v-51
q0 -88 -31 -154l96 -84zM317 96q59 0 105 34l-180 159q-63 -36 -63 -92q0 -46 38 -73q39 -28 100 -28z" />
    <glyph glyph-name="quotesingle" unicode="'" horiz-adv-x="234" 
d="M50 372v298h134v-298h-134z" />
    <glyph glyph-name="parenleft" unicode="(" horiz-adv-x="366" 
d="M233 754l93 -82q-81 -86 -112 -162q-32 -79 -32 -175q0 -95 32 -174q31 -76 112 -162l-93 -81q-193 174 -193 417q0 244 193 419z" />
    <glyph glyph-name="parenright" unicode=")" horiz-adv-x="366" 
d="M40 672l93 82q193 -175 193 -419q0 -243 -193 -417l-93 81q81 86 112 162q32 79 32 174q0 96 -32 175q-31 76 -112 162z" />
    <glyph glyph-name="asterisk" unicode="*" horiz-adv-x="447" 
d="M304 535l108 -63l-40 -70l-103 60v-113h-91v113l-103 -60l-40 70l108 63l-108 62l40 71l103 -60v112h91v-112l103 60l40 -71z" />
    <glyph glyph-name="plus" unicode="+" horiz-adv-x="580" 
d="M520 247h-172v-176h-116v176h-172v116h172v176h116v-176h172v-116z" />
    <glyph glyph-name="comma" unicode="," horiz-adv-x="252" 
d="M109 -132h-99l60 268h152v-3z" />
    <glyph glyph-name="hyphen" unicode="-" horiz-adv-x="448" 
d="M388 198h-328v114h328v-114z" />
    <glyph glyph-name="period" unicode="." horiz-adv-x="238" 
d="M119 149q34 0 57 -23q22 -22 22 -54t-22 -54t-57 -22q-34 0 -56 22q-23 23 -23 54t23 54t56 23z" />
    <glyph glyph-name="slash" unicode="/" horiz-adv-x="418" 
d="M408 741l-288 -813h-110l288 813h110z" />
    <glyph glyph-name="zero" unicode="0" horiz-adv-x="666" 
d="M333 685q130 0 209 -97t79 -253q0 -158 -79 -253q-80 -97 -209 -97q-128 0 -208 97t-80 253q0 155 80 253q79 97 208 97zM333 110q68 0 109 62t41 163t-41 163t-109 62t-109 -62t-41 -163t41 -163t109 -62z" />
    <glyph glyph-name="one" unicode="1" horiz-adv-x="370" 
d="M295 670v-670h-132v511l-165 -85v121l213 123h84z" />
    <glyph glyph-name="two" unicode="2" horiz-adv-x="523" 
d="M488 123v-123h-456v88l226 224l16 16l17 17q8 8 15 16q15 17 16 19q1 1 3 5t4.5 7.5t4.5 7.5q8 13 11 23q4 14 6 23t2 27q0 42 -27 69q-26 26 -72 26q-101 0 -110 -123l-124 26q4 97 69 156q64 58 167 58t165 -58q63 -59 63 -151q0 -66 -33 -120q-32 -53 -113 -132
l-103 -101h253z" />
    <glyph glyph-name="three" unicode="3" horiz-adv-x="571" 
d="M441 337q40 -16 63 -53q22 -35 22 -85q0 -97 -65 -155q-67 -59 -172 -59t-172 58q-69 59 -76 154l127 25q17 -119 121 -119q49 0 81 27t32 68q0 40 -26 63t-75 23h-77v108h69q46 0 72 23t26 61q0 42 -28 66t-74 24q-49 0 -80 -30q-30 -29 -35 -91l-124 25q7 95 73 156
q63 59 166 59t165 -58t62 -151q0 -98 -75 -139z" />
    <glyph glyph-name="four" unicode="4" horiz-adv-x="616" 
d="M590 135h-83v-135h-132v135h-355v125l307 410h180v-425h83v-110zM375 245v293l-206 -293h206z" />
    <glyph glyph-name="five" unicode="5" horiz-adv-x="571" 
d="M200 433h102q104 0 166 -58q63 -59 63 -158q0 -102 -68 -167t-179 -65q-106 0 -177 61q-72 62 -72 171l131 26q0 -68 34 -102t87 -34q51 0 83 30q31 30 31 78q0 43 -30 70t-79 27h-224l11 358h421v-123h-295z" />
    <glyph glyph-name="six" unicode="6" horiz-adv-x="611" 
d="M332 434q109 0 171 -61q63 -61 63 -160q0 -98 -69 -163q-70 -65 -177 -65q-125 0 -200 90t-75 250q0 190 90 283q75 77 187 77q88 0 147 -41q60 -42 81 -118l-130 -25q-21 65 -103 65q-55 0 -94 -42q-51 -56 -51 -157q61 67 160 67zM317 106q45 0 79 31t34 78
q0 48 -34 78t-79 30q-43 0 -76 -30t-33 -80q0 -47 33 -77t76 -30z" />
    <glyph glyph-name="seven" unicode="7" horiz-adv-x="503" 
d="M483 670v-97l-230 -573h-149l232 547h-321v123h468z" />
    <glyph glyph-name="eight" unicode="8" horiz-adv-x="566" 
d="M411 339q59 -21 92 -63t33 -95q0 -87 -69 -141q-70 -55 -183 -55q-112 0 -184 55q-70 54 -70 141q0 52 33 94q32 41 93 64q-105 47 -105 162q0 83 64 134q63 50 169 50q105 0 168 -50q64 -51 64 -134q0 -55 -27 -97q-27 -43 -78 -65zM282 576q-39 0 -68 -23t-29 -64
t28 -63t69 -22q40 0 71 23q30 22 30 64q0 41 -30 63q-29 22 -71 22zM282 98q42 0 75 25q31 24 31 67t-31 67q-30 23 -75 23q-42 0 -72 -24t-30 -68q0 -42 29 -66t73 -24z" />
    <glyph glyph-name="nine" unicode="9" horiz-adv-x="611" 
d="M291 685q126 0 201 -90q74 -89 74 -250q0 -190 -90 -283q-75 -77 -187 -77q-86 0 -146 42q-62 43 -82 117l130 25q21 -65 103 -65q55 0 94 42q51 56 51 157q-61 -67 -160 -67q-106 0 -170 62t-64 159q0 99 69 164q68 64 177 64zM294 347q43 0 77 31q32 29 32 79
q0 48 -32 77q-33 30 -77 30q-45 0 -79 -31t-34 -78t34 -77q36 -31 79 -31z" />
    <glyph glyph-name="colon" unicode=":" horiz-adv-x="238" 
d="M119 485q34 0 57 -23q22 -22 22 -54t-22 -54t-57 -22q-34 0 -56 22q-23 23 -23 54t23 54t56 23zM119 149q34 0 57 -23q22 -22 22 -54t-22 -54t-57 -22q-34 0 -56 22q-23 23 -23 54t23 54t56 23z" />
    <glyph glyph-name="semicolon" unicode=";" horiz-adv-x="270" 
d="M151 485q34 0 57 -23q22 -22 22 -54t-22 -54t-57 -22q-34 0 -56 22q-23 23 -23 54t23 54t56 23zM109 -132h-99l60 268h152v-3z" />
    <glyph glyph-name="less" unicode="&#x3c;" horiz-adv-x="449" 
d="M412 117l-379 141v140l379 143v-140l-226 -72l226 -75v-137z" />
    <glyph glyph-name="equal" unicode="=" horiz-adv-x="580" 
d="M520 363h-460v115h460v-115zM520 165h-460v115h460v-115z" />
    <glyph glyph-name="greater" unicode="&#x3e;" horiz-adv-x="449" 
d="M266 329l-226 72v140l379 -143v-140l-379 -141v137z" />
    <glyph glyph-name="question" unicode="?" horiz-adv-x="534" 
d="M277 685q103 0 168 -60q64 -60 64 -157q0 -77 -50 -126q-52 -51 -137 -61v-56h-121v156h76q47 0 76 24q28 24 28 63q0 43 -29 72q-28 28 -75 28q-50 0 -81 -31q-32 -32 -41 -84l-125 25q6 84 75 146q68 61 172 61zM260 149q34 0 57 -23q22 -22 22 -54t-22 -54t-57 -22
q-34 0 -56 22q-23 23 -23 54t23 54t56 23z" />
    <glyph glyph-name="at" unicode="@" horiz-adv-x="943" 
d="M664 473v-283q0 -23 17 -38t40 -15q43 0 66 51q22 50 22 115q0 135 -96 220q-95 85 -236 85q-149 0 -245 -95q-98 -96 -98 -240t97 -238q98 -95 237 -95q136 0 244 81l43 -68q-51 -42 -130 -67q-80 -25 -155 -25q-176 0 -298 117t-122 294q0 179 123 296t304 117
q175 0 295 -107q121 -108 121 -269q0 -46 -10 -86q-11 -46 -30 -79q-21 -38 -58 -60q-38 -23 -88 -23q-86 0 -116 60q-51 -59 -140 -59q-86 0 -146 58q-58 57 -58 150q0 96 59 153q58 57 144 57q78 0 128 -49v42h86zM463 149q45 0 81 34q34 33 34 88t-34 88q-33 32 -81 32
q-47 0 -80 -32q-34 -33 -34 -88q0 -56 34 -89t80 -33z" />
    <glyph glyph-name="A" unicode="A" horiz-adv-x="707" 
d="M707 0h-147l-58 143h-296l-59 -143h-147l290 670h127zM451 266l-97 239l-98 -239h195z" />
    <glyph glyph-name="B" unicode="B" horiz-adv-x="659" 
d="M500 346v-4q47 -6 82 -47t35 -109q0 -84 -54 -135t-162 -51h-331v670h330q90 0 144 -51t54 -135q0 -58 -31 -95t-67 -43zM206 554v-164h170q42 0 66 24t24 62q0 34 -23 56t-58 22h-179zM206 116h180q44 0 69 23q23 22 23 60t-24 61q-23 22 -63 22h-185v-166z" />
    <glyph glyph-name="C" unicode="C" horiz-adv-x="762" 
d="M392 112q75 0 127 42q53 42 71 126l132 -27q-24 -127 -115 -197q-92 -71 -215 -71q-147 0 -250 101q-102 100 -102 249q0 147 102 249q101 101 250 101q122 0 214 -69q90 -68 116 -189l-132 -37q-18 84 -71 125q-54 42 -127 42q-92 0 -153 -63q-62 -64 -62 -159t63 -159
t152 -64z" />
    <glyph glyph-name="D" unicode="D" horiz-adv-x="725" 
d="M70 670h247q168 0 267 -92q101 -93 101 -243q0 -149 -101 -242q-100 -93 -267 -93h-247v670zM206 123h111q104 0 168 58q63 57 63 154q0 98 -63 155t-168 57h-111v-424z" />
    <glyph glyph-name="E" unicode="E" horiz-adv-x="634" 
d="M579 123v-123h-509v670h507v-123h-371v-151h342v-121h-342v-152h373z" />
    <glyph glyph-name="F" unicode="F" horiz-adv-x="595" 
d="M206 547v-164h325v-123h-325v-260h-136v670h500v-123h-364z" />
    <glyph glyph-name="G" unicode="G" horiz-adv-x="776" 
d="M366 391h367q3 -35 3 -58q0 -150 -96 -249t-244 -99q-149 0 -253 101q-103 100 -103 249q0 147 102 249q101 101 250 101q111 0 199 -52q89 -53 123 -150l-122 -43q-62 117 -200 117q-91 0 -152 -64q-62 -65 -62 -158q0 -95 64 -159t158 -64q76 0 130 42q55 43 71 113
h-235v124z" />
    <glyph glyph-name="H" unicode="H" horiz-adv-x="732" 
d="M662 670v-670h-136v275h-320v-275h-136v670h136v-272h320v272h136z" />
    <glyph glyph-name="I" unicode="I" horiz-adv-x="456" 
d="M296 547v-424h140v-123h-416v123h140v424h-140v123h416v-123h-140z" />
    <glyph glyph-name="J" unicode="J" horiz-adv-x="596" 
d="M532 670v-433q0 -111 -72 -181q-73 -71 -188 -71q-106 0 -173 60t-84 159l129 26q7 -55 40 -89t88 -34q56 0 90 37t34 93v310h-206v123h342z" />
    <glyph glyph-name="K" unicode="K" horiz-adv-x="709" 
d="M709 0h-168l-197 280l-138 -162v-118h-136v670h136v-374l316 374h155l-243 -285z" />
    <glyph glyph-name="L" unicode="L" horiz-adv-x="592" 
d="M552 123v-123h-482v670h136v-547h346z" />
    <glyph glyph-name="M" unicode="M" horiz-adv-x="886" 
d="M816 670v-670h-132v365l-200 -365h-81l-201 365v-365h-132v670h119l254 -463l255 463h118z" />
    <glyph glyph-name="N" unicode="N" horiz-adv-x="761" 
d="M691 670v-670h-114l-371 430v-430h-136v670h114l371 -442v442h136z" />
    <glyph glyph-name="O" unicode="O" horiz-adv-x="786" 
d="M393 685q149 0 251 -102t102 -249q0 -145 -102 -247t-251 -102q-148 0 -250 102q-103 103 -103 247q0 146 103 249q102 102 250 102zM393 113q91 0 154 63q62 62 62 158t-62 159q-63 64 -154 64q-90 0 -153 -64q-63 -65 -63 -159q0 -95 63 -158t153 -63z" />
    <glyph glyph-name="P" unicode="P" horiz-adv-x="665" 
d="M70 670h312q114 0 181 -61t67 -164t-66 -164q-67 -62 -182 -62h-176v-219h-136v670zM206 342h176q55 0 84 28t29 75q0 46 -29 74t-84 28h-176v-205z" />
    <glyph glyph-name="Q" unicode="Q" horiz-adv-x="786" 
d="M592 -170l-123 163q-40 -8 -76 -8q-148 0 -250 102q-103 103 -103 247q0 146 103 249q102 102 250 102q149 0 251 -102t102 -249q0 -85 -37 -158t-103 -122l174 -224h-188zM177 334q0 -95 63 -158t153 -63q91 0 154 63q62 62 62 158t-62 159q-63 64 -154 64
q-90 0 -153 -64q-63 -65 -63 -159z" />
    <glyph glyph-name="R" unicode="R" horiz-adv-x="674" 
d="M664 0h-166l-221 246h-71v-246h-136v670h321q109 0 174 -58q66 -58 66 -154q0 -85 -52 -140q-53 -56 -140 -69zM206 369h185q46 0 76 25q29 24 29 64q0 41 -29 65q-28 24 -76 24h-185v-178z" />
    <glyph glyph-name="S" unicode="S" horiz-adv-x="641" 
d="M316 685q103 0 174 -52t91 -141l-136 -28q-8 49 -44 76q-37 28 -88 28q-49 0 -79 -24t-30 -59q0 -55 67 -68l144 -29q84 -18 130 -66q46 -47 46 -126q0 -97 -73 -154q-74 -57 -193 -57q-109 0 -189 52q-79 52 -91 147l143 29q25 -109 150 -109q56 0 88 24q31 24 31 61
q0 31 -17 47q-19 17 -61 26l-142 27q-176 38 -176 192q0 91 69 148q68 56 186 56z" />
    <glyph glyph-name="T" unicode="T" horiz-adv-x="622" 
d="M602 547h-223v-547h-136v547h-223v123h582v-123z" />
    <glyph glyph-name="U" unicode="U" horiz-adv-x="711" 
d="M647 670v-370q0 -142 -79 -228q-80 -87 -209 -87q-133 0 -214 87t-81 228v370h136v-370q0 -82 44 -134q44 -51 115 -51q68 0 110 51t42 134v370h136z" />
    <glyph glyph-name="V" unicode="V" horiz-adv-x="729" 
d="M719 670l-289 -670h-131l-289 670h150l204 -488l205 488h150z" />
    <glyph glyph-name="W" unicode="W" horiz-adv-x="962" 
d="M952 670l-195 -670h-146l-130 452l-131 -452h-145l-195 670h142l128 -462l135 462h131l135 -462l128 462h143z" />
    <glyph glyph-name="X" unicode="X" horiz-adv-x="662" 
d="M434 336l218 -336h-166l-155 245l-155 -245h-166l217 336l-217 334h165l156 -243l156 243h165z" />
    <glyph glyph-name="Y" unicode="Y" horiz-adv-x="691" 
d="M411 214v-214h-136v212l-265 458h150l183 -316l182 316h156z" />
    <glyph glyph-name="Z" unicode="Z" horiz-adv-x="625" 
d="M583 116v-116h-536v87l356 467h-346v116h519v-103l-336 -451h343z" />
    <glyph glyph-name="bracketleft" unicode="[" horiz-adv-x="405" 
d="M197 628v-597h168v-113h-295v823h295v-113h-168z" />
    <glyph glyph-name="backslash" unicode="\" horiz-adv-x="418" 
d="M408 -72h-110l-288 813h110z" />
    <glyph glyph-name="bracketright" unicode="]" horiz-adv-x="405" 
d="M335 741v-823h-295v113h168v597h-168v113h295z" />
    <glyph glyph-name="asciicircum" unicode="^" horiz-adv-x="444" 
d="M135 431h-115l155 239h94l155 -239h-115l-87 133z" />
    <glyph glyph-name="underscore" unicode="_" horiz-adv-x="540" 
d="M520 -165h-500v109h500v-109z" />
    <glyph glyph-name="grave" unicode="`" horiz-adv-x="600" 
d="M299 711l66 -144h-112l-109 144h155z" />
    <glyph glyph-name="a" unicode="a" horiz-adv-x="546" 
d="M279 514q102 0 160 -49q59 -50 59 -139v-326h-126v41q-59 -56 -152 -56q-86 0 -138 45t-52 118t53 117q52 43 145 43h144v8q0 39 -23 61q-25 23 -62 23q-89 0 -104 -73l-126 25q13 72 76 118q60 44 146 44zM241 90q53 0 92 33t39 79v6h-146q-30 0 -50 -15t-20 -42t24 -44
q25 -17 61 -17z" />
    <glyph glyph-name="b" unicode="b" horiz-adv-x="642" 
d="M367 514q99 0 172 -75q73 -74 73 -190q0 -115 -73 -189q-73 -75 -172 -75q-103 0 -165 58v-43h-132v770h132v-314q62 58 165 58zM344 100q62 0 101 41t39 108q0 69 -39 109q-39 41 -101 41q-56 0 -99 -42t-43 -108q0 -65 43 -107t99 -42z" />
    <glyph glyph-name="c" unicode="c" horiz-adv-x="577" 
d="M297 106q97 0 128 97l122 -31q-21 -85 -90 -136t-160 -51q-110 0 -189 74q-78 73 -78 190q0 116 78 191q77 74 189 74q89 0 157 -50q67 -49 93 -134l-127 -36q-26 99 -123 99q-61 0 -100 -40q-39 -41 -39 -104q0 -64 39 -103q40 -40 100 -40z" />
    <glyph glyph-name="d" unicode="d" horiz-adv-x="642" 
d="M572 770v-770h-132v43q-62 -58 -165 -58q-99 0 -172 75q-73 74 -73 189q0 114 74 190q74 75 171 75q103 0 165 -58v314h132zM298 100q56 0 99 42t43 107q0 66 -43 108t-99 42q-61 0 -100 -41q-40 -42 -40 -109q0 -66 40 -108q39 -41 100 -41z" />
    <glyph glyph-name="e" unicode="e" horiz-adv-x="571" 
d="M541 259v-45h-380q11 -52 45 -84q35 -32 80 -32q85 0 124 66l118 -25q-31 -75 -95 -115q-63 -39 -147 -39q-108 0 -182 74t-74 190t75 191q74 74 183 74q104 0 176 -71t77 -184zM288 399q-40 0 -76 -24t-47 -68h241q-12 46 -44 69t-74 23z" />
    <glyph glyph-name="f" unicode="f" horiz-adv-x="369" 
d="M228 499h151v-108h-151v-391h-132v391h-76v108h76v92q0 87 54 138t143 51q50 0 89 -19l-30 -107q-27 9 -50 9q-33 0 -53 -19q-21 -20 -21 -53v-92z" />
    <glyph glyph-name="g" unicode="g" horiz-adv-x="642" 
d="M572 499v-511q0 -112 -78 -175t-203 -63q-174 0 -243 110l107 91q31 -38 60 -55t76 -17q66 0 108 33q41 32 41 96v35q-62 -58 -165 -58q-99 0 -172 75q-73 74 -73 189q0 114 74 190q74 75 171 75q103 0 165 -58v43h132zM298 100q56 0 99 42t43 107q0 66 -43 108t-99 42
q-61 0 -100 -41q-40 -42 -40 -109q0 -66 40 -108q39 -41 100 -41z" />
    <glyph glyph-name="h" unicode="h" horiz-adv-x="617" 
d="M359 514q90 0 145 -58t55 -152v-304h-132v276q0 53 -27 85t-74 32q-124 0 -124 -172v-221h-132v770h132v-316q60 60 157 60z" />
    <glyph glyph-name="i" unicode="i" horiz-adv-x="286" 
d="M143 727q35 0 57 -23q23 -25 23 -56q0 -32 -23 -55q-22 -22 -57 -22t-57 22q-23 23 -23 55q0 31 23 56q22 23 57 23zM209 0h-132v499h132v-499z" />
    <glyph glyph-name="j" unicode="j" horiz-adv-x="297" 
d="M154 727q35 0 57 -23q23 -25 23 -56q0 -32 -23 -55q-22 -22 -57 -22t-57 22q-23 23 -23 55q0 31 23 56q22 23 57 23zM-26 -231l24 115q27 -10 45 -10q20 0 34 11q13 10 13 28v586h132v-604q0 -65 -40 -105t-106 -40q-52 0 -102 19z" />
    <glyph glyph-name="k" unicode="k" horiz-adv-x="617" 
d="M617 0h-166l-166 189l-83 -92v-97h-132v770h132v-497l210 226h154l-194 -215z" />
    <glyph glyph-name="l" unicode="l" horiz-adv-x="329" 
d="M192 770v-612q0 -22 16 -35q17 -14 41 -14q23 0 62 14l23 -111q-58 -27 -108 -27q-74 0 -120 46t-46 119v620h132z" />
    <glyph glyph-name="m" unicode="m" horiz-adv-x="949" 
d="M697 514q81 0 137 -56q57 -57 57 -146v-312h-131v285q0 50 -28 79t-70 29q-54 0 -85 -38t-31 -115v-240h-132v285q0 50 -28 79t-70 29q-54 0 -84 -38q-30 -37 -30 -115v-240h-132v499h132v-41q56 56 149 56q109 0 164 -82q66 82 182 82z" />
    <glyph glyph-name="n" unicode="n" horiz-adv-x="616" 
d="M359 514q90 0 145 -58t55 -152v-304h-132v276q0 53 -27 85t-74 32q-124 0 -124 -172v-221h-132v499h132v-45q60 60 157 60z" />
    <glyph glyph-name="o" unicode="o" horiz-adv-x="601" 
d="M302 511q114 0 191 -73q78 -74 78 -189t-78 -188q-79 -74 -191 -74q-113 0 -193 74q-79 73 -79 188q0 116 79 189t193 73zM302 100q54 0 98 42q43 42 43 107q0 66 -43 108q-42 41 -98 41t-100 -41t-44 -108t44 -108t100 -41z" />
    <glyph glyph-name="p" unicode="p" horiz-adv-x="642" 
d="M367 514q99 0 172 -75q73 -74 73 -190q0 -115 -73 -189q-73 -75 -172 -75q-103 0 -165 58v-283h-132v739h132v-43q62 58 165 58zM344 100q62 0 101 41t39 108q0 69 -39 109q-39 41 -101 41q-56 0 -99 -42t-43 -108q0 -65 43 -107t99 -42z" />
    <glyph glyph-name="q" unicode="q" horiz-adv-x="642" 
d="M572 499v-739h-132v283q-62 -58 -165 -58q-99 0 -172 75q-73 74 -73 189q0 114 74 190q74 75 171 75q103 0 165 -58v43h132zM298 100q56 0 99 42t43 107q0 66 -43 108t-99 42q-61 0 -100 -41q-40 -42 -40 -109q0 -66 40 -108q39 -41 100 -41z" />
    <glyph glyph-name="r" unicode="r" horiz-adv-x="429" 
d="M381 506q24 0 35 -4l-7 -127h-29q-178 0 -178 -214v-161h-132v499h132v-91q68 98 179 98z" />
    <glyph glyph-name="s" unicode="s" horiz-adv-x="503" 
d="M28 132l133 27q9 -68 103 -68q35 0 57 14q21 13 21 36q0 33 -55 45l-102 21q-68 14 -104 51q-37 39 -37 91q0 72 56 119q55 46 148 46q87 0 146 -41q57 -40 71 -107l-126 -25q-4 31 -29 50t-66 19q-37 0 -52 -14q-16 -15 -16 -35q0 -31 45 -42l119 -26q65 -14 98 -51
q33 -38 33 -90q0 -81 -59 -124t-160 -43q-87 0 -152 37q-63 36 -72 110z" />
    <glyph glyph-name="t" unicode="t" horiz-adv-x="434" 
d="M395 132l38 -110q-68 -37 -130 -37q-91 0 -144 50q-52 49 -52 149v207h-107v108h107v171h132v-171h163v-108h-163v-197q0 -86 73 -86q38 0 83 24z" />
    <glyph glyph-name="u" unicode="u" horiz-adv-x="616" 
d="M546 499v-499h-132v45q-60 -60 -157 -60q-89 0 -145 59q-55 58 -55 151v304h132v-276q0 -52 28 -85q27 -32 73 -32q124 0 124 172v221h132z" />
    <glyph glyph-name="v" unicode="v" horiz-adv-x="576" 
d="M566 500l-208 -500h-140l-208 500h142l136 -339l136 339h142z" />
    <glyph glyph-name="w" unicode="w" horiz-adv-x="787" 
d="M777 499l-166 -500h-119l-98 294l-99 -294h-119l-166 500h131l99 -307l102 307h103l102 -308l99 308h131z" />
    <glyph glyph-name="x" unicode="x" horiz-adv-x="591" 
d="M393 243l168 -243h-157l-109 158l-108 -158h-157l168 243l-168 257h157l108 -168l109 168h157z" />
    <glyph glyph-name="y" unicode="y" horiz-adv-x="584" 
d="M574 500l-320 -740h-147l110 255l-207 485h147l132 -320l138 320h147z" />
    <glyph glyph-name="z" unicode="z" horiz-adv-x="523" 
d="M483 108v-108h-443v86l268 305h-261v108h424v-88l-268 -303h280z" />
    <glyph glyph-name="braceleft" unicode="{" horiz-adv-x="424" 
d="M249 598v-161q0 -81 -67 -108q67 -27 67 -108v-161q0 -12 8 -22q7 -9 22 -9h105v-111h-122q-61 0 -101 35q-39 35 -39 93v159q0 27 -17 40t-54 25l-31 10v98l31 10q37 12 54 25t17 40v159q0 58 39 94q38 35 101 35h122v-111h-105q-12 0 -21 -9t-9 -23z" />
    <glyph glyph-name="bar" unicode="|" horiz-adv-x="267" 
d="M197 -72h-127v813h127v-813z" />
    <glyph glyph-name="braceright" unicode="}" horiz-adv-x="424" 
d="M404 378v-98l-31 -10q-35 -12 -53 -25q-18 -14 -18 -40v-159q0 -59 -38 -93q-40 -35 -102 -35h-122v111h105q15 0 22 9q8 10 8 22v161q0 81 67 108q-67 27 -67 108v161q0 15 -8 23q-9 9 -22 9h-105v111h122q64 0 102 -35t38 -94v-159q0 -27 18 -40t53 -25z" />
    <glyph glyph-name="asciitilde" unicode="~" horiz-adv-x="500" 
d="M150 229h-100q0 83 39 117q40 35 87 35q43 0 79 -20q37 -21 53 -21q18 0 27 12q9 13 8 30h109q0 -47 -13 -77q-13 -31 -35 -48q-18 -14 -43 -23q-20 -7 -43 -7q-42 0 -78 21q-34 20 -51 20q-18 0 -29 -11q-12 -11 -10 -28z" />
    <glyph glyph-name="exclamdown" unicode="&#xa1;" horiz-adv-x="288" 
d="M144 359q-33 0 -56 23t-23 54t23 54q22 22 56 22q35 0 57 -22t22 -54t-22 -54q-23 -23 -57 -23zM72 -131l5 420h135l5 -420v-31h-145v31z" />
    <glyph glyph-name="cent" unicode="&#xa2;" horiz-adv-x="577" 
d="M340 387v-275q61 18 85 91l122 -31q-18 -71 -72 -121q-52 -48 -130 -62v-119h-111v122q-88 19 -146 90q-58 70 -58 167q0 96 58 168q57 70 146 90v123h111v-120q74 -14 127 -61q54 -48 75 -119l-127 -36q-18 73 -80 93zM158 249q0 -46 22 -82q21 -35 59 -50v265
q-38 -17 -59 -51q-22 -36 -22 -82z" />
    <glyph glyph-name="sterling" unicode="&#xa3;" horiz-adv-x="637" 
d="M261 123h340v-123h-561v83l85 24v131h-85v123h85v87q0 106 66 172q65 65 173 65q105 0 168 -64q62 -64 70 -173l-127 -25q-13 132 -111 132q-46 0 -74 -29q-29 -31 -29 -78v-87h170v-123h-170v-115z" />
    <glyph glyph-name="yen" unicode="&#xa5;" horiz-adv-x="691" 
d="M464 338h126v-100h-179v-50h179v-100h-179v-88h-136v88h-173v100h173v50h-173v100h121l-203 332h150l173 -294l172 294h156z" />
    <glyph glyph-name="section" unicode="&#xa7;" horiz-adv-x="537" 
d="M507 244q0 -92 -83 -136q27 -38 27 -88q0 -77 -54 -119q-55 -43 -140 -43q-98 0 -153 49q-56 50 -56 132l114 21q8 -101 89 -101q31 0 52 18q20 17 20 46q0 39 -53 63l-128 54q-64 26 -93 63q-29 38 -29 95q0 88 83 135q-27 37 -27 88q0 80 54 122t140 42q94 0 147 -49
q54 -50 57 -127l-116 -21q-2 47 -24 71q-22 23 -58 23q-31 0 -51 -17q-21 -18 -21 -47q0 -39 53 -62l128 -54q65 -26 93 -63q29 -38 29 -95zM327 179l11 -5q25 13 38 28q11 12 11 34q0 39 -56 68l-131 59l-13 6q-47 -23 -47 -63q0 -41 56 -68z" />
    <glyph glyph-name="dieresis" unicode="&#xa8;" horiz-adv-x="600" 
d="M192 718q35 0 57 -23q23 -25 23 -55q0 -34 -22 -56t-58 -22q-34 0 -56 22q-23 23 -23 56q0 32 23 55t56 23zM408 718q35 0 57 -23q23 -25 23 -55q0 -34 -22 -56t-58 -22q-34 0 -56 22q-23 23 -23 56q0 32 23 55t56 23z" />
    <glyph glyph-name="copyright" unicode="&#xa9;" horiz-adv-x="756" 
d="M375 685q147 0 248 -100q102 -101 102 -252q0 -150 -102 -249t-248 -99t-248 99q-103 100 -103 249q0 151 103 252q101 100 248 100zM375 629q-120 0 -204 -84q-85 -85 -85 -211t85 -209t204 -83t204 83q84 83 84 209q0 127 -84 211t-204 84zM379 522q75 0 125 -39
q49 -38 58 -100l-87 -18q-7 34 -34 54q-25 19 -62 19q-45 0 -71 -29q-28 -31 -28 -75q0 -43 28 -74q27 -30 71 -30q37 0 64 21t31 58l88 -14q-6 -65 -55 -107t-128 -42q-76 0 -134 53q-57 53 -57 135t57 135q58 53 134 53z" />
    <glyph glyph-name="ordfeminine" unicode="&#xaa;" horiz-adv-x="389" 
d="M202 673q70 0 112 -33q41 -32 41 -98v-202h-96v19q-32 -28 -94 -28q-55 0 -89 30t-34 77q0 46 38 73t98 27h81v10q0 22 -13 35q-14 14 -37 14q-45 0 -59 -45l-87 20q12 49 50 75t89 26zM186 402q31 0 53 17q20 16 20 42v14h-71q-22 0 -35 -10q-14 -11 -14 -26
q0 -37 47 -37z" />
    <glyph glyph-name="guillemotleft" unicode="&#xab;" horiz-adv-x="472" 
d="M25 262l112 178h130l-112 -178l112 -178h-130zM205 262l112 178h130l-112 -178l112 -178h-130z" />
    <glyph glyph-name="registered" unicode="&#xae;" horiz-adv-x="500" 
d="M250 685q84 0 142 -57t58 -144q0 -86 -58 -143t-142 -57t-142 57t-58 143q0 87 58 144q59 57 142 57zM250 323q67 0 114 47q46 46 46 114q0 71 -46 117t-114 46q-66 0 -112 -46q-47 -47 -47 -117q0 -67 47 -114t112 -47zM337 521q0 -45 -47 -60l57 -63h-48l-52 59h-30
v-59h-40v184h85q35 0 55 -16t20 -45zM217 493h45q16 0 26 8q9 7 9 19q0 26 -35 26h-45v-53z" />
    <glyph glyph-name="macron" unicode="&#xaf;" horiz-adv-x="600" 
d="M459 572h-318v108h318v-108z" />
    <glyph glyph-name="degree" unicode="&#xb0;" horiz-adv-x="417" 
d="M209 685q62 0 108 -41q44 -40 44 -107q0 -66 -44 -106q-46 -41 -108 -41t-108 41q-45 41 -45 106q0 67 45 107q46 41 108 41zM209 472q26 0 44 18t18 48q0 29 -18 47t-44 18q-25 0 -44 -18t-19 -47q0 -30 19 -48q20 -18 44 -18z" />
    <glyph glyph-name="plusminus" unicode="&#xb1;" horiz-adv-x="580" 
d="M520 447v-115h-172v-146h-116v146h-172v115h172v166h116v-166h172zM60 115h460v-115h-460v115z" />
    <glyph glyph-name="acute" unicode="&#xb4;" horiz-adv-x="600" 
d="M337 567h-112l66 144h155z" />
    <glyph glyph-name="paragraph" unicode="&#xb6;" horiz-adv-x="596" 
d="M379 0h-100v299h-50q-90 0 -150 52q-59 51 -59 137q0 88 53 135t142 47h164v-670zM526 0h-100v670h100v-670z" />
    <glyph glyph-name="periodcentered" unicode="&#xb7;" horiz-adv-x="238" 
d="M119 335q34 0 57 -23q22 -22 22 -54t-22 -54t-57 -22q-34 0 -56 22q-23 23 -23 54t23 54t56 23z" />
    <glyph glyph-name="cedilla" unicode="&#xb8;" horiz-adv-x="600" 
d="M295 0h97l-53 -160h-140z" />
    <glyph glyph-name="ordmasculine" unicode="&#xba;" horiz-adv-x="425" 
d="M211 673q75 0 128 -48q52 -48 52 -123t-52 -123q-53 -48 -128 -48q-73 0 -125 48t-52 123t52 123t125 48zM211 419q35 0 59 24t24 59t-24 59t-59 24q-31 0 -55 -24t-24 -59t24 -59t55 -24z" />
    <glyph glyph-name="guillemotright" unicode="&#xbb;" horiz-adv-x="472" 
d="M25 84l112 178l-112 178h130l112 -178l-112 -178h-130zM205 84l112 178l-112 178h130l112 -178l-112 -178h-130z" />
    <glyph glyph-name="onequarter" unicode="&#xbc;" horiz-adv-x="739" 
d="M93 543l-72 -47v102l105 72h63v-380h-96v253zM657 670l-491 -670h-87l491 670h87zM710 70h-50v-70h-89v70h-194v86l171 224h112v-232h50v-78zM571 148v134l-102 -134h102z" />
    <glyph glyph-name="onehalf" unicode="&#xbd;" horiz-adv-x="809" 
d="M93 543l-72 -47v102l105 72h63v-380h-96v253zM637 670l-491 -670h-87l491 670h87zM572 84h138v-84h-288v64l143 121q27 23 43 43q12 15 12 35q0 19 -14 33q-13 13 -37 13q-57 0 -60 -71l-82 19q0 61 39 97t103 36q65 0 104 -33t39 -93q0 -39 -22 -70q-21 -30 -67 -68z
" />
    <glyph glyph-name="threequarters" unicode="&#xbe;" horiz-adv-x="821" 
d="M317 408q0 -53 -41 -88t-105 -35t-104 34q-42 35 -43 91l80 20q5 -65 68 -65q24 0 40 13q15 12 15 32q0 21 -14 31q-16 11 -40 11h-40v68h33q25 0 42 11q16 10 16 29t-15 31t-39 12q-57 0 -59 -62l-84 20q4 55 44 87t98 32q63 0 102 -33t39 -84q0 -50 -47 -74
q54 -27 54 -81zM729 670l-491 -670h-87l491 670h87zM792 70h-50v-70h-89v70h-194v86l171 224h112v-232h50v-78zM653 148v134l-102 -134h102z" />
    <glyph glyph-name="questiondown" unicode="&#xbf;" horiz-adv-x="534" 
d="M274 359q-33 0 -56 23t-23 54t23 54q22 22 56 22q35 0 57 -22t22 -54t-22 -54q-23 -23 -57 -23zM379 55l125 -25q-6 -84 -75 -146q-68 -61 -172 -61q-103 0 -168 60q-64 60 -64 157q0 76 51 126q52 51 136 61v56h121v-156h-76q-47 0 -75 -24q-29 -24 -29 -63
q0 -43 29 -72q28 -28 75 -28q50 0 81 31q32 32 41 84z" />
    <glyph glyph-name="Agrave" unicode="&#xc0;" horiz-adv-x="707" 
d="M296 738l-109 144h155l66 -144h-112zM707 0h-147l-58 143h-296l-59 -143h-147l290 670h127zM451 266l-97 239l-98 -239h195z" />
    <glyph glyph-name="Aacute" unicode="&#xc1;" horiz-adv-x="707" 
d="M414 738h-112l66 144h155zM707 0h-147l-58 143h-296l-59 -143h-147l290 670h127zM451 266l-97 239l-98 -239h195z" />
    <glyph glyph-name="Acircumflex" unicode="&#xc2;" horiz-adv-x="707" 
d="M309 729h-130l113 149h125l115 -149h-132l-45 62zM707 0h-147l-58 143h-296l-59 -143h-147l290 670h127zM451 266l-97 239l-98 -239h195z" />
    <glyph glyph-name="Atilde" unicode="&#xc3;" horiz-adv-x="707" 
d="M304 792q-13 0 -20 -10q-8 -11 -8 -26h-87q0 71 32 101q31 30 75 30q38 0 70 -19q34 -20 52 -20q13 0 21 11q7 10 7 28h87q0 -72 -32 -102q-33 -31 -75 -31q-38 0 -70 19t-52 19zM707 0h-147l-58 143h-296l-59 -143h-147l290 670h127zM451 266l-97 239l-98 -239h195z" />
    <glyph glyph-name="Adieresis" unicode="&#xc4;" horiz-adv-x="707" 
d="M246 733q-34 0 -56 22q-23 23 -23 56q0 32 23 55t56 23q35 0 57 -23q23 -25 23 -55q0 -34 -22 -56t-58 -22zM462 733q-34 0 -56 22q-23 23 -23 56q0 32 23 55t56 23q35 0 57 -23q23 -25 23 -55q0 -34 -22 -56t-58 -22zM707 0h-147l-58 143h-296l-59 -143h-147l290 670
h127zM451 266l-97 239l-98 -239h195z" />
    <glyph glyph-name="Aring" unicode="&#xc5;" horiz-adv-x="707" 
d="M354 715q-48 0 -84 34q-35 33 -35 81q0 49 35 82q34 33 84 33t85 -33q34 -33 34 -82q0 -48 -34 -81q-36 -34 -85 -34zM354 870q-19 0 -30 -11q-12 -12 -12 -29q0 -16 12 -28t30 -12t30 12t12 28q0 17 -12 29q-11 11 -30 11zM707 0h-147l-58 143h-296l-59 -143h-147
l290 670h127zM451 266l-97 239l-98 -239h195z" />
    <glyph glyph-name="AE" unicode="&#xc6;" horiz-adv-x="1041" 
d="M996 123v-123h-509v123h-251l-79 -123h-157l450 670h544v-123h-371v-151h342v-121h-342v-152h373zM487 246v270l-173 -270h173z" />
    <glyph glyph-name="Ccedilla" unicode="&#xc7;" horiz-adv-x="762" 
d="M392 112q75 0 127 42q53 42 71 126l132 -27q-22 -117 -102 -186q-80 -70 -192 -80l-49 -147h-140l90 150q-126 23 -207 118q-82 97 -82 227q0 147 102 249q101 101 250 101q122 0 214 -69q90 -68 116 -189l-132 -37q-18 84 -71 125q-54 42 -127 42q-92 0 -153 -63
q-62 -64 -62 -159t63 -159t152 -64z" />
    <glyph glyph-name="Egrave" unicode="&#xc8;" horiz-adv-x="634" 
d="M282 738l-109 144h155l66 -144h-112zM579 123v-123h-509v670h507v-123h-371v-151h342v-121h-342v-152h373z" />
    <glyph glyph-name="Eacute" unicode="&#xc9;" horiz-adv-x="634" 
d="M400 738h-112l66 144h155zM579 123v-123h-509v670h507v-123h-371v-151h342v-121h-342v-152h373z" />
    <glyph glyph-name="Ecircumflex" unicode="&#xca;" horiz-adv-x="634" 
d="M295 729h-130l113 149h125l115 -149h-132l-45 62zM579 123v-123h-509v670h507v-123h-371v-151h342v-121h-342v-152h373z" />
    <glyph glyph-name="Edieresis" unicode="&#xcb;" horiz-adv-x="634" 
d="M232 733q-34 0 -56 22q-23 23 -23 56q0 32 23 55t56 23q35 0 57 -23q23 -25 23 -55q0 -34 -22 -56t-58 -22zM448 733q-34 0 -56 22q-23 23 -23 56q0 32 23 55t56 23q35 0 57 -23q23 -25 23 -55q0 -34 -22 -56t-58 -22zM579 123v-123h-509v670h507v-123h-371v-151h342
v-121h-342v-152h373z" />
    <glyph glyph-name="Igrave" unicode="&#xcc;" horiz-adv-x="456" 
d="M170 738l-109 144h155l66 -144h-112zM296 547v-424h140v-123h-416v123h140v424h-140v123h416v-123h-140z" />
    <glyph glyph-name="Iacute" unicode="&#xcd;" horiz-adv-x="456" 
d="M288 738h-112l66 144h155zM296 547v-424h140v-123h-416v123h140v424h-140v123h416v-123h-140z" />
    <glyph glyph-name="Icircumflex" unicode="&#xce;" horiz-adv-x="456" 
d="M183 729h-130l113 149h125l115 -149h-132l-45 62zM296 547v-424h140v-123h-416v123h140v424h-140v123h416v-123h-140z" />
    <glyph glyph-name="Idieresis" unicode="&#xcf;" horiz-adv-x="456" 
d="M120 733q-34 0 -56 22q-23 23 -23 56q0 32 23 55t56 23q35 0 57 -23q23 -25 23 -55q0 -34 -22 -56t-58 -22zM336 733q-34 0 -56 22q-23 23 -23 56q0 32 23 55t56 23q35 0 57 -23q23 -25 23 -55q0 -34 -22 -56t-58 -22zM296 547v-424h140v-123h-416v123h140v424h-140v123
h416v-123h-140z" />
    <glyph glyph-name="Eth" unicode="&#xd0;" horiz-adv-x="735" 
d="M90 670h247q168 0 267 -92q101 -93 101 -243q0 -149 -101 -242q-100 -93 -267 -93h-247v275h-60v123h60v272zM226 123h111q104 0 168 58q63 57 63 154q0 98 -63 155t-168 57h-111v-149h132v-123h-132v-152z" />
    <glyph glyph-name="Ntilde" unicode="&#xd1;" horiz-adv-x="761" 
d="M336 792q-13 0 -20 -10q-8 -11 -8 -26h-87q0 71 32 101q31 30 75 30q38 0 70 -19q34 -20 52 -20q13 0 21 11q7 10 7 28h87q0 -72 -32 -102q-33 -31 -75 -31q-38 0 -70 19t-52 19zM691 670v-670h-114l-371 430v-430h-136v670h114l371 -442v442h136z" />
    <glyph glyph-name="Ograve" unicode="&#xd2;" horiz-adv-x="786" 
d="M335 738l-109 144h155l66 -144h-112zM393 685q149 0 251 -102t102 -249q0 -145 -102 -247t-251 -102q-148 0 -250 102q-103 103 -103 247q0 146 103 249q102 102 250 102zM393 113q91 0 154 63q62 62 62 158t-62 159q-63 64 -154 64q-90 0 -153 -64q-63 -65 -63 -159
q0 -95 63 -158t153 -63z" />
    <glyph glyph-name="Oacute" unicode="&#xd3;" horiz-adv-x="786" 
d="M453 738h-112l66 144h155zM393 685q149 0 251 -102t102 -249q0 -145 -102 -247t-251 -102q-148 0 -250 102q-103 103 -103 247q0 146 103 249q102 102 250 102zM393 113q91 0 154 63q62 62 62 158t-62 159q-63 64 -154 64q-90 0 -153 -64q-63 -65 -63 -159q0 -95 63 -158
t153 -63z" />
    <glyph glyph-name="Ocircumflex" unicode="&#xd4;" horiz-adv-x="786" 
d="M348 729h-130l113 149h125l115 -149h-132l-45 62zM393 685q149 0 251 -102t102 -249q0 -145 -102 -247t-251 -102q-148 0 -250 102q-103 103 -103 247q0 146 103 249q102 102 250 102zM393 113q91 0 154 63q62 62 62 158t-62 159q-63 64 -154 64q-90 0 -153 -64
q-63 -65 -63 -159q0 -95 63 -158t153 -63z" />
    <glyph glyph-name="Otilde" unicode="&#xd5;" horiz-adv-x="786" 
d="M343 792q-13 0 -20 -10q-8 -11 -8 -26h-87q0 71 32 101t75 30q38 0 70 -19q34 -20 52 -20q13 0 21 11q7 10 7 28h87q0 -72 -32 -102q-33 -31 -75 -31q-38 0 -70 19t-52 19zM393 685q149 0 251 -102t102 -249q0 -145 -102 -247t-251 -102q-148 0 -250 102
q-103 103 -103 247q0 146 103 249q102 102 250 102zM393 113q91 0 154 63q62 62 62 158t-62 159q-63 64 -154 64q-90 0 -153 -64q-63 -65 -63 -159q0 -95 63 -158t153 -63z" />
    <glyph glyph-name="Odieresis" unicode="&#xd6;" horiz-adv-x="786" 
d="M285 733q-34 0 -56 22q-23 23 -23 56q0 32 23 55t56 23q35 0 57 -23q23 -25 23 -55q0 -34 -22 -56t-58 -22zM501 733q-34 0 -56 22q-23 23 -23 56q0 32 23 55t56 23q35 0 57 -23q23 -25 23 -55q0 -34 -22 -56t-58 -22zM393 685q149 0 251 -102t102 -249q0 -145 -102 -247
t-251 -102q-148 0 -250 102q-103 103 -103 247q0 146 103 249q102 102 250 102zM393 113q91 0 154 63q62 62 62 158t-62 159q-63 64 -154 64q-90 0 -153 -64q-63 -65 -63 -159q0 -95 63 -158t153 -63z" />
    <glyph glyph-name="multiply" unicode="&#xd7;" horiz-adv-x="528" 
d="M348 305l134 -134l-83 -84l-135 135l-135 -135l-83 84l134 134l-134 134l83 84l135 -135l135 135l83 -84z" />
    <glyph glyph-name="Oslash" unicode="&#xd8;" horiz-adv-x="786" 
d="M740 594l-57 -57q63 -92 63 -203q0 -145 -102 -247t-251 -102q-113 0 -201 61l-68 -68l-78 78l65 65q-71 94 -71 213q0 146 103 249q102 102 250 102q119 0 213 -69l56 56zM177 334q0 -63 30 -117l305 305q-55 35 -119 35q-90 0 -153 -64q-63 -65 -63 -159zM393 113
q91 0 154 63q62 62 62 158q0 56 -24 105l-299 -299q50 -27 107 -27z" />
    <glyph glyph-name="Ugrave" unicode="&#xd9;" horiz-adv-x="711" 
d="M297 738l-109 144h155l66 -144h-112zM647 670v-370q0 -142 -79 -228q-80 -87 -209 -87q-133 0 -214 87t-81 228v370h136v-370q0 -82 44 -134q44 -51 115 -51q68 0 110 51t42 134v370h136z" />
    <glyph glyph-name="Uacute" unicode="&#xda;" horiz-adv-x="711" 
d="M415 738h-112l66 144h155zM647 670v-370q0 -142 -79 -228q-80 -87 -209 -87q-133 0 -214 87t-81 228v370h136v-370q0 -82 44 -134q44 -51 115 -51q68 0 110 51t42 134v370h136z" />
    <glyph glyph-name="Ucircumflex" unicode="&#xdb;" horiz-adv-x="711" 
d="M310 729h-130l113 149h125l115 -149h-132l-45 62zM647 670v-370q0 -142 -79 -228q-80 -87 -209 -87q-133 0 -214 87t-81 228v370h136v-370q0 -82 44 -134q44 -51 115 -51q68 0 110 51t42 134v370h136z" />
    <glyph glyph-name="Udieresis" unicode="&#xdc;" horiz-adv-x="711" 
d="M247 733q-34 0 -56 22q-23 23 -23 56q0 32 23 55t56 23q35 0 57 -23q23 -25 23 -55q0 -34 -22 -56t-58 -22zM463 733q-34 0 -56 22q-23 23 -23 56q0 32 23 55t56 23q35 0 57 -23q23 -25 23 -55q0 -34 -22 -56t-58 -22zM647 670v-370q0 -142 -79 -228q-80 -87 -209 -87
q-133 0 -214 87t-81 228v370h136v-370q0 -82 44 -134q44 -51 115 -51q68 0 110 51t42 134v370h136z" />
    <glyph glyph-name="Yacute" unicode="&#xdd;" horiz-adv-x="691" 
d="M405 738h-112l66 144h155zM411 214v-214h-136v212l-265 458h150l183 -316l182 316h156z" />
    <glyph glyph-name="Thorn" unicode="&#xde;" horiz-adv-x="650" 
d="M206 561h164q107 0 174 -62q66 -62 66 -164q0 -100 -66 -163t-174 -63h-164v-109h-136v670h136v-109zM206 232h157q51 0 82 29q30 29 30 74q0 47 -30 75q-29 28 -82 28h-157v-206z" />
    <glyph glyph-name="germandbls" unicode="&#xdf;" horiz-adv-x="659" 
d="M503 386q121 -40 121 -181q0 -91 -61 -151t-159 -60q-69 0 -137 13l15 109q69 -12 111 -12q51 0 86 30q34 30 34 71q0 55 -42 85q-41 29 -121 29h-39v108h19q54 0 88 25q33 24 33 64q0 49 -31 77q-32 29 -82 29q-61 0 -98 -38q-38 -40 -38 -105v-479h-132v469
q0 120 74 194t194 74q107 0 172 -59q66 -60 66 -148q0 -105 -73 -144z" />
    <glyph glyph-name="agrave" unicode="&#xe0;" horiz-adv-x="546" 
d="M220 567l-109 144h155l66 -144h-112zM279 514q102 0 160 -49q59 -50 59 -139v-326h-126v41q-59 -56 -152 -56q-86 0 -138 45t-52 118t53 117q52 43 145 43h144v8q0 39 -23 61q-25 23 -62 23q-89 0 -104 -73l-126 25q13 72 76 118q60 44 146 44zM241 90q53 0 92 33t39 79
v6h-146q-30 0 -50 -15t-20 -42t24 -44q25 -17 61 -17z" />
    <glyph glyph-name="aacute" unicode="&#xe1;" horiz-adv-x="546" 
d="M338 567h-112l66 144h155zM279 514q102 0 160 -49q59 -50 59 -139v-326h-126v41q-59 -56 -152 -56q-86 0 -138 45t-52 118t53 117q52 43 145 43h144v8q0 39 -23 61q-25 23 -62 23q-89 0 -104 -73l-126 25q13 72 76 118q60 44 146 44zM241 90q53 0 92 33t39 79v6h-146
q-30 0 -50 -15t-20 -42t24 -44q25 -17 61 -17z" />
    <glyph glyph-name="acircumflex" unicode="&#xe2;" horiz-adv-x="546" 
d="M233 558h-130l113 149h125l115 -149h-132l-45 62zM279 514q102 0 160 -49q59 -50 59 -139v-326h-126v41q-59 -56 -152 -56q-86 0 -138 45t-52 118t53 117q52 43 145 43h144v8q0 39 -23 61q-25 23 -62 23q-89 0 -104 -73l-126 25q13 72 76 118q60 44 146 44zM241 90
q53 0 92 33t39 79v6h-146q-30 0 -50 -15t-20 -42t24 -44q25 -17 61 -17z" />
    <glyph glyph-name="atilde" unicode="&#xe3;" horiz-adv-x="546" 
d="M228 621q-13 0 -20 -10q-8 -11 -8 -26h-87q0 71 32 101q31 30 75 30q38 0 70 -19q34 -20 52 -20q14 0 21 12q7 11 7 27h87q0 -72 -32 -102q-33 -31 -75 -31q-38 0 -70 19t-52 19zM279 514q102 0 160 -49q59 -50 59 -139v-326h-126v41q-59 -56 -152 -56q-86 0 -138 45
t-52 118t53 117q52 43 145 43h144v8q0 39 -23 61q-25 23 -62 23q-89 0 -104 -73l-126 25q13 72 76 118q60 44 146 44zM241 90q53 0 92 33t39 79v6h-146q-30 0 -50 -15t-20 -42t24 -44q25 -17 61 -17z" />
    <glyph glyph-name="adieresis" unicode="&#xe4;" horiz-adv-x="546" 
d="M170 562q-34 0 -56 22q-23 23 -23 56q0 32 23 55t56 23q35 0 57 -23q23 -25 23 -55q0 -34 -22 -56t-58 -22zM386 562q-34 0 -56 22q-23 23 -23 56q0 32 23 55t56 23q35 0 57 -23q23 -25 23 -55q0 -34 -22 -56t-58 -22zM279 514q102 0 160 -49q59 -50 59 -139v-326h-126
v41q-59 -56 -152 -56q-86 0 -138 45t-52 118t53 117q52 43 145 43h144v8q0 39 -23 61q-25 23 -62 23q-89 0 -104 -73l-126 25q13 72 76 118q60 44 146 44zM241 90q53 0 92 33t39 79v6h-146q-30 0 -50 -15t-20 -42t24 -44q25 -17 61 -17z" />
    <glyph glyph-name="aring" unicode="&#xe5;" horiz-adv-x="546" 
d="M278 544q-48 0 -84 34q-35 33 -35 81q0 49 35 82q34 33 84 33t85 -33q34 -33 34 -82q0 -48 -34 -81q-36 -34 -85 -34zM278 699q-19 0 -30 -11q-12 -12 -12 -29q0 -16 12 -28t30 -12t30 12t12 28q0 17 -12 29q-11 11 -30 11zM279 514q102 0 160 -49q59 -50 59 -139v-326
h-126v41q-59 -56 -152 -56q-86 0 -138 45t-52 118t53 117q52 43 145 43h144v8q0 39 -23 61q-25 23 -62 23q-89 0 -104 -73l-126 25q13 72 76 118q60 44 146 44zM241 90q53 0 92 33t39 79v6h-146q-30 0 -50 -15t-20 -42t24 -44q25 -17 61 -17z" />
    <glyph glyph-name="ae" unicode="&#xe6;" horiz-adv-x="901" 
d="M871 204h-378q27 -106 130 -106q80 0 116 65l118 -25q-21 -69 -86 -111t-151 -42q-118 0 -194 82q-78 -82 -205 -82q-90 0 -141 46q-50 45 -50 114q0 71 54 112q53 40 148 40h140v19q0 41 -26 64q-27 24 -70 24q-39 0 -65 -20q-27 -20 -31 -56l-121 25q9 71 69 116
t150 45q110 0 170 -62q74 62 168 62q105 0 181 -74q74 -73 74 -191v-45zM492 297h246q-10 52 -43 80q-30 26 -74 26q-45 0 -82 -28q-38 -29 -47 -78zM372 204h-140q-38 0 -56 -14q-20 -15 -20 -40q0 -26 23 -43t58 -17q53 0 94 31t41 71v12z" />
    <glyph glyph-name="ccedilla" unicode="&#xe7;" horiz-adv-x="577" 
d="M297 106q97 0 128 97l122 -31q-18 -73 -72 -121q-55 -49 -131 -62l-49 -149h-140l90 150q-93 16 -154 88t-61 171q0 116 78 191q77 74 189 74q89 0 157 -50q67 -49 93 -134l-127 -36q-26 99 -123 99q-61 0 -100 -40q-39 -41 -39 -104q0 -64 39 -103q40 -40 100 -40z" />
    <glyph glyph-name="egrave" unicode="&#xe8;" horiz-adv-x="571" 
d="M232 567l-109 144h155l66 -144h-112zM541 259v-45h-380q11 -52 45 -84q35 -32 80 -32q85 0 124 66l118 -25q-31 -75 -95 -115q-63 -39 -147 -39q-108 0 -182 74t-74 190t75 191q74 74 183 74q104 0 176 -71t77 -184zM288 399q-40 0 -76 -24t-47 -68h241q-12 46 -44 69
t-74 23z" />
    <glyph glyph-name="eacute" unicode="&#xe9;" horiz-adv-x="571" 
d="M350 567h-112l66 144h155zM541 259v-45h-380q11 -52 45 -84q35 -32 80 -32q85 0 124 66l118 -25q-31 -75 -95 -115q-63 -39 -147 -39q-108 0 -182 74t-74 190t75 191q74 74 183 74q104 0 176 -71t77 -184zM288 399q-40 0 -76 -24t-47 -68h241q-12 46 -44 69t-74 23z" />
    <glyph glyph-name="ecircumflex" unicode="&#xea;" horiz-adv-x="571" 
d="M245 558h-130l113 149h125l115 -149h-132l-45 62zM541 259v-45h-380q11 -52 45 -84q35 -32 80 -32q85 0 124 66l118 -25q-31 -75 -95 -115q-63 -39 -147 -39q-108 0 -182 74t-74 190t75 191q74 74 183 74q104 0 176 -71t77 -184zM288 399q-40 0 -76 -24t-47 -68h241
q-12 46 -44 69t-74 23z" />
    <glyph glyph-name="edieresis" unicode="&#xeb;" horiz-adv-x="571" 
d="M182 562q-34 0 -56 22q-23 23 -23 56q0 32 23 55t56 23q35 0 57 -23q23 -25 23 -55q0 -34 -22 -56t-58 -22zM398 562q-34 0 -56 22q-23 23 -23 56q0 32 23 55t56 23q35 0 57 -23q23 -25 23 -55q0 -34 -22 -56t-58 -22zM541 259v-45h-380q11 -52 45 -84q35 -32 80 -32
q85 0 124 66l118 -25q-31 -75 -95 -115q-63 -39 -147 -39q-108 0 -182 74t-74 190t75 191q74 74 183 74q104 0 176 -71t77 -184zM288 399q-40 0 -76 -24t-47 -68h241q-12 46 -44 69t-74 23z" />
    <glyph glyph-name="igrave" unicode="&#xec;" horiz-adv-x="296" 
d="M136 711l66 -144h-112l-109 144h155zM214 0h-132v499h132v-499z" />
    <glyph glyph-name="iacute" unicode="&#xed;" horiz-adv-x="296" 
d="M208 567h-112l66 144h155zM214 0h-132v499h132v-499z" />
    <glyph glyph-name="icircumflex" unicode="&#xee;" horiz-adv-x="296" 
d="M103 558h-130l113 149h125l115 -149h-132l-45 62zM82 499h132v-499h-132v499z" />
    <glyph glyph-name="idieresis" unicode="&#xef;" horiz-adv-x="296" 
d="M40 718q35 0 57 -23q23 -25 23 -55q0 -34 -22 -56t-58 -22q-34 0 -56 22q-23 23 -23 56q0 32 23 55t56 23zM256 718q35 0 57 -23q23 -25 23 -55q0 -34 -22 -56t-58 -22q-34 0 -56 22q-23 23 -23 56q0 32 23 55t56 23zM214 0h-132v499h132v-499z" />
    <glyph glyph-name="eth" unicode="&#xf0;" horiz-adv-x="604" 
d="M467 639l-62 -25q74 -77 121 -170q48 -94 48 -192q0 -67 -23 -117q-25 -54 -62 -84q-42 -34 -86 -49q-49 -17 -98 -17q-112 0 -194 74q-81 73 -81 190t71 191t179 74q35 0 67 -13q-24 35 -60 67l-137 -55l-37 91l79 32q-56 32 -127 57v27h207q15 -8 50 -32l108 43z
M304 100q65 0 102 46t37 106q0 64 -41 105t-99 41q-64 0 -104 -41q-41 -43 -41 -108q0 -64 44 -106q45 -43 102 -43z" />
    <glyph glyph-name="ntilde" unicode="&#xf1;" horiz-adv-x="616" 
d="M263 621q-13 0 -20 -10q-8 -11 -8 -26h-87q0 71 32 101t75 30q38 0 70 -19q34 -20 52 -20q13 0 21 12q7 11 7 27h87q0 -72 -32 -102q-33 -31 -75 -31q-38 0 -70 19t-52 19zM359 514q90 0 145 -58t55 -152v-304h-132v276q0 53 -27 85t-74 32q-124 0 -124 -172v-221h-132
v499h132v-45q60 60 157 60z" />
    <glyph glyph-name="ograve" unicode="&#xf2;" horiz-adv-x="601" 
d="M244 567l-109 144h155l66 -144h-112zM302 511q114 0 191 -73q78 -74 78 -189t-78 -188q-79 -74 -191 -74q-113 0 -193 74q-79 73 -79 188q0 116 79 189t193 73zM302 100q54 0 98 42q43 42 43 107q0 66 -43 108q-42 41 -98 41t-100 -41t-44 -108t44 -108t100 -41z" />
    <glyph glyph-name="oacute" unicode="&#xf3;" horiz-adv-x="601" 
d="M362 567h-112l66 144h155zM302 511q114 0 191 -73q78 -74 78 -189t-78 -188q-79 -74 -191 -74q-113 0 -193 74q-79 73 -79 188q0 116 79 189t193 73zM302 100q54 0 98 42q43 42 43 107q0 66 -43 108q-42 41 -98 41t-100 -41t-44 -108t44 -108t100 -41z" />
    <glyph glyph-name="ocircumflex" unicode="&#xf4;" horiz-adv-x="601" 
d="M257 558h-130l113 149h125l115 -149h-132l-45 62zM302 511q114 0 191 -73q78 -74 78 -189t-78 -188q-79 -74 -191 -74q-113 0 -193 74q-79 73 -79 188q0 116 79 189t193 73zM302 100q54 0 98 42q43 42 43 107q0 66 -43 108q-42 41 -98 41t-100 -41t-44 -108t44 -108
t100 -41z" />
    <glyph glyph-name="otilde" unicode="&#xf5;" horiz-adv-x="601" 
d="M252 621q-13 0 -20 -10q-8 -11 -8 -26h-87q0 71 32 101q31 30 75 30q38 0 70 -19q34 -20 52 -20q14 0 21 12q7 11 7 27h87q0 -72 -32 -102q-33 -31 -75 -31q-38 0 -70 19t-52 19zM302 511q114 0 191 -73q78 -74 78 -189t-78 -188q-79 -74 -191 -74q-113 0 -193 74
q-79 73 -79 188q0 116 79 189t193 73zM302 100q54 0 98 42q43 42 43 107q0 66 -43 108q-42 41 -98 41t-100 -41t-44 -108t44 -108t100 -41z" />
    <glyph glyph-name="odieresis" unicode="&#xf6;" horiz-adv-x="601" 
d="M194 562q-34 0 -56 22q-23 23 -23 56q0 32 23 55t56 23q35 0 57 -23q23 -25 23 -55q0 -34 -22 -56t-58 -22zM410 562q-34 0 -56 22q-23 23 -23 56q0 32 23 55t56 23q35 0 57 -23q23 -25 23 -55q0 -34 -22 -56t-58 -22zM302 511q114 0 191 -73q78 -74 78 -189t-78 -188
q-79 -74 -191 -74q-113 0 -193 74q-79 73 -79 188q0 116 79 189t193 73zM302 100q54 0 98 42q43 42 43 107q0 66 -43 108q-42 41 -98 41t-100 -41t-44 -108t44 -108t100 -41z" />
    <glyph glyph-name="divide" unicode="&#xf7;" horiz-adv-x="580" 
d="M285 557q34 0 57 -23q22 -22 22 -54t-22 -54t-57 -22q-34 0 -56 22q-23 23 -23 54t23 54t56 23zM520 247h-460v116h460v-116zM285 207q34 0 57 -23q22 -22 22 -54t-22 -54t-57 -22q-34 0 -56 22q-23 23 -23 54t23 54t56 23z" />
    <glyph glyph-name="oslash" unicode="&#xf8;" horiz-adv-x="601" 
d="M568 453l-47 -47q50 -68 50 -157q0 -115 -78 -188q-79 -74 -191 -74q-86 0 -156 44l-48 -48l-64 64l46 46q-50 68 -50 156q0 116 79 189t193 73q84 0 152 -44l50 50zM158 249q0 -35 13 -65l197 197q-32 17 -66 17q-56 0 -100 -41t-44 -108zM302 100q54 0 98 42
q43 42 43 107q0 35 -13 65l-197 -196q31 -18 69 -18z" />
    <glyph glyph-name="ugrave" unicode="&#xf9;" horiz-adv-x="616" 
d="M247 567l-109 144h155l66 -144h-112zM546 499v-499h-132v45q-60 -60 -157 -60q-89 0 -145 59q-55 58 -55 151v304h132v-276q0 -52 28 -85q27 -32 73 -32q124 0 124 172v221h132z" />
    <glyph glyph-name="uacute" unicode="&#xfa;" horiz-adv-x="616" 
d="M365 567h-112l66 144h155zM546 499v-499h-132v45q-60 -60 -157 -60q-89 0 -145 59q-55 58 -55 151v304h132v-276q0 -52 28 -85q27 -32 73 -32q124 0 124 172v221h132z" />
    <glyph glyph-name="ucircumflex" unicode="&#xfb;" horiz-adv-x="616" 
d="M260 558h-130l113 149h125l115 -149h-132l-45 62zM546 499v-499h-132v45q-60 -60 -157 -60q-89 0 -145 59q-55 58 -55 151v304h132v-276q0 -52 28 -85q27 -32 73 -32q124 0 124 172v221h132z" />
    <glyph glyph-name="udieresis" unicode="&#xfc;" horiz-adv-x="616" 
d="M197 562q-34 0 -56 22q-23 23 -23 56q0 32 23 55t56 23q35 0 57 -23q23 -25 23 -55q0 -34 -22 -56t-58 -22zM413 562q-34 0 -56 22q-23 23 -23 56q0 32 23 55t56 23q35 0 57 -23q23 -25 23 -55q0 -34 -22 -56t-58 -22zM546 499v-499h-132v45q-60 -60 -157 -60
q-89 0 -145 59q-55 58 -55 151v304h132v-276q0 -52 28 -85q27 -32 73 -32q124 0 124 172v221h132z" />
    <glyph glyph-name="yacute" unicode="&#xfd;" horiz-adv-x="584" 
d="M356 567h-112l66 144h155zM574 500l-320 -740h-147l110 255l-207 485h147l132 -320l138 320h147z" />
    <glyph glyph-name="thorn" unicode="&#xfe;" horiz-adv-x="642" 
d="M367 514q99 0 172 -75q73 -74 73 -190q0 -115 -73 -189q-73 -75 -172 -75q-103 0 -165 58v-283h-132v960h132v-264q62 58 165 58zM344 100q62 0 101 41t39 108q0 69 -39 109q-39 41 -101 41q-56 0 -99 -42t-43 -108q0 -65 43 -107t99 -42z" />
    <glyph glyph-name="ydieresis" unicode="&#xff;" horiz-adv-x="584" 
d="M188 562q-34 0 -56 22q-23 23 -23 56q0 32 23 55t56 23q35 0 57 -23q23 -25 23 -55q0 -34 -22 -56t-58 -22zM404 562q-34 0 -56 22q-23 23 -23 56q0 32 23 55t56 23q35 0 57 -23q23 -25 23 -55q0 -34 -22 -56t-58 -22zM574 500l-320 -740h-147l110 255l-207 485h147
l132 -320l138 320h147z" />
    <glyph glyph-name="Amacron" unicode="&#x100;" horiz-adv-x="707" 
d="M513 743h-318v108h318v-108zM707 0h-147l-58 143h-296l-59 -143h-147l290 670h127zM451 266l-97 239l-98 -239h195z" />
    <glyph glyph-name="amacron" unicode="&#x101;" horiz-adv-x="546" 
d="M437 572h-318v108h318v-108zM279 514q102 0 160 -49q59 -50 59 -139v-326h-126v41q-59 -56 -152 -56q-86 0 -138 45t-52 118t53 117q52 43 145 43h144v8q0 39 -23 61q-25 23 -62 23q-89 0 -104 -73l-126 25q13 72 76 118q60 44 146 44zM241 90q53 0 92 33t39 79v6h-146
q-30 0 -50 -15t-20 -42t24 -44q25 -17 61 -17z" />
    <glyph glyph-name="Abreve" unicode="&#x102;" horiz-adv-x="707" 
d="M354 719q-76 0 -122 41q-45 40 -45 109h109q0 -25 17 -42t41 -17q25 0 42 17q16 16 16 42h109q0 -69 -45 -109q-46 -41 -122 -41zM707 0h-147l-58 143h-296l-59 -143h-147l290 670h127zM451 266l-97 239l-98 -239h195z" />
    <glyph glyph-name="abreve" unicode="&#x103;" horiz-adv-x="546" 
d="M278 548q-76 0 -122 41q-45 41 -45 109h109q0 -25 17 -42t41 -17q25 0 42 17q16 16 16 42h109q0 -68 -45 -109q-46 -41 -122 -41zM279 514q102 0 160 -49q59 -50 59 -139v-326h-126v41q-59 -56 -152 -56q-86 0 -138 45t-52 118t53 117q52 43 145 43h144v8q0 39 -23 61
q-25 23 -62 23q-89 0 -104 -73l-126 25q13 72 76 118q60 44 146 44zM241 90q53 0 92 33t39 79v6h-146q-30 0 -50 -15t-20 -42t24 -44q25 -17 61 -17z" />
    <glyph glyph-name="Aogonek" unicode="&#x104;" horiz-adv-x="707" 
d="M719 -109l6 -81q-45 -20 -86 -20q-38 0 -66 23q-27 23 -27 67q0 61 71 120h-57l-58 143h-296l-59 -143h-147l290 670h127l290 -670l-17 -20q-14 -16 -15 -17q-7 -7 -12 -13q-2 -2 -9 -13q-2 -3 -6 -11q-2 -4 -4 -10q-1 -3 -1 -11q0 -25 28 -25q12 0 48 11zM451 266
l-97 239l-98 -239h195z" />
    <glyph glyph-name="aogonek" unicode="&#x105;" horiz-adv-x="546" 
d="M510 -109l6 -81q-45 -20 -86 -20q-38 0 -66 23q-27 23 -27 67q0 61 71 120h-36v41q-59 -56 -152 -56q-86 0 -138 45t-52 118t53 117q52 43 145 43h144v8q0 39 -23 61q-25 23 -62 23q-89 0 -104 -73l-126 25q13 72 76 118q60 44 146 44q102 0 160 -49q59 -50 59 -139v-326
l-17 -20q-14 -16 -15 -17q-7 -7 -12 -13q-2 -2 -9 -13q-2 -3 -6 -11q-2 -4 -4 -10q-1 -3 -1 -11q0 -25 28 -25q12 0 48 11zM241 90q53 0 92 33t39 79v6h-146q-30 0 -50 -15t-20 -42t24 -44q25 -17 61 -17z" />
    <glyph glyph-name="Cacute" unicode="&#x106;" horiz-adv-x="762" 
d="M451 738h-112l66 144h155zM392 112q75 0 127 42q53 42 71 126l132 -27q-24 -127 -115 -197q-92 -71 -215 -71q-147 0 -250 101q-102 100 -102 249q0 147 102 249q101 101 250 101q122 0 214 -69q90 -68 116 -189l-132 -37q-18 84 -71 125q-54 42 -127 42q-92 0 -153 -63
q-62 -64 -62 -159t63 -159t152 -64z" />
    <glyph glyph-name="cacute" unicode="&#x107;" horiz-adv-x="577" 
d="M357 567h-112l66 144h155zM297 106q97 0 128 97l122 -31q-21 -85 -90 -136t-160 -51q-110 0 -189 74q-78 73 -78 190q0 116 78 191q77 74 189 74q89 0 157 -50q67 -49 93 -134l-127 -36q-26 99 -123 99q-61 0 -100 -40q-39 -41 -39 -104q0 -64 39 -103q40 -40 100 -40z
" />
    <glyph glyph-name="Cdot" unicode="&#x10a;" horiz-adv-x="762" 
d="M390 743q-33 0 -55 22t-22 54q0 31 22 53t55 22q34 0 56 -22t22 -53q0 -33 -22 -54q-24 -22 -56 -22zM392 112q75 0 127 42q53 42 71 126l132 -27q-24 -127 -115 -197q-92 -71 -215 -71q-147 0 -250 101q-102 100 -102 249q0 147 102 249q101 101 250 101q122 0 214 -69
q90 -68 116 -189l-132 -37q-18 84 -71 125q-54 42 -127 42q-92 0 -153 -63q-62 -64 -62 -159t63 -159t152 -64z" />
    <glyph glyph-name="cdot" unicode="&#x10b;" horiz-adv-x="577" 
d="M296 572q-33 0 -55 22t-22 54q0 31 22 53t55 22q34 0 56 -22t22 -53q0 -33 -22 -54q-24 -22 -56 -22zM297 106q97 0 128 97l122 -31q-21 -85 -90 -136t-160 -51q-110 0 -189 74q-78 73 -78 190q0 116 78 191q77 74 189 74q89 0 157 -50q67 -49 93 -134l-127 -36
q-26 99 -123 99q-61 0 -100 -40q-39 -41 -39 -104q0 -64 39 -103q40 -40 100 -40z" />
    <glyph glyph-name="Ccaron" unicode="&#x10c;" horiz-adv-x="762" 
d="M329 729l-113 149h130l46 -62l45 62h132l-115 -149h-125zM392 112q75 0 127 42q53 42 71 126l132 -27q-24 -127 -115 -197q-92 -71 -215 -71q-147 0 -250 101q-102 100 -102 249q0 147 102 249q101 101 250 101q122 0 214 -69q90 -68 116 -189l-132 -37q-18 84 -71 125
q-54 42 -127 42q-92 0 -153 -63q-62 -64 -62 -159t63 -159t152 -64z" />
    <glyph glyph-name="ccaron" unicode="&#x10d;" horiz-adv-x="577" 
d="M235 558l-113 149h130l46 -62l45 62h132l-115 -149h-125zM297 106q97 0 128 97l122 -31q-21 -85 -90 -136t-160 -51q-110 0 -189 74q-78 73 -78 190q0 116 78 191q77 74 189 74q89 0 157 -50q67 -49 93 -134l-127 -36q-26 99 -123 99q-61 0 -100 -40q-39 -41 -39 -104
q0 -64 39 -103q40 -40 100 -40z" />
    <glyph glyph-name="Dcaron" unicode="&#x10e;" horiz-adv-x="725" 
d="M291 729l-113 149h130l46 -62l45 62h132l-115 -149h-125zM70 670h247q168 0 267 -92q101 -93 101 -243q0 -149 -101 -242q-100 -93 -267 -93h-247v670zM206 123h111q104 0 168 58q63 57 63 154q0 98 -63 155t-168 57h-111v-424z" />
    <glyph glyph-name="dcaron" unicode="&#x10f;" horiz-adv-x="642" 
d="M440 770h132v-770h-132v43q-62 -58 -165 -58q-99 0 -172 75q-73 74 -73 189q0 114 74 190q74 75 171 75q103 0 165 -58v314zM762 770l-29 -199h-104v199h133zM298 100q56 0 99 42t43 107q0 66 -43 108t-99 42q-61 0 -100 -41q-40 -42 -40 -109q0 -66 40 -108
q39 -41 100 -41z" />
    <glyph glyph-name="Dcroat" unicode="&#x110;" horiz-adv-x="735" 
d="M90 670h247q168 0 267 -92q101 -93 101 -243q0 -149 -101 -242q-100 -93 -267 -93h-247v275h-60v123h60v272zM226 123h111q104 0 168 58q63 57 63 154q0 98 -63 155t-168 57h-111v-149h132v-123h-132v-152z" />
    <glyph glyph-name="dcroat" unicode="&#x111;" horiz-adv-x="676" 
d="M642 564h-70v-564h-132v43q-62 -58 -165 -58q-99 0 -172 75q-73 74 -73 189q0 114 74 190q74 75 171 75q103 0 165 -58v108h-136v106h136v100h132v-100h70v-106zM298 100q56 0 99 42t43 107q0 66 -43 108t-99 42q-61 0 -100 -41q-40 -42 -40 -109q0 -66 40 -108
q39 -41 100 -41z" />
    <glyph glyph-name="Emacron" unicode="&#x112;" horiz-adv-x="634" 
d="M499 743h-318v108h318v-108zM579 123v-123h-509v670h507v-123h-371v-151h342v-121h-342v-152h373z" />
    <glyph glyph-name="emacron" unicode="&#x113;" horiz-adv-x="571" 
d="M449 572h-318v108h318v-108zM541 259v-45h-380q11 -52 45 -84q35 -32 80 -32q85 0 124 66l118 -25q-31 -75 -95 -115q-63 -39 -147 -39q-108 0 -182 74t-74 190t75 191q74 74 183 74q104 0 176 -71t77 -184zM288 399q-40 0 -76 -24t-47 -68h241q-12 46 -44 69t-74 23z
" />
    <glyph glyph-name="Edot" unicode="&#x116;" horiz-adv-x="634" 
d="M339 743q-33 0 -55 22t-22 54q0 31 22 53t55 22q34 0 56 -22t22 -53q0 -33 -22 -54q-24 -22 -56 -22zM579 123v-123h-509v670h507v-123h-371v-151h342v-121h-342v-152h373z" />
    <glyph glyph-name="edot" unicode="&#x117;" horiz-adv-x="571" 
d="M289 572q-33 0 -55 22t-22 54q0 31 22 53t55 22q34 0 56 -22t22 -53q0 -33 -22 -54q-24 -22 -56 -22zM541 259v-45h-380q11 -52 45 -84q35 -32 80 -32q85 0 124 66l118 -25q-31 -75 -95 -115q-63 -39 -147 -39q-108 0 -182 74t-74 190t75 191q74 74 183 74q104 0 176 -71
t77 -184zM288 399q-40 0 -76 -24t-47 -68h241q-12 46 -44 69t-74 23z" />
    <glyph glyph-name="Eogonek" unicode="&#x118;" horiz-adv-x="634" 
d="M579 0h-21l-17 -20q-14 -16 -15 -17q-7 -7 -12 -13q-2 -2 -9 -13q-2 -3 -6 -11q-2 -4 -4 -10q-1 -3 -1 -11q0 -25 28 -25q12 0 48 11l6 -81q-45 -20 -86 -20q-38 0 -66 23q-27 23 -27 67q0 61 71 120h-398v670h507v-123h-371v-151h342v-121h-342v-152h373v-123z" />
    <glyph glyph-name="eogonek" unicode="&#x119;" horiz-adv-x="571" 
d="M541 214h-379q9 -53 43 -84q35 -32 80 -32q91 0 125 66l118 -25q-16 -32 -72 -88q-88 -85 -88 -141q0 -11 10 -21q9 -9 24 -9q12 0 48 11l6 -71q-44 -32 -89 -32q-46 0 -73 24q-28 25 -28 64q0 56 36 109h-16q-108 0 -182 74t-74 190q0 115 74 191q73 74 182 74
q106 0 181 -75q74 -74 74 -190v-35zM164 307h240q-18 92 -116 92q-41 0 -77 -24t-47 -68z" />
    <glyph glyph-name="Ecaron" unicode="&#x11a;" horiz-adv-x="634" 
d="M278 729l-113 149h130l46 -62l45 62h132l-115 -149h-125zM579 123v-123h-509v670h507v-123h-371v-151h342v-121h-342v-152h373z" />
    <glyph glyph-name="ecaron" unicode="&#x11b;" horiz-adv-x="571" 
d="M228 558l-113 149h130l46 -62l45 62h132l-115 -149h-125zM541 259v-45h-380q11 -52 45 -84q35 -32 80 -32q85 0 124 66l118 -25q-31 -75 -95 -115q-63 -39 -147 -39q-108 0 -182 74t-74 190t75 191q74 74 183 74q104 0 176 -71t77 -184zM288 399q-40 0 -76 -24t-47 -68
h241q-12 46 -44 69t-74 23z" />
    <glyph glyph-name="Gbreve" unicode="&#x11e;" horiz-adv-x="776" 
d="M399 719q-76 0 -122 41q-45 40 -45 109h109q0 -25 17 -42t41 -17q25 0 42 17q16 16 16 42h109q0 -69 -45 -109q-46 -41 -122 -41zM366 391h367q3 -35 3 -58q0 -150 -96 -249t-244 -99q-149 0 -253 101q-103 100 -103 249q0 147 102 249q101 101 250 101q111 0 199 -52
q89 -53 123 -150l-122 -43q-62 117 -200 117q-91 0 -152 -64q-62 -65 -62 -158q0 -95 64 -159t158 -64q76 0 130 42q55 43 71 113h-235v124z" />
    <glyph glyph-name="gbreve" unicode="&#x11f;" horiz-adv-x="642" 
d="M303 548q-76 0 -122 41q-45 41 -45 109h109q0 -25 17 -42t41 -17q25 0 42 17q16 16 16 42h109q0 -68 -45 -109q-46 -41 -122 -41zM572 499v-511q0 -112 -78 -175t-203 -63q-174 0 -243 110l107 91q31 -38 60 -55t76 -17q66 0 108 33q41 32 41 96v35q-62 -58 -165 -58
q-99 0 -172 75q-73 74 -73 189q0 114 74 190q74 75 171 75q103 0 165 -58v43h132zM298 100q56 0 99 42t43 107q0 66 -43 108t-99 42q-61 0 -100 -41q-40 -42 -40 -109q0 -66 40 -108q39 -41 100 -41z" />
    <glyph glyph-name="Gdot" unicode="&#x120;" horiz-adv-x="776" 
d="M398 743q-33 0 -55 22t-22 54q0 31 22 53t55 22q34 0 56 -22t22 -53q0 -33 -22 -54q-24 -22 -56 -22zM366 391h367q3 -35 3 -58q0 -150 -96 -249t-244 -99q-149 0 -253 101q-103 100 -103 249q0 147 102 249q101 101 250 101q111 0 199 -52q89 -53 123 -150l-122 -43
q-62 117 -200 117q-91 0 -152 -64q-62 -65 -62 -158q0 -95 64 -159t158 -64q76 0 130 42q55 43 71 113h-235v124z" />
    <glyph glyph-name="gdot" unicode="&#x121;" horiz-adv-x="642" 
d="M302 572q-33 0 -55 22t-22 54q0 31 22 53t55 22q34 0 56 -22t22 -53q0 -33 -22 -54q-24 -22 -56 -22zM572 499v-511q0 -112 -78 -175t-203 -63q-174 0 -243 110l107 91q31 -38 60 -55t76 -17q66 0 108 33q41 32 41 96v35q-62 -58 -165 -58q-99 0 -172 75q-73 74 -73 189
q0 114 74 190q74 75 171 75q103 0 165 -58v43h132zM298 100q56 0 99 42t43 107q0 66 -43 108t-99 42q-61 0 -100 -41q-40 -42 -40 -109q0 -66 40 -108q39 -41 100 -41z" />
    <glyph glyph-name="Gcedilla" unicode="&#x122;" horiz-adv-x="776" 
d="M366 391h367q3 -35 3 -58q0 -150 -96 -249t-244 -99q-149 0 -253 101q-103 100 -103 249q0 147 102 249q101 101 250 101q111 0 199 -52q89 -53 123 -150l-122 -43q-62 117 -200 117q-91 0 -152 -64q-62 -65 -62 -158q0 -95 64 -159t158 -64q76 0 130 42q55 43 71 113
h-235v124zM320 -45h143l-97 -150h-99z" />
    <glyph glyph-name="gcedilla" unicode="&#x123;" horiz-adv-x="631" 
d="M393 564h-143l97 150h99zM572 499v-511q0 -112 -78 -175t-203 -63q-174 0 -243 110l107 91q31 -38 60 -55t76 -17q66 0 108 33q41 32 41 96v35q-62 -58 -165 -58q-99 0 -172 75q-73 74 -73 189q0 114 74 190q74 75 171 75q103 0 165 -58v43h132zM298 100q56 0 99 42
t43 107q0 66 -43 108t-99 42q-61 0 -100 -41q-40 -42 -40 -109q0 -66 40 -108q39 -41 100 -41z" />
    <glyph glyph-name="Hbar" unicode="&#x126;" horiz-adv-x="772" 
d="M738 445h-62v-445h-136v235h-312v-235h-136v445h-62v113h62v112h136v-112h312v112h136v-112h62v-113zM540 445h-312v-87h312v87z" />
    <glyph glyph-name="hbar" unicode="&#x127;" horiz-adv-x="637" 
d="M379 514q90 0 145 -58t55 -152v-304h-132v276q0 53 -27 85t-74 32q-124 0 -124 -172v-221h-132v562h-60v96h60v112h132v-112h146v-96h-146v-108q60 60 157 60z" />
    <glyph glyph-name="Imacron" unicode="&#x12a;" horiz-adv-x="456" 
d="M387 743h-318v108h318v-108zM296 547v-424h140v-123h-416v123h140v424h-140v123h416v-123h-140z" />
    <glyph glyph-name="imacron" unicode="&#x12b;" horiz-adv-x="296" 
d="M307 572h-318v108h318v-108zM214 0h-132v499h132v-499z" />
    <glyph glyph-name="Iogonek" unicode="&#x12e;" horiz-adv-x="456" 
d="M296 547v-424h140v-123h-140l-17 -20q-14 -16 -15 -17q-7 -7 -12 -13q-2 -2 -9 -13q-2 -3 -6 -11q-2 -4 -4 -10q-1 -3 -1 -11q0 -25 28 -25q12 0 48 11l6 -81q-45 -20 -86 -20q-38 0 -66 23q-27 23 -27 67q0 61 71 120h-186v123h140v424h-140v123h416v-123h-140z" />
    <glyph glyph-name="iogonek" unicode="&#x12f;" horiz-adv-x="296" 
d="M147 572q-33 0 -55 22t-22 54q0 31 22 53t55 22q34 0 56 -22t22 -53q0 -33 -22 -54q-24 -22 -56 -22zM226 -109l6 -81q-45 -20 -86 -20q-38 0 -66 23q-27 23 -27 67q0 61 71 120h-42v499h132v-499l-17 -20q-14 -16 -15 -17q-7 -7 -12 -13q-2 -2 -9 -13q-2 -3 -6 -11
q-2 -4 -4 -10q-1 -3 -1 -11q0 -25 28 -25q12 0 48 11z" />
    <glyph glyph-name="Idot" unicode="&#x130;" horiz-adv-x="456" 
d="M227 743q-33 0 -55 22t-22 54q0 31 22 53t55 22q34 0 56 -22t22 -53q0 -33 -22 -54q-24 -22 -56 -22zM296 547v-424h140v-123h-416v123h140v424h-140v123h416v-123h-140z" />
    <glyph glyph-name="dotlessi" unicode="&#x131;" horiz-adv-x="296" 
d="M214 0h-132v499h132v-499z" />
    <glyph glyph-name="IJ" unicode="&#x132;" horiz-adv-x="1052" 
d="M436 670v-123h-140v-424h140v-123h-416v123h140v424h-140v123h416zM988 670v-433q0 -111 -72 -181q-73 -71 -188 -71q-106 0 -173 60t-84 159l129 26q7 -55 40 -89t88 -34q56 0 90 37t34 93v310h-206v123h342z" />
    <glyph glyph-name="ij" unicode="&#x133;" horiz-adv-x="583" 
d="M143 727q35 0 57 -23q23 -25 23 -56q0 -32 -23 -55q-22 -22 -57 -22t-57 22q-23 23 -23 55q0 31 23 56q22 23 57 23zM440 727q35 0 57 -23q23 -25 23 -56q0 -32 -23 -55q-22 -22 -57 -22t-57 22q-23 23 -23 55q0 31 23 56q22 23 57 23zM209 0h-132v499h132v-499z
M260 -231l24 115q27 -10 45 -10q20 0 34 11q13 10 13 28v586h132v-604q0 -65 -40 -105t-106 -40q-52 0 -102 19z" />
    <glyph glyph-name="Kcedilla" unicode="&#x136;" horiz-adv-x="709" 
d="M709 0h-168l-197 280l-138 -162v-118h-136v670h136v-374l316 374h155l-243 -285zM303 -45h143l-97 -150h-99z" />
    <glyph glyph-name="kcedilla" unicode="&#x137;" horiz-adv-x="617" 
d="M617 0h-166l-166 189l-83 -92v-97h-132v770h132v-497l210 226h154l-194 -215zM259 -45h143l-97 -150h-99z" />
    <glyph glyph-name="Lacute" unicode="&#x139;" horiz-adv-x="592" 
d="M196 738h-112l66 144h155zM552 123v-123h-482v670h136v-547h346z" />
    <glyph glyph-name="lacute" unicode="&#x13a;" horiz-adv-x="329" 
d="M183 838h-112l66 144h155zM192 770v-612q0 -22 16 -35q17 -14 41 -14q23 0 62 14l23 -111q-58 -27 -108 -27q-74 0 -120 46t-46 119v620h132z" />
    <glyph glyph-name="Lcedilla" unicode="&#x13b;" horiz-adv-x="592" 
d="M552 123v-123h-482v670h136v-547h346zM226 -45h143l-97 -150h-99z" />
    <glyph glyph-name="lcedilla" unicode="&#x13c;" horiz-adv-x="329" 
d="M192 770v-612q0 -22 16 -35q17 -14 41 -14q23 0 62 14l23 -111q-58 -27 -108 -27q-74 0 -120 46t-46 119v620h132zM76 -195l53 150h143l-97 -150h-99z" />
    <glyph glyph-name="Lcaron" unicode="&#x13d;" horiz-adv-x="592" 
d="M552 123v-123h-482v670h136v-547h346zM402 471h-104v199h133z" />
    <glyph glyph-name="lcaron" unicode="&#x13e;" horiz-adv-x="329" 
d="M192 770v-612q0 -22 16 -35q17 -14 41 -14q23 0 62 14l23 -111q-58 -27 -108 -27q-74 0 -120 46t-46 119v620h132zM340 571h-104v199h133z" />
    <glyph glyph-name="Ldot" unicode="&#x13f;" horiz-adv-x="582" 
d="M552 123v-123h-482v670h136v-547h346zM408 276q-33 0 -55 22t-22 54q0 31 22 53t55 22q34 0 56 -22t22 -53q0 -33 -22 -54q-24 -22 -56 -22z" />
    <glyph glyph-name="ldot" unicode="&#x140;" horiz-adv-x="411" 
d="M202 770v-612q0 -22 16 -35q17 -14 41 -14q23 0 62 14l23 -111q-58 -27 -108 -27q-74 0 -120 46t-46 119v620h132zM328 427q34 0 56 -22t22 -53q0 -33 -22 -54q-24 -22 -56 -22q-33 0 -55 22t-22 54q0 31 22 53t55 22z" />
    <glyph glyph-name="Lslash" unicode="&#x141;" horiz-adv-x="602" 
d="M572 123v-123h-482v214l-60 -28v127l60 28v329h136v-265l124 58v-127l-124 -58v-155h346z" />
    <glyph glyph-name="lslash" unicode="&#x142;" horiz-adv-x="359" 
d="M341 123l23 -111q-58 -27 -108 -27q-74 0 -120 46t-46 119v90l-60 -34v127l60 34v403h132v-327l69 40v-127l-69 -40v-158q0 -22 16 -35q17 -14 41 -14q23 0 62 14z" />
    <glyph glyph-name="Nacute" unicode="&#x143;" horiz-adv-x="761" 
d="M446 738h-112l66 144h155zM691 670v-670h-114l-371 430v-430h-136v670h114l371 -442v442h136z" />
    <glyph glyph-name="nacute" unicode="&#x144;" horiz-adv-x="616" 
d="M373 567h-112l66 144h155zM359 514q90 0 145 -58t55 -152v-304h-132v276q0 53 -27 85t-74 32q-124 0 -124 -172v-221h-132v499h132v-45q60 60 157 60z" />
    <glyph glyph-name="Ncedilla" unicode="&#x145;" horiz-adv-x="761" 
d="M691 670v-670h-114l-371 430v-430h-136v670h114l371 -442v442h136zM331 -45h143l-97 -150h-99z" />
    <glyph glyph-name="ncedilla" unicode="&#x146;" horiz-adv-x="616" 
d="M359 514q90 0 145 -58t55 -152v-304h-132v276q0 53 -27 85t-74 32q-124 0 -124 -172v-221h-132v499h132v-45q60 60 157 60zM247 -45h143l-97 -150h-99z" />
    <glyph glyph-name="Ncaron" unicode="&#x147;" horiz-adv-x="761" 
d="M324 729l-113 149h130l46 -62l45 62h132l-115 -149h-125zM691 670v-670h-114l-371 430v-430h-136v670h114l371 -442v442h136z" />
    <glyph glyph-name="ncaron" unicode="&#x148;" horiz-adv-x="616" 
d="M251 558l-113 149h130l46 -62l45 62h132l-115 -149h-125zM359 514q90 0 145 -58t55 -152v-304h-132v276q0 53 -27 85t-74 32q-124 0 -124 -172v-221h-132v499h132v-45q60 60 157 60z" />
    <glyph glyph-name="Eng" unicode="&#x14a;" horiz-adv-x="741" 
d="M691 670v-766q0 -67 -40 -110q-41 -44 -106 -44q-57 0 -118 24l23 101q39 -11 62 -11q20 0 34 11q13 10 13 29v117l-353 409v-430h-136v670h114l371 -442v442h136z" />
    <glyph glyph-name="eng" unicode="&#x14b;" horiz-adv-x="617" 
d="M359 514q90 0 145 -58t55 -152v-400q0 -67 -40 -110q-41 -44 -106 -44q-61 0 -118 26l23 101q33 -13 62 -13q20 0 34 11q13 10 13 29v372q0 53 -27 85t-74 32q-124 0 -124 -172v-221h-132v499h132v-45q60 60 157 60z" />
    <glyph glyph-name="Omacron" unicode="&#x14c;" horiz-adv-x="786" 
d="M552 743h-318v108h318v-108zM393 685q149 0 251 -102t102 -249q0 -145 -102 -247t-251 -102q-148 0 -250 102q-103 103 -103 247q0 146 103 249q102 102 250 102zM393 113q91 0 154 63q62 62 62 158t-62 159q-63 64 -154 64q-90 0 -153 -64q-63 -65 -63 -159
q0 -95 63 -158t153 -63z" />
    <glyph glyph-name="omacron" unicode="&#x14d;" horiz-adv-x="601" 
d="M461 572h-318v108h318v-108zM302 511q114 0 191 -73q78 -74 78 -189t-78 -188q-79 -74 -191 -74q-113 0 -193 74q-79 73 -79 188q0 116 79 189t193 73zM302 100q54 0 98 42q43 42 43 107q0 66 -43 108q-42 41 -98 41t-100 -41t-44 -108t44 -108t100 -41z" />
    <glyph glyph-name="Odblacute" unicode="&#x150;" horiz-adv-x="786" 
d="M356 738h-118l66 144h163zM424 738l66 144h163l-111 -144h-118zM393 685q149 0 251 -102t102 -249q0 -145 -102 -247t-251 -102q-148 0 -250 102q-103 103 -103 247q0 146 103 249q102 102 250 102zM393 113q91 0 154 63q62 62 62 158t-62 159q-63 64 -154 64
q-90 0 -153 -64q-63 -65 -63 -159q0 -95 63 -158t153 -63z" />
    <glyph glyph-name="odblacute" unicode="&#x151;" horiz-adv-x="601" 
d="M265 567h-118l66 144h163zM333 567l66 144h163l-111 -144h-118zM302 511q114 0 191 -73q78 -74 78 -189t-78 -188q-79 -74 -191 -74q-113 0 -193 74q-79 73 -79 188q0 116 79 189t193 73zM302 100q54 0 98 42q43 42 43 107q0 66 -43 108q-42 41 -98 41t-100 -41t-44 -108
t44 -108t100 -41z" />
    <glyph glyph-name="OE" unicode="&#x152;" horiz-adv-x="1030" 
d="M975 123v-123h-557q-169 0 -273 94q-105 94 -105 241t105 241q104 94 273 94h555v-123h-371v-151h342v-121h-342v-152h373zM466 123v424h-48q-112 0 -176 -58q-65 -59 -65 -154t65 -154q64 -58 176 -58h48z" />
    <glyph glyph-name="oe" unicode="&#x153;" horiz-adv-x="984" 
d="M954 259v-45h-380q10 -52 45 -84t80 -32q85 0 124 66l118 -25q-31 -75 -95 -115q-63 -39 -147 -39q-121 0 -194 88q-78 -86 -203 -86q-113 0 -193 74q-79 73 -79 188q0 116 79 189t193 73q125 0 203 -86q75 89 196 89q104 0 176 -71t77 -184zM701 399q-40 0 -76 -24
t-47 -68h241q-12 46 -44 69t-74 23zM302 100q54 0 98 42q43 42 43 107q0 66 -43 108q-42 41 -98 41t-100 -41t-44 -108t44 -108t100 -41z" />
    <glyph glyph-name="Racute" unicode="&#x154;" horiz-adv-x="674" 
d="M395 738h-112l66 144h155zM664 0h-166l-221 246h-71v-246h-136v670h321q109 0 174 -58q66 -58 66 -154q0 -85 -52 -140q-53 -56 -140 -69zM206 369h185q46 0 76 25q29 24 29 64q0 41 -29 65q-28 24 -76 24h-185v-178z" />
    <glyph glyph-name="racute" unicode="&#x155;" horiz-adv-x="429" 
d="M287 567h-112l66 144h155zM381 506q24 0 35 -4l-7 -127h-29q-178 0 -178 -214v-161h-132v499h132v-91q68 98 179 98z" />
    <glyph glyph-name="Rcedilla" unicode="&#x156;" horiz-adv-x="674" 
d="M664 0h-166l-221 246h-71v-246h-136v670h321q109 0 174 -58q66 -58 66 -154q0 -85 -52 -140q-53 -56 -140 -69zM206 369h185q46 0 76 25q29 24 29 64q0 41 -29 65q-28 24 -76 24h-185v-178zM281 -45h143l-97 -150h-99z" />
    <glyph glyph-name="rcedilla" unicode="&#x157;" horiz-adv-x="429" 
d="M381 506q24 0 35 -4l-7 -127h-29q-178 0 -178 -214v-161h-132v499h132v-91q68 98 179 98zM66 -45h143l-97 -150h-99z" />
    <glyph glyph-name="Rcaron" unicode="&#x158;" horiz-adv-x="674" 
d="M273 729l-113 149h130l46 -62l45 62h132l-115 -149h-125zM664 0h-166l-221 246h-71v-246h-136v670h321q109 0 174 -58q66 -58 66 -154q0 -85 -52 -140q-53 -56 -140 -69zM206 369h185q46 0 76 25q29 24 29 64q0 41 -29 65q-28 24 -76 24h-185v-178z" />
    <glyph glyph-name="rcaron" unicode="&#x159;" horiz-adv-x="429" 
d="M165 558l-113 149h130l46 -62l45 62h132l-115 -149h-125zM381 506q24 0 35 -4l-7 -127h-29q-178 0 -178 -214v-161h-132v499h132v-91q68 98 179 98z" />
    <glyph glyph-name="Sacute" unicode="&#x15a;" horiz-adv-x="641" 
d="M390 738h-112l66 144h155zM316 685q103 0 174 -52t91 -141l-136 -28q-8 49 -44 76q-37 28 -88 28q-49 0 -79 -24t-30 -59q0 -55 67 -68l144 -29q84 -18 130 -66q46 -47 46 -126q0 -97 -73 -154q-74 -57 -193 -57q-109 0 -189 52q-79 52 -91 147l143 29q25 -109 150 -109
q56 0 88 24q31 24 31 61q0 31 -17 47q-19 17 -61 26l-142 27q-176 38 -176 192q0 91 69 148q68 56 186 56z" />
    <glyph glyph-name="sacute" unicode="&#x15b;" horiz-adv-x="503" 
d="M328 567h-112l66 144h155zM28 132l133 27q9 -68 103 -68q35 0 57 14q21 13 21 36q0 33 -55 45l-102 21q-68 14 -104 51q-37 39 -37 91q0 72 56 119q55 46 148 46q87 0 146 -41q57 -40 71 -107l-126 -25q-4 31 -29 50t-66 19q-37 0 -52 -14q-16 -15 -16 -35q0 -31 45 -42
l119 -26q65 -14 98 -51q33 -38 33 -90q0 -81 -59 -124t-160 -43q-87 0 -152 37q-63 36 -72 110z" />
    <glyph glyph-name="Scedilla" unicode="&#x15e;" horiz-adv-x="641" 
d="M591 196q0 -84 -57 -140q-56 -54 -154 -68l-49 -148h-140l88 147q-95 11 -159 61q-65 51 -75 136l143 29q25 -109 150 -109q56 0 88 24q31 24 31 61q0 31 -17 47q-19 17 -61 26l-142 27q-176 38 -176 192q0 91 69 148q68 56 186 56q103 0 174 -52t91 -141l-136 -28
q-8 49 -44 76q-37 28 -88 28q-49 0 -79 -24t-30 -59q0 -55 67 -68l144 -29q84 -18 130 -66q46 -47 46 -126z" />
    <glyph glyph-name="scedilla" unicode="&#x15f;" horiz-adv-x="503" 
d="M471 152q0 -67 -41 -108q-40 -40 -113 -54l-50 -150h-140l88 147q-77 8 -127 43q-51 36 -60 102l133 27q9 -68 103 -68q35 0 57 14q21 13 21 36q0 33 -55 45l-102 21q-68 14 -104 51q-37 39 -37 91q0 72 56 119q55 46 148 46q87 0 146 -41q57 -40 71 -107l-126 -25
q-4 31 -29 50t-66 19q-37 0 -52 -14q-16 -15 -16 -35q0 -31 45 -42l119 -26q65 -14 98 -51q33 -38 33 -90z" />
    <glyph glyph-name="Scaron" unicode="&#x160;" horiz-adv-x="641" 
d="M268 729l-113 149h130l46 -62l45 62h132l-115 -149h-125zM271 417l144 -29q84 -18 130 -66q46 -47 46 -126q0 -97 -73 -154q-74 -57 -193 -57q-109 0 -189 52q-79 52 -91 147l143 29q25 -109 150 -109q56 0 88 24q31 24 31 61q0 31 -17 47q-19 17 -61 26l-142 27
q-176 38 -176 192q0 91 69 148q68 56 186 56q103 0 174 -52t91 -141l-136 -28q-8 49 -44 76q-37 28 -88 28q-49 0 -79 -24t-30 -59q0 -55 67 -68z" />
    <glyph glyph-name="scaron" unicode="&#x161;" horiz-adv-x="503" 
d="M206 558l-113 149h130l46 -62l45 62h132l-115 -149h-125zM221 319l119 -26q65 -14 98 -51q33 -38 33 -90q0 -81 -59 -124t-160 -43q-87 0 -152 37q-63 36 -72 110l133 27q9 -68 103 -68q35 0 57 14q21 13 21 36q0 33 -55 45l-102 21q-68 14 -104 51q-37 39 -37 91
q0 72 56 119q55 46 148 46q87 0 146 -41q57 -40 71 -107l-126 -25q-4 31 -29 50t-66 19q-37 0 -52 -14q-16 -15 -16 -35q0 -31 45 -42z" />
    <glyph glyph-name="tcedilla" unicode="&#x163;" horiz-adv-x="434" 
d="M395 132l38 -110q-62 -34 -115 -37l-48 -145h-140l94 156q-117 38 -117 188v207h-107v108h107v171h132v-171h163v-108h-163v-197q0 -86 73 -86q38 0 83 24z" />
    <glyph glyph-name="Tcaron" unicode="&#x164;" horiz-adv-x="622" 
d="M249 729l-113 149h130l46 -62l45 62h132l-115 -149h-125zM602 547h-223v-547h-136v547h-223v123h582v-123z" />
    <glyph glyph-name="tcaron" unicode="&#x165;" horiz-adv-x="434" 
d="M405 560h-104v199h133zM312 108q38 0 83 24l38 -110q-68 -37 -130 -37q-91 0 -144 50q-52 49 -52 149v207h-107v108h107v171h132v-171h163v-108h-163v-197q0 -86 73 -86z" />
    <glyph glyph-name="Tbar" unicode="&#x166;" horiz-adv-x="622" 
d="M379 547v-156h121v-113h-121v-278h-136v278h-121v113h121v156h-223v123h582v-123h-223z" />
    <glyph glyph-name="tbar" unicode="&#x167;" horiz-adv-x="434" 
d="M388 132l24 -115q-59 -32 -116 -32q-91 0 -144 50q-52 49 -52 149v55h-72v106h72v46h-99v108h99v171h132v-171h163v-108h-163v-46h121v-106h-121v-45q0 -86 73 -86q38 0 83 24z" />
    <glyph glyph-name="Umacron" unicode="&#x16a;" horiz-adv-x="711" 
d="M514 743h-318v108h318v-108zM647 670v-370q0 -142 -79 -228q-80 -87 -209 -87q-133 0 -214 87t-81 228v370h136v-370q0 -82 44 -134q44 -51 115 -51q68 0 110 51t42 134v370h136z" />
    <glyph glyph-name="umacron" unicode="&#x16b;" horiz-adv-x="616" 
d="M464 572h-318v108h318v-108zM546 499v-499h-132v45q-60 -60 -157 -60q-89 0 -145 59q-55 58 -55 151v304h132v-276q0 -52 28 -85q27 -32 73 -32q124 0 124 172v221h132z" />
    <glyph glyph-name="Uring" unicode="&#x16e;" horiz-adv-x="711" 
d="M355 715q-48 0 -84 34q-35 33 -35 81q0 49 35 82t84 33q51 0 85 -33t34 -82q0 -48 -34 -81q-36 -34 -85 -34zM355 870q-19 0 -30 -11q-12 -12 -12 -29q0 -16 12 -28t30 -12t30 12t12 28q0 17 -12 29q-11 11 -30 11zM647 670v-370q0 -142 -79 -228q-80 -87 -209 -87
q-133 0 -214 87t-81 228v370h136v-370q0 -82 44 -134q44 -51 115 -51q68 0 110 51t42 134v370h136z" />
    <glyph glyph-name="uring" unicode="&#x16f;" horiz-adv-x="616" 
d="M305 544q-48 0 -84 34q-35 33 -35 81q0 49 35 82t84 33q51 0 85 -33t34 -82q0 -48 -34 -81q-36 -34 -85 -34zM305 699q-19 0 -30 -11q-12 -12 -12 -29q0 -16 12 -28t30 -12t30 12t12 28q0 17 -12 29q-11 11 -30 11zM546 499v-499h-132v45q-60 -60 -157 -60q-89 0 -145 59
q-55 58 -55 151v304h132v-276q0 -52 28 -85q27 -32 73 -32q124 0 124 172v221h132z" />
    <glyph glyph-name="Udblacute" unicode="&#x170;" horiz-adv-x="711" 
d="M318 738h-118l66 144h163zM386 738l66 144h163l-111 -144h-118zM647 670v-370q0 -142 -79 -228q-80 -87 -209 -87q-133 0 -214 87t-81 228v370h136v-370q0 -82 44 -134q44 -51 115 -51q68 0 110 51t42 134v370h136z" />
    <glyph glyph-name="udblacute" unicode="&#x171;" horiz-adv-x="616" 
d="M268 567h-118l66 144h163zM336 567l66 144h163l-111 -144h-118zM414 499h132v-499h-132v45q-60 -60 -157 -60q-89 0 -145 59q-55 58 -55 151v304h132v-276q0 -52 28 -85q27 -32 73 -32q124 0 124 172v221z" />
    <glyph glyph-name="Uogonek" unicode="&#x172;" horiz-adv-x="711" 
d="M546 50q-47 -46 -54 -53q-15 -17 -26 -37q-13 -24 -13 -44q0 -12 9 -21t23 -9q15 0 58 15l25 -82q-61 -31 -118 -31q-44 0 -75 25q-30 24 -30 63q0 62 48 111q-30 -2 -34 -2q-131 0 -213 85t-82 221v379h136v-379q0 -79 44 -128q44 -48 115 -48q67 0 110 49q42 48 42 127
v379h136v-379q0 -143 -101 -241z" />
    <glyph glyph-name="uogonek" unicode="&#x173;" horiz-adv-x="616" 
d="M559 -109l6 -81q-45 -20 -86 -20q-38 0 -66 23q-27 23 -27 67q0 61 71 120h-43v45q-60 -60 -157 -60q-89 0 -145 59q-55 58 -55 151v304h132v-276q0 -52 28 -85q27 -32 73 -32q124 0 124 172v221h132v-499h1l-17 -20q-14 -16 -15 -17q-7 -7 -12 -13q-2 -2 -9 -13
q-2 -3 -6 -11q-2 -4 -4 -10q-1 -3 -1 -11q0 -25 28 -25q12 0 48 11z" />
    <glyph glyph-name="Wcircumflex" unicode="&#x174;" horiz-adv-x="962" 
d="M436 729h-130l113 149h125l115 -149h-132l-45 62zM952 670l-195 -670h-146l-130 452l-131 -452h-145l-195 670h142l128 -462l135 462h131l135 -462l128 462h143z" />
    <glyph glyph-name="wcircumflex" unicode="&#x175;" horiz-adv-x="787" 
d="M349 558h-130l113 149h125l115 -149h-132l-45 62zM777 499l-166 -500h-119l-98 294l-99 -294h-119l-166 500h131l99 -307l102 307h103l102 -308l99 308h131z" />
    <glyph glyph-name="Ycircumflex" unicode="&#x176;" horiz-adv-x="691" 
d="M300 729h-130l113 149h125l115 -149h-132l-45 62zM411 214v-214h-136v212l-265 458h150l183 -316l182 316h156z" />
    <glyph glyph-name="ycircumflex" unicode="&#x177;" horiz-adv-x="584" 
d="M251 558h-130l113 149h125l115 -149h-132l-45 62zM574 500l-320 -740h-147l110 255l-207 485h147l132 -320l138 320h147z" />
    <glyph glyph-name="Ydieresis" unicode="&#x178;" horiz-adv-x="691" 
d="M237 733q-34 0 -56 22q-23 23 -23 56q0 32 23 55t56 23q35 0 57 -23q23 -25 23 -55q0 -34 -22 -56t-58 -22zM453 733q-34 0 -56 22q-23 23 -23 56q0 32 23 55t56 23q35 0 57 -23q23 -25 23 -55q0 -34 -22 -56t-58 -22zM411 214v-214h-136v212l-265 458h150l183 -316
l182 316h156z" />
    <glyph glyph-name="Zacute" unicode="&#x179;" horiz-adv-x="625" 
d="M378 738h-112l66 144h155zM583 116v-116h-536v87l356 467h-346v116h519v-103l-336 -451h343z" />
    <glyph glyph-name="zacute" unicode="&#x17a;" horiz-adv-x="523" 
d="M327 567h-112l66 144h155zM483 108v-108h-443v86l268 305h-261v108h424v-88l-268 -303h280z" />
    <glyph glyph-name="Zdot" unicode="&#x17b;" horiz-adv-x="625" 
d="M317 743q-33 0 -55 22t-22 54q0 31 22 53t55 22q34 0 56 -22t22 -53q0 -33 -22 -54q-24 -22 -56 -22zM583 116v-116h-536v87l356 467h-346v116h519v-103l-336 -451h343z" />
    <glyph glyph-name="zdot" unicode="&#x17c;" horiz-adv-x="523" 
d="M266 572q-33 0 -55 22t-22 54q0 31 22 53t55 22q34 0 56 -22t22 -53q0 -33 -22 -54q-24 -22 -56 -22zM483 108v-108h-443v86l268 305h-261v108h424v-88l-268 -303h280z" />
    <glyph glyph-name="Zcaron" unicode="&#x17d;" horiz-adv-x="625" 
d="M256 729l-113 149h130l46 -62l45 62h132l-115 -149h-125zM583 116v-116h-536v87l356 467h-346v116h519v-103l-336 -451h343z" />
    <glyph glyph-name="zcaron" unicode="&#x17e;" horiz-adv-x="523" 
d="M205 558l-113 149h130l46 -62l45 62h132l-115 -149h-125zM483 108v-108h-443v86l268 305h-261v108h424v-88l-268 -303h280z" />
    <glyph glyph-name="florin" unicode="&#x192;" horiz-adv-x="586" 
d="M445 567q-35 0 -59 -21t-31 -61l-18 -101h154v-108h-174l-49 -269q-13 -77 -67 -125q-53 -47 -130 -47q-49 0 -101 28l42 106q31 -10 60 -10q25 0 44 14q18 13 22 34l48 269h-104v108h124l18 101q16 90 78 146q59 53 150 53q67 0 119 -34l-44 -108q-35 25 -82 25z" />
    <glyph glyph-name="AEacute" unicode="&#x1fc;" horiz-adv-x="1041" 
d="M726 738h-112l66 144h155zM996 123v-123h-509v123h-251l-79 -123h-157l450 670h544v-123h-371v-151h342v-121h-342v-152h373zM487 246v270l-173 -270h173z" />
    <glyph glyph-name="aeacute" unicode="&#x1fd;" horiz-adv-x="901" 
d="M503 567h-112l66 144h155zM871 204h-378q27 -106 130 -106q80 0 116 65l118 -25q-21 -69 -86 -111t-151 -42q-118 0 -194 82q-78 -82 -205 -82q-90 0 -141 46q-50 45 -50 114q0 71 54 112q53 40 148 40h140v19q0 41 -26 64q-27 24 -70 24q-39 0 -65 -20q-27 -20 -31 -56
l-121 25q9 71 69 116t150 45q110 0 170 -62q74 62 168 62q105 0 181 -74q74 -73 74 -191v-45zM492 297h246q-10 52 -43 80q-30 26 -74 26q-45 0 -82 -28q-38 -29 -47 -78zM372 204h-140q-38 0 -56 -14q-20 -15 -20 -40q0 -26 23 -43t58 -17q53 0 94 31t41 71v12z" />
    <glyph glyph-name="Scommaaccent" unicode="&#x218;" horiz-adv-x="641" 
d="M316 685q103 0 174 -52t91 -141l-136 -28q-8 49 -44 76q-37 28 -88 28q-49 0 -79 -24t-30 -59q0 -55 67 -68l144 -29q84 -18 130 -66q46 -47 46 -126q0 -97 -73 -154q-74 -57 -193 -57q-109 0 -189 52q-79 52 -91 147l143 29q25 -109 150 -109q56 0 88 24q31 24 31 61
q0 31 -17 47q-19 17 -61 26l-142 27q-176 38 -176 192q0 91 69 148q68 56 186 56zM204 -195l53 150h143l-97 -150h-99z" />
    <glyph glyph-name="scommaaccent" unicode="&#x219;" horiz-adv-x="503" 
d="M28 132l133 27q9 -68 103 -68q35 0 57 14q21 13 21 36q0 33 -55 45l-102 21q-68 14 -104 51q-37 39 -37 91q0 72 56 119q55 46 148 46q87 0 146 -41q57 -40 71 -107l-126 -25q-4 31 -29 50t-66 19q-37 0 -52 -14q-16 -15 -16 -35q0 -31 45 -42l119 -26q65 -14 98 -51
q33 -38 33 -90q0 -81 -59 -124t-160 -43q-87 0 -152 37q-63 36 -72 110zM140 -195l53 150h143l-97 -150h-99z" />
    <glyph glyph-name="Tcommabelow" unicode="&#x21a;" horiz-adv-x="622" 
d="M602 670v-123h-223v-547h-136v547h-223v123h582zM245 -45h143l-97 -150h-99z" />
    <glyph glyph-name="tcommabelow" unicode="&#x21b;" horiz-adv-x="434" 
d="M303 -15q-91 0 -144 50q-52 49 -52 149v207h-107v108h107v171h132v-171h163v-108h-163v-197q0 -86 73 -86q38 0 83 24l38 -110q-68 -37 -130 -37zM196 -45h143l-97 -150h-99z" />
    <glyph glyph-name="circumflex" unicode="&#x2c6;" horiz-adv-x="600" 
d="M346 558l-45 62l-46 -62h-130l113 149h125l115 -149h-132z" />
    <glyph glyph-name="caron" unicode="&#x2c7;" horiz-adv-x="600" 
d="M478 707l-115 -149h-125l-113 149h130l46 -62l45 62h132z" />
    <glyph glyph-name="breve" unicode="&#x2d8;" horiz-adv-x="600" 
d="M300 547q-76 0 -122 41q-45 40 -45 109h109q0 -25 17 -42t41 -17q25 0 42 17q16 16 16 42h109q0 -69 -45 -109q-46 -41 -122 -41z" />
    <glyph glyph-name="dotaccent" unicode="&#x2d9;" horiz-adv-x="600" 
d="M300 723q34 0 56 -22t22 -53q0 -33 -22 -54q-24 -22 -56 -22q-33 0 -55 22t-22 54q0 31 22 53t55 22z" />
    <glyph glyph-name="ring" unicode="&#x2da;" horiz-adv-x="600" 
d="M419 659q0 -48 -34 -81q-36 -34 -85 -34q-48 0 -84 34q-35 33 -35 81q0 49 35 82q34 33 84 33t85 -33q34 -33 34 -82zM342 659q0 17 -12 29q-11 11 -30 11t-30 -11q-12 -12 -12 -29q0 -16 12 -28t30 -12t30 12t12 28z" />
    <glyph glyph-name="ogonek" unicode="&#x2db;" horiz-adv-x="600" 
d="M242 0h90l-17 -20q-14 -16 -15 -17q-7 -7 -12 -13q-2 -2 -9 -13q-2 -3 -6 -11q-2 -4 -4 -10q-1 -3 -1 -11q0 -25 28 -25q12 0 48 11l6 -81q-45 -20 -86 -20q-38 0 -66 23q-27 23 -27 67q0 61 71 120z" />
    <glyph glyph-name="tilde" unicode="&#x2dc;" horiz-adv-x="600" 
d="M223 585h-87q0 71 32 101t75 30q38 0 70 -19q34 -20 52 -20q13 0 21 12q7 11 7 27h87q0 -72 -32 -102q-33 -31 -75 -31q-38 0 -70 19t-52 19q-13 0 -20 -10q-8 -11 -8 -26z" />
    <glyph glyph-name="hungarumlaut" unicode="&#x2dd;" horiz-adv-x="600" 
d="M223 567h-118l66 144h163zM409 567h-118l66 144h163z" />
    <glyph glyph-name="uni0326" unicode="&#x326;" horiz-adv-x="0" 
d="M201 -195l53 150h143l-97 -150h-99z" />
    <glyph glyph-name="Wgrave" unicode="&#x1e80;" horiz-adv-x="962" 
d="M423 738l-109 144h155l66 -144h-112zM952 670l-195 -670h-146l-130 452l-131 -452h-145l-195 670h142l128 -462l135 462h131l135 -462l128 462h143z" />
    <glyph glyph-name="wgrave" unicode="&#x1e81;" horiz-adv-x="787" 
d="M336 567l-109 144h155l66 -144h-112zM777 499l-166 -500h-119l-98 294l-99 -294h-119l-166 500h131l99 -307l102 307h103l102 -308l99 308h131z" />
    <glyph glyph-name="Wacute" unicode="&#x1e82;" horiz-adv-x="962" 
d="M541 738h-112l66 144h155zM952 670l-195 -670h-146l-130 452l-131 -452h-145l-195 670h142l128 -462l135 462h131l135 -462l128 462h143z" />
    <glyph glyph-name="wacute" unicode="&#x1e83;" horiz-adv-x="787" 
d="M454 567h-112l66 144h155zM777 499l-166 -500h-119l-98 294l-99 -294h-119l-166 500h131l99 -307l102 307h103l102 -308l99 308h131z" />
    <glyph glyph-name="Wdieresis" unicode="&#x1e84;" horiz-adv-x="962" 
d="M373 733q-34 0 -56 22q-23 23 -23 56q0 32 23 55t56 23q35 0 57 -23q23 -25 23 -55q0 -34 -22 -56t-58 -22zM589 733q-34 0 -56 22q-23 23 -23 56q0 32 23 55t56 23q35 0 57 -23q23 -25 23 -55q0 -34 -22 -56t-58 -22zM952 670l-195 -670h-146l-130 452l-131 -452h-145
l-195 670h142l128 -462l135 462h131l135 -462l128 462h143z" />
    <glyph glyph-name="wdieresis" unicode="&#x1e85;" horiz-adv-x="787" 
d="M286 562q-34 0 -56 22q-23 23 -23 56q0 32 23 55t56 23q35 0 57 -23q23 -25 23 -55q0 -34 -22 -56t-58 -22zM502 562q-34 0 -56 22q-23 23 -23 56q0 32 23 55t56 23q35 0 57 -23q23 -25 23 -55q0 -34 -22 -56t-58 -22zM777 499l-166 -500h-119l-98 294l-99 -294h-119
l-166 500h131l99 -307l102 307h103l102 -308l99 308h131z" />
    <glyph glyph-name="Ygrave" unicode="&#x1ef2;" horiz-adv-x="691" 
d="M287 738l-109 144h155l66 -144h-112zM411 214v-214h-136v212l-265 458h150l183 -316l182 316h156z" />
    <glyph glyph-name="ygrave" unicode="&#x1ef3;" horiz-adv-x="584" 
d="M238 567l-109 144h155l66 -144h-112zM574 500l-320 -740h-147l110 255l-207 485h147l132 -320l138 320h147z" />
    <glyph glyph-name="endash" unicode="&#x2013;" horiz-adv-x="620" 
d="M560 205h-500v100h500v-100z" />
    <glyph glyph-name="emdash" unicode="&#x2014;" horiz-adv-x="1040" 
d="M980 205h-920v100h920v-100z" />
    <glyph glyph-name="quoteleft" unicode="&#x2018;" horiz-adv-x="282" 
d="M148 670h99l-60 -268h-152v3z" />
    <glyph glyph-name="quoteright" unicode="&#x2019;" horiz-adv-x="282" 
d="M134 402h-99l60 268h152v-3z" />
    <glyph glyph-name="quotesinglbase" unicode="&#x201a;" horiz-adv-x="282" 
d="M134 -132h-99l60 268h152v-3z" />
    <glyph glyph-name="quotedblleft" unicode="&#x201c;" horiz-adv-x="472" 
d="M148 670h99l-60 -268h-152v3zM338 670h99l-60 -268h-152v3z" />
    <glyph glyph-name="quotedblright" unicode="&#x201d;" horiz-adv-x="472" 
d="M134 402h-99l60 268h152v-3zM324 402h-99l60 268h152v-3z" />
    <glyph glyph-name="quotedblbase" unicode="&#x201e;" horiz-adv-x="472" 
d="M134 -132h-99l60 268h152v-3zM324 -132h-99l60 268h152v-3z" />
    <glyph glyph-name="dagger" unicode="&#x2020;" horiz-adv-x="405" 
d="M360 650v-84h-112v-247h-91v247h-112v84h112v90h91v-90h112z" />
    <glyph glyph-name="daggerdbl" unicode="&#x2021;" horiz-adv-x="405" 
d="M248 566v-73h112v-84h-112v-90h-91v90h-112v84h112v73h-112v84h112v90h91v-90h112v-84h-112z" />
    <glyph glyph-name="bullet" unicode="&#x2022;" horiz-adv-x="422" 
d="M211 424q73 0 122 -49t49 -117q0 -69 -48 -117t-123 -48q-74 0 -122 48q-49 49 -49 117t49 117t122 49z" />
    <glyph glyph-name="ellipsis" unicode="&#x2026;" horiz-adv-x="778" 
d="M119 149q34 0 57 -23q22 -22 22 -54t-22 -54t-57 -22q-34 0 -56 22q-23 23 -23 54t23 54t56 23zM389 149q34 0 57 -23q22 -22 22 -54t-22 -54t-57 -22q-34 0 -56 22q-23 23 -23 54t23 54t56 23zM659 149q34 0 57 -23q22 -22 22 -54t-22 -54t-57 -22q-34 0 -56 22
q-23 23 -23 54t23 54t56 23z" />
    <glyph glyph-name="perthousand" unicode="&#x2030;" horiz-adv-x="1233" 
d="M208 685q71 0 119 -45t48 -117t-49 -117q-50 -45 -118 -45q-70 0 -119 45t-49 117t49 117t119 45zM125 0l491 670h87l-491 -670h-87zM208 595q-28 0 -48 -19q-21 -20 -21 -52q0 -33 21 -53q22 -20 48 -20t48 20q20 19 20 53q0 33 -20 52t-48 19zM626 309q71 0 119 -45
t48 -117t-49 -117q-50 -45 -118 -45q-70 0 -119 45t-49 117t49 117t119 45zM1026 309q71 0 119 -45t48 -117t-49 -117q-50 -45 -118 -45q-70 0 -119 45t-49 117t49 117t119 45zM626 219q-28 0 -48 -19q-21 -20 -21 -52q0 -34 21 -53q22 -20 48 -20t48 20q20 19 20 53
q0 33 -20 52t-48 19zM1026 219q-28 0 -48 -19q-21 -20 -21 -52q0 -34 21 -53q22 -20 48 -20t48 20q20 19 20 53q0 33 -20 52t-48 19z" />
    <glyph glyph-name="guilsinglleft" unicode="&#x2039;" horiz-adv-x="292" 
d="M25 262l112 178h130l-112 -178l112 -178h-130z" />
    <glyph glyph-name="guilsinglright" unicode="&#x203a;" horiz-adv-x="292" 
d="M25 84l112 178l-112 178h130l112 -178l-112 -178h-130z" />
    <glyph glyph-name="fraction" unicode="&#x2044;" horiz-adv-x="238" 
d="M-180 0l491 670h87l-491 -670h-87z" />
    <glyph glyph-name="Euro" unicode="&#x20ac;" horiz-adv-x="779" 
d="M458 112q106 0 147 137l134 -29q-27 -109 -101 -171q-76 -64 -180 -64q-102 0 -177 63t-102 169h-109v96h95v22v22h-95v95h109q27 107 101 171q72 62 178 62q105 0 180 -63q73 -62 101 -172l-139 -27q-14 68 -52 102t-90 34q-95 0 -136 -107h210l-23 -95h-205l-1 -22
q0 -17 1 -22h195l-23 -96h-153q19 -48 54 -77q34 -28 81 -28z" />
    <glyph glyph-name="afii61352" unicode="&#x2116;" horiz-adv-x="1199" 
d="M949 338q-73 0 -125 48t-52 123t52 123t125 48q75 0 128 -48q52 -48 52 -123t-52 -123q-53 -48 -128 -48zM555 670h136v-670h-114l-371 430v-430h-136v670h114l371 -442v442zM949 584q-29 0 -50 -21q-22 -22 -22 -54q0 -31 22 -53t50 -22q30 0 54 22q22 21 22 53
q0 33 -22 54q-23 21 -54 21zM782 287h337v-107h-337v107z" />
    <glyph glyph-name="uni2117" unicode="&#x2117;" horiz-adv-x="756" 
d="M375 685q147 0 248 -100q102 -101 102 -252q0 -150 -102 -249t-248 -99t-248 99q-103 100 -103 249q0 151 103 252q101 100 248 100zM375 42q119 0 204 83q84 83 84 209q0 127 -84 211t-204 84t-204 -84q-85 -85 -85 -211t85 -209t204 -83zM242 516h170q67 0 105 -35
q39 -36 39 -94q0 -60 -39 -96q-40 -37 -105 -37h-91v-103h-79v365zM321 327h85q33 0 53 17t20 43q0 27 -20 42q-19 15 -53 15h-85v-117z" />
    <glyph glyph-name="trademark" unicode="&#x2122;" horiz-adv-x="667" 
d="M281 606h-86v-208h-76v208h-84v64h246v-64zM622 398h-71v139l-61 -138h-44l-61 138v-139h-71v272h83l71 -152l72 152h82v-272z" />
    <glyph glyph-name="oneeighth" unicode="&#x215b;" horiz-adv-x="809" 
d="M93 543l-72 -47v102l105 72h63v-380h-96v253zM657 670l-491 -670h-87l491 670h87zM697 197q69 -26 69 -95q0 -48 -42 -80q-43 -32 -111 -32q-67 0 -110 32t-43 80q0 69 68 95q-53 27 -53 82q0 44 40 75t99 31q58 0 98 -31t40 -75q0 -57 -55 -82zM613 315q-23 0 -38 -12
t-15 -34q0 -17 16 -31q14 -13 37 -13q22 0 38 13q15 12 15 31q0 22 -15 34t-38 12zM613 65q24 0 40 14q15 14 15 34q0 21 -15 35q-14 13 -40 13t-40 -13q-16 -14 -16 -35t16 -34q17 -14 40 -14z" />
    <glyph glyph-name="threeeighths" unicode="&#x215c;" horiz-adv-x="871" 
d="M317 408q0 -53 -41 -88t-105 -35t-104 34q-42 35 -43 91l80 20q5 -65 68 -65q24 0 40 13q15 12 15 32q0 21 -14 31q-16 11 -40 11h-40v68h33q25 0 42 11q16 10 16 29t-15 31t-39 12q-57 0 -59 -62l-84 20q4 55 44 87t98 32q63 0 102 -33t39 -84q0 -50 -47 -74
q54 -27 54 -81zM719 670l-491 -670h-87l491 670h87zM759 197q69 -26 69 -95q0 -48 -42 -80q-43 -32 -111 -32q-67 0 -110 32t-43 80q0 69 68 95q-53 27 -53 82q0 44 40 75t99 31q58 0 98 -31t40 -75q0 -57 -55 -82zM675 315q-23 0 -38 -12t-15 -34q0 -17 16 -31
q14 -13 37 -13q22 0 38 13q15 12 15 31q0 22 -15 34t-38 12zM675 65q24 0 40 14q15 14 15 34q0 21 -15 35q-14 13 -40 13t-40 -13q-16 -14 -16 -35t16 -34q17 -14 40 -14z" />
    <glyph glyph-name="fiveeighths" unicode="&#x215d;" horiz-adv-x="840" 
d="M322 415q0 -58 -41 -96q-40 -37 -106 -37q-61 0 -103 33t-48 80l91 17q5 -22 21 -36q16 -13 39 -13q21 0 39 13q16 12 16 35q0 25 -17 36t-45 11h-129l11 212h252v-84h-170l-3 -48h68q53 0 89 -33t36 -90zM703 670l-491 -670h-87l491 670h87zM728 197q69 -26 69 -95
q0 -48 -42 -80q-43 -32 -111 -32q-67 0 -110 32t-43 80q0 69 68 95q-53 27 -53 82q0 44 40 75t99 31q58 0 98 -31t40 -75q0 -57 -55 -82zM644 315q-23 0 -38 -12t-15 -34q0 -17 16 -31q14 -13 37 -13q22 0 38 13q15 12 15 31q0 22 -15 34t-38 12zM644 65q24 0 40 14
q15 14 15 34q0 21 -15 35q-14 13 -40 13t-40 -13q-16 -14 -16 -35t16 -34q17 -14 40 -14z" />
    <glyph glyph-name="seveneighths" unicode="&#x215e;" horiz-adv-x="757" 
d="M190 586h-183v84h284v-74l-134 -306h-103zM625 670l-491 -670h-87l491 670h87zM645 197q69 -26 69 -95q0 -48 -42 -80q-43 -32 -111 -32q-67 0 -110 32t-43 80q0 69 68 95q-53 27 -53 82q0 44 40 75t99 31q58 0 98 -31t40 -75q0 -57 -55 -82zM561 315q-23 0 -38 -12
t-15 -34q0 -17 16 -31q14 -13 37 -13q22 0 38 13q15 12 15 31q0 22 -15 34t-38 12zM561 65q24 0 40 14q15 14 15 34q0 21 -15 35q-14 13 -40 13t-40 -13q-16 -14 -16 -35t16 -34q17 -14 40 -14z" />
    <glyph glyph-name="arrowleft" unicode="&#x2190;" horiz-adv-x="727" 
d="M687 256h-416l168 -168l-96 -97l-333 333l334 334l96 -97l-169 -169h416v-136z" />
    <glyph glyph-name="arrowup" unicode="&#x2191;" horiz-adv-x="747" 
d="M610 248l-168 168v-416h-136v416l-169 -169l-97 96l334 334l333 -333z" />
    <glyph glyph-name="arrowright" unicode="&#x2192;" horiz-adv-x="727" 
d="M717 324l-333 -333l-96 97l168 168h-416v136h416l-169 169l96 97z" />
    <glyph glyph-name="arrowdown" unicode="&#x2193;" horiz-adv-x="747" 
d="M707 326l-333 -333l-334 334l97 96l169 -169v416h136v-416l168 168z" />
    <glyph glyph-name="arrowupleft" unicode="&#x2196;" horiz-adv-x="747" 
d="M611 -8l-445 446v-260h-136v492h491l-1 -136h-258l445 -445z" />
    <glyph glyph-name="arrowupright" unicode="&#x2197;" horiz-adv-x="747" 
d="M717 670v-492h-136v260l-445 -446l-96 97l445 445h-258l-1 136h491z" />
    <glyph glyph-name="arrowdownright" unicode="&#x2198;" horiz-adv-x="747" 
d="M717 492v-492h-491l1 136h258l-445 445l96 97l445 -446v260h136z" />
    <glyph glyph-name="arrowdownleft" unicode="&#x2199;" horiz-adv-x="747" 
d="M520 136l1 -136h-491v492h136v-260l445 446l96 -97l-445 -445h258z" />
    <glyph glyph-name="minus" unicode="&#x2212;" horiz-adv-x="580" 
d="M520 247h-460v116h460v-116z" />
    <glyph glyph-name="approxequal" unicode="&#x2248;" horiz-adv-x="580" 
d="M520 456v-109q-37 -19 -102 -19q-54 0 -121 22t-119 22q-83 0 -118 -29v108q39 30 118 30q53 0 122 -22t120 -22q66 0 100 19zM520 309v-108q-42 -20 -102 -20q-50 0 -121 23q-67 22 -119 22q-80 0 -118 -29v108q39 30 118 30q53 0 122 -22t120 -22q66 0 100 18z" />
    <glyph glyph-name="notequal" unicode="&#x2260;" horiz-adv-x="580" 
d="M371 363l-46 -83h195v-115h-257l-38 -69h-117l38 69h-86v115h148l46 83h-194v115h256l40 73h117l-40 -73h87v-115h-149z" />
    <glyph glyph-name="lessequal" unicode="&#x2264;" horiz-adv-x="429" 
d="M392 211l-359 121v128l359 122v-135l-219 -51l219 -54v-131zM392 198v-115h-359v115h359z" />
    <glyph glyph-name="greaterequal" unicode="&#x2265;" horiz-adv-x="429" 
d="M259 396l-219 51v135l359 -122v-128l-359 -121v131zM399 83h-359v115h359v-115z" />
    <glyph glyph-name="K.ss03" horiz-adv-x="678" 
d="M678 0h-183l-255 268h-34v-268h-136v670h136v-279h23l260 279h168l-308 -336z" />
    <glyph glyph-name="Kcommaaccent.ss03" horiz-adv-x="678" 
d="M678 0h-183l-255 268h-34v-268h-136v670h136v-279h23l260 279h168l-308 -336zM266 -45h143l-97 -150h-99z" />
    <glyph glyph-name="Q.ss04" horiz-adv-x="786" 
d="M746 334q0 -80 -31 -146q-32 -68 -87 -116l118 -140l-105 -96l-141 165q-48 -16 -107 -16q-148 0 -250 102q-103 103 -103 247q0 146 103 249q102 102 250 102q149 0 251 -102t102 -249zM177 334q0 -95 63 -158t153 -63q91 0 154 63q62 62 62 158t-62 159q-63 64 -154 64
q-90 0 -153 -64q-63 -65 -63 -159z" />
    <glyph glyph-name="I.ss05" horiz-adv-x="276" 
d="M206 0h-136v670h136v-670z" />
    <glyph glyph-name="IJ.ss05" horiz-adv-x="872" 
d="M70 670h136v-670h-136v670zM808 670v-433q0 -111 -72 -181q-73 -71 -188 -71q-106 0 -173 60t-84 159l129 26q7 -55 40 -89t88 -34q56 0 90 37t34 93v433h136z" />
    <glyph glyph-name="Iacute.ss05" horiz-adv-x="276" 
d="M198 738h-112l66 144h155zM206 0h-136v670h136v-670z" />
    <glyph glyph-name="Icircumflex.ss05" horiz-adv-x="276" 
d="M93 729h-130l113 149h125l115 -149h-132l-45 62zM70 670h136v-670h-136v670z" />
    <glyph glyph-name="Idieresis.ss05" horiz-adv-x="276" 
d="M30 889q35 0 57 -23q23 -25 23 -55q0 -34 -22 -56t-58 -22q-34 0 -56 22q-23 23 -23 56q0 32 23 55t56 23zM246 889q35 0 57 -23q23 -25 23 -55q0 -34 -22 -56t-58 -22q-34 0 -56 22q-23 23 -23 56q0 32 23 55t56 23zM206 0h-136v670h136v-670z" />
    <glyph glyph-name="Idotaccent.ss05" horiz-adv-x="276" 
d="M137 894q34 0 56 -22t22 -53q0 -33 -22 -54q-24 -22 -56 -22q-33 0 -55 22t-22 54q0 31 22 53t55 22zM206 0h-136v670h136v-670z" />
    <glyph glyph-name="Igrave.ss05" horiz-adv-x="276" 
d="M126 882l66 -144h-112l-109 144h155zM206 0h-136v670h136v-670z" />
    <glyph glyph-name="Imacron.ss05" horiz-adv-x="276" 
d="M297 743h-318v108h318v-108zM206 0h-136v670h136v-670z" />
    <glyph glyph-name="Iogonek.ss05" horiz-adv-x="276" 
d="M218 -109l6 -81q-45 -20 -86 -20q-38 0 -66 23q-27 23 -27 67q0 61 71 120h-46v670h136v-670l-17 -20q-14 -16 -15 -17q-7 -7 -12 -13q-2 -2 -9 -13q-2 -3 -6 -11q-2 -4 -4 -10q-1 -3 -1 -11q0 -25 28 -25q12 0 48 11z" />
    <glyph glyph-name="J.ss05" horiz-adv-x="596" 
d="M532 670v-433q0 -111 -72 -181q-73 -71 -188 -71q-106 0 -173 60t-84 159l129 26q7 -55 40 -89t88 -34q56 0 90 37t34 93v433h136z" />
    <glyph glyph-name="i.loclTRK" horiz-adv-x="296" 
d="M147 723q34 0 56 -22t22 -53q0 -33 -22 -54q-24 -22 -56 -22q-33 0 -55 22t-22 54q0 31 22 53t55 22zM214 0h-132v499h132v-499z" />
    <glyph glyph-name="germandbls.case" horiz-adv-x="1262" 
d="M316 685q103 0 174 -52t91 -141l-136 -28q-8 49 -44 76q-37 28 -88 28q-49 0 -79 -24t-30 -59q0 -55 67 -68l144 -29q84 -18 130 -66q46 -47 46 -126q0 -97 -73 -154q-74 -57 -193 -57q-109 0 -189 52q-79 52 -91 147l143 29q25 -109 150 -109q56 0 88 24q31 24 31 61
q0 31 -17 47q-19 17 -61 26l-142 27q-176 38 -176 192q0 91 69 148q68 56 186 56zM937 685q103 0 174 -52t91 -141l-136 -28q-8 49 -44 76q-37 28 -88 28q-49 0 -79 -24t-30 -59q0 -55 67 -68l144 -29q84 -18 130 -66q46 -47 46 -126q0 -97 -73 -154t-193 -57
q-109 0 -189 52q-79 52 -91 147l143 29q25 -109 150 -109q57 0 88 24t31 61q0 31 -17 47q-19 17 -61 26l-142 27q-176 38 -176 192q0 91 69 148q68 56 186 56z" />
    <glyph glyph-name="a.ss01" horiz-adv-x="642" 
d="M572 499v-499h-132v43q-62 -58 -165 -58q-99 0 -172 75q-73 74 -73 189q0 114 74 190q74 75 171 75q103 0 165 -58v43h132zM298 100q56 0 99 42t43 107q0 66 -43 108t-99 42q-61 0 -100 -41q-40 -42 -40 -109q0 -66 40 -108q39 -41 100 -41z" />
    <glyph glyph-name="aacute.ss01" horiz-adv-x="642" 
d="M371 567h-112l66 144h155zM572 499v-499h-132v43q-62 -58 -165 -58q-99 0 -172 75q-73 74 -73 189q0 114 74 190q74 75 171 75q103 0 165 -58v43h132zM298 100q56 0 99 42t43 107q0 66 -43 108t-99 42q-61 0 -100 -41q-40 -42 -40 -109q0 -66 40 -108q39 -41 100 -41z
" />
    <glyph glyph-name="abreve.ss01" horiz-adv-x="642" 
d="M311 548q-76 0 -122 41q-45 41 -45 109h109q0 -25 17 -42t41 -17q25 0 42 17q16 16 16 42h109q0 -68 -45 -109q-46 -41 -122 -41zM572 499v-499h-132v43q-62 -58 -165 -58q-99 0 -172 75q-73 74 -73 189q0 114 74 190q74 75 171 75q103 0 165 -58v43h132zM298 100
q56 0 99 42t43 107q0 66 -43 108t-99 42q-61 0 -100 -41q-40 -42 -40 -109q0 -66 40 -108q39 -41 100 -41z" />
    <glyph glyph-name="acircumflex.ss01" horiz-adv-x="642" 
d="M266 558h-130l113 149h125l115 -149h-132l-45 62zM572 499v-499h-132v43q-62 -58 -165 -58q-99 0 -172 75q-73 74 -73 189q0 114 74 190q74 75 171 75q103 0 165 -58v43h132zM298 100q56 0 99 42t43 107q0 66 -43 108t-99 42q-61 0 -100 -41q-40 -42 -40 -109
q0 -66 40 -108q39 -41 100 -41z" />
    <glyph glyph-name="adieresis.ss01" horiz-adv-x="642" 
d="M203 562q-34 0 -56 22q-23 23 -23 56q0 32 23 55t56 23q35 0 57 -23q23 -25 23 -55q0 -34 -22 -56t-58 -22zM419 562q-34 0 -56 22q-23 23 -23 56q0 32 23 55t56 23q35 0 57 -23q23 -25 23 -55q0 -34 -22 -56t-58 -22zM572 499v-499h-132v43q-62 -58 -165 -58
q-99 0 -172 75q-73 74 -73 189q0 114 74 190q74 75 171 75q103 0 165 -58v43h132zM298 100q56 0 99 42t43 107q0 66 -43 108t-99 42q-61 0 -100 -41q-40 -42 -40 -109q0 -66 40 -108q39 -41 100 -41z" />
    <glyph glyph-name="agrave.ss01" horiz-adv-x="642" 
d="M253 567l-109 144h155l66 -144h-112zM572 499v-499h-132v43q-62 -58 -165 -58q-99 0 -172 75q-73 74 -73 189q0 114 74 190q74 75 171 75q103 0 165 -58v43h132zM298 100q56 0 99 42t43 107q0 66 -43 108t-99 42q-61 0 -100 -41q-40 -42 -40 -109q0 -66 40 -108
q39 -41 100 -41z" />
    <glyph glyph-name="amacron.ss01" horiz-adv-x="642" 
d="M470 572h-318v108h318v-108zM572 499v-499h-132v43q-62 -58 -165 -58q-99 0 -172 75q-73 74 -73 189q0 114 74 190q74 75 171 75q103 0 165 -58v43h132zM298 100q56 0 99 42t43 107q0 66 -43 108t-99 42q-61 0 -100 -41q-40 -42 -40 -109q0 -66 40 -108q39 -41 100 -41z
" />
    <glyph glyph-name="aogonek.ss01" horiz-adv-x="642" 
d="M584 -109l6 -81q-45 -20 -86 -20q-38 0 -66 23q-27 23 -27 67q0 61 71 120h-42v43q-62 -58 -165 -58q-99 0 -172 75q-73 74 -73 189q0 114 74 190q74 75 171 75q103 0 165 -58v43h132v-499l-17 -20q-14 -16 -15 -17q-7 -7 -12 -13q-2 -2 -9 -13q-2 -3 -6 -11
q-2 -4 -4 -10q-1 -3 -1 -11q0 -25 28 -25q12 0 48 11zM298 100q56 0 99 42t43 107q0 66 -43 108t-99 42q-61 0 -100 -41q-40 -42 -40 -109q0 -66 40 -108q39 -41 100 -41z" />
    <glyph glyph-name="aring.ss01" horiz-adv-x="642" 
d="M311 544q-48 0 -84 34q-35 33 -35 81q0 49 35 82t84 33q51 0 85 -33t34 -82q0 -48 -34 -81q-36 -34 -85 -34zM311 699q-19 0 -30 -11q-12 -12 -12 -29q0 -16 12 -28t30 -12t30 12t12 28q0 17 -12 29q-11 11 -30 11zM572 499v-499h-132v43q-62 -58 -165 -58q-99 0 -172 75
q-73 74 -73 189q0 114 74 190q74 75 171 75q103 0 165 -58v43h132zM298 100q56 0 99 42t43 107q0 66 -43 108t-99 42q-61 0 -100 -41q-40 -42 -40 -109q0 -66 40 -108q39 -41 100 -41z" />
    <glyph glyph-name="atilde.ss01" horiz-adv-x="642" 
d="M261 621q-13 0 -20 -10q-8 -11 -8 -26h-87q0 71 32 101t75 30q38 0 70 -19q34 -20 52 -20q13 0 21 12q7 11 7 27h87q0 -72 -32 -102q-33 -31 -75 -31q-38 0 -70 19t-52 19zM572 499v-499h-132v43q-62 -58 -165 -58q-99 0 -172 75q-73 74 -73 189q0 114 74 190
q74 75 171 75q103 0 165 -58v43h132zM298 100q56 0 99 42t43 107q0 66 -43 108t-99 42q-61 0 -100 -41q-40 -42 -40 -109q0 -66 40 -108q39 -41 100 -41z" />
    <glyph glyph-name="l.ss02" horiz-adv-x="272" 
d="M202 0h-132v770h132v-770z" />
    <glyph glyph-name="lacute.ss02" horiz-adv-x="272" 
d="M196 838h-112l66 144h155zM202 0h-132v770h132v-770z" />
    <glyph glyph-name="lcaron.ss02" horiz-adv-x="272" 
d="M202 0h-132v770h132v-770zM363 571h-104v199h133z" />
    <glyph glyph-name="lcommaaccent.ss02" horiz-adv-x="272" 
d="M202 0h-132v770h132v-770zM13 -195l53 150h143l-97 -150h-99z" />
    <glyph glyph-name="ldot.ss02" horiz-adv-x="401" 
d="M202 0h-132v770h132v-770zM318 427q34 0 56 -22t22 -53q0 -33 -22 -54q-24 -22 -56 -22q-33 0 -55 22t-22 54q0 31 22 53t55 22z" />
    <glyph glyph-name="lslash.ss02" horiz-adv-x="321" 
d="M291 356l-64 -37v-319h-132v243l-65 -37v127l65 37v400h132v-324l64 37v-127z" />
    <glyph glyph-name="k.ss03" horiz-adv-x="597" 
d="M597 0h-176l-196 195h-23v-195h-132v770h132v-445h23l180 174h166l-242 -239z" />
    <glyph glyph-name="kcommaaccent.ss03" horiz-adv-x="597" 
d="M597 0h-176l-196 195h-23v-195h-132v770h132v-445h23l180 174h166l-242 -239zM234 -45h143l-97 -150h-99z" />
    <glyph glyph-name="f_j" horiz-adv-x="677" 
d="M602 499v-604q0 -65 -40 -105t-106 -40q-52 0 -102 19l24 115q27 -10 45 -10q20 0 34 11q13 10 13 28v478h-242v-391h-132v391h-76v108h76v92q0 86 55 138q54 51 145 51q47 0 89 -18l-29 -107q-30 8 -51 8q-35 0 -56 -18t-21 -54v-92h374zM534 571q-35 0 -57 22
q-23 23 -23 55q0 31 23 56q22 23 57 23t57 -23q23 -25 23 -56q0 -32 -23 -55q-22 -22 -57 -22z" />
    <glyph glyph-name="f_t" horiz-adv-x="793" 
d="M754 132l38 -110q-68 -37 -130 -37q-91 0 -144 50q-52 49 -52 149v207h-238v-391h-132v391h-76v108h76v92q0 86 55 138q54 51 145 51q47 0 89 -18l-29 -107q-30 8 -51 8q-35 0 -56 -18t-21 -54v-92h238v171h132v-171h163v-108h-163v-197q0 -86 73 -86q38 0 83 24z" />
    <glyph glyph-name="fl.ss02" horiz-adv-x="641" 
d="M302 663q-33 0 -53 -19q-21 -20 -21 -53v-92h151v-108h-151v-391h-132v391h-76v108h76v92q0 87 54 138t143 51q50 0 89 -19l-30 -107q-27 9 -50 9zM571 770v-770h-132v770h132z" />
    <glyph glyph-name="zero.tf" 
d="M305 685q123 0 198 -97t75 -253q0 -157 -75 -253q-76 -97 -198 -97q-121 0 -197 97t-76 253q0 154 76 253q75 97 197 97zM305 110q63 0 99 62t36 163t-36 163q-36 61 -99 61q-62 0 -98 -61q-37 -63 -37 -163t37 -163q36 -62 98 -62z" />
    <glyph glyph-name="one.tf" 
d="M548 123v-123h-474v123h185v386l-185 -90v123l233 128h84v-547h157z" />
    <glyph glyph-name="two.tf" 
d="M539 123v-123h-456v88l226 224l16 16l17 17q8 8 15 16q15 17 16 19q1 1 3 5t4.5 7.5t4.5 7.5q8 13 11 23q4 14 6 23t2 27q0 42 -27 69q-26 26 -72 26q-101 0 -110 -123l-124 26q5 97 69 156q64 58 167 58t165 -58q63 -59 63 -151q0 -66 -33 -120q-32 -53 -113 -132
l-103 -101h253z" />
    <glyph glyph-name="three.tf" 
d="M468 337q40 -16 63 -53q22 -35 22 -85q0 -97 -65 -155q-67 -59 -172 -59t-172 58q-69 59 -76 154l127 25q17 -119 121 -119q50 0 81 27q32 27 32 68q0 40 -26 63t-75 23h-77v108h69q46 0 72 23t26 61q0 42 -28 66t-74 24q-48 0 -80 -30q-30 -29 -35 -91l-124 25
q7 95 73 156q63 59 166 59t165 -58t62 -151q0 -98 -75 -139z" />
    <glyph glyph-name="four.tf" 
d="M573 135h-73v-135h-132v135h-325v125l277 410h180v-425h73v-110zM368 245v291l-190 -291h190z" />
    <glyph glyph-name="five.tf" 
d="M222 433h102q104 0 166 -58q63 -59 63 -158q0 -102 -68 -167t-179 -65q-106 0 -177 61q-72 62 -72 171l131 26q0 -68 34 -102t87 -34q51 0 83 30q31 30 31 78q0 43 -30 70t-79 27h-224l11 358h421v-123h-295z" />
    <glyph glyph-name="six.tf" 
d="M342 434q109 0 171 -61q63 -61 63 -160q0 -98 -69 -163q-70 -65 -177 -65q-125 0 -200 90t-75 250q0 190 90 283q75 77 187 77q88 0 147 -41q60 -42 81 -118l-130 -25q-21 65 -103 65q-55 0 -94 -42q-51 -56 -51 -157q61 67 160 67zM327 106q45 0 79 31t34 78
q0 48 -34 78q-35 30 -79 30q-43 0 -76 -30t-33 -80q0 -47 33 -77t76 -30z" />
    <glyph glyph-name="seven.tf" 
d="M559 670v-97l-270 -573h-152l265 547h-361v123h518z" />
    <glyph glyph-name="eight.tf" 
d="M438 339q59 -21 92 -63t33 -95q0 -87 -69 -141q-70 -55 -183 -55q-112 0 -184 55q-70 54 -70 141q0 52 33 94q32 41 93 64q-105 47 -105 162q0 83 64 134q63 50 169 50q105 0 168 -50q64 -51 64 -134q0 -55 -27 -97q-27 -43 -78 -65zM309 576q-39 0 -68 -23t-29 -64
t28 -63t69 -22q40 0 71 23q30 22 30 64q0 41 -30 63q-29 22 -71 22zM309 98q42 0 75 25q31 24 31 67t-31 67q-30 23 -75 23q-42 0 -72 -24t-30 -68q0 -42 29 -66q28 -24 73 -24z" />
    <glyph glyph-name="nine.tf" 
d="M280 684q126 0 201 -90q74 -89 74 -250q0 -190 -90 -283q-75 -77 -187 -77q-86 0 -146 42q-62 43 -82 117l130 25q21 -65 103 -65q55 0 94 42q51 55 51 157q-61 -67 -160 -67q-106 0 -170 62t-64 159q0 100 69 164q68 64 177 64zM283 346q43 0 77 31q32 29 32 79
q0 48 -32 77q-33 30 -77 30q-45 0 -79 -31t-34 -78t34 -77q36 -31 79 -31z" />
    <glyph glyph-name="zero.zero.tf" 
d="M305 685q123 0 198 -97t75 -253q0 -157 -75 -253q-76 -97 -198 -97q-121 0 -197 97t-76 253q0 154 76 253q75 97 197 97zM305 559q-62 0 -98 -61q-37 -63 -37 -163q0 -42 8 -85l207 272q-31 37 -80 37zM305 110q63 0 99 62t36 163q0 41 -8 84l-207 -272q31 -37 80 -37z
" />
    <glyph glyph-name="zero.zero" horiz-adv-x="650" 
d="M333 685q130 0 209 -97t79 -253q0 -158 -79 -253q-80 -97 -209 -97q-128 0 -208 97t-80 253q0 155 80 253q79 97 208 97zM333 560q-68 0 -109 -62t-41 -163q0 -41 8 -81l215 282q-32 24 -73 24zM333 110q68 0 109 62t41 163q0 66 -18 115l-226 -298q39 -42 94 -42z" />
    <glyph glyph-name="zero.dnom" horiz-adv-x="407" 
d="M203 386q75 0 122 -54q46 -53 46 -144t-46 -144q-47 -54 -122 -54t-120 54q-46 55 -46 144t46 144q45 54 120 54zM203 75q31 0 48 30q17 31 17 83q0 53 -17 82t-48 29q-29 0 -46 -29t-17 -82q0 -52 17 -83q17 -30 46 -30z" />
    <glyph glyph-name="one.dnom" horiz-adv-x="251" 
d="M189 0h-96v253l-72 -47v102l105 72h63v-380z" />
    <glyph glyph-name="two.dnom" horiz-adv-x="351" 
d="M175 84h138v-84h-288v64l143 121q27 23 43 43q12 15 12 35q0 19 -14 33q-13 13 -37 13q-57 0 -60 -71l-82 19q0 61 39 97t103 36q65 0 104 -33t39 -93q0 -39 -22 -70q-21 -30 -67 -68z" />
    <glyph glyph-name="three.dnom" horiz-adv-x="347" 
d="M263 194q54 -27 54 -81q0 -53 -41 -88t-105 -35t-104 34q-42 35 -43 91l80 20q5 -65 68 -65q24 0 40 13q15 12 15 32q0 21 -14 31q-16 11 -40 11h-40v68h33q25 0 42 11q16 10 16 29t-15 31t-39 12q-57 0 -59 -62l-84 20q4 55 44 87t98 32q63 0 102 -33t39 -84
q0 -50 -47 -74z" />
    <glyph glyph-name="four.dnom" horiz-adv-x="382" 
d="M353 70h-50v-70h-89v70h-194v86l171 224h112v-232h50v-78zM214 148v134l-102 -134h102z" />
    <glyph glyph-name="five.dnom" horiz-adv-x="347" 
d="M129 246h68q53 0 89 -33t36 -90q0 -58 -41 -96q-40 -37 -106 -37q-61 0 -103 33t-48 80l91 17q5 -22 21 -36q16 -13 39 -13q21 0 39 13q16 12 16 35q0 25 -17 36t-45 11h-129l11 212h252v-84h-170z" />
    <glyph glyph-name="six.dnom" horiz-adv-x="349" 
d="M198 248q59 0 95 -36t36 -92q0 -57 -40 -93q-42 -37 -104 -37q-78 0 -121 49q-44 50 -44 138q0 110 55 165q43 43 110 43q58 0 95 -28t46 -81l-93 -14q-6 45 -51 45q-26 0 -43 -21q-18 -22 -22 -59q36 21 81 21zM181 66q25 0 42 17t17 40q0 24 -17 41t-42 17t-42 -17
t-17 -41t17 -41q16 -16 42 -16z" />
    <glyph glyph-name="seven.dnom" horiz-adv-x="301" 
d="M291 380v-74l-134 -306h-103l136 296h-183v84h284z" />
    <glyph glyph-name="eight.dnom" horiz-adv-x="372" 
d="M270 197q69 -25 69 -95q0 -48 -42 -80q-43 -32 -111 -32q-67 0 -110 32t-43 80q0 69 68 95q-53 27 -53 82q0 44 40 75t99 31q58 0 98 -31t40 -75q0 -57 -55 -82zM186 315q-23 0 -38 -12t-15 -34q0 -17 16 -31q14 -13 37 -13q22 0 38 13q15 12 15 31q0 22 -15 34t-38 12z
M186 65q24 0 40 14q15 13 15 34t-15 35q-14 13 -40 13t-40 -13q-16 -14 -16 -35t16 -34q17 -14 40 -14z" />
    <glyph glyph-name="nine.dnom" horiz-adv-x="349" 
d="M164 385q78 0 121 -49q44 -50 44 -138q0 -110 -55 -165q-43 -43 -110 -43q-56 0 -94 29t-47 80l93 14q6 -45 51 -45q25 0 43 21q18 22 22 59q-36 -21 -81 -21q-58 0 -94 36q-37 37 -37 92q0 58 41 94t103 36zM168 194q25 0 42 17t17 41t-17 41q-16 16 -42 16t-42 -16
q-17 -17 -17 -41t17 -41t42 -17z" />
    <glyph glyph-name="zero.numr" horiz-adv-x="407" 
d="M203 680q75 0 122 -54q46 -53 46 -144t-46 -144q-47 -54 -122 -54t-120 54q-46 55 -46 144t46 144q45 54 120 54zM203 369q31 0 48 30q17 31 17 83q0 53 -17 82t-48 29q-29 0 -46 -29t-17 -82q0 -52 17 -83q17 -30 46 -30z" />
    <glyph glyph-name="one.numr" horiz-adv-x="251" 
d="M189 290h-96v253l-72 -47v102l105 72h63v-380z" />
    <glyph glyph-name="two.numr" horiz-adv-x="351" 
d="M175 374h138v-84h-288v64l143 121q27 23 43 43q12 15 12 35q0 19 -14 33q-13 13 -37 13q-57 0 -60 -71l-82 19q0 61 39 97t103 36q65 0 104 -33t39 -93q0 -39 -22 -70q-21 -30 -67 -68z" />
    <glyph glyph-name="three.numr" horiz-adv-x="347" 
d="M263 489q54 -27 54 -81q0 -53 -41 -88t-105 -35t-104 34q-42 35 -43 91l80 20q5 -65 68 -65q24 0 40 13q15 12 15 32q0 21 -14 31q-16 11 -40 11h-40v68h33q25 0 42 11q16 10 16 29t-15 31t-39 12q-57 0 -59 -62l-84 20q4 55 44 87t98 32q63 0 102 -33t39 -84
q0 -50 -47 -74z" />
    <glyph glyph-name="four.numr" horiz-adv-x="382" 
d="M353 360h-50v-70h-89v70h-194v86l171 224h112v-232h50v-78zM214 438v134l-102 -134h102z" />
    <glyph glyph-name="five.numr" horiz-adv-x="347" 
d="M129 538h68q53 0 89 -33t36 -90q0 -58 -41 -96q-40 -37 -106 -37q-61 0 -103 33t-48 80l91 17q5 -22 21 -36q16 -13 39 -13q21 0 39 13q16 12 16 35q0 25 -17 36t-45 11h-129l11 212h252v-84h-170z" />
    <glyph glyph-name="six.numr" horiz-adv-x="349" 
d="M198 543q59 0 95 -36t36 -92q0 -57 -40 -93q-42 -37 -104 -37q-78 0 -121 49q-44 50 -44 138q0 110 55 165q43 43 110 43q58 0 95 -28t46 -81l-93 -14q-6 45 -51 45q-26 0 -43 -21q-18 -22 -22 -59q36 21 81 21zM181 361q25 0 42 17t17 40q0 24 -17 41t-42 17t-42 -17
t-17 -41t17 -41q16 -16 42 -16z" />
    <glyph glyph-name="seven.numr" horiz-adv-x="301" 
d="M291 670v-74l-134 -306h-103l136 296h-183v84h284z" />
    <glyph glyph-name="eight.numr" horiz-adv-x="372" 
d="M270 492q69 -25 69 -95q0 -49 -42 -80q-43 -32 -111 -32q-67 0 -110 32t-43 80q0 69 68 95q-53 26 -53 82q0 44 40 75t99 31q58 0 98 -31t40 -75q0 -57 -55 -82zM186 610q-23 0 -38 -12t-15 -34q0 -17 16 -31q14 -13 37 -13q22 0 38 13q15 12 15 31q0 22 -15 34t-38 12z
M186 360q24 0 40 14q15 14 15 34q0 22 -15 35q-14 13 -40 13t-40 -13q-16 -14 -16 -35t16 -34q17 -14 40 -14z" />
    <glyph glyph-name="nine.numr" horiz-adv-x="349" 
d="M164 680q78 0 121 -49q44 -50 44 -138q0 -110 -55 -165q-43 -43 -110 -43q-56 0 -94 29t-47 80l93 14q6 -45 51 -45q25 0 43 21q18 22 22 59q-36 -21 -81 -21q-58 0 -94 36q-37 37 -37 92q0 58 41 94q40 36 103 36zM168 489q25 0 42 17t17 41t-17 41q-16 16 -42 16
t-42 -16q-17 -17 -17 -41t17 -41t42 -17z" />
    <glyph glyph-name="backslash.case" horiz-adv-x="418" 
d="M393 0h-130l-238 670h130z" />
    <glyph glyph-name="periodcentered.case" horiz-adv-x="238" 
d="M119 400q34 0 57 -23q22 -22 22 -54t-22 -54t-57 -22q-34 0 -56 22q-23 23 -23 54t23 54t56 23z" />
    <glyph glyph-name="bullet.case" horiz-adv-x="422" 
d="M211 494q73 0 122 -49t49 -117q0 -69 -48 -117t-123 -48q-74 0 -122 48q-49 49 -49 117t49 117t122 49z" />
    <glyph glyph-name="colon.case" horiz-adv-x="238" 
d="M119 555q34 0 57 -23q22 -22 22 -54t-22 -54t-57 -22q-34 0 -56 22q-23 23 -23 54t23 54t56 23zM119 239q34 0 57 -23q22 -22 22 -54t-22 -54t-57 -22q-34 0 -56 22q-23 23 -23 54t23 54t56 23z" />
    <glyph glyph-name="exclamdown.case" horiz-adv-x="288" 
d="M144 521q-33 0 -56 23t-23 54t23 54q22 22 56 22q35 0 57 -22t22 -54t-22 -54q-23 -23 -57 -23zM72 31l5 420h135l5 -420v-31h-145v31z" />
    <glyph glyph-name="questiondown.case" horiz-adv-x="534" 
d="M274 524q-33 0 -56 23t-23 54t23 54q22 22 56 22q35 0 57 -22t22 -54t-22 -54q-23 -23 -57 -23zM379 220l125 -25q-6 -84 -75 -146q-68 -61 -172 -61q-103 0 -168 60q-64 60 -64 157q0 77 51 126q52 51 136 61v56h121v-156h-76q-47 0 -75 -24q-29 -24 -29 -63
q0 -43 29 -72q28 -28 75 -28q50 0 81 31q32 32 41 84z" />
    <glyph glyph-name="semicolon.case" horiz-adv-x="270" 
d="M151 555q34 0 57 -23q22 -22 22 -54t-22 -54t-57 -22q-34 0 -56 22q-23 23 -23 54t23 54t56 23zM109 -132h-99l60 268h152v-3z" />
    <glyph glyph-name="slash.case" horiz-adv-x="478" 
d="M172 0h-117l250 670h117z" />
    <glyph glyph-name="braceleft.case" horiz-adv-x="424" 
d="M249 527v-84q0 -39 -17 -66q-18 -29 -49 -42q66 -29 66 -109v-83q0 -32 30 -32h105v-111h-122q-62 0 -101 36t-39 93v81q0 28 -17 41q-20 15 -54 25l-31 10v98l31 10q37 12 54 25t17 40v82q0 58 39 94q38 35 101 35h122v-111h-105q-12 0 -21 -9t-9 -23z" />
    <glyph glyph-name="braceright.case" horiz-adv-x="424" 
d="M404 384v-98l-31 -10q-32 -9 -53 -25q-18 -14 -18 -41v-81q0 -58 -38 -93q-39 -36 -102 -36h-122v111h105q30 0 30 32v83q0 80 66 109q-29 13 -48 42q-18 29 -18 66v84q0 15 -8 23q-9 9 -22 9h-105v111h122q64 0 102 -35t38 -94v-82q0 -27 18 -40t53 -25z" />
    <glyph glyph-name="bracketleft.case" horiz-adv-x="405" 
d="M197 557v-444h168v-113h-295v670h295v-113h-168z" />
    <glyph glyph-name="bracketright.case" horiz-adv-x="405" 
d="M335 670v-670h-295v113h168v444h-168v113h295z" />
    <glyph glyph-name="parenleft.case" horiz-adv-x="336" 
d="M213 686l83 -80q-60 -70 -86 -132q-28 -65 -28 -140q0 -73 28 -138q27 -64 86 -133l-83 -80q-173 149 -173 351q0 203 173 352z" />
    <glyph glyph-name="parenright.case" horiz-adv-x="336" 
d="M40 606l83 80q173 -149 173 -352q0 -202 -173 -351l-83 80q61 72 87 133q27 63 27 138q0 77 -27 140q-25 59 -87 132z" />
    <glyph glyph-name="emdash.case" horiz-adv-x="1040" 
d="M980 280h-920v100h920v-100z" />
    <glyph glyph-name="endash.case" horiz-adv-x="620" 
d="M560 280h-500v100h500v-100z" />
    <glyph glyph-name="hyphen.case" horiz-adv-x="448" 
d="M388 273h-328v114h328v-114z" />
    <glyph glyph-name="guillemotleft.case" horiz-adv-x="472" 
d="M25 322l112 178h130l-112 -178l112 -178h-130zM205 322l112 178h130l-112 -178l112 -178h-130z" />
    <glyph glyph-name="guillemotright.case" horiz-adv-x="472" 
d="M25 144l112 178l-112 178h130l112 -178l-112 -178h-130zM205 144l112 178l-112 178h130l112 -178l-112 -178h-130z" />
    <glyph glyph-name="guilsinglleft.case" horiz-adv-x="292" 
d="M25 322l112 178h130l-112 -178l112 -178h-130z" />
    <glyph glyph-name="guilsinglright.case" horiz-adv-x="292" 
d="M25 144l112 178l-112 178h130l112 -178l-112 -178h-130z" />
    <glyph glyph-name="cent.tf" 
d="M340 387v-275q61 18 85 91l122 -31q-18 -71 -72 -121q-52 -48 -130 -62v-119h-111v122q-88 19 -146 90q-58 70 -58 167q0 96 58 168q57 70 146 90v123h111v-120q74 -14 127 -61q54 -48 75 -119l-127 -36q-18 73 -80 93zM158 249q0 -46 22 -82q21 -35 59 -50v265
q-38 -17 -59 -51q-22 -36 -22 -82z" />
    <glyph glyph-name="dollar.tf" 
d="M562 206q0 -80 -52 -132q-54 -54 -140 -64v-110h-112v114q-85 17 -141 68q-58 53 -62 133l133 26q5 -83 75 -110v157l-26 5q-68 12 -119 55q-50 42 -50 120t52 130t138 62v110h112v-113q82 -17 132 -68q50 -52 55 -132l-132 -23q1 76 -60 105v-146l32 -7q78 -16 122 -62
q43 -44 43 -118zM204 476q0 -48 59 -62v133q-27 -9 -43 -28t-16 -43zM365 267v-142q34 8 52 29t18 47q0 25 -16 41t-54 25z" />
    <glyph glyph-name="Euro.tf" 
d="M326 112q80 0 122 127l137 -25q-25 -103 -94 -166t-165 -63q-100 0 -168 60q-68 61 -92 172h-50v96h39v22v22h-39v95h50q24 113 92 173t168 60q97 0 166 -63q67 -61 93 -172l-136 -23q-17 68 -48 99q-33 33 -75 33q-87 0 -119 -107h185l-23 -95h-176v-22v-22h169l-22 -96
h-133q31 -105 119 -105z" />
    <glyph glyph-name="florin.tf" 
d="M479 567q-35 0 -59 -21t-31 -61l-18 -101h154v-108h-174l-49 -269q-13 -77 -67 -125q-53 -47 -130 -47q-49 0 -101 28l42 106q31 -10 60 -10q25 0 44 14q18 13 22 34l48 269h-104v108h124l18 101q16 90 78 146q59 53 150 53q67 0 119 -34l-44 -108q-35 25 -82 25z" />
    <glyph glyph-name="sterling.tf" 
d="M250 123h323v-123h-541v83l82 24v131h-82v123h82v97q0 101 64 165q62 62 167 62q102 0 162 -60q59 -59 67 -167l-122 -20q-10 64 -36 91q-25 26 -71 26q-44 0 -69 -26q-26 -28 -26 -71v-97h157v-123h-157v-115z" />
    <glyph glyph-name="yen.tf" 
d="M416 338h109v-100h-155v-50h155v-100h-155v-88h-136v88h-149v100h149v50h-149v100h103l-179 332h150l143 -294l142 294h156z" />
    <glyph glyph-name="approxequal.tf" 
d="M535 456v-109q-37 -19 -102 -19q-54 0 -121 22t-119 22q-83 0 -118 -29v108q39 30 118 30q53 0 122 -22t120 -22q66 0 100 19zM535 309v-108q-42 -20 -102 -20q-50 0 -121 23q-67 22 -119 22q-80 0 -118 -29v108q39 30 118 30q53 0 122 -22t120 -22q65 0 100 18z" />
    <glyph glyph-name="divide.tf" 
d="M300 547q34 0 57 -23q22 -22 22 -54t-22 -54t-57 -22q-34 0 -56 22q-23 23 -23 54t23 54t56 23zM535 247h-460v116h460v-116zM300 197q34 0 57 -23q22 -22 22 -54t-22 -54t-57 -22q-34 0 -56 22q-23 23 -23 54t23 54t56 23z" />
    <glyph glyph-name="equal.tf" 
d="M535 363h-460v115h460v-115zM535 165h-460v115h460v-115z" />
    <glyph glyph-name="greater.tf" 
d="M355 329l-226 72v140l379 -143v-140l-379 -141v137z" />
    <glyph glyph-name="greaterequal.tf" 
d="M349 396l-219 51v135l359 -122v-128l-359 -121v131zM489 83h-359v115h359v-115z" />
    <glyph glyph-name="less.tf" 
d="M481 117l-379 141v140l379 143v-140l-226 -72l226 -75v-137z" />
    <glyph glyph-name="lessequal.tf" 
d="M482 211l-359 121v128l359 122v-135l-219 -51l219 -54v-131zM482 198v-115h-359v115h359z" />
    <glyph glyph-name="minus.tf" 
d="M535 247h-460v116h460v-116z" />
    <glyph glyph-name="multiply.tf" 
d="M388 305l134 -134l-83 -84l-135 135l-135 -135l-83 84l134 134l-134 134l83 84l135 -135l135 135l83 -84z" />
    <glyph glyph-name="notequal.tf" 
d="M386 363l-46 -83h195v-115h-257l-38 -69h-117l38 69h-86v115h148l46 83h-194v115h256l40 73h117l-40 -73h87v-115h-149z" />
    <glyph glyph-name="plus.tf" 
d="M535 247h-172v-176h-116v176h-172v116h172v176h116v-176h172v-116z" />
    <glyph glyph-name="plusminus.tf" 
d="M535 447v-115h-172v-146h-116v146h-172v115h172v166h116v-166h172zM75 115h460v-115h-460v115z" />
    <glyph glyph-name="bar.case" horiz-adv-x="267" 
d="M197 -41h-127v752h127v-752z" />
    <glyph glyph-name="at.case" horiz-adv-x="943" 
d="M664 513v-283q0 -23 17 -38t40 -15q43 0 66 51q22 50 22 115q0 135 -96 220q-95 85 -236 85q-149 0 -245 -95q-98 -96 -98 -240t97 -238q98 -95 237 -95q136 0 244 81l43 -68q-51 -42 -130 -67q-80 -25 -155 -25q-176 0 -298 117t-122 294q0 179 123 296t304 117
q175 0 295 -107q121 -108 121 -269q0 -46 -10 -86q-11 -46 -30 -79q-21 -38 -58 -60q-38 -23 -88 -23q-86 0 -116 60q-51 -59 -140 -59q-86 0 -146 58q-58 57 -58 150q0 96 59 153q58 57 144 57q78 0 128 -49v42h86zM463 189q45 0 81 34q34 33 34 88t-34 88q-33 32 -81 32
q-47 0 -80 -32q-34 -33 -34 -88q0 -56 34 -89t80 -33z" />
    <glyph glyph-name="caron.alt" horiz-adv-x="600" 
d="M357 451h-104v199h133z" />
    </font>
</defs>
</svg>
