<?xml version="1.0" standalone="no"?>
<!DOCTYPE svg PUBLIC "-//W3C//DTD SVG 1.1//EN" "http://www.w3.org/Graphics/SVG/1.1/DTD/svg11.dtd" >
<svg xmlns="http://www.w3.org/2000/svg" xmlns:xlink="http://www.w3.org/1999/xlink" version="1.1">
<metadata>
Created by FontForge 20170731 at Fri Jan  1 02:30:17 1904
 By Aleksey,,,
Copyright (c) 2014 by Rene' Bieder. All rights reserved.
</metadata>
<defs>
<font id="GalanoGrotesqueAlt-HeavyItalic" horiz-adv-x="610" >
  <font-face 
    font-family="Galano Grotesque Alt"
    font-weight="400"
    font-style="italic"
    font-stretch="normal"
    units-per-em="1000"
    panose-1="0 0 9 0 0 0 0 0 0 0"
    ascent="757"
    descent="-243"
    x-height="506"
    cap-height="670"
    bbox="-480 -250 1393 995"
    underline-thickness="50"
    underline-position="-175"
    slope="-13"
    unicode-range="U+0020-FB02"
  />
<missing-glyph horiz-adv-x="776" 
d="M427 684q145 0 246 -100q102 -100 102 -250q0 -151 -102 -250t-246 -99t-247 100q-102 99 -102 249t102 250q101 100 247 100zM427 629q-120 0 -204 -84q-85 -85 -85 -211q0 -125 85 -210q84 -84 204 -84t204 84t84 210q0 127 -84 211t-204 84zM570 402q0 -40 -25 -66
q-26 -27 -70 -38v-25h-110v94h48q43 0 43 28t-32 28t-37 -33l-112 22q10 47 51 79q40 31 107 31q61 0 99 -34t38 -86zM418 255q26 0 44 -18q17 -17 17 -41q0 -23 -17 -42q-16 -18 -44 -18q-25 0 -43 18t-18 42q0 23 18 41t43 18z" />
    <glyph glyph-name="fi" unicode="fi" horiz-adv-x="678" 
d="M697 507l-117 -507h-201l81 351h-150l-81 -351h-201l81 351h-65l36 156h65l17 74q21 88 91 144q68 55 158 55q54 0 99 -15l-64 -155q-14 3 -23 3q-23 0 -40 -13q-19 -14 -23 -35l-13 -58h350zM631 762q48 0 80 -32t32 -76q0 -47 -31 -77q-33 -31 -81 -31q-47 0 -80 31
q-31 30 -31 77q0 44 32 76t79 32z" />
    <glyph glyph-name="fl" unicode="fl" horiz-adv-x="746" 
d="M310 351l-81 -351h-201l81 351h-65l36 156h65l17 74q21 90 91 145q69 54 164 54q65 0 104 -19l-37 -159q-25 11 -58 11q-54 0 -66 -48l-13 -58h116l-36 -156h-117zM762 770l-134 -579q-10 -36 25 -36q15 0 54 6l-1 -150q-58 -26 -141 -26q-82 0 -123 53q-40 51 -20 139
l139 593h201z" />
    <glyph glyph-name=".notdef" horiz-adv-x="776" 
d="M427 684q145 0 246 -100q102 -100 102 -250q0 -151 -102 -250t-246 -99t-247 100q-102 99 -102 249t102 250q101 100 247 100zM427 629q-120 0 -204 -84q-85 -85 -85 -211q0 -125 85 -210q84 -84 204 -84t204 84t84 210q0 127 -84 211t-204 84zM570 402q0 -40 -25 -66
q-26 -27 -70 -38v-25h-110v94h48q43 0 43 28t-32 28t-37 -33l-112 22q10 47 51 79q40 31 107 31q61 0 99 -34t38 -86zM418 255q26 0 44 -18q17 -17 17 -41q0 -23 -17 -42q-16 -18 -44 -18q-25 0 -43 18t-18 42q0 23 18 41t43 18z" />
    <glyph glyph-name=".null" horiz-adv-x="0" 
 />
    <glyph glyph-name="nonmarkingreturn" horiz-adv-x="333" 
 />
    <glyph glyph-name="space" unicode=" " horiz-adv-x="216" 
 />
    <glyph glyph-name="exclam" unicode="!" horiz-adv-x="314" 
d="M379 670l-7 -31l-108 -395h-194l74 395l7 31h228zM140 205q48 0 79 -31q32 -32 32 -74q0 -45 -31 -75q-32 -30 -80 -30q-47 0 -79 30q-31 30 -31 75q0 42 32 74q31 31 78 31z" />
    <glyph glyph-name="quotedbl" unicode="&#x22;" horiz-adv-x="483" 
d="M120 330l78 340h176l-78 -340h-176zM343 330l78 340h177l-78 -340h-177z" />
    <glyph glyph-name="numbersign" unicode="#" horiz-adv-x="739" 
d="M608 381l-50 -103h97l-71 -142h-94l-65 -136h-157l65 136h-98l-65 -136h-157l65 136h-96l71 142h93l50 103h-97l70 142h95l70 147h157l-70 -147h98l70 147h157l-70 -147h95l-71 -142h-92zM450 381h-98l-49 -103h98z" />
    <glyph glyph-name="dollar" unicode="$" horiz-adv-x="605" 
d="M344 435l85 -34q79 -31 113 -68q36 -39 36 -107q0 -96 -71 -150q-70 -53 -172 -64l-26 -112h-165l30 129q-68 23 -109 68q-42 46 -49 107l201 37q15 -75 89 -75q62 0 62 41q0 20 -38 34l-63 23q-85 30 -126 72q-40 41 -40 112q0 88 60 142q59 53 158 67l26 113h165
l-28 -122q67 -18 107 -61q41 -44 50 -108l-192 -39q-13 70 -80 70q-23 0 -39 -11t-16 -31q0 -19 32 -33z" />
    <glyph glyph-name="percent" unicode="%" horiz-adv-x="946" 
d="M408 685q67 0 112 -42t45 -111q0 -86 -63 -142q-64 -56 -146 -56q-69 0 -114 42q-46 43 -46 110q0 85 64 143q62 56 148 56zM218 0l629 670h103l-628 -670h-104zM391 573q-27 0 -50 -20q-22 -19 -22 -52q0 -25 16 -40q18 -16 38 -16q25 0 48 21q22 21 22 52q0 25 -15 40
t-37 15zM825 337q68 0 113 -42q44 -41 44 -112q0 -87 -62 -142q-64 -56 -147 -56q-67 0 -113 43t-46 110q0 85 64 143q62 56 147 56zM809 225q-27 0 -50 -20t-23 -53q0 -24 16 -40q15 -15 38 -15q26 0 49 21q22 21 22 52q0 25 -15 40t-37 15z" />
    <glyph glyph-name="ampersand" unicode="&#x26;" horiz-adv-x="702" 
d="M676 373l-6 -34q-17 -98 -62 -171l65 -70l-136 -125l-61 65q-92 -53 -203 -53q-107 0 -180 50t-73 130q0 138 160 210q-25 46 -25 93q0 97 72 157t187 60q105 0 160 -50q53 -49 55 -130l-180 -33q3 60 -51 60q-22 0 -35 -14q-14 -16 -14 -37q0 -36 44 -83l84 -89
q3 13 6 30l7 34h186zM295 142q31 0 68 18l-95 102q-43 -27 -43 -64q0 -25 18 -40q19 -16 52 -16z" />
    <glyph glyph-name="quotesingle" unicode="'" horiz-adv-x="260" 
d="M120 330l78 340h176l-78 -340h-176z" />
    <glyph glyph-name="parenleft" unicode="(" horiz-adv-x="423" 
d="M374 755l133 -136q-180 -131 -208 -282q-5 -61 -5 -62q-3 -25 5 -55q10 -40 13 -48q6 -20 21 -45t26 -42q12 -18 30 -42l-162 -125q-179 202 -136 444q21 120 89 209q66 86 194 184z" />
    <glyph glyph-name="parenright" unicode=")" horiz-adv-x="423" 
d="M109 -82l-133 136q178 130 207 282q3 38 6 63q3 24 -5 54q-6 24 -14 49q-6 21 -20 44q-12 21 -27 43q-6 9 -30 41l162 125q179 -202 136 -444q-13 -81 -54 -152q-43 -75 -92 -124t-136 -117z" />
    <glyph glyph-name="asterisk" unicode="*" horiz-adv-x="467" 
d="M494 503l69 -82l-77 -64l-66 78l-33 -90l-101 37l33 91l-101 -18l-18 98l104 18l-68 80l77 65l66 -78l33 89l101 -36l-33 -90l101 17l17 -97z" />
    <glyph glyph-name="plus" unicode="+" horiz-adv-x="564" 
d="M552 225h-171l-40 -171h-153l40 171h-170l36 152h169l40 171h153l-40 -171h171z" />
    <glyph glyph-name="comma" unicode="," horiz-adv-x="283" 
d="M2 -132h-166l131 318h226l-1 -5z" />
    <glyph glyph-name="hyphen" unicode="-" horiz-adv-x="457" 
d="M429 191h-337l38 166h337z" />
    <glyph glyph-name="period" unicode="." horiz-adv-x="265" 
d="M86 214q48 0 79 -32t31 -78q0 -47 -31 -78q-32 -32 -79 -32t-79 32q-31 31 -31 78q0 46 31 78t79 32z" />
    <glyph glyph-name="slash" unicode="/" horiz-adv-x="460" 
d="M487 720l-471 -790h-164l471 790h164z" />
    <glyph glyph-name="zero" unicode="0" horiz-adv-x="662" 
d="M430 685q140 0 216 -96q77 -96 45 -254q-31 -160 -119 -255q-87 -95 -233 -95q-64 0 -119 23q-56 23 -93 68q-39 47 -52 110q-14 68 2 149q32 161 119 256q87 94 234 94zM349 159q46 0 82 46q35 46 52 130q17 88 0 130q-18 45 -63 45t-81 -45t-54 -130q-16 -85 2 -131
q18 -45 62 -45z" />
    <glyph glyph-name="one" unicode="1" horiz-adv-x="418" 
d="M501 670l-154 -670h-203l99 430l-161 -58l47 203l238 95h134z" />
    <glyph glyph-name="two" unicode="2" horiz-adv-x="586" 
d="M313 176h209l-43 -176h-535l2 2l40 135l283 208q51 38 73 63q24 27 24 55q0 25 -15 39q-16 14 -42 14q-29 0 -50 -22t-28 -65l-195 35q15 102 96 162q80 59 193 59q109 0 175 -54t66 -146q0 -69 -45 -129q-46 -61 -131 -124z" />
    <glyph glyph-name="three" unicode="3" horiz-adv-x="587" 
d="M615 503q0 -105 -120 -163q67 -42 67 -125q0 -95 -76 -162q-77 -68 -201 -68q-110 0 -188 58q-76 56 -74 155l198 35q0 -38 19 -58q20 -21 52 -21t53 18t21 45q0 24 -17 37q-19 14 -48 14h-74l34 143h74q41 0 65 18t24 45q0 24 -17 38q-16 13 -44 13q-31 0 -53 -18
q-23 -19 -32 -52l-179 32q27 93 103 146q74 52 176 52t170 -51q67 -51 67 -131z" />
    <glyph glyph-name="four" unicode="4" horiz-adv-x="641" 
d="M539 270h80l-39 -166h-79l-24 -104h-190l24 104h-335l43 184l373 383h240zM350 270l49 212l-199 -212h150z" />
    <glyph glyph-name="five" unicode="5" horiz-adv-x="584" 
d="M294 497l-18 -59h50q112 0 167 -49q56 -50 56 -143q0 -112 -80 -186q-81 -75 -208 -75q-118 0 -187 63t-72 168l189 37q5 -101 82 -101q37 0 60 21q22 21 22 51q0 28 -19 43q-20 15 -54 15h-229l116 389h436l-41 -174h-270z" />
    <glyph glyph-name="six" unicode="6" horiz-adv-x="606" 
d="M419 436q89 0 141 -51t52 -137q0 -113 -82 -188t-194 -75q-126 0 -195 71q-69 70 -69 197q0 189 99 311q99 121 260 121q97 0 158 -45t70 -126l-181 -39q-7 46 -62 46q-47 0 -83 -37q-35 -37 -49 -96q58 48 135 48zM338 139q36 0 64 25t28 62q0 33 -23 54q-21 20 -54 20
q-35 0 -63 -25q-29 -26 -29 -62q0 -32 23 -53q22 -21 54 -21z" />
    <glyph glyph-name="seven" unicode="7" horiz-adv-x="532" 
d="M627 671l-35 -152l-325 -519h-229l314 495h-268l41 176h502z" />
    <glyph glyph-name="eight" unicode="8" horiz-adv-x="585" 
d="M596 493q-11 -110 -121 -153q80 -45 80 -137q0 -95 -83 -156q-85 -62 -214 -62q-116 0 -187 53t-71 135q0 138 152 183q-63 44 -63 121q0 88 80 148q79 60 194 60q110 0 175 -55t58 -137zM334 410q31 0 56 20q23 19 23 49q0 27 -19 43t-47 16q-32 0 -54 -19
q-23 -20 -23 -51q0 -25 19 -42q17 -16 45 -16zM273 140q32 0 57 20q24 20 24 52q0 29 -19 45t-49 16q-35 0 -57 -19q-23 -20 -23 -53q0 -27 20 -44t47 -17z" />
    <glyph glyph-name="nine" unicode="9" horiz-adv-x="608" 
d="M368 685q127 0 196 -70q68 -69 68 -198q0 -189 -99 -310q-99 -122 -260 -122q-95 0 -157 45q-63 46 -70 127l181 38q4 -46 62 -46q47 0 83 37q34 35 48 96q-58 -48 -135 -48q-88 0 -140 52q-53 53 -53 137q0 113 83 188q81 74 193 74zM351 370q36 0 64 25t28 62
q0 33 -23 54q-22 21 -54 21q-35 0 -63 -25q-29 -26 -29 -63q0 -32 23 -53t54 -21z" />
    <glyph glyph-name="colon" unicode=":" horiz-adv-x="266" 
d="M155 513q49 0 80 -33q31 -32 31 -78q0 -47 -31 -78t-80 -31q-48 0 -79 31t-31 78q0 44 32 78q31 33 78 33zM86 214q48 0 79 -32t31 -78q0 -47 -31 -78q-32 -32 -79 -32t-79 32q-31 31 -31 78q0 46 31 78t79 32z" />
    <glyph glyph-name="semicolon" unicode=";" horiz-adv-x="310" 
d="M113 513q49 0 80 -33q31 -32 31 -78q0 -47 -31 -78t-80 -31q-48 0 -78 31q-31 33 -31 78q0 46 31 78q31 33 78 33zM2 -132h-166l131 318h226l-1 -5z" />
    <glyph glyph-name="less" unicode="&#x3c;" horiz-adv-x="496" 
d="M264 318l219 -59l-39 -165l-392 143l41 177l458 143l-42 -184z" />
    <glyph glyph-name="equal" unicode="=" horiz-adv-x="565" 
d="M557 334h-493l33 144h494zM512 136h-494l33 144h494z" />
    <glyph glyph-name="greater" unicode="&#x3e;" horiz-adv-x="495" 
d="M295 333l-219 58l39 166l392 -143l-42 -178l-457 -142l42 184z" />
    <glyph glyph-name="question" unicode="?" horiz-adv-x="561" 
d="M668 486q0 -80 -54 -134t-147 -72l-9 -40h-200l39 169h86q33 0 62 16q27 15 27 41q0 22 -14 33q-15 12 -39 12q-27 0 -45 -17q-21 -19 -25 -46l-199 41q24 85 99 141q74 55 183 55q110 0 174 -56q62 -55 62 -143zM325 205q48 0 79 -31t31 -74q0 -45 -31 -75
q-32 -30 -79 -30t-79 30q-31 30 -31 75q0 43 31 74t79 31z" />
    <glyph glyph-name="at" unicode="@" horiz-adv-x="926" 
d="M761 465l-50 -272q-4 -17 6 -27q9 -9 27 -9q41 0 71 65q30 64 30 133q0 111 -75 178q-74 67 -195 67q-165 0 -284 -109q-120 -110 -120 -269q0 -121 79 -196q80 -75 209 -75q125 0 250 85l37 -74q-128 -97 -292 -97q-168 0 -273 96t-105 245q0 131 70 244q68 109 185 173
q114 62 250 62q155 0 256 -88t101 -231q0 -38 -7 -73q-8 -40 -25 -78t-46 -72q-28 -32 -73 -52q-46 -20 -102 -20q-94 0 -116 58q-57 -57 -143 -57q-70 0 -114 45q-44 46 -44 120q0 106 68 172t162 66q71 0 108 -49l7 39h148zM495 204q31 0 57 24q25 24 25 59q0 27 -15 43
t-41 16q-31 0 -57 -23q-25 -22 -25 -59q0 -27 16 -43q17 -17 40 -17z" />
    <glyph glyph-name="A" unicode="A" horiz-adv-x="765" 
d="M649 0h-213l-11 91h-256l-54 -91h-229l420 670h233zM404 262l-22 191l-113 -191h135z" />
    <glyph glyph-name="B" unicode="B" horiz-adv-x="667" 
d="M499 346l-1 -4q54 -2 86 -28q33 -27 33 -86q0 -99 -79 -163q-80 -65 -201 -65h-371l36 158l118 512h371q81 0 128 -39t47 -105q0 -59 -29 -101q-28 -41 -66 -60q-35 -17 -72 -19zM264 398h106q36 0 59 20t23 49q0 22 -14 33q-15 12 -40 12h-108zM209 158h116q37 0 61 21
q23 20 23 53q0 21 -15 33t-41 12h-117z" />
    <glyph glyph-name="C" unicode="C" horiz-adv-x="775" 
d="M505 685q135 0 223 -69t93 -183l-214 -38q-5 49 -36 78q-31 28 -83 28q-76 0 -131 -55q-56 -56 -56 -135q0 -60 37 -102q36 -40 98 -40q52 0 93 30q40 30 61 82l200 -41q-37 -118 -133 -187q-95 -68 -233 -68q-155 0 -243 85q-89 86 -89 221q0 163 118 278
q119 116 295 116z" />
    <glyph glyph-name="D" unicode="D" horiz-adv-x="731" 
d="M121 670h275q145 0 229 -74q86 -75 86 -206q0 -159 -122 -275q-121 -115 -304 -115h-319l115 498zM214 177h58q88 0 156 57t68 140q0 58 -36 91t-101 33h-71z" />
    <glyph glyph-name="E" unicode="E" horiz-adv-x="613" 
d="M286 499l-20 -87h301l-35 -154h-301l-20 -87h333l-40 -171h-540l155 670h535l-39 -171h-329z" />
    <glyph glyph-name="F" unicode="F" horiz-adv-x="602" 
d="M286 493l-24 -107h298l-40 -177h-299l-48 -209h-207l154 670h544l-40 -177h-338z" />
    <glyph glyph-name="G" unicode="G" horiz-adv-x="785" 
d="M466 402h362q-1 -35 -6 -67q-27 -161 -132 -256q-104 -94 -273 -94q-145 0 -235 87t-90 218q0 164 119 280q118 115 295 115q130 0 212 -53q83 -54 103 -147l-223 -48q-23 63 -106 63q-80 0 -135 -55q-56 -56 -56 -135q0 -63 37 -101q38 -39 99 -39q51 0 86 19
q37 20 50 47h-146z" />
    <glyph glyph-name="H" unicode="H" horiz-adv-x="722" 
d="M760 670l-154 -670h-207l57 250h-226l-57 -250h-207l154 670h207l-56 -244h226l56 244h207z" />
    <glyph glyph-name="I" unicode="I" horiz-adv-x="462" 
d="M354 495l-74 -319h107l-41 -176h-420l41 176h106l74 319h-107l40 175h420l-40 -175h-106z" />
    <glyph glyph-name="J" unicode="J" horiz-adv-x="624" 
d="M678 670l-97 -423q-28 -120 -111 -191t-213 -71q-117 0 -184 64q-67 65 -66 171l212 40q-7 -91 64 -91q35 0 59 21q23 20 32 57l57 248h-205l41 175h411z" />
    <glyph glyph-name="K" unicode="K" horiz-adv-x="718" 
d="M481 379l168 -379h-237l-95 221l-123 -119l-23 -102h-207l154 670h207l-54 -233l241 233h269z" />
    <glyph glyph-name="L" unicode="L" horiz-adv-x="578" 
d="M520 176l-39 -176h-515l154 670h207l-114 -494h307z" />
    <glyph glyph-name="M" unicode="M" horiz-adv-x="895" 
d="M933 670l-154 -670h-202l66 286l-201 -286h-139l-69 285l-66 -285h-202l154 670h206l102 -347l262 347h243z" />
    <glyph glyph-name="N" unicode="N" horiz-adv-x="751" 
d="M789 670l-154 -670h-170l-212 329l-76 -329h-207l154 670h170l209 -339l79 339h207z" />
    <glyph glyph-name="O" unicode="O" horiz-adv-x="780" 
d="M482 685q156 0 252 -102q96 -103 77 -248q-19 -152 -127 -251t-271 -99q-154 0 -250 102q-96 103 -77 248q18 149 132 249q115 101 264 101zM425 170q69 0 119 47t59 118q9 70 -29 119q-37 47 -104 47q-70 0 -118 -47q-50 -48 -59 -119t29 -118t103 -47z" />
    <glyph glyph-name="P" unicode="P" horiz-adv-x="664" 
d="M120 670h327q103 0 164 -52q62 -53 62 -147q0 -122 -91 -204q-92 -83 -233 -83h-134l-42 -184h-207zM252 344h101q45 0 78 27t33 68q0 30 -17 46q-19 17 -48 17h-111z" />
    <glyph glyph-name="Q" unicode="Q" horiz-adv-x="781" 
d="M811 335q-23 -173 -150 -270l145 -192h-258l-83 115q-25 -3 -52 -3q-154 0 -250 102q-96 103 -77 248q18 149 132 249q115 101 264 101q156 0 252 -102q96 -103 77 -248zM293 335q-9 -71 29 -118t103 -47q69 0 119 47t59 118q9 70 -29 119q-37 47 -104 47q-70 0 -118 -47
q-50 -48 -59 -119z" />
    <glyph glyph-name="R" unicode="R" horiz-adv-x="688" 
d="M682 476q0 -86 -52 -153q-52 -66 -142 -97l131 -226h-229l-114 206h-56l-47 -206h-207l154 670h338q106 0 165 -52t59 -142zM257 366h111q46 0 76 24q29 23 29 57q0 26 -18 41q-17 14 -52 14h-115z" />
    <glyph glyph-name="S" unicode="S" horiz-adv-x="652" 
d="M399 685q117 0 191 -49t94 -146l-208 -42q-5 36 -28 55q-25 20 -59 20q-27 0 -43 -12q-17 -12 -17 -32q0 -25 34 -35l107 -38q77 -26 113 -68q35 -41 35 -114q0 -108 -83 -173q-84 -66 -221 -66q-124 0 -209 58q-84 58 -95 151l217 40q17 -80 97 -80q30 0 50 11
q19 10 19 33q0 25 -49 38l-64 20q-86 28 -133 75q-45 45 -45 115q0 110 82 175q80 64 215 64z" />
    <glyph glyph-name="T" unicode="T" horiz-adv-x="662" 
d="M775 495h-207l-115 -495h-207l115 495h-207l40 175h621z" />
    <glyph glyph-name="U" unicode="U" horiz-adv-x="716" 
d="M814 670l-84 -366q-35 -154 -126 -236q-92 -83 -238 -83q-140 0 -218 88q-79 89 -46 231l84 366h208l-84 -366q-15 -63 7 -99q21 -35 72 -35q47 0 83 36q35 35 50 98l85 366h207z" />
    <glyph glyph-name="V" unicode="V" horiz-adv-x="738" 
d="M930 670l-421 -670h-202l-111 670h212l52 -395l222 395h248z" />
    <glyph glyph-name="W" unicode="W" horiz-adv-x="991" 
d="M1183 670l-340 -670h-228l-3 357l-169 -357h-217l-30 670h200l16 -362l176 362h196l-5 -362l184 362h220z" />
    <glyph glyph-name="X" unicode="X" horiz-adv-x="698" 
d="M449 335l132 -335h-220l-70 180l-153 -180h-248l285 335l-123 335h219l64 -176l145 176h248z" />
    <glyph glyph-name="Y" unicode="Y" horiz-adv-x="729" 
d="M555 204l-48 -204h-216l47 203l-142 467h205l77 -261l196 261h247z" />
    <glyph glyph-name="Z" unicode="Z" horiz-adv-x="649" 
d="M621 510l-348 -336h281l-40 -174h-586l31 134l386 363h-294l40 173h566z" />
    <glyph glyph-name="bracketleft" unicode="[" horiz-adv-x="418" 
d="M260 583l-118 -508h166l-37 -157h-345l190 823h345l-36 -158h-165z" />
    <glyph glyph-name="backslash" unicode="\" horiz-adv-x="460" 
d="M460 -72h-126l-100 813h126z" />
    <glyph glyph-name="bracketright" unicode="]" horiz-adv-x="419" 
d="M445 741l-190 -823h-345l36 158h165l118 508h-166l37 157h345z" />
    <glyph glyph-name="asciicircum" unicode="^" horiz-adv-x="494" 
d="M272 406h-178l220 264h152l99 -264h-161l-39 116z" />
    <glyph glyph-name="underscore" unicode="_" horiz-adv-x="540" 
d="M335 -190h-501l31 134h500z" />
    <glyph glyph-name="grave" unicode="`" horiz-adv-x="600" 
d="M598 731l115 -164h-189l-170 164h244z" />
    <glyph glyph-name="a" unicode="a" horiz-adv-x="574" 
d="M340 522q114 0 168 -60q54 -59 31 -160l-70 -302h-195l8 33q-70 -48 -158 -48q-70 0 -110 36t-40 96q0 90 72 144q71 53 198 53h103l3 15q4 23 -6 36t-34 13q-48 0 -67 -48l-179 41q36 73 108 112t168 39zM236 127q26 0 49 14q23 13 30 36l7 32h-57q-30 0 -50 -14
q-19 -13 -19 -35q0 -33 40 -33z" />
    <glyph glyph-name="b" unicode="b" horiz-adv-x="648" 
d="M411 522q108 0 164 -74q57 -76 38 -195q-20 -121 -99 -194q-80 -74 -188 -74q-105 0 -146 77l-15 -62h-201l179 770h201l-68 -292q59 44 135 44zM302 152q41 0 72 29q29 28 37 72t-13 73q-20 29 -63 29q-39 0 -71 -30t-39 -72q-7 -41 15 -71t62 -30z" />
    <glyph glyph-name="c" unicode="c" horiz-adv-x="588" 
d="M299 153q33 0 56 19q24 20 36 54l180 -31q-30 -96 -112 -152q-84 -58 -185 -58q-120 0 -191 75t-53 193q20 119 114 194t213 75q101 0 167 -57q65 -56 65 -150l-190 -34q0 35 -19 54t-50 19q-41 0 -70 -29t-37 -72q-6 -42 15 -71t61 -29z" />
    <glyph glyph-name="d" unicode="d" horiz-adv-x="648" 
d="M739 770l-179 -770h-201l7 29q-61 -44 -136 -44q-106 0 -163 75t-38 193q19 120 99 195q78 74 188 74q104 0 146 -77l76 325h201zM230 253q-7 -43 14 -72t62 -29q40 0 72 29t39 72t-15 73q-22 29 -63 29q-42 0 -71 -29q-31 -31 -38 -73z" />
    <glyph glyph-name="e" unicode="e" horiz-adv-x="588" 
d="M351 522q125 0 188 -84t39 -233h-350q8 -69 73 -69q59 0 87 46l174 -35q-43 -81 -114 -121q-73 -41 -161 -41q-113 0 -181 64q-70 65 -70 172q0 128 93 215q92 86 222 86zM249 310h154q-8 59 -67 59q-54 0 -87 -59z" />
    <glyph glyph-name="f" unicode="f" horiz-adv-x="389" 
d="M426 613q-54 0 -66 -48l-13 -58h116l-36 -156h-117l-81 -351h-201l81 351h-65l36 156h65l17 74q21 90 91 145q69 54 164 54q65 0 104 -19l-37 -159q-25 11 -58 11z" />
    <glyph glyph-name="g" unicode="g" horiz-adv-x="651" 
d="M624 507l-119 -515q-56 -242 -333 -242q-209 0 -260 145l187 61q28 -46 79 -46q45 0 82 23q36 23 47 71l6 26q-59 -45 -137 -45q-107 0 -164 75t-38 193q20 120 99 195q78 74 188 74q106 0 148 -80l15 65h200zM176 253q-7 -43 14 -72t62 -29q40 0 72 30q31 29 38 71
q7 43 -15 73q-22 29 -62 29q-43 0 -72 -29q-29 -30 -37 -73z" />
    <glyph glyph-name="h" unicode="h" horiz-adv-x="621" 
d="M416 522q94 0 137 -58t22 -154l-72 -310h-201l63 273q8 32 -6 52q-13 19 -44 19q-32 0 -57 -25t-35 -68l-58 -251h-201l178 770h201l-71 -307q65 59 144 59z" />
    <glyph glyph-name="i" unicode="i" horiz-adv-x="308" 
d="M240 762q48 0 80 -32t32 -76q0 -47 -31 -77q-33 -31 -81 -31q-47 0 -80 31q-31 30 -31 77q0 44 32 76t79 32zM190 0h-202l117 507h201z" />
    <glyph glyph-name="j" unicode="j" horiz-adv-x="322" 
d="M126 762q48 0 80 -32q31 -31 31 -76q0 -47 -31 -77q-33 -31 -80 -31t-80 31q-31 30 -31 77q0 45 32 77q31 31 79 31zM194 507l-132 -572q-20 -83 -81 -134t-143 -51q-60 0 -106 25l59 141q25 -5 30 -5q33 0 44 41l127 555h202z" />
    <glyph glyph-name="k" unicode="k" horiz-adv-x="629" 
d="M438 305l122 -305h-225l-59 153l-96 -90l-15 -63h-201l178 770h201l-95 -410l160 147h247z" />
    <glyph glyph-name="l" unicode="l" horiz-adv-x="357" 
d="M371 770l-135 -579q-8 -36 25 -36q16 0 55 6l-1 -150q-58 -26 -141 -26q-82 0 -123 53q-40 51 -20 139l139 593h201z" />
    <glyph glyph-name="m" unicode="m" horiz-adv-x="955" 
d="M755 522q87 0 134 -57q46 -57 25 -149l-73 -316h-201l63 273q7 31 -6 51q-13 19 -41 19q-30 0 -53 -20q-24 -21 -36 -55l-62 -268h-201l63 273q7 31 -6 51q-13 19 -42 19q-31 0 -57 -24q-25 -23 -34 -65l-59 -254h-201l117 507h201l-10 -42q58 57 143 57q56 0 97 -23
t59 -65q72 88 180 88z" />
    <glyph glyph-name="n" unicode="n" horiz-adv-x="621" 
d="M416 522q94 0 138 -59q44 -60 22 -153l-71 -310h-201l62 273q8 32 -6 52q-13 19 -42 19q-33 0 -58 -25q-24 -25 -35 -68l-58 -251h-201l117 507h201l-10 -43q64 58 142 58z" />
    <glyph glyph-name="o" unicode="o" horiz-adv-x="609" 
d="M359 521q119 0 191 -75t54 -193q-20 -119 -113 -193q-95 -75 -213 -75q-119 0 -192 76t-54 192q18 117 113 193q95 75 214 75zM302 152q40 0 71 30q31 29 38 71q7 43 -15 73q-22 29 -62 29t-70 -29q-32 -30 -39 -73q-7 -41 15 -71t62 -30z" />
    <glyph glyph-name="p" unicode="p" horiz-adv-x="650" 
d="M357 522q108 0 164 -74q57 -76 38 -195q-20 -121 -99 -194q-80 -74 -188 -74q-106 0 -148 80l-69 -295h-201l173 737h201l-7 -29q61 44 136 44zM248 152q41 0 72 29q29 28 37 72t-13 73q-20 29 -63 29q-39 0 -71 -30t-39 -72q-7 -41 15 -71t62 -30z" />
    <glyph glyph-name="q" unicode="q" horiz-adv-x="651" 
d="M681 507l-173 -737h-201l61 258q-56 -43 -135 -43q-107 0 -164 75t-38 193q19 120 99 195q78 74 188 74q107 0 147 -79l15 64h201zM233 253q-7 -43 14 -72t62 -29t72 30q31 29 38 71q7 43 -15 73q-22 29 -62 29q-43 0 -72 -29q-30 -30 -37 -73z" />
    <glyph glyph-name="r" unicode="r" horiz-adv-x="455" 
d="M450 513q18 0 36 -3l-56 -210h-30q-80 0 -129 -33t-69 -116l-35 -151h-201l117 507h201l-23 -98q78 104 189 104z" />
    <glyph glyph-name="s" unicode="s" horiz-adv-x="532" 
d="M-24 146l194 26q6 -21 25 -34q18 -12 41 -12q16 0 30 7q11 5 11 16q0 14 -33 23q-4 2 -27 6l-41 11q-127 31 -127 144q0 87 65 138q64 51 177 51q95 0 158 -39q62 -38 79 -115l-178 -28q-5 23 -21 36q-18 15 -47 15q-36 0 -36 -24q0 -19 29 -27l58 -19q74 -21 107 -57
t33 -94q0 -86 -67 -135q-68 -50 -180 -50q-94 0 -163 39t-87 122z" />
    <glyph glyph-name="t" unicode="t" horiz-adv-x="442" 
d="M330 351l-32 -139q-6 -25 3 -40t31 -15q28 0 78 18l10 -154q-66 -36 -171 -36q-93 0 -136 55q-44 56 -22 147l38 164h-67l36 156h67l38 163h201l-38 -163h126l-36 -156h-126z" />
    <glyph glyph-name="u" unicode="u" horiz-adv-x="621" 
d="M658 506l-116 -507h-202l10 42q-64 -57 -142 -57q-94 0 -138 59q-44 60 -22 153l71 310h201l-62 -273q-8 -31 6 -51t42 -20q35 0 59 25t34 68l58 251h201z" />
    <glyph glyph-name="v" unicode="v" horiz-adv-x="620" 
d="M737 507l-326 -507h-199l-90 507h196l38 -263l159 263h222z" />
    <glyph glyph-name="w" unicode="w" horiz-adv-x="810" 
d="M927 507l-273 -507h-170l-22 238l-134 -238h-169l-37 507h192l11 -215l131 215h128l32 -214l110 214h201z" />
    <glyph glyph-name="x" unicode="x" horiz-adv-x="628" 
d="M399 243l112 -243h-214l-49 114l-102 -114h-242l225 243l-107 263h206l51 -136l114 136h235z" />
    <glyph glyph-name="y" unicode="y" horiz-adv-x="616" 
d="M664 507l-469 -737h-205l149 245l-83 492h205l30 -240l146 240h227z" />
    <glyph glyph-name="z" unicode="z" horiz-adv-x="562" 
d="M526 375l-267 -219h222l-36 -156h-497l29 129l268 222h-211l36 156h486z" />
    <glyph glyph-name="braceleft" unicode="{" horiz-adv-x="416" 
d="M517 741l-37 -158h-79q-23 0 -27 -24l-29 -126q-17 -77 -79 -104q49 -27 31 -104l-29 -126q-6 -24 16 -24h79l-36 -157h-149q-58 0 -87 37q-28 35 -14 95l33 148q9 34 -34 46l-36 10l35 150l40 10q48 12 56 47l34 147q13 58 59 96q44 37 104 37h149z" />
    <glyph glyph-name="bar" unicode="|" horiz-adv-x="263" 
d="M112 -72h-180l188 813h180z" />
    <glyph glyph-name="braceright" unicode="}" horiz-adv-x="419" 
d="M387 405l-35 -150l-40 -10q-47 -12 -56 -46l-34 -148q-13 -58 -59 -96q-44 -37 -104 -37h-149l37 158h79q22 0 27 24l29 126q18 77 79 104q-49 25 -31 104l29 126q6 24 -16 24h-79l36 157h149q59 0 87 -36q28 -35 14 -96l-33 -147q-5 -20 4 -30q10 -11 30 -17z" />
    <glyph glyph-name="asciitilde" unicode="~" horiz-adv-x="518" 
d="M193 225h-143q23 95 77 142q55 47 106 47q42 0 79 -20q39 -21 49 -21q15 0 27 9q10 8 15 24h144q-23 -97 -78 -143q-56 -47 -108 -47q-41 0 -78 19t-49 19q-26 0 -41 -29z" />
    <glyph glyph-name="exclamdown" unicode="&#xa1;" horiz-adv-x="314" 
d="M142 310q-47 0 -79 32t-32 74q0 45 32 75q31 30 79 30t79 -30t31 -75q0 -43 -31 -74q-32 -32 -79 -32zM-98 -155l7 31l109 396h193l-73 -396l-7 -31h-229z" />
    <glyph glyph-name="cent" unicode="&#xa2;" horiz-adv-x="590" 
d="M301 153q33 0 56 19q24 20 36 54l180 -31q-26 -84 -92 -138t-155 -68l-27 -119h-165l31 136q-73 28 -109 95q-37 68 -24 152q16 97 86 168q68 69 165 92l26 117h166l-28 -121q67 -21 106 -72t39 -122l-191 -34q0 35 -19 54t-50 19q-41 0 -70 -29t-37 -72q-6 -42 15 -71
t61 -29z" />
    <glyph glyph-name="sterling" unicode="&#xa3;" horiz-adv-x="589" 
d="M595 476l-192 -32q5 36 -7 51t-32 15t-33 -12q-14 -13 -19 -33l-19 -81h159l-36 -159h-159l-12 -53h282l-40 -172h-539l30 132l62 19l17 74h-57l36 159h58l19 81q22 102 94 161q71 59 177 59q101 0 159 -58q59 -59 52 -151z" />
    <glyph glyph-name="yen" unicode="&#xa5;" horiz-adv-x="709" 
d="M567 321h117l-25 -108h-170l-7 -33h169l-24 -109h-170l-16 -71h-207l16 71h-158l25 109h158l7 33h-158l25 108h108l-102 349h199l66 -253l182 253h237z" />
    <glyph glyph-name="section" unicode="&#xa7;" horiz-adv-x="575" 
d="M578 513l-170 -30q1 58 -39 58q-18 0 -29 -10q-12 -11 -12 -27q0 -9 8 -17q9 -9 28 -20l78 -42q60 -33 87 -65q27 -33 27 -80q0 -69 -35 -108q-37 -41 -93 -68q13 -25 13 -58q0 -92 -65 -140q-66 -49 -164 -49q-102 0 -156 48q-55 48 -56 128l169 32q0 -64 46 -64
q17 0 30 11q11 10 11 27q0 16 -36 37l-78 42q-55 31 -86 67q-28 32 -28 79q0 116 129 174q-13 26 -13 59q0 92 65 140t165 48q99 0 152 -47t52 -125zM269 334l-22 15q-45 -25 -45 -52q0 -12 7 -19t25 -19l81 -50l23 -15q43 25 43 53q0 20 -30 38z" />
    <glyph glyph-name="dieresis" unicode="&#xa8;" horiz-adv-x="600" 
d="M420 750q45 0 75 -30t30 -72q0 -45 -29 -73q-31 -29 -76 -29q-46 0 -75 29t-29 73q0 42 30 72t74 30zM665 750q45 0 75 -30t30 -72q0 -45 -29 -73q-31 -29 -76 -29q-46 0 -75 29t-29 73q0 42 30 72t74 30z" />
    <glyph glyph-name="copyright" unicode="&#xa9;" horiz-adv-x="757" 
d="M449 685q147 0 248 -100q102 -100 102 -251t-102 -250t-248 -99t-248 99q-103 100 -103 250t103 251q101 100 248 100zM449 629q-120 0 -204 -84q-85 -85 -85 -211t85 -209t204 -83t204 83q84 83 84 209q0 127 -84 211t-204 84zM456 522q74 0 124 -42q49 -42 52 -104
l-110 -19q-5 26 -23 40t-47 14q-30 0 -51 -22q-22 -24 -22 -55q0 -33 21 -54q22 -22 52 -22q61 0 70 59l112 -19q-4 -65 -54 -109q-49 -43 -124 -43q-79 0 -137 53q-57 53 -57 135q0 84 57 136q56 52 137 52z" />
    <glyph glyph-name="ordfeminine" unicode="&#xaa;" horiz-adv-x="392" 
d="M358 676q78 0 116 -42q37 -42 19 -120l-44 -188h-140l3 14q-39 -24 -87 -24q-50 0 -81 25q-32 26 -32 65q0 61 46 96t132 35h68l2 10q8 29 -24 29q-23 0 -40 -23l-125 22q53 101 187 101zM286 406q39 0 51 42l4 16h-39q-20 0 -32 -9t-12 -23q0 -26 28 -26z" />
    <glyph glyph-name="guillemotleft" unicode="&#xab;" horiz-adv-x="555" 
d="M54 262l137 178h180l-146 -187l55 -169h-171zM284 262l137 178h180l-146 -187l55 -169h-171z" />
    <glyph glyph-name="registered" unicode="&#xae;" horiz-adv-x="460" 
d="M360 685q84 0 142 -57t58 -144q0 -86 -58 -143t-142 -57t-142 57t-58 143q0 87 58 144t142 57zM360 331q63 0 109 44q44 43 44 109q0 68 -44 112t-109 44q-62 0 -106 -44q-45 -45 -45 -112q0 -66 45 -109q46 -44 106 -44zM448 518q0 -42 -36 -58l45 -59h-63l-38 51h-17
v-51h-54v179h92q36 0 53 -17q18 -18 18 -45zM339 496h34q25 0 25 21q0 19 -25 19h-34v-40z" />
    <glyph glyph-name="macron" unicode="&#xaf;" horiz-adv-x="600" 
d="M734 568h-352l34 148h352z" />
    <glyph glyph-name="degree" unicode="&#xb0;" horiz-adv-x="450" 
d="M421 685q65 0 109 -41t44 -107q0 -75 -54 -123q-55 -49 -126 -49q-63 0 -109 41q-45 40 -45 106q0 77 54 125t127 48zM402 467q25 0 43 18t18 45q0 24 -15 39q-14 14 -35 14q-24 0 -43 -17t-19 -46q0 -23 15 -38t36 -15z" />
    <glyph glyph-name="plusminus" unicode="&#xb1;" horiz-adv-x="565" 
d="M562 491l-36 -152h-170l-31 -133h-152l31 133h-171l35 152h171l35 153h153l-36 -153h171zM-10 153h493l-35 -153h-494z" />
    <glyph glyph-name="acute" unicode="&#xb4;" horiz-adv-x="600" 
d="M631 567h-189l115 164h244z" />
    <glyph glyph-name="paragraph" unicode="&#xb6;" horiz-adv-x="624" 
d="M423 0h-127l69 299h-50q-77 0 -124 41t-47 110q0 102 68 161t175 59h191zM597 0h-127l155 670h127z" />
    <glyph glyph-name="periodcentered" unicode="&#xb7;" horiz-adv-x="265" 
d="M160 375q48 0 79 -32t31 -78q0 -47 -31 -78q-32 -32 -79 -32t-79 32q-31 31 -31 78q0 46 31 78t79 32z" />
    <glyph glyph-name="cedilla" unicode="&#xb8;" horiz-adv-x="600" 
d="M265 0h142l-77 -160h-208z" />
    <glyph glyph-name="ordmasculine" unicode="&#xba;" horiz-adv-x="423" 
d="M355 676q79 0 129 -47q51 -48 51 -123q0 -82 -60 -136t-146 -54q-75 0 -127 47t-52 121q0 83 61 138q60 54 144 54zM338 437q24 0 43 19q17 17 17 44q0 25 -14 39q-15 15 -38 15q-24 0 -41 -18q-17 -19 -17 -45q0 -22 14 -38t36 -16z" />
    <glyph glyph-name="guillemotright" unicode="&#xbb;" horiz-adv-x="555" 
d="M288 262l-136 -178h-180l145 187l-54 169h171zM519 262l-137 -178h-180l145 187l-54 169h171z" />
    <glyph glyph-name="onequarter" unicode="&#xbc;" horiz-adv-x="795" 
d="M812 670l-628 -670h-104l629 670h103zM201 521l-95 -33l28 123l144 59h86l-90 -388h-128zM808 388l-52 -228h47l-24 -104h-47l-13 -56h-120l13 56h-199l26 116l219 216h150zM636 160l24 102l-102 -102h78z" />
    <glyph glyph-name="onehalf" unicode="&#xbd;" horiz-adv-x="833" 
d="M796 670l-628 -670h-104l628 670h104zM193 521l-95 -33l28 123l144 59h86l-90 -388h-128zM703 107h107l-27 -108h-308l22 78l163 126q47 38 47 60q0 26 -27 26q-14 0 -25 -11q-13 -13 -14 -37l-118 22q3 59 47 97q43 37 115 37q67 0 109 -33t42 -91q0 -43 -22 -72
t-66 -61z" />
    <glyph glyph-name="threequarters" unicode="&#xbe;" horiz-adv-x="854" 
d="M430 413q-1 -58 -50 -98q-50 -41 -123 -41q-66 0 -109 35t-41 91l121 21q5 -44 38 -44q18 0 30 9q11 8 11 23q0 12 -10 19t-27 7h-46l24 89h44q20 0 32 9t12 22q0 25 -31 25q-36 0 -46 -43l-114 21q7 51 53 87q45 36 113 36t108 -31q41 -32 39 -80q0 -63 -64 -91
q36 -24 36 -66zM883 670l-628 -670h-104l629 670h103zM881 388l-52 -228h47l-24 -104h-47l-13 -56h-120l13 56h-199l26 116l219 216h150zM709 160l24 102l-102 -102h78z" />
    <glyph glyph-name="questiondown" unicode="&#xbf;" horiz-adv-x="561" 
d="M287 311q-46 0 -78 32t-32 74q0 45 31 75q32 30 79 30t79 -30q31 -30 31 -75q0 -43 -31 -74q-32 -32 -79 -32zM263 68l199 -40q-24 -87 -98 -142t-184 -55t-173 57t-63 142q0 80 54 134q53 53 147 73l9 39h200l-39 -168h-86q-35 0 -62 -15t-27 -42q0 -21 15 -33
q16 -13 38 -13q27 0 46 18q20 18 24 45z" />
    <glyph glyph-name="Agrave" unicode="&#xc0;" horiz-adv-x="765" 
d="M331 731l-169 164h243l115 -164h-189zM649 0h-213l-11 91h-256l-54 -91h-229l420 670h233zM404 262l-22 191l-113 -191h135z" />
    <glyph glyph-name="Aacute" unicode="&#xc1;" horiz-adv-x="765" 
d="M530 731h-189l115 164h244zM539 670l110 -670h-213l-11 91h-256l-54 -91h-229l420 670h233zM404 262l-22 191l-113 -191h135z" />
    <glyph glyph-name="Acircumflex" unicode="&#xc2;" horiz-adv-x="765" 
d="M419 730h-198l156 165h209l79 -165h-180l-22 47zM539 670l110 -670h-213l-11 91h-256l-54 -91h-229l420 670h233zM404 262l-22 191l-113 -191h135z" />
    <glyph glyph-name="Atilde" unicode="&#xc3;" horiz-adv-x="765" 
d="M402 763q-16 0 -23 -6q-7 -5 -18 -23h-111q19 84 68 134q48 50 102 50q34 0 64 -17q31 -18 47 -18q13 0 24 7q8 5 19 24h110q-20 -87 -66 -134q-48 -50 -104 -50q-32 0 -64 17q-31 16 -48 16zM539 670l110 -670h-213l-11 91h-256l-54 -91h-229l420 670h233zM404 262
l-22 191l-113 -191h135z" />
    <glyph glyph-name="Adieresis" unicode="&#xc4;" horiz-adv-x="765" 
d="M334 710q-46 0 -75 29t-29 73q0 42 30 72t74 30q45 0 75 -30t30 -72q0 -45 -29 -73q-31 -29 -76 -29zM579 914q45 0 75 -30t30 -72q0 -45 -29 -73q-31 -29 -76 -29q-46 0 -75 29t-29 73q0 42 30 72t74 30zM539 670l110 -670h-213l-11 91h-256l-54 -91h-229l420 670h233z
M404 262l-22 191l-113 -191h135z" />
    <glyph glyph-name="Aring" unicode="&#xc5;" horiz-adv-x="765" 
d="M446 706q-54 0 -90 36q-37 37 -37 87q0 60 45 102q44 41 105 41q54 0 91 -35q36 -35 36 -88q0 -60 -44 -101q-45 -42 -106 -42zM461 878q-18 0 -30 -12q-13 -13 -13 -29q0 -14 11 -25t26 -11t30 13q13 12 13 28q0 15 -10 25q-11 11 -27 11zM649 0h-213l-11 91h-256
l-54 -91h-229l420 670h233zM404 262l-22 191l-113 -191h135z" />
    <glyph glyph-name="AE" unicode="&#xc6;" horiz-adv-x="1131" 
d="M766 499l-20 -87h301l-36 -154h-301l-20 -87h333l-39 -171h-540l20 88h-237l-77 -88h-264l621 670h627l-40 -171h-328zM504 258l45 198l-173 -198h128z" />
    <glyph glyph-name="Ccedilla" unicode="&#xc7;" horiz-adv-x="775" 
d="M436 169q52 0 93 30q40 30 61 82l200 -41q-34 -110 -119 -177t-207 -76l-71 -147h-208l139 156q-110 26 -171 105t-61 190q0 163 118 278q119 116 295 116q135 0 223 -69t93 -183l-214 -38q-5 49 -36 78q-31 28 -83 28q-76 0 -131 -55q-56 -56 -56 -135q0 -60 37 -102
q36 -40 98 -40z" />
    <glyph glyph-name="Egrave" unicode="&#xc8;" horiz-adv-x="613" 
d="M296 731l-169 164h243l115 -164h-189zM286 499l-20 -87h301l-35 -154h-301l-20 -87h333l-40 -171h-540l155 670h535l-39 -171h-329z" />
    <glyph glyph-name="Eacute" unicode="&#xc9;" horiz-adv-x="613" 
d="M495 731h-189l115 164h244zM654 670l-39 -171h-329l-20 -87h301l-35 -154h-301l-20 -87h333l-40 -171h-540l155 670h535z" />
    <glyph glyph-name="Ecircumflex" unicode="&#xca;" horiz-adv-x="613" 
d="M384 730h-198l156 165h209l79 -165h-180l-22 47zM286 499l-20 -87h301l-35 -154h-301l-20 -87h333l-40 -171h-540l155 670h535l-39 -171h-329z" />
    <glyph glyph-name="Edieresis" unicode="&#xcb;" horiz-adv-x="613" 
d="M299 710q-46 0 -75 29t-29 73q0 42 30 72t74 30q45 0 75 -30t30 -72q0 -45 -29 -73q-31 -29 -76 -29zM544 710q-46 0 -75 29t-29 73q0 42 30 72t74 30q45 0 75 -30t30 -72q0 -45 -29 -73q-31 -29 -76 -29zM286 499l-20 -87h301l-35 -154h-301l-20 -87h333l-40 -171h-540
l155 670h535l-39 -171h-329z" />
    <glyph glyph-name="Igrave" unicode="&#xcc;" horiz-adv-x="462" 
d="M198 731l-169 164h243l115 -164h-189zM354 495l-74 -319h107l-41 -176h-420l41 176h106l74 319h-107l40 175h420l-40 -175h-106z" />
    <glyph glyph-name="Iacute" unicode="&#xcd;" horiz-adv-x="462" 
d="M397 731h-189l115 164h244zM500 670l-40 -175h-106l-74 -319h107l-41 -176h-420l41 176h106l74 319h-107l40 175h420z" />
    <glyph glyph-name="Icircumflex" unicode="&#xce;" horiz-adv-x="462" 
d="M286 730h-198l156 165h209l79 -165h-180l-22 47zM500 670l-40 -175h-106l-74 -319h107l-41 -176h-420l41 176h106l74 319h-107l40 175h420z" />
    <glyph glyph-name="Idieresis" unicode="&#xcf;" horiz-adv-x="462" 
d="M201 710q-46 0 -75 29t-29 73q0 42 30 72t74 30q45 0 75 -30t30 -72q0 -45 -29 -73q-31 -29 -76 -29zM446 914q45 0 75 -30t30 -72q0 -45 -29 -73q-31 -29 -76 -29q-46 0 -75 29t-29 73q0 42 30 72t74 30zM500 670l-40 -175h-106l-74 -319h107l-41 -176h-420l41 176h106
l74 319h-107l40 175h420z" />
    <glyph glyph-name="Eth" unicode="&#xd0;" horiz-adv-x="751" 
d="M163 670h275q144 0 228 -74q86 -75 86 -206q0 -160 -121 -275t-304 -115h-319l57 246h-50l40 175h50l18 77zM255 177h58q88 0 157 57q68 56 68 140q0 58 -36 91t-102 33h-70l-18 -77h80l-40 -175h-81z" />
    <glyph glyph-name="Ntilde" unicode="&#xd1;" horiz-adv-x="751" 
d="M436 763q-16 0 -23 -6q-7 -5 -18 -23h-111q19 84 68 134q48 50 102 50q34 0 64 -17q32 -18 47 -18q13 0 24 7q8 5 19 24h110q-20 -87 -66 -134q-48 -50 -104 -50q-32 0 -64 17q-31 16 -48 16zM789 670l-154 -670h-170l-212 329l-76 -329h-207l154 670h170l209 -339
l79 339h207z" />
    <glyph glyph-name="Ograve" unicode="&#xd2;" horiz-adv-x="780" 
d="M493 895l115 -164h-189l-169 164h243zM482 685q156 0 252 -102q96 -103 77 -248q-19 -152 -127 -251t-271 -99q-154 0 -250 102q-96 103 -77 248q18 149 132 249q115 101 264 101zM425 170q69 0 119 47t59 118q9 70 -29 119q-37 47 -104 47q-70 0 -118 -47
q-50 -48 -59 -119t29 -118t103 -47z" />
    <glyph glyph-name="Oacute" unicode="&#xd3;" horiz-adv-x="780" 
d="M618 731h-189l115 164h244zM482 685q156 0 252 -102q96 -103 77 -248q-19 -152 -127 -251t-271 -99q-154 0 -250 102q-96 103 -77 248q18 149 132 249q115 101 264 101zM425 170q69 0 119 47t59 118q9 70 -29 119q-37 47 -104 47q-70 0 -118 -47q-50 -48 -59 -119
t29 -118t103 -47z" />
    <glyph glyph-name="Ocircumflex" unicode="&#xd4;" horiz-adv-x="780" 
d="M507 730h-198l156 165h209l79 -165h-180l-22 47zM482 685q156 0 252 -102q96 -103 77 -248q-19 -152 -127 -251t-271 -99q-154 0 -250 102q-96 103 -77 248q18 149 132 249q115 101 264 101zM603 335q9 70 -29 119q-37 47 -104 47q-70 0 -118 -47q-50 -48 -59 -119
t29 -118t103 -47q69 0 119 47t59 118z" />
    <glyph glyph-name="Otilde" unicode="&#xd5;" horiz-adv-x="780" 
d="M449 734h-111q19 84 68 134q48 50 102 50q34 0 64 -17q32 -18 47 -18q13 0 24 7q8 5 19 24h110q-20 -87 -66 -134q-48 -50 -104 -50q-32 0 -64 17q-31 16 -48 16q-16 0 -23 -6q-7 -5 -18 -23zM482 685q156 0 252 -102q96 -103 77 -248q-19 -152 -127 -251t-271 -99
q-154 0 -250 102q-96 103 -77 248q18 149 132 249q115 101 264 101zM425 170q69 0 119 47t59 118q9 70 -29 119q-37 47 -104 47q-70 0 -118 -47q-50 -48 -59 -119t29 -118t103 -47z" />
    <glyph glyph-name="Odieresis" unicode="&#xd6;" horiz-adv-x="780" 
d="M422 914q45 0 75 -30t30 -72q0 -45 -29 -73q-31 -29 -76 -29q-46 0 -75 29t-29 73q0 42 30 72t74 30zM667 914q45 0 75 -30t30 -72q0 -45 -29 -73q-31 -29 -76 -29q-46 0 -75 29t-29 73q0 42 30 72t74 30zM482 685q156 0 252 -102q96 -103 77 -248q-19 -152 -127 -251
t-271 -99q-154 0 -250 102q-96 103 -77 248q18 149 132 249q115 101 264 101zM425 170q69 0 119 47t59 118q9 70 -29 119q-37 47 -104 47q-70 0 -118 -47q-50 -48 -59 -119t29 -118t103 -47z" />
    <glyph glyph-name="multiply" unicode="&#xd7;" horiz-adv-x="540" 
d="M410 286l95 -122l-119 -97l-95 122l-153 -123l-86 113l152 123l-100 128l119 96l100 -128l159 129l87 -113z" />
    <glyph glyph-name="Oslash" unicode="&#xd8;" horiz-adv-x="780" 
d="M812 601l-87 -71q51 -86 38 -195q-19 -152 -127 -251t-271 -99q-129 0 -220 74l-92 -75l-67 85l89 72q-50 89 -37 194q18 149 132 249q115 101 264 101q131 0 220 -73l92 74zM245 335q-3 -33 1 -55l249 202q-31 19 -73 19q-70 0 -118 -47q-50 -48 -59 -119zM555 335
q3 34 -1 56l-249 -202q31 -19 72 -19q69 0 119 47t59 118z" />
    <glyph glyph-name="Ugrave" unicode="&#xd9;" horiz-adv-x="716" 
d="M407 731l-169 164h243l115 -164h-189zM814 670l-84 -366q-35 -154 -126 -236q-92 -83 -238 -83q-140 0 -218 88q-79 89 -46 231l84 366h208l-84 -366q-15 -63 7 -99q21 -35 72 -35q47 0 83 36q35 35 50 98l85 366h207z" />
    <glyph glyph-name="Uacute" unicode="&#xda;" horiz-adv-x="716" 
d="M606 731h-189l115 164h244zM814 670l-84 -366q-35 -154 -126 -236q-92 -83 -238 -83q-140 0 -218 88q-79 89 -46 231l84 366h208l-84 -366q-15 -63 7 -99q21 -35 72 -35q47 0 83 36q35 35 50 98l85 366h207z" />
    <glyph glyph-name="Ucircumflex" unicode="&#xdb;" horiz-adv-x="716" 
d="M495 730h-198l156 165h209l79 -165h-180l-22 47zM814 670l-84 -366q-35 -154 -126 -236q-92 -83 -238 -83q-140 0 -218 88q-79 89 -46 231l84 366h208l-84 -366q-15 -63 7 -99q21 -35 72 -35q47 0 83 36q35 35 50 98l85 366h207z" />
    <glyph glyph-name="Udieresis" unicode="&#xdc;" horiz-adv-x="716" 
d="M409 710q-46 0 -75 29t-29 73q0 42 30 72t74 30q45 0 75 -30t30 -72q0 -45 -29 -73q-31 -29 -76 -29zM654 710q-46 0 -75 29t-29 73q0 42 30 72t74 30q45 0 75 -30t30 -72q0 -45 -29 -73q-31 -29 -76 -29zM814 670l-84 -366q-35 -154 -126 -236q-92 -83 -238 -83
q-140 0 -218 88q-79 89 -46 231l84 366h208l-84 -366q-15 -63 7 -99q21 -35 72 -35q47 0 83 36q35 35 50 98l85 366h207z" />
    <glyph glyph-name="Yacute" unicode="&#xdd;" horiz-adv-x="729" 
d="M641 731h-189l115 164h244zM555 204l-48 -204h-216l47 203l-142 467h205l77 -261l196 261h247z" />
    <glyph glyph-name="Thorn" unicode="&#xde;" horiz-adv-x="657" 
d="M303 570h84q115 0 183 -54t68 -151q0 -115 -86 -189q-88 -76 -222 -76h-136l-23 -100h-207l155 670h207zM231 260h101q42 0 70 25q27 24 27 60q0 57 -71 57h-94z" />
    <glyph glyph-name="germandbls" unicode="&#xdf;" horiz-adv-x="685" 
d="M523 366q114 -28 114 -146q0 -94 -67 -164t-196 -70q-82 0 -147 17l53 159q51 -8 65 -8q44 0 67 22q24 22 24 51q0 28 -20 44q-22 17 -55 17h-49l38 160h26q34 0 56 21q23 21 23 50q0 27 -17 41q-18 15 -48 15q-42 0 -71 -27q-29 -28 -40 -75l-113 -473h-202l112 460
q32 128 116 202q86 75 216 75q109 0 182 -53q71 -52 71 -138q0 -64 -40 -114q-41 -51 -98 -66z" />
    <glyph glyph-name="agrave" unicode="&#xe0;" horiz-adv-x="574" 
d="M250 567l-169 164h243l115 -164h-189zM340 522q114 0 168 -60q54 -59 31 -160l-70 -302h-195l8 33q-70 -48 -158 -48q-70 0 -110 36t-40 96q0 90 72 144q71 53 198 53h103l3 15q4 23 -6 36t-34 13q-48 0 -67 -48l-179 41q36 73 108 112t168 39zM236 127q26 0 49 14
q23 13 30 36l7 32h-57q-30 0 -50 -14q-19 -13 -19 -35q0 -33 40 -33z" />
    <glyph glyph-name="aacute" unicode="&#xe1;" horiz-adv-x="574" 
d="M449 567h-189l115 164h244zM340 522q114 0 168 -60q54 -59 31 -160l-70 -302h-195l8 33q-70 -48 -158 -48q-70 0 -110 36t-40 96q0 90 72 144q71 53 198 53h103l3 15q4 23 -6 36t-34 13q-48 0 -67 -48l-179 41q36 73 108 112t168 39zM236 127q26 0 49 14q23 13 30 36
l7 32h-57q-30 0 -50 -14q-19 -13 -19 -35q0 -33 40 -33z" />
    <glyph glyph-name="acircumflex" unicode="&#xe2;" horiz-adv-x="574" 
d="M338 566h-198l156 165h209l79 -165h-180l-22 47zM340 522q114 0 168 -60q54 -59 31 -160l-70 -302h-195l8 33q-70 -48 -158 -48q-70 0 -110 36t-40 96q0 90 72 144q71 53 198 53h103l3 15q4 23 -6 36t-34 13q-48 0 -67 -48l-179 41q36 73 108 112t168 39zM236 127
q26 0 49 14q23 13 30 36l7 32h-57q-30 0 -50 -14q-19 -13 -19 -35q0 -33 40 -33z" />
    <glyph glyph-name="atilde" unicode="&#xe3;" horiz-adv-x="574" 
d="M321 599q-15 0 -23 -6q-7 -5 -18 -23h-111q19 84 68 134q48 50 102 50q35 0 65 -17q32 -18 46 -18t24 7q8 5 19 24h110q-20 -87 -66 -134q-48 -50 -104 -50q-32 0 -64 17q-31 16 -48 16zM340 522q114 0 168 -60q54 -59 31 -160l-70 -302h-195l8 33q-70 -48 -158 -48
q-70 0 -110 36t-40 96q0 90 72 144q71 53 198 53h103l3 15q4 23 -6 36t-34 13q-48 0 -67 -48l-179 41q36 73 108 112t168 39zM236 127q26 0 49 14q23 13 30 36l7 32h-57q-30 0 -50 -14q-19 -13 -19 -35q0 -33 40 -33z" />
    <glyph glyph-name="adieresis" unicode="&#xe4;" horiz-adv-x="574" 
d="M253 546q-46 0 -75 29t-29 73q0 42 30 72t74 30q45 0 75 -30t30 -72q0 -45 -29 -73q-31 -29 -76 -29zM498 750q45 0 75 -30t30 -72q0 -45 -29 -73q-31 -29 -76 -29q-46 0 -75 29t-29 73q0 42 30 72t74 30zM340 522q114 0 168 -60q54 -59 31 -160l-70 -302h-195l8 33
q-70 -48 -158 -48q-70 0 -110 36t-40 96q0 90 72 144q71 53 198 53h103l3 15q4 23 -6 36t-34 13q-48 0 -67 -48l-179 41q36 73 108 112t168 39zM236 127q26 0 49 14q23 13 30 36l7 32h-57q-30 0 -50 -14q-19 -13 -19 -35q0 -33 40 -33z" />
    <glyph glyph-name="aring" unicode="&#xe5;" horiz-adv-x="574" 
d="M365 542q-54 0 -90 36q-37 37 -37 87q0 60 45 102q44 41 105 41q54 0 91 -35q36 -34 36 -88q0 -60 -44 -101q-45 -42 -106 -42zM380 714q-18 0 -30 -12q-13 -13 -13 -29q0 -14 11 -25t26 -11t30 13q13 12 13 28q0 14 -11 25t-26 11zM340 522q114 0 168 -60
q54 -59 31 -160l-70 -302h-195l8 33q-70 -48 -158 -48q-70 0 -110 36t-40 96q0 90 72 144q71 53 198 53h103l3 15q4 23 -6 36t-34 13q-48 0 -67 -48l-179 41q36 73 108 112t168 39zM236 127q26 0 49 14q23 13 30 36l7 32h-57q-30 0 -50 -14q-19 -13 -19 -35q0 -33 40 -33z
" />
    <glyph glyph-name="ae" unicode="&#xe6;" horiz-adv-x="883" 
d="M617 522q120 0 184 -79q65 -80 44 -206l-5 -34h-348q7 -67 73 -67q55 0 84 47l168 -36q-32 -72 -106 -117q-75 -45 -161 -45q-108 0 -173 56q-85 -56 -205 -56q-97 0 -148 36q-52 37 -52 104q0 85 63 130t181 45h111l5 29q4 22 -8 36q-12 13 -36 13q-46 0 -61 -47
l-181 38q24 66 93 110q68 43 173 43q97 0 153 -41q74 41 152 41zM502 300h165q1 38 -18 57q-20 20 -49 20q-31 0 -59 -20q-29 -21 -39 -57zM312 203h-70q-32 0 -50 -12q-19 -13 -19 -34q0 -17 14 -28t36 -11q30 0 56 17q25 16 30 46z" />
    <glyph glyph-name="ccedilla" unicode="&#xe7;" horiz-adv-x="588" 
d="M299 153q33 0 56 19q24 20 36 54l180 -31q-26 -81 -89 -134q-64 -53 -147 -70l-72 -151h-208l138 155q-87 24 -132 93q-46 70 -31 165q20 119 114 194t213 75q101 0 167 -57q65 -56 65 -150l-190 -34q0 35 -19 54t-50 19q-41 0 -70 -29t-37 -72q-6 -42 15 -71t61 -29z
" />
    <glyph glyph-name="egrave" unicode="&#xe8;" horiz-adv-x="588" 
d="M268 567l-169 164h243l115 -164h-189zM351 522q125 0 188 -84t39 -233h-350q8 -69 73 -69q59 0 87 46l174 -35q-43 -81 -114 -121q-73 -41 -161 -41q-113 0 -181 64q-70 65 -70 172q0 128 93 215q92 86 222 86zM249 310h154q-8 59 -67 59q-54 0 -87 -59z" />
    <glyph glyph-name="eacute" unicode="&#xe9;" horiz-adv-x="588" 
d="M467 567h-189l115 164h244zM351 522q125 0 188 -84t39 -233h-350q8 -69 73 -69q59 0 87 46l174 -35q-43 -81 -114 -121q-73 -41 -161 -41q-113 0 -181 64q-70 65 -70 172q0 128 93 215q92 86 222 86zM249 310h154q-8 59 -67 59q-54 0 -87 -59z" />
    <glyph glyph-name="ecircumflex" unicode="&#xea;" horiz-adv-x="588" 
d="M356 566h-198l156 165h209l79 -165h-180l-22 47zM351 522q125 0 188 -84t39 -233h-350q8 -69 73 -69q59 0 87 46l174 -35q-43 -81 -114 -121q-73 -41 -161 -41q-113 0 -181 64q-70 65 -70 172q0 128 93 215q92 86 222 86zM249 310h154q-8 59 -67 59q-54 0 -87 -59z" />
    <glyph glyph-name="edieresis" unicode="&#xeb;" horiz-adv-x="588" 
d="M270 546q-46 0 -75 29t-29 73q0 42 30 72t74 30q45 0 75 -30t30 -72q0 -45 -29 -73q-31 -29 -76 -29zM515 750q45 0 75 -30t30 -72q0 -45 -29 -73q-31 -29 -76 -29q-46 0 -75 29t-29 73q0 42 30 72t74 30zM351 522q125 0 188 -84t39 -233h-350q8 -69 73 -69q59 0 87 46
l174 -35q-43 -81 -114 -121q-73 -41 -161 -41q-113 0 -181 64q-70 65 -70 172q0 128 93 215q92 86 222 86zM249 310h154q-8 59 -67 59q-54 0 -87 -59z" />
    <glyph glyph-name="igrave" unicode="&#xec;" horiz-adv-x="299" 
d="M136 731l115 -164h-189l-170 164h244zM137 0h-201l118 507h201z" />
    <glyph glyph-name="iacute" unicode="&#xed;" horiz-adv-x="299" 
d="M305 567h-189l115 164h244zM181 0h-201l118 507h201z" />
    <glyph glyph-name="icircumflex" unicode="&#xee;" horiz-adv-x="299" 
d="M194 566h-198l156 165h209l79 -165h-180l-22 47zM98 507h201l-118 -507h-201z" />
    <glyph glyph-name="idieresis" unicode="&#xef;" horiz-adv-x="299" 
d="M109 750q45 0 75 -30t30 -72q0 -45 -29 -73q-31 -29 -76 -29q-46 0 -75 29t-29 73q0 42 30 72t74 30zM354 750q45 0 75 -30t30 -72q0 -45 -29 -73q-31 -29 -76 -29q-46 0 -75 29t-29 73q0 42 30 72t74 30zM181 0h-201l118 507h201z" />
    <glyph glyph-name="eth" unicode="&#xf0;" horiz-adv-x="627" 
d="M606 649l-70 -25q108 -156 108 -314q0 -84 -29 -150q-28 -64 -77 -102q-47 -37 -102 -55q-54 -18 -113 -18q-115 0 -186 64q-73 65 -73 169q0 127 89 216q88 88 210 88q27 0 47 -7q-17 20 -47 47l-137 -50l-23 82l74 27q-41 22 -125 61l6 38h296l9 -8l17 -17l103 37z
M338 153q45 0 78 36q32 35 32 80q0 38 -21 62t-58 24q-44 0 -77 -35q-33 -34 -33 -81q0 -38 22 -61q23 -25 57 -25z" />
    <glyph glyph-name="ntilde" unicode="&#xf1;" horiz-adv-x="621" 
d="M332 599q-16 0 -23 -6q-7 -5 -18 -23h-111q19 84 68 134q48 50 102 50q34 0 64 -17q32 -18 47 -18q13 0 24 7q8 5 19 24h110q-20 -87 -66 -134q-48 -50 -104 -50q-32 0 -64 17q-31 16 -48 16zM416 522q94 0 138 -59q44 -60 22 -153l-71 -310h-201l62 273q8 32 -6 52
q-13 19 -42 19q-33 0 -58 -25q-24 -25 -35 -68l-58 -251h-201l117 507h201l-10 -43q64 58 142 58z" />
    <glyph glyph-name="ograve" unicode="&#xf2;" horiz-adv-x="609" 
d="M285 567l-169 164h243l115 -164h-189zM359 521q119 0 191 -75t54 -193q-20 -119 -113 -193q-95 -75 -213 -75q-119 0 -192 76t-54 192q18 117 113 193q95 75 214 75zM302 152q40 0 71 30q31 29 38 71q7 43 -15 73q-22 29 -62 29t-70 -29q-32 -30 -39 -73q-7 -41 15 -71
t62 -30z" />
    <glyph glyph-name="oacute" unicode="&#xf3;" horiz-adv-x="609" 
d="M484 567h-189l115 164h244zM359 521q119 0 191 -75t54 -193q-20 -119 -113 -193q-95 -75 -213 -75q-119 0 -192 76t-54 192q18 117 113 193q95 75 214 75zM302 152q40 0 71 30q31 29 38 71q7 43 -15 73q-22 29 -62 29t-70 -29q-32 -30 -39 -73q-7 -41 15 -71t62 -30z" />
    <glyph glyph-name="ocircumflex" unicode="&#xf4;" horiz-adv-x="609" 
d="M373 566h-198l156 165h209l79 -165h-180l-22 47zM359 521q119 0 191 -75t54 -193q-20 -119 -113 -193q-95 -75 -213 -75q-119 0 -192 76t-54 192q18 117 113 193q95 75 214 75zM302 152q40 0 71 30q31 29 38 71q7 43 -15 73q-22 29 -62 29t-70 -29q-32 -30 -39 -73
q-7 -41 15 -71t62 -30z" />
    <glyph glyph-name="otilde" unicode="&#xf5;" horiz-adv-x="609" 
d="M355 599q-15 0 -23 -6q-7 -5 -18 -23h-111q19 84 68 134q48 50 102 50q35 0 65 -17q31 -18 46 -18q13 0 24 7q8 5 19 24h110q-20 -87 -66 -134q-48 -50 -104 -50q-32 0 -64 17q-31 16 -48 16zM359 521q119 0 191 -75t54 -193q-20 -119 -113 -193q-95 -75 -213 -75
q-119 0 -192 76t-54 192q18 117 113 193q95 75 214 75zM302 152q40 0 71 30q31 29 38 71q7 43 -15 73q-22 29 -62 29t-70 -29q-32 -30 -39 -73q-7 -41 15 -71t62 -30z" />
    <glyph glyph-name="odieresis" unicode="&#xf6;" horiz-adv-x="609" 
d="M287 546q-46 0 -75 29t-29 73q0 42 30 72t74 30q45 0 75 -30t30 -72q0 -45 -29 -73q-31 -29 -76 -29zM532 750q45 0 75 -30t30 -72q0 -45 -29 -73q-31 -29 -76 -29q-46 0 -75 29t-29 73q0 42 30 72t74 30zM359 521q119 0 191 -75t54 -193q-20 -119 -113 -193
q-95 -75 -213 -75q-119 0 -192 76t-54 192q18 117 113 193q95 75 214 75zM302 152q40 0 71 30q31 29 38 71q7 43 -15 73q-22 29 -62 29t-70 -29q-32 -30 -39 -73q-7 -41 15 -71t62 -30z" />
    <glyph glyph-name="divide" unicode="&#xf7;" horiz-adv-x="564" 
d="M366 616q40 0 67 -27q26 -26 26 -66t-26 -65q-28 -26 -67 -26q-40 0 -66 26t-26 65q0 38 26 66q26 27 66 27zM563 250h-493l35 152h494zM275 221q40 0 67 -27q26 -26 26 -66t-26 -65q-28 -26 -67 -26q-40 0 -66 26t-26 65q0 38 26 66q25 27 66 27z" />
    <glyph glyph-name="oslash" unicode="&#xf8;" horiz-adv-x="609" 
d="M604 465l-66 -54q41 -69 27 -158q-20 -119 -113 -193q-94 -75 -213 -75q-94 0 -164 50l-78 -64l-49 64l73 59q-43 67 -28 159q18 117 113 193q94 75 214 75q95 0 163 -50l72 58zM186 253q-3 -10 -1 -25l146 119q-19 8 -36 8q-40 0 -70 -29q-32 -30 -39 -73zM372 253
q1 5 1 24l-145 -118q17 -7 35 -7q39 0 71 30q31 29 38 71z" />
    <glyph glyph-name="ugrave" unicode="&#xf9;" horiz-adv-x="621" 
d="M291 567l-169 164h243l115 -164h-189zM658 506l-116 -507h-202l10 42q-64 -57 -142 -57q-94 0 -138 59q-44 60 -22 153l71 310h201l-62 -273q-8 -31 6 -51t42 -20q35 0 59 25t34 68l58 251h201z" />
    <glyph glyph-name="uacute" unicode="&#xfa;" horiz-adv-x="621" 
d="M490 567h-189l115 164h244zM457 506h201l-116 -507h-202l10 42q-64 -57 -142 -57q-94 0 -138 59q-44 60 -22 153l71 310h201l-62 -273q-8 -31 6 -51t42 -20q35 0 59 25t34 68z" />
    <glyph glyph-name="ucircumflex" unicode="&#xfb;" horiz-adv-x="621" 
d="M379 566h-198l156 165h209l79 -165h-180l-22 47zM658 506l-116 -507h-202l10 42q-64 -57 -142 -57q-94 0 -138 59q-44 60 -22 153l71 310h201l-62 -273q-8 -31 6 -51t42 -20q35 0 59 25t34 68l58 251h201z" />
    <glyph glyph-name="udieresis" unicode="&#xfc;" horiz-adv-x="621" 
d="M294 546q-46 0 -75 29t-29 73q0 42 30 72t74 30q45 0 75 -30t30 -72q0 -45 -29 -73q-31 -29 -76 -29zM539 546q-46 0 -75 29t-29 73q0 42 30 72t74 30q45 0 75 -30t30 -72q0 -45 -29 -73q-31 -29 -76 -29zM658 506l-116 -507h-202l10 42q-64 -57 -142 -57q-94 0 -138 59
q-44 60 -22 153l71 310h201l-62 -273q-8 -31 6 -51t42 -20q35 0 59 25t34 68l58 251h201z" />
    <glyph glyph-name="yacute" unicode="&#xfd;" horiz-adv-x="616" 
d="M458 567h-189l115 164h244zM664 507l-469 -737h-205l149 245l-83 492h205l30 -240l146 240h227z" />
    <glyph glyph-name="thorn" unicode="&#xfe;" horiz-adv-x="650" 
d="M355 522q108 0 164 -74q57 -76 38 -195q-20 -121 -99 -194q-80 -74 -188 -74q-109 0 -149 82l-70 -297h-201l224 950h201l-57 -243q57 45 137 45zM246 152q41 0 72 29q29 28 37 72t-13 73q-20 29 -63 29q-39 0 -71 -30t-39 -72q-7 -41 15 -71t62 -30z" />
    <glyph glyph-name="ydieresis" unicode="&#xff;" horiz-adv-x="616" 
d="M262 546q-46 0 -75 29t-29 73q0 42 30 72t74 30q45 0 75 -30t30 -72q0 -45 -29 -73q-31 -29 -76 -29zM507 546q-46 0 -75 29t-29 73q0 42 30 72t74 30q45 0 75 -30t30 -72q0 -45 -29 -73q-31 -29 -76 -29zM664 507l-469 -737h-205l149 245l-83 492h205l30 -240l146 240
h227z" />
    <glyph glyph-name="Amacron" unicode="&#x100;" horiz-adv-x="765" 
d="M614 732h-352l34 148h352zM649 0h-213l-11 91h-256l-54 -91h-229l420 670h233zM404 262l-22 191l-113 -191h135z" />
    <glyph glyph-name="amacron" unicode="&#x101;" horiz-adv-x="574" 
d="M533 568h-352l34 148h352zM340 522q114 0 168 -60q54 -59 31 -160l-70 -302h-195l8 33q-70 -48 -158 -48q-70 0 -110 36t-40 96q0 90 72 144q71 53 198 53h103l3 15q4 23 -6 36t-34 13q-48 0 -67 -48l-179 41q36 73 108 112t168 39zM236 127q26 0 49 14q23 13 30 36l7 32
h-57q-30 0 -50 -14q-19 -13 -19 -35q0 -33 40 -33z" />
    <glyph glyph-name="Abreve" unicode="&#x102;" horiz-adv-x="765" 
d="M442 715q-86 0 -133 48t-29 124h143q-4 -15 5 -27t29 -12t35 12q14 11 18 27h157q-18 -79 -79 -125q-62 -47 -146 -47zM539 670l110 -670h-213l-11 91h-256l-54 -91h-229l420 670h233zM404 262l-22 191l-113 -191h135z" />
    <glyph glyph-name="abreve" unicode="&#x103;" horiz-adv-x="574" 
d="M361 551q-87 0 -133 48q-47 48 -29 124h143q-4 -15 5 -27t29 -12t35 12q14 11 18 27h157q-18 -79 -79 -125q-62 -47 -146 -47zM340 522q114 0 168 -60q54 -59 31 -160l-70 -302h-195l8 33q-70 -48 -158 -48q-70 0 -110 36t-40 96q0 90 72 144q71 53 198 53h103l3 15
q4 23 -6 36t-34 13q-48 0 -67 -48l-179 41q36 73 108 112t168 39zM236 127q26 0 49 14q23 13 30 36l7 32h-57q-30 0 -50 -14q-19 -13 -19 -35q0 -33 40 -33z" />
    <glyph glyph-name="Aogonek" unicode="&#x104;" horiz-adv-x="765" 
d="M607 -95q21 0 53 9l-12 -113q-45 -19 -107 -19q-46 0 -73 24q-28 25 -28 62q0 70 84 132h-88l-11 91h-256l-54 -91h-229l420 670h233l110 -670q-6 -5 -13.5 -12t-11.5 -10.5t-7 -5.5q-6 -5 -19 -18q-9 -9 -13 -17q-3 -6 -3 -13q0 -19 25 -19zM404 262l-22 191l-113 -191
h135z" />
    <glyph glyph-name="aogonek" unicode="&#x105;" horiz-adv-x="574" 
d="M539 302l-70 -302q-6 -5 -13.5 -12t-11.5 -10.5t-7 -5.5q-6 -5 -19 -18q-9 -9 -13 -17q-3 -6 -3 -13q0 -19 25 -19q21 0 53 9l-12 -113q-45 -19 -107 -19q-46 0 -73 24q-28 25 -28 62q0 70 84 132h-70l8 33q-70 -48 -158 -48q-70 0 -110 36t-40 96q0 90 72 144
q71 53 198 53h103l3 15q4 23 -6 36t-34 13q-48 0 -67 -48l-179 41q36 73 108 112t168 39q114 0 168 -60q54 -59 31 -160zM236 127q26 0 49 14q23 13 30 36l7 32h-57q-30 0 -50 -14q-19 -13 -19 -35q0 -33 40 -33z" />
    <glyph glyph-name="Cacute" unicode="&#x106;" horiz-adv-x="775" 
d="M618 731h-189l115 164h244zM505 685q135 0 223 -69t93 -183l-214 -38q-5 49 -36 78q-31 28 -83 28q-76 0 -131 -55q-56 -56 -56 -135q0 -60 37 -102q36 -40 98 -40q52 0 93 30q40 30 61 82l200 -41q-37 -118 -133 -187q-95 -68 -233 -68q-155 0 -243 85q-89 86 -89 221
q0 163 118 278q119 116 295 116z" />
    <glyph glyph-name="cacute" unicode="&#x107;" horiz-adv-x="588" 
d="M461 567h-189l115 164h244zM330 354q-41 0 -70 -29t-37 -72q-6 -42 15 -71t61 -29q33 0 56 19q24 20 36 54l180 -31q-30 -96 -112 -152q-84 -58 -185 -58q-120 0 -191 75t-53 193q20 119 114 194t213 75q101 0 167 -57q65 -56 65 -150l-190 -34q0 35 -19 54t-50 19z" />
    <glyph glyph-name="Cdot" unicode="&#x10a;" horiz-adv-x="775" 
d="M545 928q47 0 78 -31t31 -75q0 -46 -31 -76t-78 -30t-77 30q-31 31 -31 76q0 44 31 75t77 31zM505 685q135 0 223 -69t93 -183l-214 -38q-5 49 -36 78q-31 28 -83 28q-76 0 -131 -55q-56 -56 -56 -135q0 -60 37 -102q36 -40 98 -40q52 0 93 30q40 30 61 82l200 -41
q-37 -118 -133 -187q-95 -68 -233 -68q-155 0 -243 85q-89 86 -89 221q0 163 118 278q119 116 295 116z" />
    <glyph glyph-name="cdot" unicode="&#x10b;" horiz-adv-x="588" 
d="M389 552q-47 0 -77 30q-31 31 -31 76q0 44 31 75t77 31q47 0 78 -31t31 -75q0 -46 -31 -76t-78 -30zM299 153q33 0 56 19q24 20 36 54l180 -31q-30 -96 -112 -152q-84 -58 -185 -58q-120 0 -191 75t-53 193q20 119 114 194t213 75q101 0 167 -57q65 -56 65 -150l-190 -34
q0 35 -19 54t-50 19q-41 0 -70 -29t-37 -72q-6 -42 15 -71t61 -29z" />
    <glyph glyph-name="Ccaron" unicode="&#x10c;" horiz-adv-x="775" 
d="M420 730l-80 164h180l22 -47l44 47h198l-156 -164h-208zM436 169q52 0 93 30q40 30 61 82l200 -41q-37 -118 -133 -187q-95 -68 -233 -68q-155 0 -243 85q-89 86 -89 221q0 163 118 278q119 116 295 116q135 0 223 -69t93 -183l-214 -38q-5 49 -36 78q-31 28 -83 28
q-76 0 -131 -55q-56 -56 -56 -135q0 -60 37 -102q36 -40 98 -40z" />
    <glyph glyph-name="ccaron" unicode="&#x10d;" horiz-adv-x="588" 
d="M264 566l-80 164h180l22 -47l44 47h198l-156 -164h-208zM330 354q-41 0 -70 -29t-37 -72q-6 -42 15 -71t61 -29q33 0 56 19q24 20 36 54l180 -31q-30 -96 -112 -152q-84 -58 -185 -58q-120 0 -191 75t-53 193q20 119 114 194t213 75q101 0 167 -57q65 -56 65 -150
l-190 -34q0 35 -19 54t-50 19z" />
    <glyph glyph-name="Dcaron" unicode="&#x10e;" horiz-adv-x="731" 
d="M325 730l-80 164h180l22 -47l44 47h198l-156 -164h-208zM121 670h275q145 0 229 -74q86 -75 86 -206q0 -159 -122 -275q-121 -115 -304 -115h-319l115 498zM214 177h58q88 0 156 57t68 140q0 58 -36 91t-101 33h-71z" />
    <glyph glyph-name="dcaron" unicode="&#x10f;" horiz-adv-x="647" 
d="M741 770l-179 -770h-201l7 29q-61 -44 -136 -44q-106 0 -163 75t-38 193q19 120 99 195q78 74 188 74q104 0 146 -77l76 325h201zM963 770l-90 -200h-132l46 200h176zM232 253q-7 -43 14 -72t62 -29q40 0 72 29q30 27 38 72q8 44 -14 73t-63 29q-43 0 -72 -29
q-29 -30 -37 -73z" />
    <glyph glyph-name="Dcroat" unicode="&#x110;" horiz-adv-x="751" 
d="M163 670h275q144 0 228 -74q86 -75 86 -206q0 -160 -121 -275t-304 -115h-319l57 246h-50l40 175h50l18 77zM255 177h58q88 0 157 57q68 56 68 140q0 58 -36 91t-102 33h-70l-18 -77h80l-40 -175h-81z" />
    <glyph glyph-name="dcroat" unicode="&#x111;" horiz-adv-x="676" 
d="M740 538h-53l-125 -538h-201l7 28q-61 -43 -135 -43q-107 0 -164 75t-38 193q19 120 99 195q78 74 188 74q104 0 146 -77l22 93h-101l32 140h102l21 92h201l-21 -92h51zM233 253q-8 -44 13 -72q21 -29 63 -29q41 0 72 30q31 29 38 71q7 43 -15 73q-22 29 -62 29
q-43 0 -72 -29q-30 -30 -37 -73z" />
    <glyph glyph-name="Emacron" unicode="&#x112;" horiz-adv-x="613" 
d="M579 732h-352l34 148h352zM286 499l-20 -87h301l-35 -154h-301l-20 -87h333l-40 -171h-540l155 670h535l-39 -171h-329z" />
    <glyph glyph-name="emacron" unicode="&#x113;" horiz-adv-x="588" 
d="M550 568h-352l34 148h352zM351 522q125 0 188 -84t39 -233h-350q8 -69 73 -69q59 0 87 46l174 -35q-43 -81 -114 -121q-73 -41 -161 -41q-113 0 -181 64q-70 65 -70 172q0 128 93 215q92 86 222 86zM249 310h154q-8 59 -67 59q-54 0 -87 -59z" />
    <glyph glyph-name="Edot" unicode="&#x116;" horiz-adv-x="613" 
d="M422 716q-47 0 -77 30q-31 31 -31 76q0 44 31 75t77 31q47 0 78 -31t31 -75q0 -46 -31 -76q-32 -30 -78 -30zM286 499l-20 -87h301l-35 -154h-301l-20 -87h333l-40 -171h-540l155 670h535l-39 -171h-329z" />
    <glyph glyph-name="edot" unicode="&#x117;" horiz-adv-x="588" 
d="M394 552q-47 0 -77 30q-31 31 -31 76q0 44 31 75t77 31q47 0 78 -31t31 -75q0 -46 -31 -76q-32 -30 -78 -30zM351 522q125 0 188 -84t39 -233h-350q8 -69 73 -69q59 0 87 46l174 -35q-43 -81 -114 -121q-73 -41 -161 -41q-113 0 -181 64q-70 65 -70 172q0 128 93 215
q92 86 222 86zM249 310h154q-8 59 -67 59q-54 0 -87 -59z" />
    <glyph glyph-name="Eogonek" unicode="&#x118;" horiz-adv-x="613" 
d="M286 499l-20 -87h301l-35 -154h-301l-20 -87h333l-40 -171h-42q-6 -5 -13.5 -12t-11.5 -10.5t-7 -5.5q-6 -5 -19 -18q-9 -9 -13 -17q-3 -6 -3 -13q0 -19 25 -19q22 0 53 9l-12 -113q-45 -19 -107 -19q-46 0 -73 24q-28 25 -28 62q0 70 84 132h-373l155 670h535l-39 -171
h-329z" />
    <glyph glyph-name="eogonek" unicode="&#x119;" horiz-adv-x="589" 
d="M351 522q128 0 193 -87q64 -87 34 -230h-350q8 -69 73 -69q59 0 87 46l174 -35q-22 -44 -59 -80q-67 -66 -93 -99q-21 -27 -21 -44q0 -19 25 -19q20 0 53 9l-13 -113q-45 -19 -106 -19q-46 0 -74 24t-28 62q0 60 66 118l-25 -1q-113 0 -181 64q-70 65 -70 172
q0 128 93 215q92 86 222 86zM336 369q-54 0 -87 -59h154q-8 59 -67 59z" />
    <glyph glyph-name="Ecaron" unicode="&#x11a;" horiz-adv-x="613" 
d="M297 730l-80 164h180l22 -47l44 47h198l-156 -164h-208zM654 670l-39 -171h-329l-20 -87h301l-35 -154h-301l-20 -87h333l-40 -171h-540l155 670h535z" />
    <glyph glyph-name="ecaron" unicode="&#x11b;" horiz-adv-x="588" 
d="M269 566l-80 164h180l22 -47l44 47h198l-156 -164h-208zM351 522q125 0 188 -84t39 -233h-350q8 -69 73 -69q59 0 87 46l174 -35q-43 -81 -114 -121q-73 -41 -161 -41q-113 0 -181 64q-70 65 -70 172q0 128 93 215q92 86 222 86zM249 310h154q-8 59 -67 59q-54 0 -87 -59
z" />
    <glyph glyph-name="Gbreve" unicode="&#x11e;" horiz-adv-x="785" 
d="M536 715q-86 0 -133 48t-29 124h143q-4 -15 5 -27t29 -12t35 12q14 11 18 27h157q-18 -79 -79 -125q-62 -47 -146 -47zM466 402h362q-1 -35 -6 -67q-27 -161 -132 -256q-104 -94 -273 -94q-145 0 -235 87t-90 218q0 164 119 280q118 115 295 115q130 0 212 -53
q83 -54 103 -147l-223 -48q-23 63 -106 63q-80 0 -135 -55q-56 -56 -56 -135q0 -63 37 -101q38 -39 99 -39q51 0 86 19q37 20 50 47h-146z" />
    <glyph glyph-name="gbreve" unicode="&#x11f;" horiz-adv-x="651" 
d="M318 551q-86 0 -133 48t-29 124h143q-4 -15 5 -27t29 -12t35 12q14 11 18 27h157q-18 -79 -79 -125q-62 -47 -146 -47zM624 507l-119 -515q-56 -242 -333 -242q-209 0 -260 145l187 61q28 -46 79 -46q45 0 82 23q36 23 47 71l6 26q-59 -45 -137 -45q-107 0 -164 75
t-38 193q20 120 99 195q78 74 188 74q106 0 148 -80l15 65h200zM176 253q-7 -43 14 -72t62 -29q40 0 72 30q31 29 38 71q7 43 -15 73q-22 29 -62 29q-43 0 -72 -29q-29 -30 -37 -73z" />
    <glyph glyph-name="Gdot" unicode="&#x120;" horiz-adv-x="785" 
d="M551 928q47 0 78 -31t31 -75q0 -46 -31 -76t-78 -30t-77 30q-31 31 -31 76q0 44 31 75t77 31zM466 402h362q-1 -35 -6 -67q-27 -161 -132 -256q-104 -94 -273 -94q-145 0 -235 87t-90 218q0 164 119 280q118 115 295 115q130 0 212 -53q83 -54 103 -147l-223 -48
q-23 63 -106 63q-80 0 -135 -55q-56 -56 -56 -135q0 -63 37 -101q38 -39 99 -39q51 0 86 19q37 20 50 47h-146z" />
    <glyph glyph-name="gdot" unicode="&#x121;" horiz-adv-x="651" 
d="M333 552q-47 0 -77 30q-31 31 -31 76q0 44 31 75t77 31q47 0 78 -31t31 -75q0 -46 -31 -76t-78 -30zM624 507l-119 -515q-56 -242 -333 -242q-209 0 -260 145l187 61q28 -46 79 -46q45 0 82 23q36 23 47 71l6 26q-59 -45 -137 -45q-107 0 -164 75t-38 193q20 120 99 195
q78 74 188 74q106 0 148 -80l15 65h200zM176 253q-7 -43 14 -72t62 -29q40 0 72 30q31 29 38 71q7 43 -15 73q-22 29 -62 29q-43 0 -72 -29q-29 -30 -37 -73z" />
    <glyph glyph-name="Gcedilla" unicode="&#x122;" horiz-adv-x="785" 
d="M466 402h362q-1 -35 -6 -67q-27 -161 -132 -256q-104 -94 -273 -94q-145 0 -235 87t-90 218q0 164 119 280q118 115 295 115q130 0 212 -53q83 -54 103 -147l-223 -48q-23 63 -106 63q-80 0 -135 -55q-56 -56 -56 -135q0 -63 37 -101q38 -39 99 -39q51 0 86 19
q37 20 50 47h-146zM214 -212l87 167h191l-141 -167h-137z" />
    <glyph glyph-name="gcedilla" unicode="&#x123;" horiz-adv-x="651" 
d="M434 564h-191l141 167h137zM624 507l-119 -515q-28 -124 -116 -183t-217 -59q-209 0 -260 145l186 61q28 -46 80 -46q44 0 82 24q36 23 47 70l6 27q-58 -46 -138 -46q-106 0 -163 75t-38 193q20 120 99 195q78 74 188 74q104 0 147 -79l15 64h201zM175 253q-7 -43 14 -72
t62 -29q40 0 72 29q31 29 39 72q7 43 -15 73q-22 29 -63 29q-42 0 -71 -29q-31 -31 -38 -73z" />
    <glyph glyph-name="Hbar" unicode="&#x126;" horiz-adv-x="756" 
d="M783 430h-44l-99 -430h-206l46 199h-225l-46 -199h-207l99 430h-44l35 149h44l21 91h207l-21 -91h224l21 91h207l-21 -91h43zM533 430h-224l-17 -72h224z" />
    <glyph glyph-name="hbar" unicode="&#x127;" horiz-adv-x="642" 
d="M460 522q93 0 137 -59q43 -59 21 -153l-71 -310h-202l64 273q7 31 -7 52q-13 19 -43 19q-33 0 -56 -23q-25 -25 -35 -66l-59 -255h-201l126 546h-47l31 130h46l22 94h201l-22 -94h107l-30 -130h-107l-19 -82q64 58 144 58z" />
    <glyph glyph-name="Imacron" unicode="&#x12a;" horiz-adv-x="462" 
d="M481 732h-352l34 148h352zM500 670l-40 -175h-106l-74 -319h107l-41 -176h-420l41 176h106l74 319h-107l40 175h420z" />
    <glyph glyph-name="imacron" unicode="&#x12b;" horiz-adv-x="299" 
d="M389 568h-352l34 148h352zM181 0h-201l118 507h201z" />
    <glyph glyph-name="Iogonek" unicode="&#x12e;" horiz-adv-x="462" 
d="M354 495l-74 -319h107l-41 -176h-107l-32 -28q-6 -5 -19 -18q-9 -9 -13 -17q-3 -6 -3 -13q0 -19 25 -19q22 0 53 9l-12 -113q-45 -19 -107 -19q-46 0 -73 24q-28 25 -28 62q0 70 84 132h-188l41 176h106l74 319h-107l40 175h420l-40 -175h-106z" />
    <glyph glyph-name="iogonek" unicode="&#x12f;" horiz-adv-x="299" 
d="M224 764q47 0 78 -31t31 -75q0 -46 -31 -76q-32 -30 -78 -30q-47 0 -77 30q-31 31 -31 76q0 44 31 75t77 31zM291 507l-118 -507l-32 -28q-6 -5 -19 -18q-9 -9 -13 -17q-3 -6 -3 -13q0 -19 25 -19q21 0 53 9l-12 -113q-45 -19 -107 -19q-46 0 -73 24q-28 25 -28 62
q0 70 84 132h-76l118 507h201z" />
    <glyph glyph-name="Idot" unicode="&#x130;" horiz-adv-x="462" 
d="M324 716q-47 0 -77 30q-31 31 -31 76q0 44 31 75t77 31q47 0 78 -31t31 -75q0 -46 -31 -76q-32 -30 -78 -30zM354 495l-74 -319h107l-41 -176h-420l41 176h106l74 319h-107l40 175h420l-40 -175h-106z" />
    <glyph glyph-name="dotlessi" unicode="&#x131;" horiz-adv-x="299" 
d="M181 0h-201l118 507h201z" />
    <glyph glyph-name="IJ" unicode="&#x132;" horiz-adv-x="1086" 
d="M280 176h107l-41 -176h-420l41 176h106l74 319h-107l40 175h420l-40 -175h-106zM1100 670l-97 -423q-28 -120 -111 -191t-213 -71q-117 0 -184 64q-67 65 -66 171l212 40q-7 -91 64 -91q35 0 59 21q23 20 32 57l57 248h-205l41 175h411z" />
    <glyph glyph-name="ij" unicode="&#x133;" horiz-adv-x="630" 
d="M240 762q48 0 80 -32t32 -76q0 -47 -31 -77q-33 -31 -81 -31q-47 0 -80 31q-31 30 -31 77q0 44 32 76t79 32zM562 762q48 0 80 -32q31 -31 31 -76q0 -47 -31 -77q-33 -31 -80 -31t-80 31q-31 30 -31 77q0 45 32 77q31 31 79 31zM190 0h-202l117 507h201zM630 507
l-132 -572q-20 -83 -81 -134q-62 -51 -143 -51q-59 0 -106 25l59 141q25 -5 30 -5q33 0 44 41l127 555h202z" />
    <glyph glyph-name="Kcedilla" unicode="&#x136;" horiz-adv-x="718" 
d="M481 379l168 -379h-237l-95 221l-123 -119l-23 -102h-207l154 670h207l-54 -233l241 233h269zM181 -45h191l-141 -167h-137z" />
    <glyph glyph-name="kcedilla" unicode="&#x137;" horiz-adv-x="629" 
d="M438 305l122 -305h-225l-59 153l-96 -90l-15 -63h-201l178 770h201l-95 -410l160 147h247zM143 -45h191l-141 -167h-137z" />
    <glyph glyph-name="Lacute" unicode="&#x139;" horiz-adv-x="578" 
d="M336 731h-189l115 164h244zM520 176l-39 -176h-515l154 670h207l-114 -494h307z" />
    <glyph glyph-name="lacute" unicode="&#x13a;" horiz-adv-x="357" 
d="M383 831h-189l115 164h244zM371 770l-135 -579q-8 -36 25 -36q16 0 55 6l-1 -150q-58 -26 -141 -26q-82 0 -123 53q-40 51 -20 139l139 593h201z" />
    <glyph glyph-name="Lcedilla" unicode="&#x13b;" horiz-adv-x="578" 
d="M520 176l-39 -176h-515l154 670h207l-114 -494h307zM127 -45h191l-141 -167h-137z" />
    <glyph glyph-name="lcedilla" unicode="&#x13c;" horiz-adv-x="357" 
d="M302 770l-135 -579q-7 -36 25 -36q16 0 55 6l-1 -150q-58 -26 -141 -26q-82 0 -123 53q-40 51 -20 139l139 593h201zM-114 -212l88 167h191l-141 -167h-138z" />
    <glyph glyph-name="Lcaron" unicode="&#x13d;" horiz-adv-x="578" 
d="M213 176h307l-39 -176h-515l154 670h207zM487 470h-133l46 200h177z" />
    <glyph glyph-name="lcaron" unicode="&#x13e;" horiz-adv-x="357" 
d="M371 770l-135 -579q-8 -36 25 -36q16 0 55 6l-1 -150q-58 -26 -141 -26q-82 0 -123 53q-40 51 -20 139l139 593h201zM502 570h-133l46 200h177z" />
    <glyph glyph-name="Ldot" unicode="&#x13f;" horiz-adv-x="602" 
d="M213 176h307l-39 -176h-515l154 670h207zM414 264q-47 0 -77 30q-31 31 -31 76q0 44 31 75t77 31q47 0 78 -31t31 -75q0 -46 -31 -76q-32 -30 -78 -30z" />
    <glyph glyph-name="ldot" unicode="&#x140;" horiz-adv-x="488" 
d="M375 770l-135 -579q-8 -36 25 -36q17 0 54 6v-150q-60 -26 -141 -26q-82 0 -123 53q-40 51 -20 139l138 593h202zM440 476q47 0 78 -31t31 -75q0 -46 -31 -76q-32 -30 -78 -30q-47 0 -77 30q-31 31 -31 76q0 44 31 75t77 31z" />
    <glyph glyph-name="Lslash" unicode="&#x141;" horiz-adv-x="613" 
d="M564 176l-40 -176h-515l51 224l-52 -21l39 168l52 21l64 278h207l-43 -187l96 38l-39 -168l-96 -38l-32 -139h308z" />
    <glyph glyph-name="lslash" unicode="&#x142;" horiz-adv-x="382" 
d="M327 515l57 26l-43 -185l-58 -26l-32 -139q-7 -36 25 -36q16 0 55 6l-1 -150q-58 -26 -141 -26q-82 0 -123 53q-40 51 -20 139l12 52l-50 -23l44 185l49 22l84 357h201z" />
    <glyph glyph-name="Nacute" unicode="&#x143;" horiz-adv-x="751" 
d="M564 731h-189l115 164h244zM789 670l-154 -670h-170l-212 329l-76 -329h-207l154 670h170l209 -339l79 339h207z" />
    <glyph glyph-name="nacute" unicode="&#x144;" horiz-adv-x="621" 
d="M460 567h-189l115 164h244zM416 522q94 0 138 -59q44 -60 22 -153l-71 -310h-201l62 273q8 32 -6 52q-13 19 -42 19q-33 0 -58 -25q-24 -25 -35 -68l-58 -251h-201l117 507h201l-10 -43q64 58 142 58z" />
    <glyph glyph-name="Ncedilla" unicode="&#x145;" horiz-adv-x="751" 
d="M789 670l-154 -670h-170l-212 329l-76 -329h-207l154 670h170l209 -339l79 339h207zM214 -45h191l-141 -167h-137z" />
    <glyph glyph-name="ncedilla" unicode="&#x146;" horiz-adv-x="621" 
d="M416 522q94 0 138 -59q44 -60 22 -153l-71 -310h-201l62 273q8 32 -6 52q-13 19 -42 19q-33 0 -58 -25q-24 -25 -35 -68l-58 -251h-201l117 507h201l-10 -43q64 58 142 58zM128 -45h191l-141 -167h-137z" />
    <glyph glyph-name="Ncaron" unicode="&#x147;" horiz-adv-x="751" 
d="M366 730l-80 164h180l22 -47l44 47h198l-156 -164h-208zM789 670l-154 -670h-170l-212 329l-76 -329h-207l154 670h170l209 -339l79 339h207z" />
    <glyph glyph-name="ncaron" unicode="&#x148;" horiz-adv-x="621" 
d="M262 566l-80 164h180l22 -47l44 47h198l-156 -164h-208zM416 522q94 0 138 -59q44 -60 22 -153l-71 -310h-201l62 273q8 32 -6 52q-13 19 -42 19q-33 0 -58 -25q-24 -25 -35 -68l-58 -251h-201l117 507h201l-10 -43q64 58 142 58z" />
    <glyph glyph-name="Eng" unicode="&#x14a;" horiz-adv-x="745" 
d="M786 670l-176 -761q-16 -74 -76 -117q-59 -42 -142 -42q-58 0 -129 21l45 130q53 -8 58 -8q34 0 41 33l27 117l-185 286l-76 -329h-207l154 670h170l209 -338l27 115l51 223h209z" />
    <glyph glyph-name="eng" unicode="&#x14b;" horiz-adv-x="621" 
d="M416 522q94 0 138 -59q44 -60 22 -153l-71 -310l-22 -91q-18 -75 -76 -117t-142 -42q-59 0 -129 21l51 130q53 -8 58 -8q33 0 41 33l18 74l62 273q8 32 -6 52q-13 19 -42 19q-33 0 -58 -25q-24 -25 -35 -68l-58 -251h-201l117 507h201l-10 -43q64 58 142 58z" />
    <glyph glyph-name="Omacron" unicode="&#x14c;" horiz-adv-x="780" 
d="M702 732h-352l34 148h352zM482 685q156 0 252 -102q96 -103 77 -248q-19 -152 -127 -251t-271 -99q-154 0 -250 102q-96 103 -77 248q18 149 132 249q115 101 264 101zM425 170q69 0 119 47t59 118q9 70 -29 119q-37 47 -104 47q-70 0 -118 -47q-50 -48 -59 -119t29 -118
t103 -47z" />
    <glyph glyph-name="omacron" unicode="&#x14d;" horiz-adv-x="609" 
d="M567 568h-352l34 148h352zM359 521q119 0 191 -75t54 -193q-20 -119 -113 -193q-95 -75 -213 -75q-119 0 -192 76t-54 192q18 117 113 193q95 75 214 75zM302 152q40 0 71 30q31 29 38 71q7 43 -15 73q-22 29 -62 29t-70 -29q-32 -30 -39 -73q-7 -41 15 -71t62 -30z" />
    <glyph glyph-name="Odblacute" unicode="&#x150;" horiz-adv-x="780" 
d="M490 731h-164l123 164h206zM713 731h-164l123 164h214zM482 685q156 0 252 -102q96 -103 77 -248q-19 -152 -127 -251t-271 -99q-154 0 -250 102q-96 103 -77 248q18 149 132 249q115 101 264 101zM425 170q69 0 119 47t59 118q9 70 -29 119q-37 47 -104 47
q-70 0 -118 -47q-50 -48 -59 -119t29 -118t103 -47z" />
    <glyph glyph-name="odblacute" unicode="&#x151;" horiz-adv-x="609" 
d="M356 567h-164l123 164h206zM415 567l123 164h214l-173 -164h-164zM359 521q119 0 191 -75t54 -193q-20 -119 -113 -193q-95 -75 -213 -75q-119 0 -192 76t-54 192q18 117 113 193q95 75 214 75zM302 152q40 0 71 30q31 29 38 71q7 43 -15 73q-22 29 -62 29t-70 -29
q-32 -30 -39 -73q-7 -41 15 -71t62 -30z" />
    <glyph glyph-name="OE" unicode="&#x152;" horiz-adv-x="1019" 
d="M743 499l-20 -87h302l-36 -154h-301l-20 -87h333l-40 -171h-573q-174 0 -259 93q-86 93 -53 239q31 149 163 244q130 94 309 94h564l-40 -171h-329zM461 171l76 328h-19q-88 0 -153 -46t-82 -121q-16 -70 19 -116q34 -45 121 -45h38z" />
    <glyph glyph-name="oe" unicode="&#x153;" horiz-adv-x="968" 
d="M728 522q125 0 188 -84t39 -233h-350q7 -69 73 -69q59 0 87 46l174 -35q-41 -77 -114 -120q-72 -42 -161 -42q-115 0 -185 66q-90 -66 -201 -66q-119 0 -192 76t-54 192q18 117 113 193q95 75 214 75q107 0 177 -61q85 62 192 62zM626 310h154q-9 59 -67 59
q-54 0 -87 -59zM302 152q40 0 71 30q31 29 38 71q7 43 -15 73q-22 29 -62 29t-70 -29q-32 -30 -39 -73q-7 -41 15 -71t62 -30z" />
    <glyph glyph-name="Racute" unicode="&#x154;" horiz-adv-x="688" 
d="M508 731h-189l115 164h244zM682 476q0 -86 -52 -153q-52 -66 -142 -97l131 -226h-229l-114 206h-56l-47 -206h-207l154 670h338q106 0 165 -52t59 -142zM257 366h111q46 0 76 24q29 23 29 57q0 26 -18 41q-17 14 -52 14h-115z" />
    <glyph glyph-name="racute" unicode="&#x155;" horiz-adv-x="455" 
d="M391 567h-189l115 164h244zM284 507l-23 -98q78 104 189 104q18 0 36 -3l-56 -210h-30q-80 0 -129 -33t-69 -116l-35 -151h-201l117 507h201z" />
    <glyph glyph-name="Rcedilla" unicode="&#x156;" horiz-adv-x="688" 
d="M682 476q0 -86 -52 -153q-52 -66 -142 -97l131 -226h-229l-114 206h-56l-47 -206h-207l154 670h338q106 0 165 -52t59 -142zM257 366h111q46 0 76 24q29 23 29 57q0 26 -18 41q-17 14 -52 14h-115zM165 -45h191l-141 -167h-137z" />
    <glyph glyph-name="rcedilla" unicode="&#x157;" horiz-adv-x="455" 
d="M360 513q18 0 36 -3l-56 -210h-30q-80 0 -129 -33t-69 -116l-35 -151h-201l117 507h201l-23 -98q78 104 189 104zM-127 -45h192l-141 -167h-138z" />
    <glyph glyph-name="Rcaron" unicode="&#x158;" horiz-adv-x="688" 
d="M310 730l-80 164h180l22 -47l44 47h198l-156 -164h-208zM682 476q0 -86 -52 -153q-52 -66 -142 -97l131 -226h-229l-114 206h-56l-47 -206h-207l154 670h338q106 0 165 -52t59 -142zM257 366h111q46 0 76 24q29 23 29 57q0 26 -18 41q-17 14 -52 14h-115z" />
    <glyph glyph-name="rcaron" unicode="&#x159;" horiz-adv-x="455" 
d="M194 566l-80 164h180l22 -47l44 47h198l-156 -164h-208zM284 507l-23 -98q78 104 189 104q18 0 36 -3l-56 -210h-30q-80 0 -129 -33t-69 -116l-35 -151h-201l117 507h201z" />
    <glyph glyph-name="Sacute" unicode="&#x15a;" horiz-adv-x="652" 
d="M530 731h-189l115 164h244zM399 685q117 0 191 -49t94 -146l-208 -42q-5 36 -28 55q-25 20 -59 20q-27 0 -43 -12q-17 -12 -17 -32q0 -25 34 -35l107 -38q77 -26 113 -68q35 -41 35 -114q0 -108 -83 -173q-84 -66 -221 -66q-124 0 -209 58q-84 58 -95 151l217 40
q17 -80 97 -80q30 0 50 11q19 10 19 33q0 25 -49 38l-64 20q-86 28 -133 75q-45 45 -45 115q0 110 82 175q80 64 215 64z" />
    <glyph glyph-name="sacute" unicode="&#x15b;" horiz-adv-x="532" 
d="M419 568h-189l115 164h244zM-24 146l194 26q6 -21 25 -34q18 -12 41 -12q16 0 30 7q11 5 11 16q0 14 -33 23q-4 2 -27 6l-41 11q-127 31 -127 144q0 87 65 138q64 51 177 51q95 0 158 -39q62 -38 79 -115l-178 -28q-5 23 -21 36q-18 15 -47 15q-36 0 -36 -24
q0 -19 29 -27l58 -19q74 -21 107 -57t33 -94q0 -86 -67 -135q-68 -50 -180 -50q-94 0 -163 39t-87 122z" />
    <glyph glyph-name="Scedilla" unicode="&#x15e;" horiz-adv-x="652" 
d="M363 444l107 -38q77 -26 113 -68q35 -41 35 -114q0 -96 -67 -159q-68 -64 -181 -77l-71 -148h-208l137 153q-93 18 -151 72q-60 55 -67 129l217 40q17 -80 97 -80q30 0 50 11q19 10 19 33q0 25 -49 38l-64 20q-86 28 -133 75q-45 45 -45 115q0 110 82 175q80 64 215 64
q117 0 191 -49t94 -146l-208 -42q-5 36 -28 55q-25 20 -59 20q-27 0 -43 -12q-17 -12 -17 -32q0 -25 34 -35z" />
    <glyph glyph-name="scedilla" unicode="&#x15f;" horiz-adv-x="532" 
d="M275 340l58 -19q74 -21 107 -57t33 -94q0 -72 -50 -120q-49 -47 -136 -61l-72 -149h-208l137 153q-142 30 -168 153l194 26q6 -21 25 -34q18 -12 41 -12q16 0 30 7q11 5 11 16q0 14 -33 23q-4 2 -27 6l-41 11q-127 31 -127 144q0 87 65 138q64 51 177 51q95 0 158 -39
q62 -38 79 -115l-178 -28q-5 23 -21 36q-18 15 -47 15q-36 0 -36 -24q0 -19 29 -27z" />
    <glyph glyph-name="Scaron" unicode="&#x160;" horiz-adv-x="652" 
d="M333 730l-80 164h180l22 -47l44 47h198l-156 -164h-208zM389 523q-27 0 -43 -12q-17 -12 -17 -32q0 -25 34 -35l107 -38q77 -26 113 -68q35 -41 35 -114q0 -108 -83 -173q-84 -66 -221 -66q-124 0 -209 58q-84 58 -95 151l217 40q17 -80 97 -80q30 0 50 11q19 10 19 33
q0 25 -49 38l-64 20q-86 28 -133 75q-45 45 -45 115q0 110 82 175q80 64 215 64q117 0 191 -49t94 -146l-208 -42q-5 36 -28 55q-25 20 -59 20z" />
    <glyph glyph-name="scaron" unicode="&#x161;" horiz-adv-x="532" 
d="M221 567l-80 164h180l22 -47l44 47h198l-156 -164h-208zM282 391q-36 0 -36 -24q0 -19 29 -27l58 -19q74 -21 107 -57t33 -94q0 -86 -67 -135q-68 -50 -180 -50q-94 0 -163 39t-87 122l194 26q6 -21 25 -34q18 -12 41 -12q16 0 30 7q11 5 11 16q0 14 -33 23q-4 2 -27 6
l-41 11q-127 31 -127 144q0 87 65 138q64 51 177 51q95 0 158 -39q62 -38 79 -115l-178 -28q-5 23 -21 36q-18 15 -47 15z" />
    <glyph glyph-name="tcedilla" unicode="&#x163;" horiz-adv-x="442" 
d="M288 351l-32 -139q-6 -25 3 -40t31 -15q28 0 78 18l10 -154q-50 -26 -121 -33l-71 -148h-208l143 160h4q-50 21 -71 70q-21 50 -5 117l38 164h-67l36 156h67l38 163h201l-38 -163h126l-36 -156h-126z" />
    <glyph glyph-name="Tcaron" unicode="&#x164;" horiz-adv-x="662" 
d="M414 730l-80 164h180l22 -47l44 47h198l-156 -164h-208zM775 495h-207l-115 -495h-207l115 495h-207l40 175h621z" />
    <glyph glyph-name="tcaron" unicode="&#x165;" horiz-adv-x="442" 
d="M646 753l-90 -200h-133l46 200h177zM366 507h126l-36 -156h-126l-32 -139q-6 -25 3 -40t31 -15q28 0 78 18l10 -154q-66 -36 -171 -36q-93 0 -136 55q-44 56 -22 147l38 164h-67l36 156h67l38 163h201z" />
    <glyph glyph-name="Tbar" unicode="&#x166;" horiz-adv-x="662" 
d="M568 495l-25 -105h106l-36 -157h-106l-54 -233h-207l54 233h-98l36 157h98l25 105h-207l40 175h621l-40 -175h-207z" />
    <glyph glyph-name="tbar" unicode="&#x167;" horiz-adv-x="445" 
d="M332 376l-9 -38h74l-28 -121h-74l-1 -5q-6 -25 3 -40t31 -15q32 0 78 18l10 -154q-66 -36 -170 -36q-94 0 -137 55q-44 56 -22 147l7 30h-46l28 121h46l9 38h-70l30 131h70l38 163h201l-38 -163h127l-30 -131h-127z" />
    <glyph glyph-name="Umacron" unicode="&#x16a;" horiz-adv-x="716" 
d="M690 732h-352l34 148h352zM814 670l-84 -366q-35 -154 -126 -236q-92 -83 -238 -83q-140 0 -218 88q-79 89 -46 231l84 366h208l-84 -366q-15 -63 7 -99q21 -35 72 -35q47 0 83 36q35 35 50 98l85 366h207z" />
    <glyph glyph-name="umacron" unicode="&#x16b;" horiz-adv-x="621" 
d="M574 568h-352l34 148h352zM658 506l-116 -507h-202l10 42q-64 -57 -142 -57q-94 0 -138 59q-44 60 -22 153l71 310h201l-62 -273q-8 -31 6 -51t42 -20q35 0 59 25t34 68l58 251h201z" />
    <glyph glyph-name="Uring" unicode="&#x16e;" horiz-adv-x="716" 
d="M522 706q-54 0 -90 36q-37 37 -37 87q0 60 45 102q44 41 105 41q54 0 91 -35q36 -35 36 -88q0 -60 -44 -101q-45 -42 -106 -42zM537 878q-18 0 -30 -12q-13 -13 -13 -29q0 -14 11 -25t26 -11t30 13q13 12 13 28q0 14 -11 25t-26 11zM814 670l-84 -366q-35 -154 -126 -236
q-92 -83 -238 -83q-140 0 -218 88q-79 89 -46 231l84 366h208l-84 -366q-15 -63 7 -99q21 -35 72 -35q47 0 83 36q35 35 50 98l85 366h207z" />
    <glyph glyph-name="uring" unicode="&#x16f;" horiz-adv-x="621" 
d="M406 542q-54 0 -90 36q-37 37 -37 87q0 60 45 102q44 41 105 41q54 0 91 -35q36 -34 36 -88q0 -60 -44 -101q-45 -42 -106 -42zM421 714q-18 0 -30 -12q-13 -13 -13 -29q0 -14 11 -25t26 -11t30 13q13 12 13 28q0 14 -11 25t-26 11zM658 506l-116 -507h-202l10 42
q-64 -57 -142 -57q-94 0 -138 59q-44 60 -22 153l71 310h201l-62 -273q-8 -31 6 -51t42 -20q35 0 59 25t34 68l58 251h201z" />
    <glyph glyph-name="Udblacute" unicode="&#x170;" horiz-adv-x="716" 
d="M478 731h-164l123 164h206zM537 731l123 164h214l-173 -164h-164zM607 670h207l-84 -366q-35 -154 -126 -236q-92 -83 -238 -83q-140 0 -218 88q-79 89 -46 231l84 366h208l-84 -366q-15 -63 7 -99q21 -35 72 -35q47 0 83 36q35 35 50 98z" />
    <glyph glyph-name="udblacute" unicode="&#x171;" horiz-adv-x="621" 
d="M362 567h-164l123 164h206zM421 567l123 164h214l-173 -164h-164zM457 506h201l-116 -507h-202l10 42q-64 -57 -142 -57q-94 0 -138 59q-44 60 -22 153l71 310h201l-62 -273q-8 -31 6 -51t42 -20q35 0 59 25t34 68z" />
    <glyph glyph-name="Uogonek" unicode="&#x172;" horiz-adv-x="716" 
d="M814 670l-84 -366q-38 -160 -131 -240q-104 -107 -114 -121q-7 -10 -7 -19q0 -19 25 -19q21 0 53 9l-12 -113q-45 -19 -107 -19q-46 0 -73 24q-28 25 -28 62q0 63 67 118q-8 -1 -37 -1q-140 0 -218 88q-79 89 -46 231l84 366h208l-84 -366q-15 -63 7 -99q21 -35 72 -35
q47 0 83 36q35 35 50 98l85 366h207z" />
    <glyph glyph-name="uogonek" unicode="&#x173;" horiz-adv-x="621" 
d="M475 -76q0 -19 25 -19q22 0 53 9l-12 -113q-45 -19 -107 -19q-46 0 -73 24q-28 25 -28 62q0 69 83 131h-76l10 42q-64 -57 -142 -57q-94 0 -138 59q-44 60 -22 153l71 310h201l-62 -273q-8 -31 6 -51t42 -20q35 0 59 25t34 68l58 251h201l-116 -507h-1q-27 -22 -32 -27
l-18 -18q-9 -9 -13 -17q-3 -6 -3 -13z" />
    <glyph glyph-name="Wcircumflex" unicode="&#x174;" horiz-adv-x="991" 
d="M685 730h-198l156 165h209l79 -165h-180l-22 47zM1183 670l-340 -670h-228l-3 357l-169 -357h-217l-30 670h200l16 -362l176 362h196l-5 -362l184 362h220z" />
    <glyph glyph-name="wcircumflex" unicode="&#x175;" horiz-adv-x="810" 
d="M521 566h-198l156 165h209l79 -165h-180l-22 47zM927 507l-273 -507h-170l-22 238l-134 -238h-169l-37 507h192l11 -215l131 215h128l32 -214l110 214h201z" />
    <glyph glyph-name="Ycircumflex" unicode="&#x176;" horiz-adv-x="729" 
d="M530 730h-198l156 165h209l79 -165h-180l-22 47zM555 204l-48 -204h-216l47 203l-142 467h205l77 -261l196 261h247z" />
    <glyph glyph-name="ycircumflex" unicode="&#x177;" horiz-adv-x="616" 
d="M347 566h-198l156 165h209l79 -165h-180l-22 47zM664 507l-469 -737h-205l149 245l-83 492h205l30 -240l146 240h227z" />
    <glyph glyph-name="Ydieresis" unicode="&#x178;" horiz-adv-x="729" 
d="M445 710q-46 0 -75 29t-29 73q0 42 30 72t74 30q45 0 75 -30t30 -72q0 -45 -29 -73q-31 -29 -76 -29zM690 710q-46 0 -75 29t-29 73q0 42 30 72t74 30q45 0 75 -30t30 -72q0 -45 -29 -73q-31 -29 -76 -29zM555 204l-48 -204h-216l47 203l-142 467h205l77 -261l196 261
h247z" />
    <glyph glyph-name="Zacute" unicode="&#x179;" horiz-adv-x="649" 
d="M482 731h-189l115 164h244zM621 510l-348 -336h281l-40 -174h-586l31 134l386 363h-294l40 173h566z" />
    <glyph glyph-name="zacute" unicode="&#x17a;" horiz-adv-x="562" 
d="M421 567h-189l115 164h244zM556 507l-30 -132l-267 -219h222l-36 -156h-497l29 129l268 222h-211l36 156h486z" />
    <glyph glyph-name="Zdot" unicode="&#x17b;" horiz-adv-x="649" 
d="M409 716q-47 0 -77 30q-31 31 -31 76q0 44 31 75t77 31q47 0 78 -31t31 -75q0 -46 -31 -76t-78 -30zM621 510l-348 -336h281l-40 -174h-586l31 134l386 363h-294l40 173h566z" />
    <glyph glyph-name="zdot" unicode="&#x17c;" horiz-adv-x="562" 
d="M348 552q-47 0 -77 30q-31 31 -31 76q0 44 31 75t77 31q47 0 78 -31t31 -75q0 -46 -31 -76q-32 -30 -78 -30zM526 375l-267 -219h222l-36 -156h-497l29 129l268 222h-211l36 156h486z" />
    <glyph glyph-name="Zcaron" unicode="&#x17d;" horiz-adv-x="649" 
d="M284 730l-80 164h180l22 -47l44 47h198l-156 -164h-208zM621 510l-348 -336h281l-40 -174h-586l31 134l386 363h-294l40 173h566z" />
    <glyph glyph-name="zcaron" unicode="&#x17e;" horiz-adv-x="562" 
d="M223 566l-80 164h180l22 -47l44 47h198l-156 -164h-208zM556 507l-30 -132l-267 -219h222l-36 -156h-497l29 129l268 222h-211l36 156h486z" />
    <glyph glyph-name="florin" unicode="&#x192;" horiz-adv-x="591" 
d="M413 518q-52 0 -73 -53l-25 -61h111l-36 -155h-139l-92 -222q-81 -192 -247 -192q-87 0 -132 39l88 143q30 -12 46 -12q34 0 49 38l85 206h-83l36 155h112l33 80q39 93 111 147t163 54q93 0 142 -34l-94 -150q-31 17 -55 17z" />
    <glyph glyph-name="AEacute" unicode="&#x1fc;" horiz-adv-x="1131" 
d="M890 731h-189l115 164h244zM766 499l-20 -87h301l-36 -154h-301l-20 -87h333l-39 -171h-540l20 88h-237l-77 -88h-264l621 670h627l-40 -171h-328zM504 258l45 198l-173 -198h128z" />
    <glyph glyph-name="aeacute" unicode="&#x1fd;" horiz-adv-x="883" 
d="M588 567h-189l115 164h244zM617 522q120 0 184 -79q65 -80 44 -206l-5 -34h-348q7 -67 73 -67q55 0 84 47l168 -36q-32 -72 -106 -117q-75 -45 -161 -45q-108 0 -173 56q-85 -56 -205 -56q-97 0 -148 36q-52 37 -52 104q0 85 63 130t181 45h111l5 29q4 22 -8 36
q-12 13 -36 13q-46 0 -61 -47l-181 38q24 66 93 110q68 43 173 43q97 0 153 -41q74 41 152 41zM502 300h165q1 38 -18 57q-20 20 -49 20q-31 0 -59 -20q-29 -21 -39 -57zM312 203h-70q-32 0 -50 -12q-19 -13 -19 -34q0 -17 14 -28t36 -11q30 0 56 17q25 16 30 46z" />
    <glyph glyph-name="Scommaaccent" unicode="&#x218;" horiz-adv-x="652" 
d="M399 685q117 0 191 -49t94 -146l-208 -42q-5 36 -28 55q-25 20 -59 20q-27 0 -43 -12q-17 -12 -17 -32q0 -25 34 -35l107 -38q77 -26 113 -68q35 -41 35 -114q0 -108 -83 -173q-84 -66 -221 -66q-124 0 -209 58q-84 58 -95 151l217 40q17 -80 97 -80q30 0 50 11
q19 10 19 33q0 25 -49 38l-64 20q-86 28 -133 75q-45 45 -45 115q0 110 82 175q80 64 215 64zM113 -212l87 167h191l-141 -167h-137z" />
    <glyph glyph-name="scommaaccent" unicode="&#x219;" horiz-adv-x="532" 
d="M-24 146l194 26q6 -21 25 -34q18 -12 41 -12q16 0 30 7q11 5 11 16q0 14 -33 23q-4 2 -27 6l-41 11q-127 31 -127 144q0 87 65 138q64 51 177 51q95 0 158 -39q62 -38 79 -115l-178 -28q-5 23 -21 36q-18 15 -47 15q-36 0 -36 -24q0 -19 29 -27l58 -19q74 -21 107 -57
t33 -94q0 -86 -67 -135q-68 -50 -180 -50q-94 0 -163 39t-87 122zM29 -212l87 167h191l-141 -167h-137z" />
    <glyph glyph-name="Tcommabelow" unicode="&#x21a;" horiz-adv-x="662" 
d="M775 495h-207l-115 -495h-207l115 495h-207l40 175h621zM248 -45h191l-141 -167h-137z" />
    <glyph glyph-name="tcommabelow" unicode="&#x21b;" horiz-adv-x="442" 
d="M309 351l-32 -139q-6 -25 3 -40t31 -15q29 0 78 18l10 -154q-66 -36 -171 -36q-93 0 -136 55q-44 56 -22 147l38 164h-67l36 156h67l38 163h201l-38 -163h126l-36 -156h-126zM107 -45h191l-141 -167h-137z" />
    <glyph glyph-name="circumflex" unicode="&#x2c6;" horiz-adv-x="600" 
d="M570 566l-22 47l-44 -47h-198l157 164h208l80 -164h-181z" />
    <glyph glyph-name="caron" unicode="&#x2c7;" horiz-adv-x="600" 
d="M804 730l-156 -164h-208l-80 164h180l22 -47l44 47h198z" />
    <glyph glyph-name="breve" unicode="&#x2d8;" horiz-adv-x="600" 
d="M580 551q-86 0 -133 48t-29 124h143q-4 -15 5 -27t29 -12t35 12q14 11 18 27h157q-18 -79 -79 -125q-62 -47 -146 -47z" />
    <glyph glyph-name="dotaccent" unicode="&#x2d9;" horiz-adv-x="600" 
d="M628 764q47 0 78 -31t31 -75q0 -46 -31 -76q-32 -30 -78 -30q-47 0 -77 30q-31 31 -31 76q0 44 31 75t77 31z" />
    <glyph glyph-name="ring" unicode="&#x2da;" horiz-adv-x="600" 
d="M753 685q0 -60 -44 -101q-45 -42 -106 -42q-54 0 -90 36q-37 37 -37 87q0 60 45 102q44 41 105 41q54 0 91 -35q36 -34 36 -88zM655 678q0 15 -10 25q-11 11 -27 11q-18 0 -30 -12q-13 -13 -13 -29q0 -14 11 -25t26 -11t30 13q13 12 13 28z" />
    <glyph glyph-name="ogonek" unicode="&#x2db;" horiz-adv-x="600" 
d="M370 8l113 -8q-6 -5 -13.5 -12t-11.5 -10.5t-7 -5.5q-6 -5 -19 -18q-9 -9 -13 -17q-3 -6 -3 -13q0 -19 25 -19q21 0 53 9l-12 -113q-45 -19 -107 -19q-46 0 -73 24q-28 25 -28 62q0 35 26 73q25 37 70 67z" />
    <glyph glyph-name="tilde" unicode="&#x2dc;" horiz-adv-x="600" 
d="M429 570h-111q19 84 68 134q48 50 102 50q34 0 64 -17q31 -18 47 -18q13 0 24 7q8 5 19 24h110q-20 -87 -66 -134q-48 -50 -104 -50q-32 0 -64 17q-31 16 -48 16q-16 0 -23 -6q-7 -5 -18 -23z" />
    <glyph glyph-name="hungarumlaut" unicode="&#x2dd;" horiz-adv-x="600" 
d="M414 567h-164l123 164h206zM637 567h-164l123 164h214z" />
    <glyph glyph-name="uni0326" unicode="&#x326;" horiz-adv-x="0" 
d="M114 -212l87 167h191l-141 -167h-137z" />
    <glyph glyph-name="Wgrave" unicode="&#x1e80;" horiz-adv-x="991" 
d="M597 731l-169 164h243l115 -164h-189zM1183 670l-340 -670h-228l-3 357l-169 -357h-217l-30 670h200l16 -362l176 362h196l-5 -362l184 362h220z" />
    <glyph glyph-name="wgrave" unicode="&#x1e81;" horiz-adv-x="810" 
d="M433 567l-169 164h243l115 -164h-189zM927 507l-273 -507h-170l-22 238l-134 -238h-169l-37 507h192l11 -215l131 215h128l32 -214l110 214h201z" />
    <glyph glyph-name="Wacute" unicode="&#x1e82;" horiz-adv-x="991" 
d="M796 731h-189l115 164h244zM1183 670l-340 -670h-228l-3 357l-169 -357h-217l-30 670h200l16 -362l176 362h196l-5 -362l184 362h220z" />
    <glyph glyph-name="wacute" unicode="&#x1e83;" horiz-adv-x="810" 
d="M631 567h-189l115 164h244zM927 507l-273 -507h-170l-22 238l-134 -238h-169l-37 507h192l11 -215l131 215h128l32 -214l110 214h201z" />
    <glyph glyph-name="Wdieresis" unicode="&#x1e84;" horiz-adv-x="991" 
d="M600 710q-46 0 -75 29t-29 73q0 42 30 72t74 30q45 0 75 -30t30 -72q0 -45 -29 -73q-31 -29 -76 -29zM845 710q-46 0 -75 29t-29 73q0 42 30 72t74 30q45 0 75 -30t30 -72q0 -45 -29 -73q-31 -29 -76 -29zM1183 670l-340 -670h-228l-3 357l-169 -357h-217l-30 670h200
l16 -362l176 362h196l-5 -362l184 362h220z" />
    <glyph glyph-name="wdieresis" unicode="&#x1e85;" horiz-adv-x="810" 
d="M435 546q-46 0 -75 29t-29 73q0 42 30 72t74 30q45 0 75 -30t30 -72q0 -45 -29 -73q-31 -29 -76 -29zM680 546q-46 0 -75 29t-29 73q0 42 30 72t74 30q45 0 75 -30t30 -72q0 -45 -29 -73q-31 -29 -76 -29zM927 507l-273 -507h-170l-22 238l-134 -238h-169l-37 507h192
l11 -215l131 215h128l32 -214l110 214h201z" />
    <glyph glyph-name="Ygrave" unicode="&#x1ef2;" horiz-adv-x="729" 
d="M442 731l-169 164h243l115 -164h-189zM555 204l-48 -204h-216l47 203l-142 467h205l77 -261l196 261h247z" />
    <glyph glyph-name="ygrave" unicode="&#x1ef3;" horiz-adv-x="616" 
d="M259 567l-169 164h243l115 -164h-189zM664 507l-469 -737h-205l149 245l-83 492h205l30 -240l146 240h227z" />
    <glyph glyph-name="endash" unicode="&#x2013;" horiz-adv-x="621" 
d="M594 195h-500l37 158h500z" />
    <glyph glyph-name="emdash" unicode="&#x2014;" horiz-adv-x="1041" 
d="M1014 195h-920l37 158h920z" />
    <glyph glyph-name="quoteleft" unicode="&#x2018;" horiz-adv-x="337" 
d="M290 670h166l-131 -318h-227l1 5z" />
    <glyph glyph-name="quoteright" unicode="&#x2019;" horiz-adv-x="337" 
d="M264 352h-166l131 318h226l-1 -5z" />
    <glyph glyph-name="quotesinglbase" unicode="&#x201a;" horiz-adv-x="337" 
d="M40 -132h-166l132 318h226l-1 -5z" />
    <glyph glyph-name="quotedblleft" unicode="&#x201c;" horiz-adv-x="585" 
d="M290 670h166l-131 -318h-227l1 5zM539 670h165l-131 -318h-226l1 5z" />
    <glyph glyph-name="quotedblright" unicode="&#x201d;" horiz-adv-x="585" 
d="M264 352h-166l131 318h226l-1 -5zM512 352h-166l131 318h227l-1 -5z" />
    <glyph glyph-name="quotedblbase" unicode="&#x201e;" horiz-adv-x="585" 
d="M40 -132h-166l132 318h226l-1 -5zM289 -132h-166l131 318h226l-1 -5z" />
    <glyph glyph-name="dagger" unicode="&#x2020;" horiz-adv-x="394" 
d="M552 650l-25 -106h-110l-58 -250h-115l58 250h-110l25 106h109l21 90h115l-21 -90h111z" />
    <glyph glyph-name="daggerdbl" unicode="&#x2021;" horiz-adv-x="394" 
d="M381 544l-13 -53h111l-25 -107h-110l-21 -90h-115l21 90h-111l25 107h110l13 53h-111l25 106h110l21 90h115l-21 -90h110l-25 -106h-109z" />
    <glyph glyph-name="bullet" unicode="&#x2022;" horiz-adv-x="414" 
d="M236 447q78 0 130 -54q52 -53 52 -129q0 -77 -52 -129t-130 -52q-79 0 -130 52q-52 54 -52 129q0 76 52 129q52 54 130 54z" />
    <glyph glyph-name="ellipsis" unicode="&#x2026;" horiz-adv-x="839" 
d="M86 214q48 0 79 -32t31 -78q0 -47 -31 -78q-32 -32 -79 -32t-79 32q-31 31 -31 78q0 46 31 78t79 32zM372 214q49 0 80 -32t31 -78q0 -47 -31 -78q-32 -32 -80 -32q-47 0 -79 32q-31 31 -31 78q0 44 32 78q31 32 78 32zM659 214q47 0 79 -33q32 -34 32 -77q0 -47 -31 -78
q-32 -32 -80 -32q-47 0 -79 32q-31 31 -31 78q0 44 32 78q31 32 78 32z" />
    <glyph glyph-name="perthousand" unicode="&#x2030;" horiz-adv-x="1357" 
d="M407 685q68 0 113 -42t45 -111q0 -86 -63 -142q-64 -56 -147 -56q-68 0 -113 42q-46 43 -46 110q0 85 64 143q62 56 147 56zM215 0l628 670h104l-628 -670h-104zM390 573q-27 0 -50 -20q-22 -19 -22 -52q0 -25 16 -40q18 -16 38 -16q26 0 49 21q22 21 22 52q0 25 -15 40
t-38 15zM824 337q68 0 113 -42t45 -112q0 -86 -63 -142q-64 -56 -146 -56q-69 0 -114 42q-46 43 -46 111q0 85 64 143q62 56 147 56zM1236 337q68 0 113 -42q44 -41 44 -112q0 -87 -62 -142q-64 -56 -146 -56q-69 0 -114 42q-46 43 -46 111q0 85 64 143q62 56 147 56z
M808 225q-27 0 -50 -20t-23 -53q0 -24 16 -40q15 -15 38 -15q27 0 49 21t22 52q0 25 -15 40t-37 15zM1220 225q-27 0 -50 -20t-23 -53q0 -24 16 -40q15 -15 38 -15q27 0 49 21t22 52q0 25 -15 40t-37 15z" />
    <glyph glyph-name="guilsinglleft" unicode="&#x2039;" horiz-adv-x="325" 
d="M54 262l137 178h180l-146 -187l55 -169h-171z" />
    <glyph glyph-name="guilsinglright" unicode="&#x203a;" horiz-adv-x="325" 
d="M288 262l-136 -178h-180l145 187l-54 169h171z" />
    <glyph glyph-name="fraction" unicode="&#x2044;" horiz-adv-x="255" 
d="M-480 0l628 670h104l-629 -670h-103z" />
    <glyph glyph-name="Euro" unicode="&#x20ac;" horiz-adv-x="766" 
d="M516 514q-59 0 -97 -62h131l-33 -95h-132q-4 -16 -5 -44h126l-34 -96h-84q19 -61 71 -61q82 0 124 139l194 -38q-35 -123 -124 -197q-90 -75 -212 -75q-105 0 -176 63q-71 64 -86 169h-107l22 96h82q2 8 3 22q0 4 0.5 8.5t1 8t0.5 5.5h-80l22 95h84q40 108 128 171
q86 62 200 62q124 0 195 -74q72 -76 71 -193l-203 -37q0 133 -82 133z" />
    <glyph glyph-name="afii61352" unicode="&#x2116;" horiz-adv-x="1216" 
d="M1039 680q73 0 125 -44q51 -44 51 -117q0 -83 -63 -140q-64 -58 -150 -58q-74 0 -126 44q-51 43 -51 116q0 82 64 141q62 58 150 58zM785 670l-154 -670h-170l-212 329l-76 -329h-207l154 670h170l209 -338l79 338h207zM1014 443q27 0 43 19q17 20 17 45q0 22 -14 36
t-36 14q-26 0 -42 -19q-17 -20 -17 -43q0 -21 14 -37q13 -15 35 -15zM778 283h376l-33 -140h-376z" />
    <glyph glyph-name="uni2117" unicode="&#x2117;" horiz-adv-x="757" 
d="M447 685q147 0 248 -100q102 -100 102 -251t-102 -250t-248 -99t-248 99q-103 100 -103 250t103 251q101 100 248 100zM447 42q119 0 204 83q84 83 84 209q0 127 -84 211t-204 84t-204 -84q-85 -85 -85 -211t85 -209t204 -83zM310 517h180q69 0 105 -35q37 -36 37 -92
q0 -61 -41 -96q-42 -36 -111 -36h-54v-104h-116v363zM426 348h48q21 0 34 11q12 11 12 28q0 36 -46 36h-48v-75z" />
    <glyph glyph-name="trademark" unicode="&#x2122;" horiz-adv-x="721" 
d="M497 582h-84l-46 -197h-104l45 197h-84l20 88h273zM818 385h-100l28 120l-75 -120h-43l-22 120l-28 -120h-100l65 285h94l34 -156l103 156h110z" />
    <glyph glyph-name="oneeighth" unicode="&#x215b;" horiz-adv-x="836" 
d="M792 670l-628 -670h-104l629 670h103zM191 521l-95 -33l28 123l144 59h86l-90 -388h-128zM836 288q0 -70 -72 -95q44 -27 44 -80q0 -55 -49 -89q-50 -35 -128 -35q-74 0 -119 33t-42 84q5 77 91 102q-35 26 -35 69q0 50 47 85q46 34 115 34q65 0 106 -31q42 -32 42 -77z
M682 304q-17 0 -29 -9t-12 -26q0 -13 11 -22q10 -9 25 -9q18 0 31 11q12 11 12 25t-11 22t-27 8zM639 86q17 0 30 10q12 9 12 26q0 31 -39 31q-18 0 -30 -9q-13 -10 -13 -27q0 -13 11 -22q10 -9 29 -9z" />
    <glyph glyph-name="threeeighths" unicode="&#x215c;" horiz-adv-x="894" 
d="M430 413q-1 -58 -50 -98q-50 -41 -123 -41q-66 0 -109 35t-41 91l121 21q5 -44 38 -44q18 0 30 9q11 8 11 23q0 12 -10 19t-27 7h-46l24 89h44q20 0 32 9t12 22q0 25 -31 25q-36 0 -46 -43l-114 21q7 51 53 87q45 36 113 36t108 -31q41 -32 39 -80q0 -63 -64 -91
q36 -24 36 -66zM882 670l-629 -670h-103l628 670h104zM916 288q0 -70 -72 -95q44 -27 44 -80q0 -55 -49 -89q-50 -35 -128 -35q-74 0 -119 33t-42 84q5 77 91 102q-35 26 -35 69q0 50 47 85q46 34 115 34q65 0 106 -31q42 -32 42 -77zM762 304q-17 0 -29 -9t-12 -26
q0 -13 11 -22t25 -9q18 0 31 11q12 11 12 25t-11 22t-27 8zM719 86q17 0 30 10q12 9 12 26q0 31 -39 31q-18 0 -30 -9q-13 -10 -13 -27q0 -13 11 -22t29 -9z" />
    <glyph glyph-name="fiveeighths" unicode="&#x215d;" horiz-adv-x="895" 
d="M429 430q0 -71 -46 -114t-127 -43q-75 0 -117 36t-40 93l122 19q1 -21 13 -31q13 -11 28 -11q18 0 31 11q12 10 12 26q0 12 -9 19q-8 7 -25 7h-152l64 228h292l-26 -110h-183l-6 -23h39q63 0 97 -29q33 -28 33 -78zM881 670l-629 -670h-103l628 670h104zM913 288
q0 -70 -72 -95q44 -27 44 -80q0 -55 -49 -89q-50 -35 -128 -35q-74 0 -119 33t-42 84q5 77 91 102q-35 26 -35 69q0 50 47 85q46 34 115 34q65 0 106 -31q42 -32 42 -77zM759 304q-17 0 -29 -9t-12 -26q0 -13 11 -22t25 -9q18 0 31 11q12 11 12 25t-11 22t-27 8zM716 86
q17 0 30 10q12 9 12 26q0 31 -39 31q-18 0 -30 -9q-13 -10 -13 -27q0 -13 11 -22t29 -9z" />
    <glyph glyph-name="seveneighths" unicode="&#x215e;" horiz-adv-x="826" 
d="M756 670l-629 -670h-103l628 670h104zM61 282l194 278h-164l26 110h301l-22 -97l-197 -291h-138zM807 288q0 -70 -72 -95q44 -27 44 -80q0 -55 -49 -89q-50 -35 -128 -35q-74 0 -119 33t-42 84q5 77 91 102q-35 26 -35 69q0 50 47 85q46 34 115 34q65 0 106 -31
q42 -32 42 -77zM653 304q-17 0 -29 -9t-12 -26q0 -13 11 -22t25 -9q18 0 31 11q12 11 12 25t-11 22t-27 8zM610 86q17 0 30 10q12 9 12 26q0 31 -39 31q-18 0 -30 -9q-13 -10 -13 -27q0 -13 11 -22t29 -9z" />
    <glyph glyph-name="arrowleft" unicode="&#x2190;" horiz-adv-x="727" 
d="M697 242h-362l135 -136l-116 -116l-334 334l334 334l116 -116l-135 -136h362v-164z" />
    <glyph glyph-name="arrowup" unicode="&#x2191;" horiz-adv-x="748" 
d="M632 227l-136 135v-362h-164v362l-136 -135l-116 116l334 334l334 -334z" />
    <glyph glyph-name="arrowright" unicode="&#x2192;" horiz-adv-x="727" 
d="M757 324l-334 -334l-116 116l135 136h-362v164h362l-135 136l116 116z" />
    <glyph glyph-name="arrowdown" unicode="&#x2193;" horiz-adv-x="748" 
d="M748 327l-334 -334l-334 334l116 116l136 -135v362h164v-362l136 135z" />
    <glyph glyph-name="arrowupleft" unicode="&#x2196;" horiz-adv-x="750" 
d="M612 -11l-385 387v-198h-167v492h492l-1 -166h-198l387 -387z" />
    <glyph glyph-name="arrowupright" unicode="&#x2197;" horiz-adv-x="748" 
d="M756 670v-492h-167v198l-385 -387l-128 128l387 387h-198l-1 166h492z" />
    <glyph glyph-name="arrowdownright" unicode="&#x2198;" horiz-adv-x="750" 
d="M761 492v-492h-491l1 166h198l-387 388l128 127l385 -386v197h166z" />
    <glyph glyph-name="arrowdownleft" unicode="&#x2199;" horiz-adv-x="750" 
d="M551 166l1 -166h-492v492h167v-197l385 386l128 -127l-387 -388h198z" />
    <glyph glyph-name="minus" unicode="&#x2212;" horiz-adv-x="564" 
d="M552 225h-494l36 152h493z" />
    <glyph glyph-name="approxequal" unicode="&#x2248;" horiz-adv-x="562" 
d="M589 466l-33 -139q-57 -23 -116 -23q-57 0 -123 27q-64 26 -119 26q-78 0 -131 -29l31 135q53 33 133 33q56 0 122 -26q69 -27 121 -27q63 0 115 23zM548 292l-32 -139q-56 -24 -117 -24q-56 0 -122 27t-118 27q-77 0 -133 -29l31 134q55 34 133 34q56 0 122 -26
q69 -27 122 -27q63 0 114 23z" />
    <glyph glyph-name="notequal" unicode="&#x2260;" horiz-adv-x="565" 
d="M389 334l-42 -54h198l-33 -144h-276l-70 -91h-132l70 91h-86l33 144h164l42 54h-193l33 144h271l59 76h132l-59 -76h91l-34 -144h-168z" />
    <glyph glyph-name="lessequal" unicode="&#x2264;" horiz-adv-x="500" 
d="M222 407l246 -40l-32 -147l-405 104l42 183l453 102l-40 -161zM3 204h430l-35 -153h-430z" />
    <glyph glyph-name="greaterequal" unicode="&#x2265;" horiz-adv-x="500" 
d="M328 427l-245 39l34 147l405 -104l-41 -183l-453 -102l37 161zM418 51h-430l35 153h430z" />
    <glyph glyph-name="K.ss03" horiz-adv-x="691" 
d="M442 310l178 -310h-245l-119 228h-35l-52 -228h-207l155 670h206l-57 -246h10l229 246h269z" />
    <glyph glyph-name="Kcommaaccent.ss03" horiz-adv-x="691" 
d="M442 310l178 -310h-245l-119 228h-35l-52 -228h-207l155 670h206l-57 -246h10l229 246h269zM165 -45h191l-141 -167h-137z" />
    <glyph glyph-name="Q.ss04" horiz-adv-x="780" 
d="M811 335q-20 -158 -133 -256l104 -129l-153 -130l-139 171q-38 -6 -77 -6q-154 0 -250 102q-96 103 -77 248q18 149 132 249q115 101 264 101q156 0 252 -102q96 -103 77 -248zM293 335q-9 -71 29 -118t103 -47q69 0 119 47t59 118q9 70 -29 119q-37 47 -104 47
q-70 0 -118 -47q-50 -48 -59 -119z" />
    <glyph glyph-name="I.ss05" horiz-adv-x="290" 
d="M173 0h-207l154 670h207z" />
    <glyph glyph-name="IJ.ss05" horiz-adv-x="914" 
d="M173 0h-207l154 670h207zM948 670l-97 -423q-29 -123 -108 -192q-80 -70 -210 -70q-116 0 -187 65q-70 64 -69 170l212 40q-7 -91 64 -91q35 0 59 21q23 20 32 57l97 423h207z" />
    <glyph glyph-name="Iacute.ss05" horiz-adv-x="290" 
d="M330 731h-189l115 164h244zM173 0h-207l154 670h207z" />
    <glyph glyph-name="Icircumflex.ss05" horiz-adv-x="290" 
d="M220 730h-198l156 165h209l79 -165h-180l-22 47zM120 670h207l-154 -670h-207z" />
    <glyph glyph-name="Idieresis.ss05" horiz-adv-x="290" 
d="M134 914q45 0 75 -30t30 -72q0 -45 -29 -73q-31 -29 -76 -29q-46 0 -75 29t-29 73q0 42 30 72t74 30zM379 914q45 0 75 -30t30 -72q0 -45 -29 -73q-31 -29 -76 -29q-46 0 -75 29t-29 73q0 42 30 72t74 30zM173 0h-207l154 670h207z" />
    <glyph glyph-name="Idotaccent.ss05" horiz-adv-x="290" 
d="M258 928q47 0 78 -31t31 -75q0 -46 -31 -76q-32 -30 -78 -30q-47 0 -77 30q-31 31 -31 76q0 44 31 75t77 31zM173 0h-207l154 670h207z" />
    <glyph glyph-name="Igrave.ss05" horiz-adv-x="290" 
d="M202 895l115 -164h-189l-170 164h244zM169 0h-207l154 670h207z" />
    <glyph glyph-name="Imacron.ss05" horiz-adv-x="290" 
d="M414 732h-352l34 148h352zM173 0h-207l154 670h207z" />
    <glyph glyph-name="Iogonek.ss05" horiz-adv-x="290" 
d="M104 -76q0 -19 25 -19q21 0 53 9l-12 -113q-45 -19 -107 -19q-46 0 -73 24q-28 25 -28 62q0 70 84 132h-82l154 670h207l-154 -670q-6 -5 -13.5 -12t-11.5 -10.5t-7 -5.5q-6 -5 -19 -18q-9 -9 -13 -17q-3 -6 -3 -13z" />
    <glyph glyph-name="J.ss05" horiz-adv-x="624" 
d="M678 670l-97 -423q-29 -123 -108 -192q-80 -70 -210 -70q-116 0 -187 65q-70 64 -69 170l212 40q-7 -91 64 -91q35 0 59 21q23 20 32 57l97 423h207z" />
    <glyph glyph-name="i.loclTRK" horiz-adv-x="299" 
d="M232 764q47 0 78 -31t31 -75q0 -46 -31 -76q-32 -30 -78 -30q-47 0 -77 30q-31 31 -31 76q0 44 31 75t77 31zM181 0h-201l118 507h201z" />
    <glyph glyph-name="germandbls.case" horiz-adv-x="1294" 
d="M399 685q117 0 191 -49t94 -146l-208 -42q-5 36 -28 55q-25 20 -59 20q-27 0 -43 -12q-17 -12 -17 -32q0 -25 34 -35l107 -38q77 -26 113 -68q35 -41 35 -114q0 -108 -83 -173q-84 -66 -221 -66q-124 0 -209 58q-84 58 -95 151l217 40q17 -80 97 -80q30 0 50 11
q19 10 19 33q0 25 -49 38l-64 20q-86 28 -133 75q-45 45 -45 115q0 110 82 175q80 64 215 64zM1040 685q117 0 191 -49t94 -146l-208 -42q-5 36 -28 55q-25 20 -59 20q-26 0 -43 -12t-17 -32q0 -25 34 -35l107 -38q77 -26 113 -68q35 -41 35 -114q0 -108 -83 -173
q-84 -66 -221 -66q-124 0 -209 58q-84 58 -95 151l217 40q17 -80 97 -80q30 0 50 11q19 10 19 33q0 25 -49 38l-64 20q-86 28 -133 75q-45 45 -45 115q0 110 82 175q80 64 215 64z" />
    <glyph glyph-name="a.ss01" horiz-adv-x="650" 
d="M680 507l-117 -507h-201l7 29q-61 -44 -136 -44q-107 0 -164 75t-38 193q19 120 99 195q78 74 188 74q105 0 147 -78l14 63h201zM233 253q-7 -43 14 -72t62 -29t72 30q31 29 38 71q7 43 -15 73q-22 29 -62 29q-43 0 -72 -29q-30 -30 -37 -73z" />
    <glyph glyph-name="aacute.ss01" horiz-adv-x="650" 
d="M517 567h-189l115 164h244zM479 507h201l-117 -507h-201l7 29q-61 -44 -136 -44q-107 0 -164 75t-38 193q19 120 99 195q78 74 188 74q105 0 147 -78zM233 253q-7 -43 14 -72t62 -29t72 30q31 29 38 71q7 43 -15 73q-22 29 -62 29q-43 0 -72 -29q-30 -30 -37 -73z" />
    <glyph glyph-name="abreve.ss01" horiz-adv-x="650" 
d="M430 551q-86 0 -133 48t-29 124h143q-4 -15 5 -27t29 -12t35 12q14 11 18 27h157q-18 -79 -79 -125q-62 -47 -146 -47zM680 507l-117 -507h-201l7 29q-61 -44 -136 -44q-107 0 -164 75t-38 193q19 120 99 195q78 74 188 74q105 0 147 -78l14 63h201zM233 253
q-7 -43 14 -72t62 -29t72 30q31 29 38 71q7 43 -15 73q-22 29 -62 29q-43 0 -72 -29q-30 -30 -37 -73z" />
    <glyph glyph-name="acircumflex.ss01" horiz-adv-x="650" 
d="M407 566h-198l156 165h209l79 -165h-180l-22 47zM680 507l-117 -507h-201l7 29q-61 -44 -136 -44q-107 0 -164 75t-38 193q19 120 99 195q78 74 188 74q105 0 147 -78l14 63h201zM233 253q-7 -43 14 -72t62 -29t72 30q31 29 38 71q7 43 -15 73q-22 29 -62 29
q-43 0 -72 -29q-30 -30 -37 -73z" />
    <glyph glyph-name="adieresis.ss01" horiz-adv-x="650" 
d="M321 546q-46 0 -75 29t-29 73q0 42 30 72t74 30q45 0 75 -30t30 -72q0 -45 -29 -73q-31 -29 -76 -29zM566 546q-46 0 -75 29t-29 73q0 42 30 72t74 30q45 0 75 -30t30 -72q0 -45 -29 -73q-31 -29 -76 -29zM680 507l-117 -507h-201l7 29q-61 -44 -136 -44q-107 0 -164 75
t-38 193q19 120 99 195q78 74 188 74q105 0 147 -78l14 63h201zM233 253q-7 -43 14 -72t62 -29t72 30q31 29 38 71q7 43 -15 73q-22 29 -62 29q-43 0 -72 -29q-30 -30 -37 -73z" />
    <glyph glyph-name="agrave.ss01" horiz-adv-x="650" 
d="M318 567l-169 164h243l115 -164h-189zM680 507l-117 -507h-201l7 29q-61 -44 -136 -44q-107 0 -164 75t-38 193q19 120 99 195q78 74 188 74q105 0 147 -78l14 63h201zM233 253q-7 -43 14 -72t62 -29t72 30q31 29 38 71q7 43 -15 73q-22 29 -62 29q-43 0 -72 -29
q-30 -30 -37 -73z" />
    <glyph glyph-name="amacron.ss01" horiz-adv-x="650" 
d="M601 568h-352l34 148h352zM680 507l-117 -507h-201l7 29q-61 -44 -136 -44q-107 0 -164 75t-38 193q19 120 99 195q78 74 188 74q105 0 147 -78l14 63h201zM233 253q-7 -43 14 -72t62 -29t72 30q31 29 38 71q7 43 -15 73q-22 29 -62 29q-43 0 -72 -29q-30 -30 -37 -73z
" />
    <glyph glyph-name="aogonek.ss01" horiz-adv-x="650" 
d="M496 -76q0 -19 25 -19q21 0 53 9l-12 -113q-45 -19 -107 -19q-46 0 -73 24q-28 25 -28 62q0 70 84 132h-76l7 29q-61 -44 -136 -44q-107 0 -164 75t-38 193q19 120 99 195q78 74 188 74q105 0 147 -78l14 63h201l-117 -507l-32 -28q-6 -5 -19 -18q-9 -9 -13 -17
q-3 -6 -3 -13zM233 253q-7 -43 14 -72t62 -29t72 30q31 29 38 71q7 43 -15 73q-22 29 -62 29q-43 0 -72 -29q-30 -30 -37 -73z" />
    <glyph glyph-name="aring.ss01" horiz-adv-x="650" 
d="M433 542q-54 0 -90 36q-37 37 -37 87q0 60 45 102q44 41 105 41q54 0 91 -35q36 -34 36 -88q0 -60 -44 -101q-45 -42 -106 -42zM448 714q-18 0 -30 -12q-13 -13 -13 -29q0 -14 11 -25t26 -11t30 13q13 12 13 28q0 14 -11 25t-26 11zM680 507l-117 -507h-201l7 29
q-61 -44 -136 -44q-107 0 -164 75t-38 193q19 120 99 195q78 74 188 74q105 0 147 -78l14 63h201zM233 253q-7 -43 14 -72t62 -29t72 30q31 29 38 71q7 43 -15 73q-22 29 -62 29q-43 0 -72 -29q-30 -30 -37 -73z" />
    <glyph glyph-name="atilde.ss01" horiz-adv-x="650" 
d="M389 599q-15 0 -23 -6q-7 -5 -18 -23h-111q19 84 68 134q48 50 102 50q35 0 65 -17q32 -18 46 -18t24 7q8 5 19 24h110q-20 -87 -66 -134q-48 -50 -104 -50q-32 0 -64 17q-31 16 -48 16zM680 507l-117 -507h-201l7 29q-61 -44 -136 -44q-107 0 -164 75t-38 193
q19 120 99 195q78 74 188 74q105 0 147 -78l14 63h201zM233 253q-7 -43 14 -72t62 -29t72 30q31 29 38 71q7 43 -15 73q-22 29 -62 29q-43 0 -72 -29q-30 -30 -37 -73z" />
    <glyph glyph-name="l.ss02" horiz-adv-x="284" 
d="M165 0h-201l179 770h201z" />
    <glyph glyph-name="lacute.ss02" horiz-adv-x="284" 
d="M355 831h-189l115 164h244zM165 0h-201l179 770h201z" />
    <glyph glyph-name="lcaron.ss02" horiz-adv-x="284" 
d="M165 0h-201l179 770h201zM482 570h-133l46 200h177z" />
    <glyph glyph-name="lcommaaccent.ss02" horiz-adv-x="284" 
d="M75 0h-201l179 770h201zM-216 -212l87 167h192l-141 -167h-138z" />
    <glyph glyph-name="ldot.ss02" horiz-adv-x="490" 
d="M165 0h-201l179 770h201zM401 476q47 0 78 -31t31 -75q0 -46 -30 -76t-79 -30q-47 0 -77 30t-30 76q0 42 31 75q30 31 76 31z" />
    <glyph glyph-name="lslash.ss02" horiz-adv-x="328" 
d="M331 517l53 24l-43 -185l-53 -24l-77 -332h-201l54 231l-56 -25l44 185l55 25l82 354h201z" />
    <glyph glyph-name="k.ss03" horiz-adv-x="621" 
d="M421 262l131 -262h-233l-76 161h-41l-37 -161h-201l178 770h201l-99 -429h12l159 166h247z" />
    <glyph glyph-name="kcommaaccent.ss03" horiz-adv-x="621" 
d="M421 262l131 -262h-233l-76 161h-41l-37 -161h-201l178 770h201l-99 -429h12l159 166h247zM137 -45h191l-141 -167h-137z" />
    <glyph glyph-name="f_j" horiz-adv-x="705" 
d="M724 507l-131 -572q-20 -83 -81 -134q-62 -51 -144 -51q-59 0 -105 25l58 141q25 -5 31 -5q15 0 27 12t16 29l92 399h-177l-81 -351h-201l81 351h-65l36 156h65l17 74q21 88 91 144q68 55 158 55q54 0 99 -15l-64 -155q-14 3 -23 3q-23 0 -40 -13q-19 -14 -23 -35
l-13 -58h377zM656 762q48 0 80 -32t32 -76q0 -47 -31 -77q-33 -31 -81 -31q-47 0 -80 31q-31 30 -31 77q0 44 32 76t79 32z" />
    <glyph glyph-name="f_t" horiz-adv-x="815" 
d="M684 351l-32 -139q-7 -23 3 -40q9 -15 31 -15q28 0 78 18l10 -154q-69 -36 -171 -36q-92 0 -136 55q-44 54 -23 147l38 164h-172l-81 -351h-201l81 351h-65l36 156h65l17 74q21 88 91 144q68 55 158 55q54 0 99 -15l-64 -155q-14 3 -23 3q-23 0 -40 -13q-19 -14 -23 -35
l-13 -58h171l38 163h201l-37 -163h126l-36 -156h-126z" />
    <glyph glyph-name="fl.ss02" horiz-adv-x="673" 
d="M310 351l-81 -351h-201l81 351h-65l36 156h65l17 74q21 90 91 145q69 54 164 54q65 0 104 -19l-37 -159q-25 11 -58 11q-54 0 -66 -48l-13 -58h116l-36 -156h-117zM765 770l-179 -770h-201l179 770h201z" />
    <glyph glyph-name="zero.tf" 
d="M408 685q131 0 197 -97t31 -253q-35 -161 -127 -255q-93 -95 -221 -95q-132 0 -198 98q-66 97 -31 252q34 160 128 255q93 95 221 95zM309 159q81 0 119 176q37 175 -41 175q-83 0 -120 -175q-39 -176 42 -176z" />
    <glyph glyph-name="one.tf" 
d="M549 181l-42 -181h-509l42 181h173l57 248l-161 -57l48 203l237 95h134l-112 -489h133z" />
    <glyph glyph-name="two.tf" 
d="M355 176h209l-43 -176h-535l2 2l39 135l284 208q51 38 73 63q24 27 24 55q0 25 -15 39q-16 14 -42 14q-65 0 -78 -87l-195 35q15 102 96 162q80 59 193 59q109 0 175 -54t66 -146q0 -69 -45 -129q-46 -61 -131 -124z" />
    <glyph glyph-name="three.tf" 
d="M632 503q0 -105 -120 -163q68 -42 68 -125q0 -95 -76 -162q-77 -68 -201 -68q-110 0 -188 58q-76 56 -74 155l197 35q2 -38 20 -58q20 -21 51 -21q33 0 54 18t21 45q0 24 -17 37q-19 14 -48 14h-74l33 143h75q40 0 64 18t24 45q0 24 -17 38q-16 13 -44 13q-30 0 -53 -18
q-24 -19 -31 -52l-180 32q27 93 103 146q74 52 176 52t170 -51q67 -51 67 -131z" />
    <glyph glyph-name="four.tf" 
d="M507 270h72l-38 -166h-72l-24 -104h-191l24 104h-318l43 184l356 382h240zM316 270l46 197l-172 -197h126z" />
    <glyph glyph-name="five.tf" 
d="M326 497l-18 -59h50q112 0 167 -49q56 -50 56 -143q0 -111 -80 -186q-79 -75 -207 -75q-119 0 -188 63t-72 168l189 37q5 -101 82 -101q37 0 60 21q22 21 22 51q0 28 -19 43q-20 15 -54 15h-229l116 389h436l-41 -174h-270z" />
    <glyph glyph-name="six.tf" 
d="M425 436q89 0 141 -51t52 -137q0 -113 -82 -188t-194 -75q-126 0 -195 71q-69 70 -69 197q0 189 99 311q99 121 260 121q97 0 158 -45t70 -126l-181 -39q-7 46 -62 46q-47 0 -83 -37q-35 -37 -49 -96q58 48 135 48zM344 139q36 0 64 25t28 62q0 33 -23 54q-21 20 -54 20
q-35 0 -63 -25q-29 -26 -29 -62q0 -32 23 -53q22 -21 54 -21z" />
    <glyph glyph-name="seven.tf" 
d="M733 670l-35 -152l-362 -518h-228l355 495h-303l41 175h532z" />
    <glyph glyph-name="eight.tf" 
d="M622 493q-12 -110 -121 -153q80 -45 80 -137q0 -95 -83 -156q-85 -62 -214 -62q-116 0 -187 53t-71 135q0 138 152 183q-63 44 -63 121q0 88 80 148q79 60 194 60q107 0 174 -55t59 -137zM360 410q30 0 55 20q23 19 23 49q0 27 -19 43t-46 16q-32 0 -54 -19
q-23 -20 -23 -51q0 -25 19 -42q17 -16 45 -16zM299 140q32 0 57 20q24 20 24 52q0 28 -20 45q-19 16 -48 16q-35 0 -57 -19q-23 -20 -23 -53q0 -27 20 -44t47 -17z" />
    <glyph glyph-name="nine.tf" 
d="M363 684q127 0 196 -70q68 -69 68 -198q0 -188 -99 -310t-260 -122q-96 0 -157 45q-62 45 -71 127l181 38q7 -46 62 -46q47 0 83 37q35 37 49 96q-59 -48 -135 -48q-88 0 -140 52q-53 53 -53 137q0 113 83 188q81 74 193 74zM346 369q35 0 63 25q29 26 29 62q0 33 -23 54
t-54 21q-35 0 -63 -25q-29 -26 -29 -63q0 -32 23 -53q22 -21 54 -21z" />
    <glyph glyph-name="zero.zero.tf" 
d="M407 685q133 0 197 -97q65 -99 31 -253q-35 -161 -127 -255q-93 -95 -221 -95q-131 0 -197 98t-32 252q34 160 128 255q93 95 221 95zM386 510q-83 0 -120 -175l-4 -17l166 166q-14 26 -42 26zM308 159q81 0 119 176l4 19l-167 -167q13 -28 44 -28z" />
    <glyph glyph-name="zero.zero" horiz-adv-x="662" 
d="M430 685q140 0 216 -96q77 -96 45 -254q-31 -160 -119 -255q-87 -95 -233 -95q-64 0 -119 23q-56 23 -93 68q-39 47 -52 110q-14 68 2 149q32 161 119 256q87 94 234 94zM420 510q-45 0 -81 -45t-54 -130q-6 -28 -7 -45l194 195q-18 25 -52 25zM349 159q46 0 82 46
q35 46 52 130q6 27 8 54l-198 -199q19 -31 56 -31z" />
    <glyph glyph-name="zero.dnom" horiz-adv-x="413" 
d="M231 396q85 0 124 -54t21 -149q-18 -91 -77 -147t-145 -56q-83 0 -124 55q-40 53 -22 148q18 91 78 147q61 56 145 56zM172 100q52 0 71 93q21 93 -31 93t-71 -93q-21 -93 31 -93z" />
    <glyph glyph-name="one.dnom" horiz-adv-x="267" 
d="M170 0h-128l55 239l-95 -33l28 123l144 59h86z" />
    <glyph glyph-name="two.dnom" horiz-adv-x="366" 
d="M180 107h107l-27 -108h-308l22 78l163 126q47 38 47 60q0 26 -27 26q-14 0 -25 -11q-13 -13 -14 -37l-118 22q3 59 47 97q43 37 115 37q67 0 109 -33t42 -91q0 -43 -22 -72t-66 -61z" />
    <glyph glyph-name="three.dnom" horiz-adv-x="358" 
d="M179 397q68 0 108 -31q41 -32 39 -80q0 -63 -64 -91q36 -24 36 -66q-2 -59 -50 -99q-50 -41 -123 -41q-66 0 -109 35q-43 36 -42 92l122 21q5 -44 38 -44q18 0 30 9q11 8 11 23q0 12 -10 19t-27 7h-46l24 89h44q20 0 32 9t12 22q0 25 -31 25q-36 0 -46 -43l-114 21
q7 51 53 87q45 36 113 36z" />
    <glyph glyph-name="four.dnom" horiz-adv-x="395" 
d="M283 160h47l-24 -104h-47l-13 -56h-120l13 56h-199l26 116l219 216h150zM163 160l24 102l-102 -102h78z" />
    <glyph glyph-name="five.dnom" horiz-adv-x="361" 
d="M137 277l-6 -23h39q63 0 97 -29q33 -29 33 -78q0 -71 -46 -114t-127 -43q-75 0 -117 36t-40 93l122 19q1 -21 13 -31q13 -11 28 -11q18 0 31 11q12 11 12 26q0 11 -9 19q-8 7 -25 7h-152l64 228h292l-26 -110h-183z" />
    <glyph glyph-name="six.dnom" horiz-adv-x="375" 
d="M208 252q58 0 88 -29q31 -30 31 -80q0 -67 -51 -110q-50 -43 -126 -43q-70 0 -111 43t-41 118q0 104 68 175q67 70 163 70q62 0 97 -29q37 -30 38 -82l-113 -19q-1 27 -33 27q-25 0 -48 -17t-34 -43q34 19 72 19zM161 88q22 0 35 13q14 14 14 33q0 16 -10 26t-28 10
q-20 0 -34 -13q-15 -13 -15 -34q0 -16 11 -25q12 -10 27 -10z" />
    <glyph glyph-name="seven.dnom" horiz-adv-x="317" 
d="M325 387l-22 -97l-197 -291h-138l194 278h-164l26 110h301z" />
    <glyph glyph-name="eight.dnom" horiz-adv-x="381" 
d="M334 288q0 -70 -72 -95q44 -27 44 -80q0 -55 -49 -89q-50 -35 -128 -35q-74 0 -119 33t-42 84q5 77 91 102q-35 26 -35 69q0 50 47 85q46 34 115 34q65 0 106 -31q42 -31 42 -77zM180 304q-17 0 -29 -9t-12 -26q0 -13 11 -22q10 -9 25 -9q18 0 31 11q12 11 12 25t-11 22
t-27 8zM137 86q17 0 30 10q12 9 12 26q0 31 -39 31q-18 0 -30 -9q-13 -10 -13 -27q0 -13 11 -22q10 -9 29 -9z" />
    <glyph glyph-name="nine.dnom" horiz-adv-x="376" 
d="M178 396q72 0 113 -42q40 -41 40 -118q0 -105 -68 -176q-67 -70 -163 -70q-62 0 -98 30q-37 30 -38 81l114 19q2 -27 33 -27q25 0 48 17q22 16 33 43q-34 -19 -72 -19q-56 0 -87 30q-32 30 -32 79q0 68 52 111q51 42 125 42zM119 252q0 -15 10 -25t27 -10q22 0 35 13
q14 14 14 33q0 17 -10 26q-11 9 -27 9q-22 0 -35 -13q-14 -14 -14 -33z" />
    <glyph glyph-name="zero.numr" horiz-adv-x="413" 
d="M363 680q85 0 124 -54t21 -149q-18 -91 -77 -147t-145 -56q-83 0 -124 55q-40 53 -22 148q18 91 78 147q61 56 145 56zM304 384q52 0 71 93q21 93 -31 93t-71 -93q-21 -93 31 -93z" />
    <glyph glyph-name="one.numr" horiz-adv-x="267" 
d="M300 282h-128l55 239l-95 -33l28 123l144 59h86z" />
    <glyph glyph-name="two.numr" horiz-adv-x="366" 
d="M309 390h108l-27 -107h-308l22 77l163 126q47 38 47 60q0 26 -27 26q-14 0 -25 -11q-13 -13 -14 -37l-118 22q3 59 47 97q43 37 115 37q67 0 109 -33t42 -91q0 -43 -22 -72t-66 -61z" />
    <glyph glyph-name="three.numr" horiz-adv-x="358" 
d="M311 681q68 0 108 -31q41 -32 39 -80q0 -63 -64 -91q36 -24 36 -66q-1 -58 -50 -98q-50 -41 -123 -41q-66 0 -109 35t-41 91l121 21q5 -44 38 -44q18 0 30 9q11 8 11 23q0 12 -10 19t-27 7h-46l24 89h44q20 0 32 9t12 22q0 25 -31 25q-36 0 -46 -43l-114 21q7 51 53 87
q45 36 113 36z" />
    <glyph glyph-name="four.numr" horiz-adv-x="395" 
d="M413 442h47l-24 -104h-47l-13 -56h-120l13 56h-199l26 116l219 216h150zM293 442l24 102l-102 -102h78z" />
    <glyph glyph-name="five.numr" horiz-adv-x="361" 
d="M266 560l-6 -23h39q63 0 97 -29q33 -28 33 -78q0 -71 -46 -114t-127 -43q-75 0 -117 36t-40 93l122 19q1 -21 13 -31q13 -11 28 -11q18 0 31 11q12 10 12 26q0 12 -9 19q-8 7 -25 7h-152l64 228h292l-26 -110h-183z" />
    <glyph glyph-name="six.numr" horiz-adv-x="375" 
d="M340 536q58 0 88 -29q31 -30 31 -80q0 -67 -51 -110q-50 -43 -126 -43q-70 0 -111 43t-41 118q0 104 68 175q67 70 163 70q62 0 97 -29q37 -30 38 -82l-113 -19q-1 27 -33 27q-25 0 -48 -17t-34 -43q34 19 72 19zM293 372q22 0 35 13q14 14 14 33q0 16 -10 26t-28 10
q-20 0 -34 -13q-15 -13 -15 -34q0 -16 11 -25q12 -10 27 -10z" />
    <glyph glyph-name="seven.numr" horiz-adv-x="317" 
d="M455 670l-22 -97l-197 -291h-138l194 278h-164l26 110h301z" />
    <glyph glyph-name="eight.numr" horiz-adv-x="381" 
d="M463 572q0 -70 -72 -95q44 -27 44 -80q0 -55 -49 -89q-50 -35 -128 -35q-74 0 -119 33t-42 84q5 77 91 102q-35 26 -35 69q0 50 47 85q46 34 115 34q65 0 106 -31q42 -31 42 -77zM309 588q-17 0 -29 -9t-12 -26q0 -13 11 -22t25 -9q18 0 31 11q12 11 12 25t-11 22t-27 8z
M266 370q17 0 30 10q12 9 12 26q0 31 -39 31q-18 0 -30 -9q-13 -10 -13 -27q0 -13 11 -22q10 -9 29 -9z" />
    <glyph glyph-name="nine.numr" horiz-adv-x="376" 
d="M311 680q73 0 113 -42q40 -41 40 -118q0 -105 -68 -176q-67 -70 -163 -70q-62 0 -98 30t-37 81l113 19q1 -27 33 -27q25 0 48 17q22 16 33 43q-34 -19 -72 -19q-55 0 -87 30t-32 79q0 68 52 111q51 42 125 42zM252 536q0 -15 10 -25t27 -10q22 0 35 13q14 14 14 33
q0 17 -10 26t-27 9q-22 0 -35 -13q-14 -14 -14 -33z" />
    <glyph glyph-name="backslash.case" horiz-adv-x="460" 
d="M467 0h-180l-83 670h180z" />
    <glyph glyph-name="periodcentered.case" horiz-adv-x="265" 
d="M190 440q48 0 79 -32t31 -78q0 -47 -31 -78q-32 -32 -79 -32t-79 32q-31 31 -31 78q0 46 31 78t79 32z" />
    <glyph glyph-name="bullet.case" horiz-adv-x="413" 
d="M261 504q78 0 131 -54q52 -53 52 -129q0 -77 -52 -128q-54 -52 -131 -52q-78 0 -130 52q-51 51 -51 128q0 74 52 129q51 54 129 54z" />
    <glyph glyph-name="colon.case" horiz-adv-x="266" 
d="M184 574q47 0 79 -33q32 -34 32 -77q0 -47 -31 -78q-32 -32 -80 -32q-47 0 -79 32q-31 31 -31 78q0 44 32 78q31 32 78 32zM116 279q48 0 79 -32t31 -78q0 -47 -31 -78q-32 -32 -79 -32t-79 32q-31 31 -31 78q0 46 31 78t79 32z" />
    <glyph glyph-name="exclamdown.case" horiz-adv-x="314" 
d="M213 465q-47 0 -78 31q-32 32 -32 74q0 45 31 75t79 30q47 0 79 -30q31 -30 31 -75q0 -43 -31 -74t-79 -31zM-26 0l7 31l109 395h193l-74 -395l-7 -31h-228z" />
    <glyph glyph-name="questiondown.case" horiz-adv-x="561" 
d="M364 472q-48 0 -79 31q-32 32 -32 75q0 45 32 75q31 30 79 30q49 0 79 -30t30 -75q0 -44 -31 -75t-78 -31zM340 229l198 -41q-24 -86 -98 -141t-184 -55t-173 57t-63 142q0 80 55 135q54 54 147 72l9 39h199l-39 -168h-86q-34 0 -61 -15t-27 -42q0 -21 14 -33
q15 -13 38 -13q27 0 46 18q21 19 25 45z" />
    <glyph glyph-name="semicolon.case" horiz-adv-x="310" 
d="M128 574q49 0 80 -32t31 -78q0 -47 -31 -78q-32 -32 -80 -32q-47 0 -79 32q-31 31 -31 78q0 44 32 78q31 32 78 32zM2 -132h-166l131 318h226l-1 -5z" />
    <glyph glyph-name="slash.case" horiz-adv-x="486" 
d="M78 0h-162l408 670h162z" />
    <glyph glyph-name="braceleft.case" horiz-adv-x="416" 
d="M502 670l-36 -157h-79q-23 0 -27 -25l-12 -53q-18 -79 -79 -104q48 -25 30 -105l-10 -45q-6 -24 16 -24h79l-36 -157h-149q-58 0 -87 37q-28 35 -14 96l15 65q7 36 -35 48l-34 10l33 150l41 10q49 12 56 46l17 75q13 58 59 96q44 37 103 37h149z" />
    <glyph glyph-name="braceright.case" horiz-adv-x="423" 
d="M407 414l-34 -150l-41 -10q-49 -12 -56 -46l-17 -75q-14 -59 -58 -96t-104 -37h-149l36 157h79q23 0 27 25l13 53q16 78 79 104q-49 25 -31 105l11 45q4 24 -17 24h-79l36 157h150q60 0 87 -36t13 -97l-14 -65q-9 -36 34 -48z" />
    <glyph glyph-name="bracketleft.case" horiz-adv-x="419" 
d="M264 513l-82 -356h165l-36 -157h-345l154 670h345l-36 -157h-165z" />
    <glyph glyph-name="bracketright.case" horiz-adv-x="419" 
d="M447 670l-154 -670h-345l36 157h165l82 356h-165l36 157h345z" />
    <glyph glyph-name="parenleft.case" horiz-adv-x="383" 
d="M320 688l118 -138q-44 -33 -69 -56q-24 -22 -47 -63q-26 -45 -33 -95q-4 -21 -4 -46q0 -17 2 -37q2 -21 8 -36q2 -6 5.5 -16t5.5 -14q3 -8 17 -30q4 -7 10 -16t7 -11q6 -10 20 -29l-152 -118q-159 176 -128 369q7 44 26 88t37 72q19 30 54 66q34 36 58 55q7 6 28.5 24.5
t36.5 30.5z" />
    <glyph glyph-name="parenright.case" horiz-adv-x="385" 
d="M111 569l152 119q159 -174 128 -370q-9 -55 -30 -104q-19 -43 -60 -91q-37 -43 -67 -70q-17 -15 -83 -70l-117 138q39 29 69 57q26 24 48 63q25 43 32 94q4 20 4 45q0 16 -2 38q-2 20 -8 36q-4 10 -12 29q-6 13 -16 30q-4 7 -10 16t-7 11t-21 29z" />
    <glyph glyph-name="emdash.case" horiz-adv-x="1041" 
d="M1038 247h-920l37 158h920z" />
    <glyph glyph-name="endash.case" horiz-adv-x="621" 
d="M618 247h-500l37 158h500z" />
    <glyph glyph-name="hyphen.case" horiz-adv-x="457" 
d="M453 243h-337l38 166h337z" />
    <glyph glyph-name="guillemotleft.case" horiz-adv-x="555" 
d="M110 322l137 178h180l-146 -187l55 -169h-171zM340 322l137 178h180l-146 -187l55 -169h-171z" />
    <glyph glyph-name="guillemotright.case" horiz-adv-x="555" 
d="M289 322l-136 -178h-181l146 187l-54 169h171zM519 322l-136 -178h-180l145 187l-54 169h171z" />
    <glyph glyph-name="guilsinglleft.case" horiz-adv-x="325" 
d="M82 322l137 178h180l-146 -187l55 -169h-171z" />
    <glyph glyph-name="guilsinglright.case" horiz-adv-x="325" 
d="M317 322l-137 -178h-180l146 187l-55 169h171z" />
    <glyph glyph-name="cent.tf" 
d="M312 153q33 0 56 19t37 54l180 -31q-25 -81 -93 -137t-154 -69l-27 -119h-165l30 136q-73 28 -109 95q-36 66 -23 152q15 96 85 168q68 69 165 92l27 117h165l-28 -121q66 -21 105 -72q38 -50 40 -122l-190 -34q-2 35 -19 54q-18 19 -50 19q-41 0 -70 -29t-37 -72
q-6 -42 15 -71t60 -29z" />
    <glyph glyph-name="dollar.tf" 
d="M344 435l85 -34q79 -31 113 -68q36 -39 36 -107q0 -96 -71 -150q-70 -53 -172 -64l-26 -112h-165l30 129q-68 23 -109 68q-42 46 -49 107l201 37q15 -75 89 -75q62 0 62 41q0 20 -38 34l-63 23q-85 30 -126 72q-40 41 -40 112q0 88 60 142q59 53 158 67l26 113h165
l-28 -122q67 -18 107 -61q41 -44 50 -108l-192 -39q-13 70 -80 70q-23 0 -39 -11t-16 -31q0 -19 32 -33z" />
    <glyph glyph-name="Euro.tf" 
d="M628 418l-186 -35q6 131 -63 131q-51 0 -84 -62h103l-31 -95h-106l-6 -44h101l-32 -96h-68q10 -61 52 -61q62 0 107 131l187 -37q-32 -116 -116 -190q-86 -75 -195 -75q-95 0 -156 61q-60 60 -72 171h-59l22 96h35q2 8 3 22q0 4 0.5 8.5t1 8t0.5 5.5h-30l22 95h32
q37 106 118 170q80 63 183 63q114 0 180 -75q65 -74 57 -192z" />
    <glyph glyph-name="florin.tf" 
d="M465 518q-23 0 -43 -14t-30 -39l-25 -61h111l-35 -155h-140l-91 -222q-81 -192 -248 -192q-41 0 -80 13q-34 11 -52 26l88 143q32 -12 46 -12q35 0 50 38l85 206h-83l36 155h112l33 80q39 93 111 147t163 54q93 0 142 -34l-94 -150q-31 17 -56 17z" />
    <glyph glyph-name="sterling.tf" 
d="M589 476l-192 -32q5 36 -7 51t-32 15t-33 -12q-14 -13 -19 -33l-19 -81h159l-36 -159h-159l-12 -53h282l-40 -172h-539l30 132l62 19l17 74h-57l36 159h58l19 81q22 102 94 161q71 59 177 59q101 0 159 -58q59 -59 52 -151z" />
    <glyph glyph-name="yen.tf" 
d="M496 321h91l-25 -108h-134l-7 -33h133l-24 -109h-134l-16 -71h-207l16 71h-123l25 109h123l7 33h-122l24 108h83l-67 349h202l20 -253l135 253h234z" />
    <glyph glyph-name="approxequal.tf" 
d="M635 466l-33 -139q-57 -23 -116 -23q-57 0 -123 27q-64 26 -119 26q-78 0 -131 -29l31 135q53 33 133 33q56 0 122 -26q69 -27 121 -27q63 0 115 23zM594 292l-32 -139q-56 -24 -117 -24q-56 0 -122 27t-118 27q-77 0 -133 -29l31 134q55 34 133 34q56 0 122 -26
q69 -27 122 -27q63 0 114 23z" />
    <glyph glyph-name="divide.tf" 
d="M414 616q40 0 67 -27q26 -26 26 -66t-26 -65q-28 -26 -67 -26q-40 0 -66 26t-26 65q0 38 26 66q26 27 66 27zM611 250h-493l35 152h494zM323 221q40 0 67 -27q26 -26 26 -66t-26 -65q-28 -26 -67 -26q-40 0 -66 26t-26 65q0 38 26 66q25 27 66 27z" />
    <glyph glyph-name="equal.tf" 
d="M603 334h-494l34 144h493zM558 136h-494l33 144h493z" />
    <glyph glyph-name="greater.tf" 
d="M423 333l-219 58l39 166l392 -143l-41 -178l-458 -142l42 184z" />
    <glyph glyph-name="greaterequal.tf" 
d="M435 427l-246 39l35 147l405 -104l-42 -183l-453 -102l37 161zM524 51h-430l36 153h430z" />
    <glyph glyph-name="less.tf" 
d="M358 318l219 -59l-39 -165l-392 143l42 177l457 143l-42 -184z" />
    <glyph glyph-name="lessequal.tf" 
d="M334 407l246 -40l-32 -147l-406 104l43 183l453 102l-40 -161zM115 204h430l-35 -153h-430z" />
    <glyph glyph-name="minus.tf" 
d="M599 225h-493l35 152h493z" />
    <glyph glyph-name="multiply.tf" 
d="M476 286l95 -122l-119 -97l-95 122l-152 -123l-87 113l152 123l-100 128l119 96l100 -128l159 129l87 -113z" />
    <glyph glyph-name="notequal.tf" 
d="M435 334l-42 -54h197l-32 -144h-276l-70 -91h-133l70 91h-85l33 144h163l42 54h-193l34 144h270l59 76h133l-59 -76h90l-33 -144h-168z" />
    <glyph glyph-name="plus.tf" 
d="M599 225h-171l-40 -171h-152l39 171h-169l35 152h170l39 171h153l-40 -171h171z" />
    <glyph glyph-name="plusminus.tf" 
d="M609 491l-35 -152h-171l-31 -133h-152l31 133h-171l36 152h170l35 153h153l-36 -153h171zM37 153h493l-35 -153h-493z" />
    <glyph glyph-name="bar.case" horiz-adv-x="263" 
d="M126 -41h-180l174 752h180z" />
    <glyph glyph-name="at.case" horiz-adv-x="925" 
d="M777 505l-51 -272q-8 -36 34 -36q41 0 71 65q29 62 29 133q0 111 -75 178q-74 67 -195 67q-164 0 -283 -109q-120 -109 -120 -269q0 -120 79 -196q78 -75 208 -75q126 0 250 85l38 -74q-130 -97 -293 -97q-169 0 -273 96t-104 245q0 131 70 244q68 109 185 173
q114 62 250 62q153 0 256 -89q101 -88 101 -230q0 -38 -7 -73q-8 -40 -25 -78t-46 -72q-28 -32 -73 -52q-46 -20 -103 -20q-94 0 -116 58q-57 -57 -143 -57q-71 0 -114 45q-44 46 -44 120q0 106 68 172q67 66 162 66q72 0 108 -48l7 38h149zM511 244q33 0 57 24t24 59
q0 27 -15 43t-41 16q-31 0 -57 -23q-25 -22 -25 -59q0 -27 16 -43q17 -17 41 -17z" />
    <glyph glyph-name="caron.alt" horiz-adv-x="600" 
d="M619 450h-133l46 200h177z" />
    </font>
</defs>
</svg>
