<?xml version="1.0" standalone="no"?>
<!DOCTYPE svg PUBLIC "-//W3C//DTD SVG 1.1//EN" "http://www.w3.org/Graphics/SVG/1.1/DTD/svg11.dtd" >
<svg xmlns="http://www.w3.org/2000/svg" xmlns:xlink="http://www.w3.org/1999/xlink" version="1.1">
<metadata>
Created by FontForge 20170731 at Fri Jan  1 02:30:17 1904
 By Aleksey,,,
Copyright (c) 2014 by Rene' Bieder. All rights reserved.
</metadata>
<defs>
<font id="GalanoGrotesqueAlt-LightItalic" horiz-adv-x="610" >
  <font-face 
    font-family="Galano Grotesque Alt"
    font-weight="400"
    font-style="italic"
    font-stretch="normal"
    units-per-em="1000"
    panose-1="0 0 4 0 0 0 0 0 0 0"
    ascent="757"
    descent="-243"
    x-height="489"
    cap-height="670"
    bbox="-502 -250 1305 986"
    underline-thickness="50"
    underline-position="-175"
    slope="-13"
    unicode-range="U+0020-FB02"
  />
<missing-glyph horiz-adv-x="803" 
d="M456 683q144 0 246 -99q101 -98 101 -251q0 -150 -101 -248q-103 -100 -246 -100t-246 100q-102 99 -102 248q0 152 102 251t246 99zM456 656q-133 0 -225 -91q-93 -91 -93 -231q0 -138 93 -229q94 -92 225 -92t225 92q92 91 92 229q0 140 -92 231t-225 91zM586 401
q0 -47 -33 -79q-32 -30 -86 -35v-50h-32v80h19q42 0 70 23q27 22 27 61q0 38 -25 62q-24 23 -69 23q-44 0 -71 -27t-27 -73l-34 5q0 55 37 91q36 35 95 35q56 0 93 -32q36 -31 36 -84zM451 192q11 0 18 -7t7 -17t-7 -17q-8 -8 -18 -8q-9 0 -17 8t-8 17t8 17q7 7 17 7z" />
    <glyph glyph-name="fi" unicode="fi" horiz-adv-x="607" 
d="M612 489l-113 -489h-48l102 447h-293l-103 -447h-49l103 447h-90l10 42h89l30 129q16 73 69 118q52 44 121 44q56 0 90 -27l-23 -38q-29 21 -71 21q-50 0 -88 -32q-37 -31 -49 -86l-30 -129h343zM622 676q15 0 28 -11q11 -10 11 -27q0 -15 -11 -26t-28 -11q-16 0 -27 11
t-11 26q0 16 11 27t27 11z" />
    <glyph glyph-name="fl" unicode="fl" horiz-adv-x="653" 
d="M260 447l-103 -447h-49l103 447h-90l10 42h90l30 129q16 75 68 119q50 43 121 43q46 0 75 -18l-15 -38q-27 13 -62 13q-53 0 -89 -33q-37 -34 -49 -86l-30 -129h193l-10 -42h-193zM552 35q30 0 65 18l8 -43q-37 -21 -80 -21q-52 0 -80 34q-27 34 -14 89l153 658h48
l-153 -661q-7 -35 6 -54q14 -20 47 -20z" />
    <glyph glyph-name=".notdef" horiz-adv-x="803" 
d="M456 683q144 0 246 -99q101 -98 101 -251q0 -150 -101 -248q-103 -100 -246 -100t-246 100q-102 99 -102 248q0 152 102 251t246 99zM456 656q-133 0 -225 -91q-93 -91 -93 -231q0 -138 93 -229q94 -92 225 -92t225 92q92 91 92 229q0 140 -92 231t-225 91zM586 401
q0 -47 -33 -79q-32 -30 -86 -35v-50h-32v80h19q42 0 70 23q27 22 27 61q0 38 -25 62q-24 23 -69 23q-44 0 -71 -27t-27 -73l-34 5q0 55 37 91q36 35 95 35q56 0 93 -32q36 -31 36 -84zM451 192q11 0 18 -7t7 -17t-7 -17q-8 -8 -18 -8q-9 0 -17 8t-8 17t8 17q7 7 17 7z" />
    <glyph glyph-name=".null" horiz-adv-x="0" 
 />
    <glyph glyph-name="nonmarkingreturn" horiz-adv-x="333" 
 />
    <glyph glyph-name="space" unicode=" " horiz-adv-x="256" 
 />
    <glyph glyph-name="exclam" unicode="!" horiz-adv-x="262" 
d="M298 670l-7 -31l-106 -450h-49l103 450l7 31h52zM127 72q16 0 27 -11t11 -26q0 -17 -10 -27q-11 -11 -28 -11t-28 11t-11 27q0 15 12 26q13 11 27 11z" />
    <glyph glyph-name="quotedbl" unicode="&#x22;" horiz-adv-x="295" 
d="M188 402l62 268h49l-62 -268h-49zM318 402l62 268h49l-62 -268h-49z" />
    <glyph glyph-name="numbersign" unicode="#" horiz-adv-x="671" 
d="M578 437l-105 -215h107l-21 -43h-107l-87 -179h-48l87 179h-215l-87 -179h-48l87 179h-107l21 43h107l105 215h-108l21 42h107l93 191h48l-93 -191h214l93 191h49l-93 -191h108l-22 -42h-106zM529 437h-214l-105 -215h215z" />
    <glyph glyph-name="dollar" unicode="$" horiz-adv-x="579" 
d="M609 482l-48 -12q-4 54 -38 91q-31 34 -89 45l-57 -242l54 -22q62 -25 93 -59q30 -33 30 -86q0 -77 -62 -125q-63 -49 -163 -49q-25 0 -32 1l-28 -124h-45l30 131q-73 17 -116 63q-44 46 -48 117l51 10q2 -58 35 -94q35 -38 90 -53l62 260l-10 4q-76 31 -108 62
q-32 30 -32 80q0 77 61 125q60 47 158 47h5l27 118h44l-28 -122q71 -10 114 -55q43 -44 50 -111zM394 610h-3q-71 0 -118 -35q-46 -34 -46 -91q0 -32 23 -55q24 -24 81 -46l8 -3zM366 319l-60 -252q6 -1 28 -1q79 0 125 36q47 36 47 93q0 36 -20 59t-66 43z" />
    <glyph glyph-name="percent" unicode="%" horiz-adv-x="891" 
d="M405 681q62 0 102 -37q41 -38 41 -100q0 -77 -56 -127q-57 -51 -129 -51q-61 0 -103 39t-42 102q0 75 57 125q56 49 130 49zM198 0l660 670h42l-660 -670h-42zM403 646q-56 0 -101 -39t-45 -98q0 -46 32 -76q31 -30 76 -30q55 0 100 39q44 38 44 100q0 46 -30 75
q-31 29 -76 29zM769 304q61 0 102 -38t41 -100q0 -75 -56 -126t-129 -51q-61 0 -102 39t-41 102q0 76 57 125q56 49 128 49zM767 269q-54 0 -99 -39t-45 -98q0 -46 31 -76q32 -30 75 -30q57 0 100 39q44 39 44 99q0 48 -30 76q-31 29 -76 29z" />
    <glyph glyph-name="ampersand" unicode="&#x26;" horiz-adv-x="719" 
d="M656 -15l-103 104q-104 -101 -248 -101q-89 0 -144 44t-55 116q0 73 53 132q51 57 132 89q-34 55 -34 110q0 85 61 144q59 58 155 58q69 0 113 -33q42 -32 47 -96l-47 -8q-4 46 -35 71t-82 25q-69 0 -116 -45t-47 -111q0 -46 29 -93q28 -45 95 -111l126 -126
q46 58 66 142l10 40h45l-10 -40q-24 -102 -82 -172l106 -106zM310 31q124 0 214 87l-135 137q-46 45 -76 82q-73 -28 -115 -76q-43 -49 -43 -107q0 -57 41 -90q40 -33 114 -33z" />
    <glyph glyph-name="quotesingle" unicode="'" horiz-adv-x="165" 
d="M188 402l62 268h49l-62 -268h-49z" />
    <glyph glyph-name="parenleft" unicode="(" horiz-adv-x="374" 
d="M421 751l33 -36q-112 -89 -168 -180q-56 -93 -74 -201q-36 -222 108 -385l-39 -31q-158 172 -121 416q39 248 261 417z" />
    <glyph glyph-name="parenright" unicode=")" horiz-adv-x="374" 
d="M111 -82l-33 36q113 89 169 181t72 200q36 223 -108 385l40 31q159 -172 120 -416q-37 -246 -260 -417z" />
    <glyph glyph-name="asterisk" unicode="*" horiz-adv-x="441" 
d="M438 536l94 -111l-28 -22l-93 110l-49 -133l-35 13l48 133l-142 -25l-7 35l144 24l-95 112l29 22l93 -110l48 132l35 -13l-48 -132l142 24l7 -34z" />
    <glyph glyph-name="plus" unicode="+" horiz-adv-x="580" 
d="M598 283h-193l-45 -194h-44l44 194h-192l11 44h192l44 194h45l-45 -194h194z" />
    <glyph glyph-name="comma" unicode="," horiz-adv-x="189" 
d="M-91 -132h-41l129 261h61l-1 -3z" />
    <glyph glyph-name="hyphen" unicode="-" horiz-adv-x="442" 
d="M436 233h-320l10 44h320z" />
    <glyph glyph-name="period" unicode="." horiz-adv-x="190" 
d="M54 72q15 0 28 -11q11 -10 11 -26t-11 -27t-28 -11q-16 0 -27 11t-11 27q0 15 11 26t27 11z" />
    <glyph glyph-name="slash" unicode="/" horiz-adv-x="343" 
d="M373 720l-470 -790h-49l470 790h49z" />
    <glyph glyph-name="zero" unicode="0" horiz-adv-x="665" 
d="M482 681q124 0 184 -96t29 -250q-32 -155 -118 -250q-87 -96 -198 -96q-133 0 -196 96t-32 250q32 158 121 252q90 94 210 94zM382 36q88 0 162 83q73 82 100 216q27 135 -19 217q-47 83 -146 83t-174 -82q-76 -84 -103 -218q-28 -133 21 -217q48 -82 159 -82z" />
    <glyph glyph-name="one" unicode="1" horiz-adv-x="348" 
d="M432 670l-154 -670h-50l140 605l-208 -103l13 54l229 114h30z" />
    <glyph glyph-name="two" unicode="2" horiz-adv-x="511" 
d="M56 46h365l-11 -46h-458l9 32l303 223q102 73 144 121t42 115q0 65 -42 106q-41 40 -113 40q-77 0 -126 -48q-51 -49 -58 -130l-47 8q11 99 74 156q64 58 160 58q91 0 145 -51t54 -136q0 -79 -46 -135q-45 -55 -157 -138z" />
    <glyph glyph-name="three" unicode="3" horiz-adv-x="593" 
d="M623 516q0 -68 -43 -112q-45 -46 -116 -61q104 -32 104 -140q0 -91 -71 -153q-70 -61 -177 -61q-104 0 -164 61q-60 62 -53 159l46 10q-4 -82 42 -134t131 -52t141 49q57 50 57 121q0 59 -40 90t-111 31h-64l12 43h63q78 0 137 37q60 38 60 108q0 57 -41 92
q-40 34 -109 34q-77 0 -126 -45t-63 -126l-46 9q16 94 80 150q62 55 158 55q88 0 140 -45q53 -45 53 -120z" />
    <glyph glyph-name="four" unicode="4" horiz-adv-x="624" 
d="M600 174h-112l-40 -174h-49l40 174h-387l12 51l476 445h62l-104 -453h112zM449 217l91 395l-423 -395h332z" />
    <glyph glyph-name="five" unicode="5" horiz-adv-x="557" 
d="M249 624l-77 -234h157q90 0 143 -46t53 -126q0 -95 -70 -162t-184 -67q-106 0 -169 63q-62 62 -61 165l48 9q-1 -86 49 -140q50 -53 136 -53q90 0 146 53q55 52 55 126q0 63 -42 99q-41 35 -112 35h-211l105 324h383l-11 -46h-338z" />
    <glyph glyph-name="six" unicode="6" horiz-adv-x="611" 
d="M484 637q-114 0 -193 -93q-78 -92 -95 -218q-4 -17 -5 -35q28 64 90 103q61 39 137 39q91 0 144 -53q54 -54 54 -137q0 -107 -72 -180q-72 -74 -183 -74q-105 0 -163 66q-58 65 -58 184q0 185 100 313q100 129 248 129q77 0 130 -37q52 -36 60 -104l-48 -9q-6 50 -46 78
t-100 28zM406 389q-84 0 -145 -63q-62 -64 -62 -134q0 -69 47 -113t117 -44q89 0 146 60t57 144q0 66 -44 108t-116 42z" />
    <glyph glyph-name="seven" unicode="7" horiz-adv-x="496" 
d="M665 670l-8 -33l-418 -637h-63l416 624h-390l10 46h453z" />
    <glyph glyph-name="eight" unicode="8" horiz-adv-x="587" 
d="M403 681q99 0 157 -47t53 -125q-3 -64 -49 -111q-46 -48 -139 -58q65 -20 96 -62q31 -43 31 -95q0 -86 -70 -140t-182 -54q-107 0 -172 51q-63 50 -59 132q5 66 60 117t158 60q-120 33 -120 149q0 82 65 133q63 50 171 50zM381 370q83 0 133 41q49 40 49 101q0 59 -44 93
t-118 34q-79 0 -129 -37q-51 -37 -55 -98q-4 -58 41 -96q46 -38 123 -38zM497 184q0 62 -44 98q-43 36 -126 36q-88 0 -145 -42t-57 -108q0 -61 48 -97q49 -37 127 -37q86 0 142 41q55 40 55 109z" />
    <glyph glyph-name="nine" unicode="9" horiz-adv-x="613" 
d="M404 681q108 0 164 -65q57 -66 57 -185q0 -184 -99 -313t-248 -129q-74 0 -129 38q-54 37 -61 103l48 9q4 -49 46 -77t99 -28q77 0 141 46q62 45 101 116q36 67 47 148q4 15 5 36q-29 -65 -89 -103q-62 -39 -138 -39q-88 0 -143 53t-55 136q0 107 71 181q70 73 183 73z
M360 281q84 0 145 63q61 62 61 134q0 71 -46 114t-117 43q-90 0 -146 -59q-57 -60 -57 -145q0 -65 44 -107q45 -43 116 -43z" />
    <glyph glyph-name="colon" unicode=":" horiz-adv-x="190" 
d="M141 450q15 0 28 -11q11 -10 11 -26q0 -15 -11 -26t-28 -11q-16 0 -27 11t-11 26t11 26t27 11zM54 72q15 0 28 -11q11 -10 11 -26t-11 -27t-28 -11q-16 0 -27 11t-11 27q0 15 11 26t27 11z" />
    <glyph glyph-name="semicolon" unicode=";" horiz-adv-x="207" 
d="M82 450q15 0 28 -11q11 -10 11 -26q0 -15 -11 -26t-28 -11q-16 0 -27 11t-11 26t11 26t27 11zM-91 -132h-41l129 261h61l-1 -3z" />
    <glyph glyph-name="less" unicode="&#x3c;" horiz-adv-x="431" 
d="M149 308l266 -138l-12 -49l-321 168l10 44l399 168l-12 -54z" />
    <glyph glyph-name="equal" unicode="=" horiz-adv-x="581" 
d="M605 387h-430l10 44h430zM562 203h-430l10 43h430z" />
    <glyph glyph-name="greater" unicode="&#x3e;" horiz-adv-x="431" 
d="M368 314l-267 138l13 49l321 -168l-10 -44l-399 -168l11 55z" />
    <glyph glyph-name="question" unicode="?" horiz-adv-x="510" 
d="M617 502q0 -97 -78 -158q-78 -62 -181 -66l-21 -87h-47l32 128h27q81 0 151 50q69 49 69 129q0 62 -42 101q-41 38 -110 38q-76 0 -129 -49t-64 -130l-46 9q11 95 77 154q67 60 164 60q88 0 143 -49t55 -130zM280 72q16 0 27 -11t11 -26q0 -17 -10 -27q-11 -11 -28 -11
t-28 11t-11 27q0 15 12 26q13 11 27 11z" />
    <glyph glyph-name="at" unicode="@" horiz-adv-x="969" 
d="M637 681q157 0 254 -91t97 -235q0 -49 -12 -98q-11 -44 -37 -92q-24 -43 -64 -70q-41 -27 -90 -27q-52 0 -78 26t-18 70q-69 -90 -180 -90q-73 0 -120 47q-46 46 -46 123q0 102 71 170t164 68q62 0 102 -33q41 -34 53 -91l27 115h36l-69 -301q-7 -31 12 -52
q18 -20 55 -20q72 0 115 79t43 173q0 133 -88 215t-230 82q-118 0 -219 -55q-102 -56 -165 -153q-63 -98 -63 -214q0 -138 85 -224q86 -88 219 -88q60 0 129 18q72 19 120 47l13 -30q-52 -33 -127 -51q-78 -19 -139 -19q-147 0 -242 96q-95 97 -95 245q0 127 68 234
q66 105 180 166q111 60 239 60zM519 109q76 0 133 57t57 140q0 65 -37 102t-96 37q-75 0 -133 -55t-58 -139q0 -63 38 -103q37 -39 96 -39z" />
    <glyph glyph-name="A" unicode="A" horiz-adv-x="688" 
d="M577 0h-50l-40 183h-382l-125 -183h-58l460 670h45zM476 229l-83 377l-257 -377h340z" />
    <glyph glyph-name="B" unicode="B" horiz-adv-x="682" 
d="M559 343v-3q51 -8 79 -42q29 -35 29 -87q0 -88 -71 -150q-70 -61 -180 -61h-316l10 44l134 582l11 44h278q80 0 128 -39t48 -105q0 -65 -45 -118t-105 -65zM295 626l-62 -267h247q74 0 127 48q52 48 52 111q0 52 -37 80t-97 28h-230zM160 44h262q82 0 139 49
q55 48 55 117q0 50 -33 79q-32 28 -94 28h-266z" />
    <glyph glyph-name="C" unicode="C" horiz-adv-x="795" 
d="M568 681q110 0 187 -54t96 -144l-51 -13q-18 75 -80 120q-61 45 -154 45q-141 0 -245 -100q-105 -101 -105 -242q0 -110 70 -185q69 -73 185 -73q92 0 168 46q78 47 116 118l46 -16q-46 -86 -134 -140q-89 -54 -199 -54q-136 0 -220 85q-84 86 -84 216q0 160 120 276
q119 115 284 115z" />
    <glyph glyph-name="D" unicode="D" horiz-adv-x="745" 
d="M235 670h208q149 0 228 -75t79 -198q0 -78 -32 -148q-33 -71 -90 -127t-145 -89q-87 -33 -189 -33h-214zM142 46h148q180 0 294 105t114 244q0 103 -66 166t-193 63h-163z" />
    <glyph glyph-name="E" unicode="E" horiz-adv-x="639" 
d="M274 624l-60 -265h398l-10 -45h-399l-61 -268h429l-11 -46h-480l155 670h479l-11 -46h-429z" />
    <glyph glyph-name="F" unicode="F" horiz-adv-x="588" 
d="M274 624l-61 -268h387l-10 -46h-388l-71 -310h-51l155 670h470l-11 -46h-420z" />
    <glyph glyph-name="G" unicode="G" horiz-adv-x="806" 
d="M479 357h370q0 -1 -0.5 -4t-1 -8t-0.5 -10q-26 -151 -132 -248q-107 -98 -255 -98q-132 0 -215 86t-83 216q0 160 121 275t283 115q108 0 185 -51q75 -50 98 -138l-50 -13q-21 72 -83 114q-60 41 -152 41q-141 0 -245 -100q-105 -100 -105 -240q0 -111 70 -184
q71 -74 180 -74q119 0 210 79q90 78 115 196h-320z" />
    <glyph glyph-name="H" unicode="H" horiz-adv-x="738" 
d="M780 670l-155 -670h-51l73 315h-444l-72 -315h-51l155 670h50l-71 -309h444l71 309h51z" />
    <glyph glyph-name="I" unicode="I" horiz-adv-x="431" 
d="M300 624l-132 -578h162l-10 -46h-376l10 46h164l132 578h-162l10 46h376l-10 -46h-164z" />
    <glyph glyph-name="J" unicode="J" horiz-adv-x="594" 
d="M637 670l-99 -423q-27 -116 -107 -187t-185 -71q-96 0 -155 59q-58 58 -56 155l48 11q-1 -81 42 -130t122 -49q85 0 152 59t89 153l87 377h-312l10 46h364z" />
    <glyph glyph-name="K" unicode="K" horiz-adv-x="694" 
d="M425 382l227 -382h-58l-208 349l-220 -186l-38 -163h-50l155 670h51l-100 -431l514 431h67z" />
    <glyph glyph-name="L" unicode="L" horiz-adv-x="577" 
d="M545 46l-11 -46h-454l155 670h50l-143 -624h403z" />
    <glyph glyph-name="M" unicode="M" horiz-adv-x="904" 
d="M946 670l-155 -670h-49l128 555l-414 -555h-41l-158 555l-128 -555h-49l155 670h40l172 -604l450 604h49z" />
    <glyph glyph-name="N" unicode="N" horiz-adv-x="760" 
d="M802 670l-154 -670h-44l-336 591l-136 -591h-50l154 670h45l334 -591l137 591h50z" />
    <glyph glyph-name="O" unicode="O" horiz-adv-x="811" 
d="M558 682q147 0 231 -101q84 -100 61 -246q-23 -149 -135 -248q-113 -99 -258 -99q-146 0 -230 101t-62 246q23 146 137 247q113 100 256 100zM460 36q124 0 222 86t117 213q19 126 -51 213t-192 87q-126 0 -223 -87q-99 -88 -118 -213q-19 -124 52 -212q71 -87 193 -87z
" />
    <glyph glyph-name="P" unicode="P" horiz-adv-x="647" 
d="M233 670h273q92 0 143 -45t51 -122q0 -97 -78 -165q-77 -67 -199 -67h-231l-63 -271h-51l144 624zM202 317h223q97 0 160 54t63 131q0 56 -37 89q-38 33 -107 33h-231z" />
    <glyph glyph-name="Q" unicode="Q" horiz-adv-x="811" 
d="M850 335q-14 -91 -62 -164q-49 -75 -124 -122l186 -219h-68l-164 194q-78 -36 -161 -36q-146 0 -230 101t-62 246q23 146 137 247q113 100 256 100q147 0 231 -101q84 -100 61 -246zM460 36q124 0 222 86t117 213q19 126 -51 213t-192 87q-126 0 -223 -87
q-99 -88 -118 -213q-19 -124 52 -212q71 -87 193 -87z" />
    <glyph glyph-name="R" unicode="R" horiz-adv-x="671" 
d="M723 520q0 -94 -71 -153t-186 -59h-18l188 -308h-59l-183 308h-179l-71 -308h-50l144 624l11 46h299q78 0 127 -41q48 -41 48 -109zM226 353h243q91 0 147 45t56 118q0 49 -34 79q-33 29 -92 29h-257z" />
    <glyph glyph-name="S" unicode="S" horiz-adv-x="622" 
d="M420 681q103 0 163 -50q62 -51 68 -137l-50 -12q-5 72 -54 114t-132 42q-82 0 -135 -40q-54 -40 -54 -104q0 -38 23 -61q24 -24 72 -43l126 -49q136 -51 136 -155q0 -88 -70 -142q-72 -55 -184 -55q-113 0 -186 56q-71 55 -73 150l52 12q2 -80 58 -127t152 -47
q91 0 146 41q54 40 54 108q0 74 -100 113l-128 49q-65 26 -98 59q-32 32 -32 85q0 85 70 140q68 53 176 53z" />
    <glyph glyph-name="T" unicode="T" horiz-adv-x="630" 
d="M805 624h-262l-143 -624h-52l143 624h-261l11 46h575z" />
    <glyph glyph-name="U" unicode="U" horiz-adv-x="725" 
d="M824 670l-88 -381q-32 -138 -120 -219t-214 -81q-122 0 -185 84t-32 216l88 381h50l-88 -381q-26 -115 22 -183q48 -69 149 -69q102 0 177 69t102 183l88 381h51z" />
    <glyph glyph-name="V" unicode="V" horiz-adv-x="681" 
d="M874 670l-448 -670h-48l-138 670h51l123 -600l401 600h59z" />
    <glyph glyph-name="W" unicode="W" horiz-adv-x="954" 
d="M1146 670l-366 -670h-52l-55 590l-324 -590h-53l-56 670h50l49 -592l326 592h51l53 -592l323 592h54z" />
    <glyph glyph-name="X" unicode="X" horiz-adv-x="617" 
d="M302 334l176 -334h-57l-156 299l-292 -299h-67l331 337l-169 333h57l150 -296l287 296h67l-324 -333z" />
    <glyph glyph-name="Y" unicode="Y" horiz-adv-x="664" 
d="M475 245l-57 -245h-50l56 243l-184 427h53l164 -377l338 377h63z" />
    <glyph glyph-name="Z" unicode="Z" horiz-adv-x="626" 
d="M666 635l-566 -591h432l-10 -44h-506l7 32l572 594h-421l9 44h491z" />
    <glyph glyph-name="bracketleft" unicode="[" horiz-adv-x="384" 
d="M270 697l-170 -736h177l-10 -43h-225l190 822h225l-10 -43h-177z" />
    <glyph glyph-name="backslash" unicode="\" horiz-adv-x="343" 
d="M343 -72h-43l-100 812h43z" />
    <glyph glyph-name="bracketright" unicode="]" horiz-adv-x="384" 
d="M390 740l-190 -822h-226l10 43h177l170 736h-177l10 43h226z" />
    <glyph glyph-name="asciicircum" unicode="^" horiz-adv-x="369" 
d="M209 469h-51l187 201h34l93 -201h-44l-73 155z" />
    <glyph glyph-name="underscore" unicode="_" horiz-adv-x="488" 
d="M330 -98h-448l10 42h447z" />
    <glyph glyph-name="grave" unicode="`" horiz-adv-x="600" 
d="M429 705l118 -138h-47l-134 138h63z" />
    <glyph glyph-name="a" unicode="a" horiz-adv-x="551" 
d="M343 501q93 0 142 -51q49 -50 29 -140l-71 -310h-47l20 89q-81 -100 -210 -100q-75 0 -118 34q-44 35 -44 92q0 70 62 120q61 49 163 49h192l7 30q15 66 -21 105t-107 39q-63 0 -113 -31q-51 -31 -72 -83l-44 14q25 62 90 103q64 40 142 40zM443 205l9 39h-191
q-77 0 -122 -36q-46 -37 -46 -86q0 -43 35 -67q36 -25 91 -25q82 0 144 50t80 125z" />
    <glyph glyph-name="b" unicode="b" horiz-adv-x="651" 
d="M438 501q104 0 164 -72t42 -186q-18 -113 -99 -184q-80 -70 -187 -70q-75 0 -128 38t-71 103l-30 -130h-49l178 770h49l-87 -376q40 50 98 79q56 28 120 28zM358 33q88 0 156 58t83 152q15 95 -34 155q-49 59 -136 59q-82 0 -154 -60t-87 -154q-13 -93 38 -152
q51 -58 134 -58z" />
    <glyph glyph-name="c" unicode="c" horiz-adv-x="576" 
d="M310 34q60 0 116 34q55 34 80 88l45 -10q-31 -70 -98 -113q-68 -44 -146 -44q-107 0 -171 72q-64 71 -46 184q18 112 103 184t188 72q80 0 137 -42q55 -41 66 -112l-49 -13q-8 56 -52 89q-44 32 -107 32q-84 0 -154 -59q-69 -58 -84 -151q-15 -92 37 -152q51 -59 135 -59
z" />
    <glyph glyph-name="d" unicode="d" horiz-adv-x="651" 
d="M719 770l-178 -770h-49l22 96q-40 -51 -97 -79q-56 -28 -122 -28q-103 0 -163 72q-61 73 -43 185q18 113 100 185q80 70 186 70q77 0 129 -37q53 -38 71 -105l95 411h49zM307 33q82 0 154 60q71 59 86 153q14 95 -37 153t-134 58q-87 0 -155 -58q-69 -59 -84 -153
q-15 -95 35 -154t135 -59z" />
    <glyph glyph-name="e" unicode="e" horiz-adv-x="589" 
d="M589 240h-447q-2 -24 -2 -27q0 -80 49 -131q48 -50 132 -50q60 0 115 32q51 30 87 95l42 -12q-34 -74 -102 -116q-67 -42 -146 -42q-97 0 -159 60t-62 162q0 124 88 207t200 83q108 0 165 -73q56 -73 40 -188zM382 459q-88 0 -150 -53t-83 -128h398q4 81 -40 132
q-43 49 -125 49z" />
    <glyph glyph-name="f" unicode="f" horiz-adv-x="351" 
d="M438 737q-53 0 -89 -33q-37 -34 -49 -86l-30 -129h193l-10 -42h-193l-103 -447h-49l103 447h-90l10 42h90l30 129q16 75 68 119q50 43 121 43q46 0 75 -18l-15 -38q-27 13 -62 13z" />
    <glyph glyph-name="g" unicode="g" horiz-adv-x="653" 
d="M598 489l-120 -514q-22 -101 -99 -163t-180 -62q-175 0 -231 146l47 20q44 -119 186 -119q83 0 148 50q63 48 83 133l27 117q-40 -51 -97 -79q-58 -29 -122 -29q-103 0 -163 72q-61 73 -43 185q18 113 100 185q80 70 186 70q76 0 129 -38t70 -106l31 132h48zM251 33
q83 0 155 60q71 59 86 153q14 95 -37 153t-135 58q-87 0 -155 -58q-69 -59 -84 -153q-15 -95 35 -154t135 -59z" />
    <glyph glyph-name="h" unicode="h" horiz-adv-x="629" 
d="M431 501q95 0 139 -60q43 -60 22 -157l-66 -284h-49l66 285q18 79 -16 125q-35 47 -108 47q-89 0 -149 -56q-62 -57 -84 -156l-57 -245h-49l179 770h49l-89 -383q79 114 212 114z" />
    <glyph glyph-name="i" unicode="i" horiz-adv-x="261" 
d="M271 676q15 0 28 -11q11 -10 11 -27q0 -15 -11 -26t-28 -11q-16 0 -27 11t-11 26q0 16 11 27t27 11zM148 0h-48l112 489h49z" />
    <glyph glyph-name="j" unicode="j" horiz-adv-x="278" 
d="M117 676q15 0 28 -11q11 -10 11 -27q0 -15 -11 -26t-28 -11q-16 0 -27 11t-11 26q0 16 11 27t27 11zM109 489l-144 -626q-12 -51 -50 -82t-90 -31q-38 0 -67 17l21 42q21 -12 45 -12q34 0 60 20q26 19 33 51l143 621h49z" />
    <glyph glyph-name="k" unicode="k" horiz-adv-x="583" 
d="M371 292l188 -292h-55l-170 261l-179 -148l-26 -113h-49l179 770h49l-136 -586l372 305h66z" />
    <glyph glyph-name="l" unicode="l" horiz-adv-x="303" 
d="M291 770l-154 -661q-7 -35 6 -54q14 -20 47 -20q30 0 65 18l9 -43q-39 -21 -81 -21q-52 0 -80 34q-27 34 -14 89l153 658h49z" />
    <glyph glyph-name="m" unicode="m" horiz-adv-x="943" 
d="M779 501q77 0 120 -50q44 -52 26 -128l-74 -323h-48l72 316q15 61 -18 100t-91 39q-78 0 -129 -47q-52 -47 -76 -134l-63 -274h-49l73 316q14 63 -18 100q-33 39 -90 39q-76 0 -129 -48q-52 -47 -76 -134l-63 -273h-48l112 489h49l-20 -87q67 99 187 99q58 0 101 -32
q41 -31 49 -85q74 117 203 117z" />
    <glyph glyph-name="n" unicode="n" horiz-adv-x="635" 
d="M442 501q96 0 139 -60q44 -61 23 -157l-66 -284h-49l66 285q18 79 -16 125q-35 47 -109 47q-88 0 -148 -56q-62 -57 -84 -156l-57 -245h-49l113 489h49l-24 -102q80 114 212 114z" />
    <glyph glyph-name="o" unicode="o" horiz-adv-x="612" 
d="M385 500q111 0 175 -73t48 -184q-17 -110 -99 -182q-83 -72 -192 -72q-111 0 -175 72q-65 72 -48 182q16 111 100 184q83 73 191 73zM319 33q89 0 159 59q68 58 82 151q13 91 -38 153q-51 61 -139 61q-90 0 -158 -61q-70 -62 -83 -153q-14 -92 38 -151q51 -59 139 -59z
" />
    <glyph glyph-name="p" unicode="p" horiz-adv-x="654" 
d="M384 501q104 0 164 -72t42 -186q-18 -113 -99 -184q-80 -70 -187 -70q-74 0 -129 38t-71 105l-85 -362h-49l169 719h49l-22 -95q86 107 218 107zM303 33q89 0 156 58q68 59 83 152q15 95 -34 155q-49 59 -136 59q-81 0 -153 -60t-87 -154q-13 -93 38 -152q51 -58 133 -58
z" />
    <glyph glyph-name="q" unicode="q" horiz-adv-x="653" 
d="M657 489l-168 -719h-49l76 325q-42 -51 -96 -78q-56 -28 -121 -28q-103 0 -163 72q-61 73 -43 185q18 113 100 185q80 70 186 70q77 0 129 -37q54 -38 70 -105l30 130h49zM311 33q82 0 154 60q71 59 86 153q14 95 -37 153t-134 58q-89 0 -156 -58q-68 -59 -83 -153
q-15 -96 34 -154q50 -59 136 -59z" />
    <glyph glyph-name="r" unicode="r" horiz-adv-x="388" 
d="M438 493q19 0 31 -3l-12 -46q-12 2 -27 2q-90 0 -158 -66q-68 -67 -94 -166l-49 -214h-49l113 489h49l-29 -126q43 60 103 95q59 35 122 35z" />
    <glyph glyph-name="s" unicode="s" horiz-adv-x="507" 
d="M46 131l47 15q11 -54 55 -85q46 -32 107 -32q65 0 108 29q42 28 42 76q0 24 -13 40q-14 16 -30 24q-18 8 -49 20l-81 28q-50 17 -77 41q-26 23 -26 66q0 66 54 107q55 41 137 41q75 0 126 -36q52 -36 62 -93l-43 -15q-6 47 -46 75t-100 28q-65 0 -103 -28
q-39 -28 -39 -74q0 -17 6 -29t21 -21t24 -12q3 -1 13 -5.5t19 -7.5l66 -24q17 -6 49 -19q14 -6 39 -22q20 -13 30 -34q9 -20 9 -47q0 -67 -56 -107q-58 -41 -147 -41q-78 0 -135 39t-69 103z" />
    <glyph glyph-name="t" unicode="t" horiz-adv-x="370" 
d="M246 447l-71 -308q-12 -49 6 -76q19 -28 60 -28q50 0 100 35l8 -43q-55 -38 -114 -38q-66 0 -96 40t-13 109l71 309h-103l9 42h104l42 181h49l-42 -181h183l-9 -42h-184z" />
    <glyph glyph-name="u" unicode="u" horiz-adv-x="635" 
d="M659 489l-113 -489h-49l24 103q-79 -115 -212 -115q-96 0 -139 61q-44 62 -22 157l65 283h49l-66 -285q-16 -76 18 -124q35 -48 107 -48q86 0 146 54t84 148l60 255h48z" />
    <glyph glyph-name="v" unicode="v" horiz-adv-x="549" 
d="M659 489l-338 -489h-53l-110 489h51l96 -433l299 433h55z" />
    <glyph glyph-name="w" unicode="w" horiz-adv-x="767" 
d="M877 490l-280 -493h-49l-49 414l-241 -414h-48l-52 493h47l46 -419l244 418h40l50 -419l241 420h51z" />
    <glyph glyph-name="x" unicode="x" horiz-adv-x="575" 
d="M311 242l146 -242h-57l-124 210l-222 -210h-68l259 243l2 2l-143 244h57l121 -212l222 212h68l-260 -246z" />
    <glyph glyph-name="y" unicode="y" horiz-adv-x="550" 
d="M608 489l-506 -727h-58l171 246l-114 481h53l100 -426l297 426h57z" />
    <glyph glyph-name="z" unicode="z" horiz-adv-x="498" 
d="M481 455l-435 -413h349l-10 -42h-417l8 34l433 413h-328l10 42h398z" />
    <glyph glyph-name="braceleft" unicode="{" horiz-adv-x="433" 
d="M558 740l-10 -42h-72q-38 0 -65 -23q-29 -24 -36 -63l-40 -171q-21 -91 -97 -113q30 -14 42 -44t3 -67l-39 -171q-10 -39 8 -62t54 -23h72l-10 -43h-77q-55 0 -82 34q-27 35 -14 90l39 171q10 42 -9 67t-61 27l-18 2l9 40l19 2q44 3 73 28t40 66l40 171q13 55 56 90
q41 34 98 34h77z" />
    <glyph glyph-name="bar" unicode="|" horiz-adv-x="241" 
d="M96 -72h-48l187 812h48z" />
    <glyph glyph-name="braceright" unicode="}" horiz-adv-x="438" 
d="M388 349l-10 -39l-18 -3q-43 -1 -73 -27q-31 -27 -40 -66l-40 -171q-13 -55 -56 -90t-99 -35h-76l9 43h73q36 0 65 24t36 61l40 172q21 89 96 113q-29 14 -41 43q-12 30 -3 67l39 172q9 37 -8 62q-16 23 -54 23h-72l10 42h76q57 0 84 -34t13 -90l-39 -171q-10 -40 10 -66
q20 -25 60 -27z" />
    <glyph glyph-name="asciitilde" unicode="~" horiz-adv-x="464" 
d="M126 243h-44q14 56 50 86q35 29 79 29q28 0 49 -11q25 -13 35 -26q9 -11 31 -26q18 -12 38 -12q29 0 51 20t29 54h46q-13 -56 -50 -87t-80 -31q-26 0 -49 12q-25 13 -35 26q-9 11 -31 26q-17 11 -38 11q-32 0 -54 -19t-27 -52z" />
    <glyph glyph-name="exclamdown" unicode="&#xa1;" horiz-adv-x="262" 
d="M192 426q-14 0 -27 11q-12 10 -12 26t11 27q10 10 28 10q17 0 27 -10q11 -11 11 -27q0 -15 -11 -26t-27 -11zM20 -173l7 31l106 451h49l-103 -451l-7 -31h-52z" />
    <glyph glyph-name="cent" unicode="&#xa2;" horiz-adv-x="579" 
d="M305 34h7q60 0 116 34q55 34 80 88l45 -10q-31 -70 -98 -113q-68 -44 -146 -44h-12l-28 -119h-44l30 124q-84 18 -131 86t-32 165q16 109 98 180q82 72 181 76l30 129h44l-30 -131q68 -7 116 -49q46 -40 55 -103l-49 -13q-8 51 -43 82q-34 30 -91 38zM140 245
q-12 -78 24 -134q36 -55 101 -72l97 415q-81 -4 -144 -63q-65 -60 -78 -146z" />
    <glyph glyph-name="sterling" unicode="&#xa3;" horiz-adv-x="645" 
d="M469 681q99 0 147 -59q48 -58 28 -154l-48 -7q17 81 -17 128t-112 47t-135 -47q-59 -48 -77 -122l-30 -133h265l-10 -46h-266l-55 -242h393l-11 -46h-529l7 31l88 12l57 245h-85l10 46h85l31 133q23 96 95 155q73 59 169 59z" />
    <glyph glyph-name="yen" unicode="&#xa5;" horiz-adv-x="652" 
d="M463 301h178l-9 -40h-201l-20 -88h200l-9 -40h-200l-31 -133h-51l31 133h-199l8 40h200l20 88h-199l9 40h176l-157 369h53l151 -360l317 360h62z" />
    <glyph glyph-name="section" unicode="&#xa7;" horiz-adv-x="552" 
d="M551 511l-48 -5q9 61 -23 98q-32 36 -100 36q-67 0 -109 -33q-43 -34 -43 -85q0 -53 61 -81l145 -71q53 -27 74 -53q23 -29 23 -66q0 -107 -123 -157q23 -32 23 -70q0 -72 -57 -118q-58 -47 -147 -47q-93 0 -140 47t-36 127l47 7q-9 -64 25 -102q33 -37 107 -37
q66 0 109 34q42 33 42 84q0 49 -60 81l-146 71q-97 49 -97 121q0 55 37 95q36 39 88 58q-25 31 -25 71q0 72 59 119q58 46 147 46t133 -47t34 -123zM405 333l-146 70q-7 3 -26 15q-46 -17 -75 -47q-31 -33 -31 -73q0 -50 78 -89l146 -71q18 -10 26 -16q105 42 105 122
q0 51 -77 89z" />
    <glyph glyph-name="dieresis" unicode="&#xa8;" horiz-adv-x="600" 
d="M484 660q17 0 28 -11t11 -27q0 -15 -11 -26t-28 -11q-16 0 -27 11t-11 26q0 14 11 27q10 11 27 11zM673 660q17 0 28 -11t11 -27q0 -15 -11 -26t-28 -11q-16 0 -27 11t-11 26q0 14 11 27q10 11 27 11z" />
    <glyph glyph-name="copyright" unicode="&#xa9;" horiz-adv-x="785" 
d="M482 681q146 0 246 -99t100 -249q0 -149 -100 -246q-101 -98 -246 -98q-144 0 -245 98t-101 246q0 150 101 249t245 99zM482 653q-130 0 -222 -90t-92 -229q0 -136 92 -226t222 -90q132 0 223 90t91 226q0 139 -91 229t-223 90zM489 523q65 0 115 -36q48 -35 59 -93
l-36 -9q-12 45 -51 74q-38 28 -87 28q-63 0 -106 -42t-43 -110t43 -111t106 -43q48 0 88 29t50 75l35 -8q-10 -56 -59 -94t-114 -38q-78 0 -134 53q-55 52 -55 137q0 84 55 136t134 52z" />
    <glyph glyph-name="ordfeminine" unicode="&#xaa;" horiz-adv-x="387" 
d="M379 673q61 0 92 -33q33 -34 16 -96l-51 -200h-39l11 42q-53 -50 -126 -50q-43 0 -71 23q-27 23 -27 60q0 50 43 81t117 31h100l4 14q12 45 -8 71q-19 25 -64 25q-84 0 -112 -78l-34 7q18 49 58 77q38 26 91 26zM430 475l7 28h-95q-56 0 -87 -21q-32 -21 -32 -59
q0 -25 19 -41q18 -15 50 -15q50 0 89 31q37 29 49 77z" />
    <glyph glyph-name="guillemotleft" unicode="&#xab;" horiz-adv-x="386" 
d="M60 262l168 178h53l-172 -182l85 -174h-48zM217 262l168 178h54l-172 -182l84 -174h-48z" />
    <glyph glyph-name="registered" unicode="&#xae;" horiz-adv-x="490" 
d="M402 681q83 0 142 -57q58 -57 58 -144q0 -86 -58 -143q-59 -57 -142 -57q-84 0 -142 57t-58 143q0 87 58 144t142 57zM402 303q75 0 126 51t51 126q0 78 -51 129t-126 51q-74 0 -125 -51q-52 -52 -52 -129q0 -74 52 -126q51 -51 125 -51zM487 523q0 -24 -17 -41
q-18 -18 -45 -19l73 -73h-29l-72 73h-43v-73h-22v192h86q34 0 51 -16q18 -16 18 -43zM354 483h63q21 0 35 11q13 10 13 29t-12 29q-11 10 -35 10h-64v-79z" />
    <glyph glyph-name="macron" unicode="&#xaf;" horiz-adv-x="600" 
d="M697 589h-267l9 40h267z" />
    <glyph glyph-name="degree" unicode="&#xb0;" horiz-adv-x="402" 
d="M421 681q49 0 83 -31t34 -83q0 -59 -41 -96q-43 -38 -98 -38q-48 0 -83 32q-34 31 -34 82q0 59 42 97q41 37 97 37zM402 468q39 0 69 27q29 26 29 69q0 38 -24 60q-25 23 -58 23q-39 0 -69 -27t-30 -70q0 -36 25 -59t58 -23z" />
    <glyph glyph-name="plusminus" unicode="&#xb1;" horiz-adv-x="581" 
d="M553 367l-10 -44h-193l-42 -179h-45l42 179h-192l10 44h192l43 184h45l-43 -184h193zM48 44h430l-10 -44h-430z" />
    <glyph glyph-name="acute" unicode="&#xb4;" horiz-adv-x="600" 
d="M699 567h-47l118 138h63z" />
    <glyph glyph-name="paragraph" unicode="&#xb6;" horiz-adv-x="547" 
d="M343 0h-41l69 299h-50q-77 0 -124 41t-47 110q0 101 68 161q66 59 174 59h105zM469 0h-41l154 670h41z" />
    <glyph glyph-name="periodcentered" unicode="&#xb7;" horiz-adv-x="190" 
d="M161 303q16 0 27 -11t11 -26q0 -16 -10 -26q-11 -11 -28 -11t-28 11t-11 26q0 16 12 26q13 11 27 11z" />
    <glyph glyph-name="cedilla" unicode="&#xb8;" horiz-adv-x="600" 
d="M304 0h43l-129 -175h-62z" />
    <glyph glyph-name="ordmasculine" unicode="&#xba;" horiz-adv-x="447" 
d="M409 673q68 0 112 -43q45 -44 45 -112q0 -79 -54 -130q-55 -52 -130 -52q-64 0 -110 44t-46 113q0 78 55 129t128 51zM384 372q58 0 101 41q42 41 42 104q0 53 -34 87t-85 34q-55 0 -99 -41t-44 -102q0 -53 35 -88t84 -35z" />
    <glyph glyph-name="guillemotright" unicode="&#xbb;" horiz-adv-x="386" 
d="M194 262l-168 -178h-54l172 182l-84 174h48zM351 262l-168 -178h-53l172 182l-85 174h48z" />
    <glyph glyph-name="onequarter" unicode="&#xbc;" horiz-adv-x="688" 
d="M716 670l-660 -670h-42l660 670h42zM209 620l-107 -54l9 41l123 63h25l-84 -364h-39zM586 122h64l-7 -33h-64l-21 -90h-37l21 90h-212l9 37l259 237h44zM549 122l45 194l-214 -194h169z" />
    <glyph glyph-name="onehalf" unicode="&#xbd;" horiz-adv-x="745" 
d="M686 670l-660 -670h-42l660 670h42zM194 620l-107 -54l9 41l123 63h25l-84 -364h-39zM695 268q0 -39 -26 -69q-27 -31 -91 -79l-117 -85h190l-7 -35h-259l7 26l163 118q57 42 81 69q23 26 23 54q0 31 -21 51q-20 19 -56 19q-41 0 -67 -25q-27 -25 -30 -68l-35 6
q3 54 40 87q38 33 94 33q52 0 81 -28q30 -28 30 -74z" />
    <glyph glyph-name="threequarters" unicode="&#xbe;" horiz-adv-x="789" 
d="M421 421q-1 -49 -41 -83t-102 -34t-96 34q-35 35 -31 90l36 6q-4 -43 22 -71q25 -27 72 -27q44 0 74 24t30 60q0 30 -23 47t-63 17h-36l6 29h22q49 0 88 18q38 18 38 56q0 28 -19 46q-18 17 -56 17q-42 0 -71 -25t-37 -67l-33 7q7 50 48 85q38 32 96 32q51 0 80 -26
t28 -66q0 -70 -88 -92q56 -18 56 -77zM883 670l-660 -670h-42l660 670h42zM755 122h64l-7 -33h-64l-21 -90h-37l21 90h-212l9 37l259 237h44zM718 122l45 194l-214 -194h169z" />
    <glyph glyph-name="questiondown" unicode="&#xbf;" horiz-adv-x="510" 
d="M305 426q-16 0 -27 11t-11 26q0 16 11 27q10 10 27 10q18 0 28 -10q11 -11 11 -27t-11 -26q-13 -11 -28 -11zM360 39l47 -8q-11 -96 -77 -155q-68 -60 -164 -60q-87 0 -143 50q-55 49 -55 129q0 97 78 159t180 66l22 87h47l-32 -128h-27q-83 0 -151 -49q-69 -50 -69 -130
q0 -62 42 -101t110 -39q75 0 130 50q53 48 62 129z" />
    <glyph glyph-name="Agrave" unicode="&#xc0;" horiz-adv-x="688" 
d="M397 748l-134 138h63l118 -138h-47zM577 0h-50l-40 183h-382l-125 -183h-58l460 670h45zM476 229l-83 377l-257 -377h340z" />
    <glyph glyph-name="Aacute" unicode="&#xc1;" horiz-adv-x="688" 
d="M453 748h-47l118 138h63zM427 670l150 -670h-50l-40 183h-382l-125 -183h-58l460 670h45zM476 229l-83 377l-257 -377h340z" />
    <glyph glyph-name="Acircumflex" unicode="&#xc2;" horiz-adv-x="688" 
d="M342 741h-55l151 138h46l87 -138h-49l-65 105zM577 0h-50l-40 183h-382l-125 -183h-58l460 670h45zM476 229l-83 377l-257 -377h340z" />
    <glyph glyph-name="Atilde" unicode="&#xc3;" horiz-adv-x="688" 
d="M381 827q-19 0 -33 -13q-15 -14 -20 -37h-38q11 44 37 66t60 22q32 0 59 -26q28 -27 51 -27q18 0 34 14q14 13 19 38h38q-11 -44 -37 -66q-28 -23 -60 -23q-28 0 -59 26t-51 26zM427 670l150 -670h-50l-40 183h-382l-125 -183h-58l460 670h45zM476 229l-83 377l-257 -377
h340z" />
    <glyph glyph-name="Adieresis" unicode="&#xc4;" horiz-adv-x="688" 
d="M341 766q-16 0 -27 11t-11 26q0 14 11 27q10 11 27 11t28 -11t11 -27q0 -15 -11 -26t-28 -11zM530 766q-16 0 -27 11t-11 26q0 14 11 27q10 11 27 11t28 -11t11 -27q0 -15 -11 -26t-28 -11zM577 0h-50l-40 183h-382l-125 -183h-58l460 670h45zM476 229l-83 377l-257 -377
h340z" />
    <glyph glyph-name="Aring" unicode="&#xc5;" horiz-adv-x="688" 
d="M432 733q-38 0 -63 25t-25 61q0 41 31 71q30 29 73 29q38 0 63 -25t25 -62q0 -39 -31 -69t-73 -30zM445 887q-28 0 -47 -19q-20 -20 -20 -47q0 -23 16 -39q17 -17 41 -17q28 0 48 20t20 46q0 24 -16 40t-42 16zM577 0h-50l-40 183h-382l-125 -183h-58l460 670h45z
M476 229l-83 377l-257 -377h340z" />
    <glyph glyph-name="AE" unicode="&#xc6;" horiz-adv-x="1138" 
d="M694 624l-61 -265h399l-10 -45h-399l-62 -268h429l-10 -46h-480l39 170h-365l-184 -170h-68l728 670h484l-11 -46h-429zM550 216l89 385l-416 -385h327z" />
    <glyph glyph-name="Ccedilla" unicode="&#xc7;" horiz-adv-x="795" 
d="M471 35q92 0 168 46q78 47 116 118l46 -16q-47 -86 -134 -139q-88 -54 -197 -55l-121 -164h-62l141 166q-120 13 -192 96t-72 203q0 160 120 276q119 115 284 115q110 0 187 -54t96 -144l-51 -13q-18 75 -80 120q-61 45 -154 45q-141 0 -245 -100q-105 -101 -105 -242
q0 -110 70 -185q69 -73 185 -73z" />
    <glyph glyph-name="Egrave" unicode="&#xc8;" horiz-adv-x="639" 
d="M463 748l-134 138h63l118 -138h-47zM274 624l-60 -265h398l-10 -45h-399l-61 -268h429l-11 -46h-480l155 670h479l-11 -46h-429z" />
    <glyph glyph-name="Eacute" unicode="&#xc9;" horiz-adv-x="639" 
d="M519 748h-47l118 138h63zM274 624l-60 -265h398l-10 -45h-399l-61 -268h429l-11 -46h-480l155 670h479l-11 -46h-429z" />
    <glyph glyph-name="Ecircumflex" unicode="&#xca;" horiz-adv-x="639" 
d="M408 741h-55l151 138h46l87 -138h-49l-65 105zM274 624l-60 -265h398l-10 -45h-399l-61 -268h429l-11 -46h-480l155 670h479l-11 -46h-429z" />
    <glyph glyph-name="Edieresis" unicode="&#xcb;" horiz-adv-x="639" 
d="M407 766q-16 0 -27 11t-11 26q0 14 11 27q10 11 27 11t28 -11t11 -27q0 -15 -11 -26t-28 -11zM596 766q-16 0 -27 11t-11 26q0 14 11 27q10 11 27 11t28 -11t11 -27q0 -15 -11 -26t-28 -11zM274 624l-60 -265h398l-10 -45h-399l-61 -268h429l-11 -46h-480l155 670h479
l-11 -46h-429z" />
    <glyph glyph-name="Igrave" unicode="&#xcc;" horiz-adv-x="431" 
d="M278 748l-134 138h63l118 -138h-47zM300 624l-132 -578h162l-10 -46h-376l10 46h164l132 578h-162l10 46h376l-10 -46h-164z" />
    <glyph glyph-name="Iacute" unicode="&#xcd;" horiz-adv-x="431" 
d="M334 748h-47l118 138h63zM300 624l-132 -578h162l-10 -46h-376l10 46h164l132 578h-162l10 46h376l-10 -46h-164z" />
    <glyph glyph-name="Icircumflex" unicode="&#xce;" horiz-adv-x="431" 
d="M223 741h-55l151 138h46l87 -138h-49l-65 105zM300 624l-132 -578h162l-10 -46h-376l10 46h164l132 578h-162l10 46h376l-10 -46h-164z" />
    <glyph glyph-name="Idieresis" unicode="&#xcf;" horiz-adv-x="431" 
d="M222 766q-16 0 -27 11t-11 26q0 14 11 27q10 11 27 11t28 -11t11 -27q0 -15 -11 -26t-28 -11zM411 766q-16 0 -27 11t-11 26q0 14 11 27q10 11 27 11t28 -11t11 -27q0 -15 -11 -26t-28 -11zM300 624l-132 -578h162l-10 -46h-376l10 46h164l132 578h-162l10 46h376
l-10 -46h-164z" />
    <glyph glyph-name="Eth" unicode="&#xd0;" horiz-adv-x="784" 
d="M282 670h208q148 0 228 -75q79 -75 79 -198q0 -78 -32 -148q-33 -72 -91 -127q-60 -57 -144 -89q-87 -33 -189 -33h-214l73 315h-86l10 46h87zM188 46h149q180 0 294 105q113 104 113 244q0 103 -66 166t-192 63h-164l-61 -263h181l-10 -46h-182z" />
    <glyph glyph-name="Ntilde" unicode="&#xd1;" horiz-adv-x="760" 
d="M490 827q-19 0 -33 -13q-15 -14 -20 -37h-38q11 44 37 66t60 22q32 0 59 -26q29 -27 51 -27q18 0 34 14q14 13 19 38h38q-11 -44 -37 -66q-28 -23 -60 -23q-28 0 -59 26t-51 26zM802 670l-154 -670h-44l-336 591l-136 -591h-50l154 670h45l334 -591l137 591h50z" />
    <glyph glyph-name="Ograve" unicode="&#xd2;" horiz-adv-x="811" 
d="M500 886l118 -138h-47l-134 138h63zM558 682q147 0 231 -101q84 -100 61 -246q-23 -149 -135 -248q-113 -99 -258 -99q-146 0 -230 101t-62 246q23 146 137 247q113 100 256 100zM460 36q124 0 222 86t117 213q19 126 -51 213t-192 87q-126 0 -223 -87q-99 -88 -118 -213
q-19 -124 52 -212q71 -87 193 -87z" />
    <glyph glyph-name="Oacute" unicode="&#xd3;" horiz-adv-x="811" 
d="M627 748h-47l118 138h63zM558 682q147 0 231 -101q84 -100 61 -246q-23 -149 -135 -248q-113 -99 -258 -99q-146 0 -230 101t-62 246q23 146 137 247q113 100 256 100zM460 36q124 0 222 86t117 213q19 126 -51 213t-192 87q-126 0 -223 -87q-99 -88 -118 -213
q-19 -124 52 -212q71 -87 193 -87z" />
    <glyph glyph-name="Ocircumflex" unicode="&#xd4;" horiz-adv-x="811" 
d="M516 741h-55l151 138h46l87 -138h-49l-65 105zM558 682q147 0 231 -101q84 -100 61 -246q-23 -149 -135 -248q-113 -99 -258 -99q-146 0 -230 101t-62 246q23 146 137 247q113 100 256 100zM799 335q19 126 -51 213t-192 87q-126 0 -223 -87q-99 -88 -118 -213
q-19 -124 52 -212q71 -87 193 -87q124 0 222 86t117 213z" />
    <glyph glyph-name="Otilde" unicode="&#xd5;" horiz-adv-x="811" 
d="M502 777h-38q11 44 37 66t60 22q32 0 59 -26q28 -27 51 -27q18 0 34 14q14 13 19 38h38q-11 -44 -37 -66q-28 -23 -60 -23q-28 0 -59 26t-51 26q-19 0 -33 -13q-15 -14 -20 -37zM558 682q147 0 231 -101q84 -100 61 -246q-23 -149 -135 -248q-113 -99 -258 -99
q-146 0 -230 101t-62 246q23 146 137 247q113 100 256 100zM460 36q124 0 222 86t117 213q19 126 -51 213t-192 87q-126 0 -223 -87q-99 -88 -118 -213q-19 -124 52 -212q71 -87 193 -87z" />
    <glyph glyph-name="Odieresis" unicode="&#xd6;" horiz-adv-x="811" 
d="M515 841q17 0 28 -11t11 -27q0 -15 -11 -26t-28 -11q-16 0 -27 11t-11 26q0 14 11 27q10 11 27 11zM704 841q17 0 28 -11t11 -27q0 -15 -11 -26t-28 -11q-16 0 -27 11t-11 26q0 14 11 27q10 11 27 11zM558 682q147 0 231 -101q84 -100 61 -246q-23 -149 -135 -248
q-113 -99 -258 -99q-146 0 -230 101t-62 246q23 146 137 247q113 100 256 100zM460 36q124 0 222 86t117 213q19 126 -51 213t-192 87q-126 0 -223 -87q-99 -88 -118 -213q-19 -124 52 -212q71 -87 193 -87z" />
    <glyph glyph-name="multiply" unicode="&#xd7;" horiz-adv-x="510" 
d="M358 302l112 -142l-35 -29l-112 143l-182 -145l-25 33l181 145l-112 144l35 28l112 -144l182 146l26 -34z" />
    <glyph glyph-name="Oslash" unicode="&#xd8;" horiz-adv-x="811" 
d="M830 630l-85 -69q68 -98 47 -226q-23 -149 -135 -248q-113 -99 -258 -99q-148 0 -232 103l-95 -77l-28 35l97 79q-52 89 -34 207q23 146 137 247q113 100 256 100q133 0 217 -87l86 70zM157 335q-15 -96 26 -173l494 401q-71 72 -179 72q-126 0 -223 -87
q-99 -88 -118 -213zM741 335q16 108 -37 193l-497 -404q70 -88 195 -88q124 0 222 86t117 213z" />
    <glyph glyph-name="Ugrave" unicode="&#xd9;" horiz-adv-x="725" 
d="M539 748l-134 138h63l118 -138h-47zM824 670l-88 -381q-32 -138 -120 -219t-214 -81q-122 0 -185 84t-32 216l88 381h50l-88 -381q-26 -115 22 -183q48 -69 149 -69q102 0 177 69t102 183l88 381h51z" />
    <glyph glyph-name="Uacute" unicode="&#xda;" horiz-adv-x="725" 
d="M595 748h-47l118 138h63zM824 670l-88 -381q-32 -138 -120 -219t-214 -81q-122 0 -185 84t-32 216l88 381h50l-88 -381q-26 -115 22 -183q48 -69 149 -69q102 0 177 69t102 183l88 381h51z" />
    <glyph glyph-name="Ucircumflex" unicode="&#xdb;" horiz-adv-x="725" 
d="M484 741h-55l151 138h46l87 -138h-49l-65 105zM824 670l-88 -381q-32 -138 -120 -219t-214 -81q-122 0 -185 84t-32 216l88 381h50l-88 -381q-26 -115 22 -183q48 -69 149 -69q102 0 177 69t102 183l88 381h51z" />
    <glyph glyph-name="Udieresis" unicode="&#xdc;" horiz-adv-x="725" 
d="M483 766q-16 0 -27 11t-11 26q0 14 11 27q10 11 27 11t28 -11t11 -27q0 -15 -11 -26t-28 -11zM672 766q-16 0 -27 11t-11 26q0 14 11 27q10 11 27 11t28 -11t11 -27q0 -15 -11 -26t-28 -11zM824 670l-88 -381q-32 -138 -120 -219t-214 -81q-122 0 -185 84t-32 216l88 381
h50l-88 -381q-26 -115 22 -183q48 -69 149 -69q102 0 177 69t102 183l88 381h51z" />
    <glyph glyph-name="Yacute" unicode="&#xdd;" horiz-adv-x="664" 
d="M589 748h-47l118 138h63zM475 245l-57 -245h-50l56 243l-184 427h53l164 -377l338 377h63z" />
    <glyph glyph-name="Thorn" unicode="&#xde;" horiz-adv-x="620" 
d="M256 542h198q93 0 145 -46q53 -47 53 -124q0 -102 -80 -173t-195 -71h-217l-29 -128h-51l155 670h50zM171 174h204q93 0 159 57t66 137q0 59 -38 94t-109 35h-208z" />
    <glyph glyph-name="germandbls" unicode="&#xdf;" horiz-adv-x="655" 
d="M526 383q131 -30 131 -159q0 -100 -72 -166q-73 -67 -191 -67q-96 0 -166 40l16 41q68 -38 153 -38q94 0 155 55q60 54 60 134q0 68 -46 102q-47 35 -127 35h-56l10 43h40q81 0 146 45t65 111q0 60 -41 97t-111 37q-88 0 -149 -55q-61 -56 -84 -153l-112 -485h-49
l111 485q25 115 102 184q75 68 185 68q88 0 143 -47q53 -46 53 -122q0 -62 -46 -114q-45 -51 -120 -71z" />
    <glyph glyph-name="agrave" unicode="&#xe0;" horiz-adv-x="551" 
d="M350 567l-134 138h63l118 -138h-47zM343 501q93 0 142 -51q49 -50 29 -140l-71 -310h-47l20 89q-81 -100 -210 -100q-75 0 -118 34q-44 35 -44 92q0 70 62 120q61 49 163 49h192l7 30q15 66 -21 105t-107 39q-63 0 -113 -31q-51 -31 -72 -83l-44 14q25 62 90 103
q64 40 142 40zM443 205l9 39h-191q-77 0 -122 -36q-46 -37 -46 -86q0 -43 35 -67q36 -25 91 -25q82 0 144 50t80 125z" />
    <glyph glyph-name="aacute" unicode="&#xe1;" horiz-adv-x="551" 
d="M406 567h-47l118 138h63zM343 501q93 0 142 -51q49 -50 29 -140l-71 -310h-47l20 89q-81 -100 -210 -100q-75 0 -118 34q-44 35 -44 92q0 70 62 120q61 49 163 49h192l7 30q15 66 -21 105t-107 39q-63 0 -113 -31q-51 -31 -72 -83l-44 14q25 62 90 103q64 40 142 40z
M443 205l9 39h-191q-77 0 -122 -36q-46 -37 -46 -86q0 -43 35 -67q36 -25 91 -25q82 0 144 50t80 125z" />
    <glyph glyph-name="acircumflex" unicode="&#xe2;" horiz-adv-x="551" 
d="M295 560h-55l151 138h46l87 -138h-49l-65 105zM343 501q93 0 142 -51q49 -50 29 -140l-71 -310h-47l20 89q-81 -100 -210 -100q-75 0 -118 34q-44 35 -44 92q0 70 62 120q61 49 163 49h192l7 30q15 66 -21 105t-107 39q-63 0 -113 -31q-51 -31 -72 -83l-44 14
q25 62 90 103q64 40 142 40zM443 205l9 39h-191q-77 0 -122 -36q-46 -37 -46 -86q0 -43 35 -67q36 -25 91 -25q82 0 144 50t80 125z" />
    <glyph glyph-name="atilde" unicode="&#xe3;" horiz-adv-x="551" 
d="M334 646q-19 0 -33 -13q-15 -14 -20 -37h-38q11 44 37 66t60 22q32 0 59 -26q29 -27 51 -27q18 0 34 14q14 13 19 38h38q-11 -44 -37 -66q-28 -23 -60 -23q-28 0 -59 26t-51 26zM343 501q93 0 142 -51q49 -50 29 -140l-71 -310h-47l20 89q-81 -100 -210 -100
q-75 0 -118 34q-44 35 -44 92q0 70 62 120q61 49 163 49h192l7 30q15 66 -21 105t-107 39q-63 0 -113 -31q-51 -31 -72 -83l-44 14q25 62 90 103q64 40 142 40zM443 205l9 39h-191q-77 0 -122 -36q-46 -37 -46 -86q0 -43 35 -67q36 -25 91 -25q82 0 144 50t80 125z" />
    <glyph glyph-name="adieresis" unicode="&#xe4;" horiz-adv-x="551" 
d="M294 585q-16 0 -27 11t-11 26q0 14 11 27q10 11 27 11t28 -11t11 -27q0 -15 -11 -26t-28 -11zM483 585q-16 0 -27 11t-11 26q0 14 11 27q10 11 27 11t28 -11t11 -27q0 -15 -11 -26t-28 -11zM343 501q93 0 142 -51q49 -50 29 -140l-71 -310h-47l20 89q-81 -100 -210 -100
q-75 0 -118 34q-44 35 -44 92q0 70 62 120q61 49 163 49h192l7 30q15 66 -21 105t-107 39q-63 0 -113 -31q-51 -31 -72 -83l-44 14q25 62 90 103q64 40 142 40zM443 205l9 39h-191q-77 0 -122 -36q-46 -37 -46 -86q0 -43 35 -67q36 -25 91 -25q82 0 144 50t80 125z" />
    <glyph glyph-name="aring" unicode="&#xe5;" horiz-adv-x="551" 
d="M385 552q-38 0 -63 25t-25 61q0 41 31 71q30 29 73 29q38 0 63 -25t25 -62q0 -39 -31 -69q-32 -30 -73 -30zM398 706q-27 0 -47 -20t-20 -46q0 -23 16 -39q17 -17 41 -17q28 0 48 20t20 46q0 24 -16 40t-42 16zM343 501q93 0 142 -51q49 -50 29 -140l-71 -310h-47l20 89
q-81 -100 -210 -100q-75 0 -118 34q-44 35 -44 92q0 70 62 120q61 49 163 49h192l7 30q15 66 -21 105t-107 39q-63 0 -113 -31q-51 -31 -72 -83l-44 14q25 62 90 103q64 40 142 40zM443 205l9 39h-191q-77 0 -122 -36q-46 -37 -46 -86q0 -43 35 -67q36 -25 91 -25
q82 0 144 50t80 125z" />
    <glyph glyph-name="ae" unicode="&#xe6;" horiz-adv-x="939" 
d="M731 501q98 0 151 -71q52 -70 37 -181l-3 -18h-418q-11 -92 34 -145q45 -54 127 -54q52 0 109 34q54 32 83 92l42 -11q-28 -68 -99 -113q-70 -45 -143 -45q-153 0 -189 142q-34 -64 -99 -103t-141 -39q-82 0 -123 34q-43 35 -43 91q0 71 56 113t149 42h196l9 52
q11 62 -23 100q-33 37 -101 37q-65 0 -114 -31q-50 -32 -66 -83l-42 11q18 66 81 106q62 40 146 40q66 0 110 -32q43 -31 52 -86q82 118 222 118zM503 269h369q6 86 -32 138q-38 51 -112 51q-82 0 -143 -51q-63 -52 -82 -138zM452 231h-195q-71 0 -112 -29q-43 -31 -43 -82
q0 -41 33 -65q34 -25 94 -25q79 0 144 54q63 53 77 138z" />
    <glyph glyph-name="ccedilla" unicode="&#xe7;" horiz-adv-x="576" 
d="M310 34q60 0 116 34q55 34 80 88l45 -10q-28 -66 -93 -110q-63 -42 -139 -47l-121 -164h-62l140 166q-93 10 -148 81q-54 70 -38 173q18 112 103 184t188 72q80 0 137 -42q55 -41 66 -112l-49 -13q-8 56 -52 89q-44 32 -107 32q-84 0 -154 -59q-69 -58 -84 -151
q-15 -92 37 -152q51 -59 135 -59z" />
    <glyph glyph-name="egrave" unicode="&#xe8;" horiz-adv-x="589" 
d="M382 567l-134 138h63l118 -138h-47zM589 240h-447q-2 -24 -2 -27q0 -80 49 -131q48 -50 132 -50q60 0 115 32q51 30 87 95l42 -12q-34 -74 -102 -116q-67 -42 -146 -42q-97 0 -159 60t-62 162q0 124 88 207t200 83q108 0 165 -73q56 -73 40 -188zM382 459q-88 0 -150 -53
t-83 -128h398q4 81 -40 132q-43 49 -125 49z" />
    <glyph glyph-name="eacute" unicode="&#xe9;" horiz-adv-x="589" 
d="M438 567h-47l118 138h63zM589 240h-447q-2 -24 -2 -27q0 -80 49 -131q48 -50 132 -50q60 0 115 32q51 30 87 95l42 -12q-34 -74 -102 -116q-67 -42 -146 -42q-97 0 -159 60t-62 162q0 124 88 207t200 83q108 0 165 -73q56 -73 40 -188zM382 459q-88 0 -150 -53t-83 -128
h398q4 81 -40 132q-43 49 -125 49z" />
    <glyph glyph-name="ecircumflex" unicode="&#xea;" horiz-adv-x="589" 
d="M327 560h-55l151 138h46l87 -138h-49l-65 105zM589 240h-447q-2 -24 -2 -27q0 -80 49 -131q48 -50 132 -50q60 0 115 32q51 30 87 95l42 -12q-34 -74 -102 -116q-67 -42 -146 -42q-97 0 -159 60t-62 162q0 124 88 207t200 83q108 0 165 -73q56 -73 40 -188zM382 459
q-88 0 -150 -53t-83 -128h398q4 81 -40 132q-43 49 -125 49z" />
    <glyph glyph-name="edieresis" unicode="&#xeb;" horiz-adv-x="589" 
d="M326 585q-16 0 -27 11t-11 26q0 14 11 27q10 11 27 11t28 -11t11 -27q0 -15 -11 -26t-28 -11zM515 585q-16 0 -27 11t-11 26q0 14 11 27q10 11 27 11t28 -11t11 -27q0 -15 -11 -26t-28 -11zM589 240h-447q-2 -24 -2 -27q0 -80 49 -131q48 -50 132 -50q60 0 115 32
q51 30 87 95l42 -12q-34 -74 -102 -116q-67 -42 -146 -42q-97 0 -159 60t-62 162q0 124 88 207t200 83q108 0 165 -73q56 -73 40 -188zM382 459q-88 0 -150 -53t-83 -128h398q4 81 -40 132q-43 49 -125 49z" />
    <glyph glyph-name="igrave" unicode="&#xec;" horiz-adv-x="270" 
d="M163 705l118 -138h-47l-134 138h63zM153 0h-49l113 489h49z" />
    <glyph glyph-name="iacute" unicode="&#xed;" horiz-adv-x="270" 
d="M294 567h-47l118 138h63zM157 0h-49l113 489h49z" />
    <glyph glyph-name="icircumflex" unicode="&#xee;" horiz-adv-x="270" 
d="M363 560l-65 105l-115 -105h-55l151 138h46l87 -138h-49zM221 489h49l-113 -489h-49z" />
    <glyph glyph-name="idieresis" unicode="&#xef;" horiz-adv-x="270" 
d="M182 660q17 0 28 -11t11 -27q0 -15 -11 -26t-28 -11q-16 0 -27 11t-11 26q0 14 11 27q10 11 27 11zM371 660q17 0 28 -11t11 -27q0 -15 -11 -26t-28 -11q-16 0 -27 11t-11 26q0 14 11 27q10 11 27 11zM157 0h-49l113 489h49z" />
    <glyph glyph-name="eth" unicode="&#xf0;" horiz-adv-x="611" 
d="M565 664l-96 -42q68 -70 107 -156q38 -85 38 -173q0 -135 -88 -219q-90 -85 -203 -85q-101 0 -164 63t-63 161q0 83 45 151q46 69 111 103t134 34q96 0 150 -64q-41 97 -112 165l-143 -63l-10 36l122 54q-60 48 -144 81l1 10h83q56 -27 106 -71l114 51zM325 34
q107 0 173 78t66 168q0 77 -50 127t-126 50q-94 0 -169 -69q-76 -70 -76 -172q0 -82 51 -132q52 -50 131 -50z" />
    <glyph glyph-name="ntilde" unicode="&#xf1;" horiz-adv-x="635" 
d="M410 646q-19 0 -33 -13q-15 -14 -20 -37h-38q11 44 37 66t60 22q32 0 59 -26q29 -27 51 -27q18 0 34 14q14 13 19 38h38q-11 -44 -37 -66q-28 -23 -60 -23q-28 0 -59 26t-51 26zM442 501q96 0 139 -60q44 -61 23 -157l-66 -284h-49l66 285q18 79 -16 125q-35 47 -109 47
q-88 0 -148 -56q-62 -57 -84 -156l-57 -245h-49l113 489h49l-24 -102q80 114 212 114z" />
    <glyph glyph-name="ograve" unicode="&#xf2;" horiz-adv-x="612" 
d="M382 567l-134 138h63l118 -138h-47zM385 500q111 0 175 -73t48 -184q-17 -110 -99 -182q-83 -72 -192 -72q-111 0 -175 72q-65 72 -48 182q16 111 100 184q83 73 191 73zM319 33q89 0 159 59q68 58 82 151q13 91 -38 153q-51 61 -139 61q-90 0 -158 -61q-70 -62 -83 -153
q-14 -92 38 -151q51 -59 139 -59z" />
    <glyph glyph-name="oacute" unicode="&#xf3;" horiz-adv-x="612" 
d="M438 567h-47l118 138h63zM385 500q111 0 175 -73t48 -184q-17 -110 -99 -182q-83 -72 -192 -72q-111 0 -175 72q-65 72 -48 182q16 111 100 184q83 73 191 73zM319 33q89 0 159 59q68 58 82 151q13 91 -38 153q-51 61 -139 61q-90 0 -158 -61q-70 -62 -83 -153
q-14 -92 38 -151q51 -59 139 -59z" />
    <glyph glyph-name="ocircumflex" unicode="&#xf4;" horiz-adv-x="612" 
d="M327 560h-55l151 138h46l87 -138h-49l-65 105zM385 500q111 0 175 -73t48 -184q-17 -110 -99 -182q-83 -72 -192 -72q-111 0 -175 72q-65 72 -48 182q16 111 100 184q83 73 191 73zM319 33q89 0 159 59q68 58 82 151q13 91 -38 153q-51 61 -139 61q-90 0 -158 -61
q-70 -62 -83 -153q-14 -92 38 -151q51 -59 139 -59z" />
    <glyph glyph-name="otilde" unicode="&#xf5;" horiz-adv-x="612" 
d="M366 646q-19 0 -33 -13q-15 -14 -20 -37h-38q11 44 37 66t60 22q32 0 59 -26q29 -27 51 -27q18 0 34 14q14 13 19 38h38q-11 -44 -37 -66q-28 -23 -60 -23q-28 0 -59 26t-51 26zM385 500q111 0 175 -73t48 -184q-17 -110 -99 -182q-83 -72 -192 -72q-111 0 -175 72
q-65 72 -48 182q16 111 100 184q83 73 191 73zM319 33q89 0 159 59q68 58 82 151q13 91 -38 153q-51 61 -139 61q-90 0 -158 -61q-70 -62 -83 -153q-14 -92 38 -151q51 -59 139 -59z" />
    <glyph glyph-name="odieresis" unicode="&#xf6;" horiz-adv-x="612" 
d="M326 585q-16 0 -27 11t-11 26q0 14 11 27q10 11 27 11t28 -11t11 -27q0 -15 -11 -26t-28 -11zM515 585q-16 0 -27 11t-11 26q0 14 11 27q10 11 27 11t28 -11t11 -27q0 -15 -11 -26t-28 -11zM385 500q111 0 175 -73t48 -184q-17 -110 -99 -182q-83 -72 -192 -72
q-111 0 -175 72q-65 72 -48 182q16 111 100 184q83 73 191 73zM319 33q89 0 159 59q68 58 82 151q13 91 -38 153q-51 61 -139 61q-90 0 -158 -61q-70 -62 -83 -153q-14 -92 38 -151q51 -59 139 -59z" />
    <glyph glyph-name="divide" unicode="&#xf7;" horiz-adv-x="580" 
d="M423 524q15 0 28 -11q11 -10 11 -26q0 -15 -11 -26t-28 -11q-16 0 -27 11t-11 26t11 26t27 11zM598 283h-430l11 44h430zM339 161q17 0 28 -11t11 -27q0 -15 -11 -26t-28 -11q-16 0 -27 11t-11 26q0 14 11 27q10 11 27 11z" />
    <glyph glyph-name="oslash" unicode="&#xf8;" horiz-adv-x="608" 
d="M609 471l-82 -66q45 -70 32 -162q-17 -110 -99 -182t-192 -72q-106 0 -170 67l-82 -66l-22 27l82 66q-44 69 -31 160q16 111 100 184q83 73 191 73q107 0 170 -68l82 66zM93 243q-10 -71 22 -128l354 286q-51 56 -135 56q-90 0 -158 -61q-70 -62 -83 -153zM511 243
q10 73 -23 131l-353 -287q51 -54 135 -54q89 0 159 59q68 58 82 151z" />
    <glyph glyph-name="ugrave" unicode="&#xf9;" horiz-adv-x="635" 
d="M418 567l-134 138h63l118 -138h-47zM659 489l-113 -489h-49l24 103q-79 -115 -212 -115q-96 0 -139 61q-44 62 -22 157l65 283h49l-66 -285q-16 -76 18 -124q35 -48 107 -48q86 0 146 54t84 148l60 255h48z" />
    <glyph glyph-name="uacute" unicode="&#xfa;" horiz-adv-x="635" 
d="M474 567h-47l118 138h63zM659 489l-113 -489h-49l24 103q-79 -115 -212 -115q-96 0 -139 61q-44 62 -22 157l65 283h49l-66 -285q-16 -76 18 -124q35 -48 107 -48q86 0 146 54t84 148l60 255h48z" />
    <glyph glyph-name="ucircumflex" unicode="&#xfb;" horiz-adv-x="635" 
d="M363 560h-55l151 138h46l87 -138h-49l-65 105zM659 489l-113 -489h-49l24 103q-79 -115 -212 -115q-96 0 -139 61q-44 62 -22 157l65 283h49l-66 -285q-16 -76 18 -124q35 -48 107 -48q86 0 146 54t84 148l60 255h48z" />
    <glyph glyph-name="udieresis" unicode="&#xfc;" horiz-adv-x="635" 
d="M362 585q-16 0 -27 11t-11 26q0 14 11 27q10 11 27 11t28 -11t11 -27q0 -15 -11 -26t-28 -11zM551 585q-16 0 -27 11t-11 26q0 14 11 27q10 11 27 11t28 -11t11 -27q0 -15 -11 -26t-28 -11zM659 489l-113 -489h-49l24 103q-79 -115 -212 -115q-96 0 -139 61
q-44 62 -22 157l65 283h49l-66 -285q-16 -76 18 -124q35 -48 107 -48q86 0 146 54t84 148l60 255h48z" />
    <glyph glyph-name="yacute" unicode="&#xfd;" horiz-adv-x="550" 
d="M407 567h-47l118 138h63zM608 489l-506 -727h-58l171 246l-114 481h53l100 -426l297 426h57z" />
    <glyph glyph-name="thorn" unicode="&#xfe;" horiz-adv-x="654" 
d="M386 501q104 0 164 -72t42 -186q-18 -113 -99 -184q-80 -70 -187 -70q-76 0 -129 38q-54 39 -70 104l-84 -361h-49l220 950h49l-76 -326q40 50 98 79q56 28 121 28zM305 33q89 0 156 58q68 59 83 152q15 95 -34 155q-49 59 -136 59q-81 0 -153 -60t-87 -154
q-13 -93 38 -152q51 -58 133 -58z" />
    <glyph glyph-name="ydieresis" unicode="&#xff;" horiz-adv-x="550" 
d="M295 585q-16 0 -27 11t-11 26q0 14 11 27q10 11 27 11t28 -11t11 -27q0 -15 -11 -26t-28 -11zM484 585q-16 0 -27 11t-11 26q0 14 11 27q10 11 27 11t28 -11t11 -27q0 -15 -11 -26t-28 -11zM608 489l-506 -727h-58l171 246l-114 481h53l100 -426l297 426h57z" />
    <glyph glyph-name="Amacron" unicode="&#x100;" horiz-adv-x="688" 
d="M562 770h-267l9 40h267zM577 0h-50l-40 183h-382l-125 -183h-58l460 670h45zM476 229l-83 377l-257 -377h340z" />
    <glyph glyph-name="amacron" unicode="&#x101;" horiz-adv-x="551" 
d="M515 589h-267l9 40h267zM343 501q93 0 142 -51q49 -50 29 -140l-71 -310h-47l20 89q-81 -100 -210 -100q-75 0 -118 34q-44 35 -44 92q0 70 62 120q61 49 163 49h192l7 30q15 66 -21 105t-107 39q-63 0 -113 -31q-51 -31 -72 -83l-44 14q25 62 90 103q64 40 142 40z
M443 205l9 39h-191q-77 0 -122 -36q-46 -37 -46 -86q0 -43 35 -67q36 -25 91 -25q82 0 144 50t80 125z" />
    <glyph glyph-name="Abreve" unicode="&#x102;" horiz-adv-x="688" 
d="M427 739q-59 0 -91 35q-31 34 -20 91h39q-7 -40 15 -65t61 -25t70 25t38 65h45q-10 -56 -54 -91t-103 -35zM427 670l150 -670h-50l-40 183h-382l-125 -183h-58l460 670h45zM476 229l-83 377l-257 -377h340z" />
    <glyph glyph-name="abreve" unicode="&#x103;" horiz-adv-x="551" 
d="M380 558q-59 0 -91 35q-31 34 -20 91h39q-7 -40 15 -65t61 -25t70 25t38 65h45q-10 -56 -54 -91t-103 -35zM343 501q93 0 142 -51q49 -50 29 -140l-71 -310h-47l20 89q-81 -100 -210 -100q-75 0 -118 34q-44 35 -44 92q0 70 62 120q61 49 163 49h192l7 30q15 66 -21 105
t-107 39q-63 0 -113 -31q-51 -31 -72 -83l-44 14q25 62 90 103q64 40 142 40zM443 205l9 39h-191q-77 0 -122 -36q-46 -37 -46 -86q0 -43 35 -67q36 -25 91 -25q82 0 144 50t80 125z" />
    <glyph glyph-name="Aogonek" unicode="&#x104;" horiz-adv-x="688" 
d="M477 -116q0 -21 13 -31q14 -11 35 -11q13 0 46 11l-1 -35q-37 -14 -59 -14q-33 0 -55 20q-21 19 -21 52q0 28 22 56q20 25 76 68h-6l-40 183h-382l-125 -183h-58l460 670h45l150 -670q-8 -7 -19 -16l-18 -15q-1 -1 -6.5 -5.5t-9.5 -7.5q-7 -5 -14 -12t-11 -12
q-2 -2 -5.5 -6t-4.5 -6q-2 -3 -6 -11q-3 -7 -5 -13q-1 -4 -1 -12zM476 229l-83 377l-257 -377h340z" />
    <glyph glyph-name="aogonek" unicode="&#x105;" horiz-adv-x="551" 
d="M343 501q93 0 142 -51q49 -50 29 -140l-71 -310q-8 -7 -19 -16l-18 -15q-1 -1 -6.5 -5.5t-9.5 -7.5q-7 -5 -14 -12t-11 -12q-2 -2 -5.5 -6t-4.5 -6q-2 -3 -6 -11q-3 -7 -5 -13q-1 -4 -1 -12q0 -21 13 -31q14 -11 35 -11q13 0 46 11l-1 -35q-37 -14 -59 -14q-33 0 -55 20
q-21 20 -21 52q0 28 22 56q20 25 76 68h-3l20 89q-81 -100 -210 -100q-75 0 -118 34q-44 35 -44 92q0 70 62 120q61 49 163 49h192l7 30q15 66 -21 105t-107 39q-63 0 -113 -31q-51 -31 -72 -83l-44 14q25 62 90 103q64 40 142 40zM443 205l9 39h-191q-77 0 -122 -36
q-46 -37 -46 -86q0 -43 35 -67q36 -25 91 -25q82 0 144 50t80 125z" />
    <glyph glyph-name="Cacute" unicode="&#x106;" horiz-adv-x="795" 
d="M617 748h-47l118 138h63zM568 681q110 0 187 -54t96 -144l-51 -13q-18 75 -80 120q-61 45 -154 45q-141 0 -245 -100q-105 -101 -105 -242q0 -110 70 -185q69 -73 185 -73q92 0 168 46q78 47 116 118l46 -16q-46 -86 -134 -140q-89 -54 -199 -54q-136 0 -220 85
q-84 86 -84 216q0 160 120 276q119 115 284 115z" />
    <glyph glyph-name="cacute" unicode="&#x107;" horiz-adv-x="576" 
d="M431 567h-47l118 138h63zM310 34q60 0 116 34q55 34 80 88l45 -10q-31 -70 -98 -113q-68 -44 -146 -44q-107 0 -171 72q-64 71 -46 184q18 112 103 184t188 72q80 0 137 -42q55 -41 66 -112l-49 -13q-8 56 -52 89q-44 32 -107 32q-84 0 -154 -59q-69 -58 -84 -151
q-15 -92 37 -152q51 -59 135 -59z" />
    <glyph glyph-name="Cdot" unicode="&#x10a;" horiz-adv-x="795" 
d="M598 846q15 0 28 -11q11 -10 11 -26q0 -15 -11 -26t-28 -11q-16 0 -27 11t-11 26t11 26t27 11zM568 681q110 0 187 -54t96 -144l-51 -13q-18 75 -80 120q-61 45 -154 45q-141 0 -245 -100q-105 -101 -105 -242q0 -110 70 -185q69 -73 185 -73q92 0 168 46q78 47 116 118
l46 -16q-46 -86 -134 -140q-89 -54 -199 -54q-136 0 -220 85q-84 86 -84 216q0 160 120 276q119 115 284 115z" />
    <glyph glyph-name="cdot" unicode="&#x10b;" horiz-adv-x="576" 
d="M412 591q-16 0 -27 11t-11 26t11 26t27 11q15 0 28 -11q11 -10 11 -26q0 -15 -11 -26t-28 -11zM310 34q60 0 116 34q55 34 80 88l45 -10q-31 -70 -98 -113q-68 -44 -146 -44q-107 0 -171 72q-64 71 -46 184q18 112 103 184t188 72q80 0 137 -42q55 -41 66 -112l-49 -13
q-8 56 -52 89q-44 32 -107 32q-84 0 -154 -59q-69 -58 -84 -151q-15 -92 37 -152q51 -59 135 -59z" />
    <glyph glyph-name="Ccaron" unicode="&#x10c;" horiz-adv-x="795" 
d="M563 742l-86 139h48l65 -106l115 106h55l-151 -139h-46zM471 35q92 0 168 46q78 47 116 118l46 -16q-46 -86 -134 -140q-89 -54 -199 -54q-136 0 -220 85q-84 86 -84 216q0 160 120 276q119 115 284 115q110 0 187 -54t96 -144l-51 -13q-18 75 -80 120q-61 45 -154 45
q-141 0 -245 -100q-105 -101 -105 -242q0 -110 70 -185q69 -73 185 -73z" />
    <glyph glyph-name="ccaron" unicode="&#x10d;" horiz-adv-x="576" 
d="M377 561l-86 139h48l65 -106l115 106h55l-151 -139h-46zM310 34q60 0 116 34q55 34 80 88l45 -10q-31 -70 -98 -113q-68 -44 -146 -44q-107 0 -171 72q-64 71 -46 184q18 112 103 184t188 72q80 0 137 -42q55 -41 66 -112l-49 -13q-8 56 -52 89q-44 32 -107 32
q-84 0 -154 -59q-69 -58 -84 -151q-15 -92 37 -152q51 -59 135 -59z" />
    <glyph glyph-name="Dcaron" unicode="&#x10e;" horiz-adv-x="745" 
d="M480 742l-86 139h48l65 -106l115 106h55l-151 -139h-46zM235 670h208q149 0 228 -75t79 -198q0 -78 -32 -148q-33 -71 -90 -127t-145 -89q-87 -33 -189 -33h-214zM142 46h148q180 0 294 105t114 244q0 103 -66 166t-193 63h-163z" />
    <glyph glyph-name="dcaron" unicode="&#x10f;" horiz-adv-x="652" 
d="M670 770h49l-178 -770h-49l22 96q-40 -51 -97 -79q-56 -28 -122 -28q-103 0 -163 72q-61 73 -43 185q18 113 100 185q80 70 186 70q77 0 129 -37q53 -38 71 -105zM841 770l-47 -159h-40l37 159h50zM307 33q82 0 154 60q71 59 86 153q14 95 -37 153t-134 58
q-87 0 -155 -58q-69 -59 -84 -153q-15 -95 35 -154t135 -59z" />
    <glyph glyph-name="Dcroat" unicode="&#x110;" horiz-adv-x="784" 
d="M282 670h208q148 0 228 -75q79 -75 79 -198q0 -78 -32 -148q-33 -72 -91 -127q-60 -57 -144 -89q-87 -33 -189 -33h-214l73 315h-86l10 46h87zM188 46h149q180 0 294 105q113 104 113 244q0 103 -66 166t-192 63h-164l-61 -263h181l-10 -46h-182z" />
    <glyph glyph-name="dcroat" unicode="&#x111;" horiz-adv-x="686" 
d="M765 587h-85l-136 -587h-48l23 97q-85 -108 -220 -108q-103 0 -163 72q-61 73 -43 185q18 113 100 185q80 70 186 70q75 0 130 -38q53 -37 70 -105l53 229h-184l9 40h184l33 143h48l-33 -143h85zM311 33q82 0 154 60q71 59 86 153q14 95 -37 153t-134 58q-89 0 -156 -58
q-68 -59 -83 -153q-15 -96 34 -154q50 -59 136 -59z" />
    <glyph glyph-name="Emacron" unicode="&#x112;" horiz-adv-x="639" 
d="M628 770h-267l9 40h267zM274 624l-60 -265h398l-10 -45h-399l-61 -268h429l-11 -46h-480l155 670h479l-11 -46h-429z" />
    <glyph glyph-name="emacron" unicode="&#x113;" horiz-adv-x="589" 
d="M547 589h-267l9 40h267zM589 240h-447q-2 -24 -2 -27q0 -80 49 -131q48 -50 132 -50q60 0 115 32q51 30 87 95l42 -12q-34 -74 -102 -116q-67 -42 -146 -42q-97 0 -159 60t-62 162q0 124 88 207t200 83q108 0 165 -73q56 -73 40 -188zM382 459q-88 0 -150 -53t-83 -128
h398q4 81 -40 132q-43 49 -125 49z" />
    <glyph glyph-name="Edot" unicode="&#x116;" horiz-adv-x="639" 
d="M500 772q-16 0 -27 11t-11 26t11 26t27 11q15 0 28 -11q11 -10 11 -26q0 -15 -11 -26t-28 -11zM274 624l-60 -265h398l-10 -45h-399l-61 -268h429l-11 -46h-480l155 670h479l-11 -46h-429z" />
    <glyph glyph-name="edot" unicode="&#x117;" horiz-adv-x="589" 
d="M419 591q-16 0 -27 11t-11 26t11 26t27 11q15 0 28 -11q11 -10 11 -26q0 -15 -11 -26t-28 -11zM589 240h-447q-2 -24 -2 -27q0 -80 49 -131q48 -50 132 -50q60 0 115 32q51 30 87 95l42 -12q-34 -74 -102 -116q-67 -42 -146 -42q-97 0 -159 60t-62 162q0 124 88 207
t200 83q108 0 165 -73q56 -73 40 -188zM382 459q-88 0 -150 -53t-83 -128h398q4 81 -40 132q-43 49 -125 49z" />
    <glyph glyph-name="Eogonek" unicode="&#x118;" horiz-adv-x="639" 
d="M274 624l-60 -265h398l-10 -45h-399l-61 -268h429l-11 -46h-41q-8 -7 -19 -16l-18 -15q-1 -1 -6.5 -5.5t-9.5 -7.5q-7 -5 -14 -12t-11 -12q-2 -2 -5.5 -6t-4.5 -6q-2 -3 -6 -11q-3 -7 -5 -13q-1 -4 -1 -12q0 -21 13 -31q14 -11 35 -11q13 0 46 11l-1 -35q-37 -14 -59 -14
q-33 0 -55 20q-21 20 -21 52q0 28 22 56q20 25 76 68h-395l155 670h479l-11 -46h-429z" />
    <glyph glyph-name="eogonek" unicode="&#x119;" horiz-adv-x="590" 
d="M589 240h-447q-2 -24 -2 -27q0 -81 48 -131t133 -50q60 0 115 32q51 30 87 95l42 -12q-25 -53 -77 -99q-97 -85 -119 -109q-26 -29 -26 -55q0 -21 13 -31q14 -11 35 -11q13 0 46 11v-35q-39 -14 -59 -14q-33 0 -55 20t-22 52q0 26 20 54q19 26 76 71q-39 -12 -80 -12
q-97 0 -159 60t-62 162q0 124 88 207t200 83q109 0 167 -74t38 -187zM382 459q-88 0 -150 -53t-83 -128h399q5 83 -40 132t-126 49z" />
    <glyph glyph-name="Ecaron" unicode="&#x11a;" horiz-adv-x="639" 
d="M465 742l-86 139h48l65 -106l115 106h55l-151 -139h-46zM274 624l-60 -265h398l-10 -45h-399l-61 -268h429l-11 -46h-480l155 670h479l-11 -46h-429z" />
    <glyph glyph-name="ecaron" unicode="&#x11b;" horiz-adv-x="589" 
d="M384 561l-86 139h48l65 -106l115 106h55l-151 -139h-46zM589 240h-447q-2 -24 -2 -27q0 -80 49 -131q48 -50 132 -50q60 0 115 32q51 30 87 95l42 -12q-34 -74 -102 -116q-67 -42 -146 -42q-97 0 -159 60t-62 162q0 124 88 207t200 83q108 0 165 -73q56 -73 40 -188z
M382 459q-88 0 -150 -53t-83 -128h398q4 81 -40 132q-43 49 -125 49z" />
    <glyph glyph-name="Gbreve" unicode="&#x11e;" horiz-adv-x="806" 
d="M589 739q-59 0 -91 35q-31 34 -20 91h39q-7 -40 15 -65t61 -25t70 25t38 65h45q-10 -56 -54 -91t-103 -35zM479 357h370q0 -1 -0.5 -4t-1 -8t-0.5 -10q-26 -151 -132 -248q-107 -98 -255 -98q-132 0 -215 86t-83 216q0 160 121 275t283 115q108 0 185 -51q75 -50 98 -138
l-50 -13q-21 72 -83 114q-60 41 -152 41q-141 0 -245 -100q-105 -100 -105 -240q0 -111 70 -184q71 -74 180 -74q119 0 210 79q90 78 115 196h-320z" />
    <glyph glyph-name="gbreve" unicode="&#x11f;" horiz-adv-x="653" 
d="M385 558q-59 0 -91 35q-31 34 -20 91h39q-7 -40 15 -65t61 -25t70 25t38 65h45q-10 -56 -54 -91t-103 -35zM598 489l-120 -514q-22 -101 -99 -163t-180 -62q-175 0 -231 146l47 20q44 -119 186 -119q83 0 148 50q63 48 83 133l27 117q-40 -51 -97 -79q-58 -29 -122 -29
q-103 0 -163 72q-61 73 -43 185q18 113 100 185q80 70 186 70q76 0 129 -38t70 -106l31 132h48zM251 33q83 0 155 60q71 59 86 153q14 95 -37 153t-135 58q-87 0 -155 -58q-69 -59 -84 -153q-15 -95 35 -154t135 -59z" />
    <glyph glyph-name="Gdot" unicode="&#x120;" horiz-adv-x="806" 
d="M596 846q15 0 28 -11q11 -10 11 -26q0 -15 -11 -26t-28 -11q-16 0 -27 11t-11 26t11 26t27 11zM479 357h370q0 -1 -0.5 -4t-1 -8t-0.5 -10q-26 -151 -132 -248q-107 -98 -255 -98q-132 0 -215 86t-83 216q0 160 121 275t283 115q108 0 185 -51q75 -50 98 -138l-50 -13
q-21 72 -83 114q-60 41 -152 41q-141 0 -245 -100q-105 -100 -105 -240q0 -111 70 -184q71 -74 180 -74q119 0 210 79q90 78 115 196h-320z" />
    <glyph glyph-name="gdot" unicode="&#x121;" horiz-adv-x="653" 
d="M392 591q-16 0 -27 11t-11 26t11 26t27 11q15 0 28 -11q11 -10 11 -26q0 -15 -11 -26t-28 -11zM598 489l-120 -514q-22 -101 -99 -163t-180 -62q-175 0 -231 146l47 20q44 -119 186 -119q83 0 148 50q63 48 83 133l27 117q-40 -51 -97 -79q-58 -29 -122 -29
q-103 0 -163 72q-61 73 -43 185q18 113 100 185q80 70 186 70q76 0 129 -38t70 -106l31 132h48zM251 33q83 0 155 60q71 59 86 153q14 95 -37 153t-135 58q-87 0 -155 -58q-69 -59 -84 -153q-15 -95 35 -154t135 -59z" />
    <glyph glyph-name="Gcedilla" unicode="&#x122;" horiz-adv-x="806" 
d="M479 357h370q0 -1 -0.5 -4t-1 -8t-0.5 -10q-26 -151 -132 -248q-107 -98 -255 -98q-132 0 -215 86t-83 216q0 160 121 275t283 115q108 0 185 -51q75 -50 98 -138l-50 -13q-21 72 -83 114q-60 41 -152 41q-141 0 -245 -100q-105 -100 -105 -240q0 -111 70 -184
q71 -74 180 -74q119 0 210 79q90 78 115 196h-320zM333 -184l73 139h57l-91 -139h-39z" />
    <glyph glyph-name="gcedilla" unicode="&#x123;" horiz-adv-x="653" 
d="M388 572h-57l91 138h39zM594 489l-119 -514q-22 -101 -99 -163t-181 -62q-175 0 -231 146l48 20q44 -119 185 -119q83 0 148 50q63 48 83 133l27 116q-40 -50 -98 -79q-56 -28 -121 -28q-103 0 -163 72q-61 73 -43 185q18 113 100 185q80 70 187 70q76 0 129 -38t70 -106
l31 132h47zM248 33q82 0 154 60q71 59 86 153t-36 153q-51 58 -135 58q-87 0 -155 -58q-69 -59 -84 -153q-15 -95 35 -154t135 -59z" />
    <glyph glyph-name="Hbar" unicode="&#x126;" horiz-adv-x="778" 
d="M850 476h-73l-110 -476h-51l71 305h-442l-70 -305h-51l110 476h-74l11 43h73l35 151h50l-35 -151h442l35 151h51l-35 -151h73zM726 476h-441l-29 -125h442z" />
    <glyph glyph-name="hbar" unicode="&#x127;" horiz-adv-x="666" 
d="M505 501q95 0 139 -60q44 -61 22 -157l-66 -284h-48l65 285q18 79 -16 125q-35 47 -108 47q-89 0 -149 -56q-62 -57 -84 -156l-57 -245h-49l136 587h-89l8 37h90l34 146h49l-34 -146h178l-8 -37h-179l-46 -200q80 114 212 114z" />
    <glyph glyph-name="Imacron" unicode="&#x12a;" horiz-adv-x="431" 
d="M443 770h-267l9 40h267zM300 624l-132 -578h162l-10 -46h-376l10 46h164l132 578h-162l10 46h376l-10 -46h-164z" />
    <glyph glyph-name="imacron" unicode="&#x12b;" horiz-adv-x="270" 
d="M403 589h-267l9 40h267zM157 0h-49l113 489h49z" />
    <glyph glyph-name="Iogonek" unicode="&#x12e;" horiz-adv-x="431" 
d="M300 624l-132 -578h162l-10 -46h-163q-8 -7 -19 -16l-18 -15q-1 -1 -6.5 -5.5t-9.5 -7.5q-7 -5 -14 -12t-11 -12q-2 -2 -5.5 -6t-4.5 -6q-2 -3 -6 -11q-3 -7 -5 -13q-1 -4 -1 -12q0 -21 13 -31q14 -11 35 -11q13 0 46 11l-1 -35q-37 -14 -59 -14q-33 0 -55 20
q-21 20 -21 52q0 28 22 56q20 25 76 68h-169l10 46h164l132 578h-162l10 46h376l-10 -46h-164z" />
    <glyph glyph-name="iogonek" unicode="&#x12f;" horiz-adv-x="270" 
d="M182 665q15 0 28 -11q11 -10 11 -26q0 -15 -11 -26t-28 -11q-16 0 -27 11t-11 26t11 26t27 11zM128 489h49l-113 -489q-8 -7 -19 -16l-18 -15q-1 -1 -6.5 -5.5t-9.5 -7.5q-7 -5 -14 -12t-11 -12q-2 -2 -5.5 -6t-4.5 -6q-2 -3 -6 -11q-4 -7 -5 -13q-1 -4 -1 -12
q0 -21 13 -31q14 -11 35 -11q13 0 46 11l-1 -35q-37 -14 -59 -14q-33 0 -55 20q-21 20 -21 52q0 28 22 56q20 25 76 68h-5z" />
    <glyph glyph-name="Idot" unicode="&#x130;" horiz-adv-x="431" 
d="M315 772q-16 0 -27 11t-11 26t11 26t27 11q15 0 28 -11q11 -10 11 -26q0 -15 -11 -26t-28 -11zM300 624l-132 -578h162l-10 -46h-376l10 46h164l132 578h-162l10 46h376l-10 -46h-164z" />
    <glyph glyph-name="dotlessi" unicode="&#x131;" horiz-adv-x="270" 
d="M157 0h-49l113 489h49z" />
    <glyph glyph-name="IJ" unicode="&#x132;" horiz-adv-x="1025" 
d="M168 46h162l-10 -46h-376l10 46h164l132 578h-162l10 46h376l-10 -46h-164zM1023 670l-99 -423q-27 -116 -107 -187t-185 -71q-96 0 -155 59q-58 58 -56 155l48 11q-1 -81 42 -130t122 -49q85 0 152 59t89 153l87 377h-312l10 46h364z" />
    <glyph glyph-name="ij" unicode="&#x133;" horiz-adv-x="539" 
d="M271 676q15 0 28 -11q11 -10 11 -27q0 -15 -11 -26t-28 -11q-16 0 -27 11t-11 26q0 16 11 27t27 11zM549 676q15 0 28 -11q11 -10 11 -27q0 -15 -11 -26t-28 -11q-16 0 -27 11t-11 26q0 16 11 27t27 11zM148 0h-48l112 489h49zM541 489l-144 -626q-12 -51 -50 -82
t-90 -31q-37 0 -66 17l21 42q20 -12 44 -12q34 0 60 20q26 19 33 51l143 621h49z" />
    <glyph glyph-name="Kcedilla" unicode="&#x136;" horiz-adv-x="694" 
d="M425 382l227 -382h-58l-208 349l-220 -186l-38 -163h-50l155 670h51l-100 -431l514 431h67zM304 -45h57l-91 -139h-39z" />
    <glyph glyph-name="kcedilla" unicode="&#x137;" horiz-adv-x="583" 
d="M371 292l188 -292h-55l-170 261l-179 -148l-26 -113h-49l179 770h49l-136 -586l372 305h66zM254 -45h57l-91 -139h-39z" />
    <glyph glyph-name="Lacute" unicode="&#x139;" horiz-adv-x="577" 
d="M307 748h-47l118 138h63zM545 46l-11 -46h-454l155 670h50l-143 -624h403z" />
    <glyph glyph-name="lacute" unicode="&#x13a;" horiz-adv-x="303" 
d="M314 848h-47l118 138h63zM291 770l-154 -661q-7 -35 6 -54q14 -20 47 -20q30 0 65 18l9 -43q-39 -21 -81 -21q-52 0 -80 34q-27 34 -14 89l153 658h49z" />
    <glyph glyph-name="Lcedilla" unicode="&#x13b;" horiz-adv-x="577" 
d="M545 46l-11 -46h-454l155 670h50l-143 -624h403zM277 -45h57l-91 -139h-39z" />
    <glyph glyph-name="lcedilla" unicode="&#x13c;" horiz-adv-x="303" 
d="M248 770l-154 -661q-8 -35 6 -54q14 -20 47 -20q31 0 65 18l9 -43q-39 -21 -81 -21q-52 0 -80 34q-27 34 -14 89l153 658h49zM-2 -184l74 139h57l-91 -139h-40z" />
    <glyph glyph-name="Lcaron" unicode="&#x13d;" horiz-adv-x="577" 
d="M545 46l-11 -46h-454l155 670h50l-143 -624h403zM454 511h-40l37 159h50z" />
    <glyph glyph-name="lcaron" unicode="&#x13e;" horiz-adv-x="303" 
d="M291 770l-154 -661q-7 -35 6 -54q14 -20 47 -20q30 0 65 18l9 -43q-39 -21 -81 -21q-52 0 -80 34q-27 34 -14 89l153 658h49zM378 611h-40l37 159h50z" />
    <glyph glyph-name="Ldot" unicode="&#x13f;" horiz-adv-x="581" 
d="M545 46l-11 -46h-454l155 670h50l-143 -624h403zM402 302q-16 0 -27 11t-11 26t11 26t27 11q15 0 28 -11q11 -10 11 -26q0 -15 -11 -26t-28 -11z" />
    <glyph glyph-name="ldot" unicode="&#x140;" horiz-adv-x="323" 
d="M294 770l-153 -661q-7 -35 6 -54q14 -20 47 -20q30 0 65 18l8 -43q-37 -21 -80 -21q-52 0 -80 34q-27 34 -14 89l153 658h48zM338 369q16 0 27 -11t11 -26q0 -16 -10 -26q-11 -11 -28 -11q-16 0 -27 11t-11 26t11 26t27 11z" />
    <glyph glyph-name="Lslash" unicode="&#x141;" horiz-adv-x="615" 
d="M580 46l-10 -46h-455l62 269l-95 -42l11 49l96 42l81 352h51l-76 -327l188 83l-11 -49l-188 -83l-57 -248h403z" />
    <glyph glyph-name="lslash" unicode="&#x142;" horiz-adv-x="331" 
d="M203 337l-53 -228q-8 -35 6 -54q14 -20 47 -20q31 0 65 18l8 -43q-38 -21 -80 -21q-52 0 -80 34q-27 34 -14 89l45 194l-93 -53l12 50l93 53l96 414h48l-89 -383l116 66l-11 -50z" />
    <glyph glyph-name="Nacute" unicode="&#x143;" horiz-adv-x="760" 
d="M562 748h-47l118 138h63zM802 670l-154 -670h-44l-336 591l-136 -591h-50l154 670h45l334 -591l137 591h50z" />
    <glyph glyph-name="nacute" unicode="&#x144;" horiz-adv-x="635" 
d="M482 567h-47l118 138h63zM442 501q96 0 139 -60q44 -61 23 -157l-66 -284h-49l66 285q18 79 -16 125q-35 47 -109 47q-88 0 -148 -56q-62 -57 -84 -156l-57 -245h-49l113 489h49l-24 -102q80 114 212 114z" />
    <glyph glyph-name="Ncedilla" unicode="&#x145;" horiz-adv-x="760" 
d="M802 670l-154 -670h-44l-336 591l-136 -591h-50l154 670h45l334 -591l137 591h50zM342 -45h57l-91 -139h-39z" />
    <glyph glyph-name="ncedilla" unicode="&#x146;" horiz-adv-x="635" 
d="M442 501q96 0 139 -60q44 -61 23 -157l-66 -284h-49l66 285q18 79 -16 125q-35 47 -109 47q-88 0 -148 -56q-62 -57 -84 -156l-57 -245h-49l113 489h49l-24 -102q80 114 212 114zM278 -45h57l-91 -139h-39z" />
    <glyph glyph-name="Ncaron" unicode="&#x147;" horiz-adv-x="760" 
d="M508 742l-86 139h48l65 -106l115 106h55l-151 -139h-46zM802 670l-154 -670h-44l-336 591l-136 -591h-50l154 670h45l334 -591l137 591h50z" />
    <glyph glyph-name="ncaron" unicode="&#x148;" horiz-adv-x="635" 
d="M428 561l-86 139h48l65 -106l115 106h55l-151 -139h-46zM442 501q96 0 139 -60q44 -61 23 -157l-66 -284h-49l66 285q18 79 -16 125q-35 47 -109 47q-88 0 -148 -56q-62 -57 -84 -156l-57 -245h-49l113 489h49l-24 -102q80 114 212 114z" />
    <glyph glyph-name="Eng" unicode="&#x14a;" horiz-adv-x="755" 
d="M648 0l-31 -134q-10 -49 -50 -83q-39 -33 -89 -33q-47 0 -76 22l20 40q22 -16 54 -16q35 0 58 19q25 20 32 51l33 143l-331 582l-136 -591h-50l154 670h45l334 -591l137 591h50z" />
    <glyph glyph-name="eng" unicode="&#x14b;" horiz-adv-x="635" 
d="M442 501q96 0 139 -60q44 -61 23 -157l-66 -284l-34 -134q-13 -51 -52 -84q-38 -32 -88 -32q-46 0 -75 22l20 38q26 -17 54 -17q33 0 59 21t33 52l34 134l66 285q18 79 -16 125q-35 47 -109 47q-88 0 -148 -56q-62 -57 -84 -156l-57 -245h-49l113 489h49l-24 -102
q80 114 212 114z" />
    <glyph glyph-name="Omacron" unicode="&#x14c;" horiz-adv-x="811" 
d="M736 770h-267l9 40h267zM558 682q147 0 231 -101q84 -100 61 -246q-23 -149 -135 -248q-113 -99 -258 -99q-146 0 -230 101t-62 246q23 146 137 247q113 100 256 100zM460 36q124 0 222 86t117 213q19 126 -51 213t-192 87q-126 0 -223 -87q-99 -88 -118 -213
q-19 -124 52 -212q71 -87 193 -87z" />
    <glyph glyph-name="omacron" unicode="&#x14d;" horiz-adv-x="612" 
d="M547 589h-267l9 40h267zM385 500q111 0 175 -73t48 -184q-17 -110 -99 -182q-83 -72 -192 -72q-111 0 -175 72q-65 72 -48 182q16 111 100 184q83 73 191 73zM319 33q89 0 159 59q68 58 82 151q13 91 -38 153q-51 61 -139 61q-90 0 -158 -61q-70 -62 -83 -153
q-14 -92 38 -151q51 -59 139 -59z" />
    <glyph glyph-name="Odblacute" unicode="&#x150;" horiz-adv-x="811" 
d="M547 748h-46l118 137h61zM685 748h-46l118 137h61zM558 682q147 0 231 -101q84 -100 61 -246q-23 -149 -135 -248q-113 -99 -258 -99q-146 0 -230 101t-62 246q23 146 137 247q113 100 256 100zM460 36q124 0 222 86t117 213q19 126 -51 213t-192 87q-126 0 -223 -87
q-99 -88 -118 -213q-19 -124 52 -212q71 -87 193 -87z" />
    <glyph glyph-name="odblacute" unicode="&#x151;" horiz-adv-x="612" 
d="M358 567h-46l118 137h61zM450 567l118 137h61l-133 -137h-46zM385 500q111 0 175 -73t48 -184q-17 -110 -99 -182q-83 -72 -192 -72q-111 0 -175 72q-65 72 -48 182q16 111 100 184q83 73 191 73zM560 243q13 91 -38 153q-51 61 -139 61q-90 0 -158 -61q-70 -62 -83 -153
q-14 -92 38 -151q51 -59 139 -59q89 0 159 59q68 58 82 151z" />
    <glyph glyph-name="OE" unicode="&#x152;" horiz-adv-x="1031" 
d="M705 624l-61 -265h399l-10 -45h-399l-62 -268h429l-10 -46h-541q-146 0 -227 93q-82 94 -60 237q23 150 149 245q127 95 305 95h528l-11 -46h-429zM522 46l133 578h-47q-159 0 -266 -82q-109 -83 -128 -212q-20 -124 48 -204t191 -80h69z" />
    <glyph glyph-name="oe" unicode="&#x153;" horiz-adv-x="1058" 
d="M608 240l-4 -18v-9q0 -80 49 -131q48 -50 132 -50q61 0 115 33q53 32 86 94l43 -12q-34 -74 -102 -116t-146 -42q-77 0 -133 39q-57 40 -77 107q-38 -66 -107 -106t-147 -40q-111 0 -175 72q-65 72 -48 182q16 111 100 184q83 73 191 73q80 0 136 -38q57 -39 78 -105
q39 66 107 105t142 39q108 0 165 -73q56 -73 40 -188h-445zM846 459q-89 0 -150 -52q-62 -53 -83 -129h398q4 81 -40 132q-43 49 -125 49zM319 33q89 0 159 59q68 58 82 151q13 91 -38 153q-51 61 -139 61q-90 0 -158 -61q-70 -62 -83 -153q-14 -92 38 -151q51 -59 139 -59z
" />
    <glyph glyph-name="Racute" unicode="&#x154;" horiz-adv-x="671" 
d="M503 748h-47l118 138h63zM723 520q0 -94 -71 -153t-186 -59h-18l188 -308h-59l-183 308h-179l-71 -308h-50l144 624l11 46h299q78 0 127 -41q48 -41 48 -109zM226 353h243q91 0 147 45t56 118q0 49 -34 79q-33 29 -92 29h-257z" />
    <glyph glyph-name="racute" unicode="&#x155;" horiz-adv-x="388" 
d="M353 567h-47l118 138h63zM242 489l-29 -126q43 60 103 95q59 35 122 35q19 0 31 -3l-12 -46q-12 2 -27 2q-90 0 -158 -66q-68 -67 -94 -166l-49 -214h-49l113 489h49z" />
    <glyph glyph-name="Rcedilla" unicode="&#x156;" horiz-adv-x="671" 
d="M723 520q0 -94 -71 -153t-186 -59h-18l188 -308h-59l-183 308h-179l-71 -308h-50l144 624l11 46h299q78 0 127 -41q48 -41 48 -109zM226 353h243q91 0 147 45t56 118q0 49 -34 79q-33 29 -92 29h-257zM303 -45h57l-91 -139h-39z" />
    <glyph glyph-name="rcedilla" unicode="&#x157;" horiz-adv-x="388" 
d="M347 493q19 0 31 -3l-12 -46q-12 2 -27 2q-91 0 -158 -66q-68 -67 -94 -166l-49 -214h-49l113 489h49l-29 -126q43 60 103 95q59 35 122 35zM-28 -45h57l-91 -139h-40z" />
    <glyph glyph-name="Rcaron" unicode="&#x158;" horiz-adv-x="671" 
d="M449 742l-86 139h48l65 -106l115 106h55l-151 -139h-46zM723 520q0 -94 -71 -153t-186 -59h-18l188 -308h-59l-183 308h-179l-71 -308h-50l144 624l11 46h299q78 0 127 -41q48 -41 48 -109zM226 353h243q91 0 147 45t56 118q0 49 -34 79q-33 29 -92 29h-257z" />
    <glyph glyph-name="rcaron" unicode="&#x159;" horiz-adv-x="388" 
d="M299 561l-86 139h48l65 -106l115 106h55l-151 -139h-46zM242 489l-29 -126q43 60 103 95q59 35 122 35q19 0 31 -3l-12 -46q-12 2 -27 2q-90 0 -158 -66q-68 -67 -94 -166l-49 -214h-49l113 489h49z" />
    <glyph glyph-name="Sacute" unicode="&#x15a;" horiz-adv-x="622" 
d="M474 748h-47l118 138h63zM420 681q103 0 163 -50q62 -51 68 -137l-50 -12q-5 72 -54 114t-132 42q-82 0 -135 -40q-54 -40 -54 -104q0 -38 23 -61q24 -24 72 -43l126 -49q136 -51 136 -155q0 -88 -70 -142q-72 -55 -184 -55q-113 0 -186 56q-71 55 -73 150l52 12
q2 -80 58 -127t152 -47q91 0 146 41q54 40 54 108q0 74 -100 113l-128 49q-65 26 -98 59q-32 32 -32 85q0 85 70 140q68 53 176 53z" />
    <glyph glyph-name="sacute" unicode="&#x15b;" horiz-adv-x="507" 
d="M394 567h-47l118 138h63zM46 131l47 15q11 -54 55 -85q46 -32 107 -32q65 0 108 29q42 28 42 76q0 24 -13 40q-14 16 -30 24q-18 8 -49 20l-81 28q-50 17 -77 41q-26 23 -26 66q0 66 54 107q55 41 137 41q75 0 126 -36q52 -36 62 -93l-43 -15q-6 47 -46 75t-100 28
q-65 0 -103 -28q-39 -28 -39 -74q0 -17 6 -29t21 -21t24 -12q3 -1 13 -5.5t19 -7.5l66 -24q17 -6 49 -19q14 -6 39 -22q20 -13 30 -34q9 -20 9 -47q0 -67 -56 -107q-58 -41 -147 -41q-78 0 -135 39t-69 103z" />
    <glyph glyph-name="Scedilla" unicode="&#x15e;" horiz-adv-x="622" 
d="M415 638q-82 0 -135 -40q-54 -40 -54 -104q0 -38 23 -61q24 -24 72 -43l126 -49q136 -51 136 -155q0 -88 -70 -142q-72 -55 -184 -55l-121 -164h-62l141 166q-95 10 -156 65q-60 54 -61 139l52 12q2 -80 58 -127t152 -47q91 0 146 41q54 40 54 108q0 74 -100 113l-128 49
q-65 26 -98 59q-32 32 -32 85q0 85 70 140q68 53 176 53q103 0 163 -50q62 -51 68 -137l-50 -12q-5 72 -54 114t-132 42z" />
    <glyph glyph-name="scedilla" unicode="&#x15f;" horiz-adv-x="507" 
d="M319 460q-65 0 -103 -28q-39 -28 -39 -74q0 -17 6 -29t21 -21t24 -12q3 -1 13 -5.5t19 -7.5l66 -24q17 -6 49 -19q14 -6 39 -22q20 -13 30 -34q9 -20 9 -47q0 -66 -56 -107q-54 -39 -145 -41l-121 -164h-62l141 167q-65 9 -109 46t-55 93l47 15q11 -54 55 -85
q46 -32 107 -32q65 0 108 29q42 28 42 76q0 24 -13 40q-14 16 -30 24q-18 8 -49 20l-81 28q-50 17 -77 41q-26 23 -26 66q0 66 54 107q55 41 137 41q75 0 126 -36q52 -36 62 -93l-43 -15q-6 47 -46 75t-100 28z" />
    <glyph glyph-name="Scaron" unicode="&#x160;" horiz-adv-x="622" 
d="M420 742l-86 139h48l65 -106l115 106h55l-151 -139h-46zM415 638q-82 0 -135 -40q-54 -40 -54 -104q0 -38 23 -61q24 -24 72 -43l126 -49q136 -51 136 -155q0 -88 -70 -142q-72 -55 -184 -55q-113 0 -186 56q-71 55 -73 150l52 12q2 -80 58 -127t152 -47q91 0 146 41
q54 40 54 108q0 74 -100 113l-128 49q-65 26 -98 59q-32 32 -32 85q0 85 70 140q68 53 176 53q103 0 163 -50q62 -51 68 -137l-50 -12q-5 72 -54 114t-132 42z" />
    <glyph glyph-name="scaron" unicode="&#x161;" horiz-adv-x="507" 
d="M340 561l-86 139h48l65 -106l115 106h55l-151 -139h-46zM320 501q75 0 126 -36q52 -36 62 -93l-43 -15q-6 47 -46 75t-100 28q-65 0 -103 -28q-39 -28 -39 -74q0 -17 6 -29t21 -21t24 -12q3 -1 13 -5.5t19 -7.5l66 -24q17 -6 49 -19q14 -6 39 -22q20 -13 30 -34
q9 -20 9 -47q0 -67 -56 -107q-58 -41 -147 -41q-78 0 -135 39t-69 103l47 15q11 -54 55 -85q46 -32 107 -32q65 0 108 29q42 28 42 76q0 24 -13 40q-14 16 -30 24q-18 8 -49 20l-81 28q-50 17 -77 41q-26 23 -26 66q0 66 54 107q55 41 137 41z" />
    <glyph glyph-name="tcedilla" unicode="&#x163;" horiz-adv-x="370" 
d="M205 447l-71 -308q-12 -49 6 -76q19 -28 60 -28q50 0 100 35l8 -43q-55 -38 -113 -38l-121 -164h-62l143 169q-45 10 -65 49q-19 36 -5 95l71 309h-103l9 42h104l42 181h49l-42 -181h183l-9 -42h-184z" />
    <glyph glyph-name="Tcaron" unicode="&#x164;" horiz-adv-x="630" 
d="M523 742l-86 139h48l65 -106l115 106h55l-151 -139h-46zM805 624h-262l-143 -624h-52l143 624h-261l11 46h575z" />
    <glyph glyph-name="tcaron" unicode="&#x165;" horiz-adv-x="370" 
d="M404 568h-40l37 159h50zM256 489h183l-9 -42h-184l-71 -308q-12 -49 6 -76q19 -28 60 -28q50 0 100 35l8 -43q-55 -38 -114 -38q-66 0 -96 40t-13 109l71 309h-103l9 42h104l42 181h49z" />
    <glyph glyph-name="Tbar" unicode="&#x166;" horiz-adv-x="630" 
d="M543 624l-61 -267h139l-10 -42h-139l-72 -315h-52l72 315h-136l10 42h136l61 267h-261l11 46h575l-11 -46h-262z" />
    <glyph glyph-name="tbar" unicode="&#x167;" horiz-adv-x="374" 
d="M221 447l-28 -121h152l-9 -41h-152l-34 -146q-12 -49 6 -76q19 -28 60 -28q50 0 99 35l9 -43q-55 -38 -114 -38q-64 0 -95 40t-15 109l34 147h-100l9 41h101l28 121h-108l10 42h108l42 181h48l-42 -181h185l-9 -42h-185z" />
    <glyph glyph-name="Umacron" unicode="&#x16a;" horiz-adv-x="725" 
d="M704 770h-267l9 40h267zM824 670l-88 -381q-32 -138 -120 -219t-214 -81q-122 0 -185 84t-32 216l88 381h50l-88 -381q-26 -115 22 -183q48 -69 149 -69q102 0 177 69t102 183l88 381h51z" />
    <glyph glyph-name="umacron" unicode="&#x16b;" horiz-adv-x="635" 
d="M583 589h-267l9 40h267zM659 489l-113 -489h-49l24 103q-79 -115 -212 -115q-96 0 -139 61q-44 62 -22 157l65 283h49l-66 -285q-16 -76 18 -124q35 -48 107 -48q86 0 146 54t84 148l60 255h48z" />
    <glyph glyph-name="Uring" unicode="&#x16e;" horiz-adv-x="725" 
d="M574 733q-38 0 -63 25t-25 61q0 41 31 71q30 29 73 29q38 0 63 -25t25 -62q0 -39 -31 -69t-73 -30zM587 887q-28 0 -47 -19q-20 -20 -20 -47q0 -23 16 -39q17 -17 41 -17q28 0 48 20t20 46q0 24 -16 40t-42 16zM824 670l-88 -381q-32 -138 -120 -219t-214 -81
q-122 0 -185 84t-32 216l88 381h50l-88 -381q-26 -115 22 -183q48 -69 149 -69q102 0 177 69t102 183l88 381h51z" />
    <glyph glyph-name="uring" unicode="&#x16f;" horiz-adv-x="635" 
d="M453 552q-38 0 -63 25t-25 61q0 41 31 71q30 29 73 29q38 0 63 -25t25 -62q0 -39 -31 -69q-32 -30 -73 -30zM466 706q-27 0 -47 -20t-20 -46q0 -23 16 -39q17 -17 41 -17q28 0 48 20t20 46q0 24 -16 40t-42 16zM659 489l-113 -489h-49l24 103q-79 -115 -212 -115
q-96 0 -139 61q-44 62 -22 157l65 283h49l-66 -285q-16 -76 18 -124q35 -48 107 -48q86 0 146 54t84 148l60 255h48z" />
    <glyph glyph-name="Udblacute" unicode="&#x170;" horiz-adv-x="725" 
d="M515 748h-46l118 137h61zM607 748l118 137h61l-133 -137h-46zM824 670l-88 -381q-32 -138 -120 -219t-214 -81q-122 0 -185 84t-32 216l88 381h50l-88 -381q-26 -115 22 -183q48 -69 149 -69q102 0 177 69t102 183l88 381h51z" />
    <glyph glyph-name="udblacute" unicode="&#x171;" horiz-adv-x="635" 
d="M394 567h-46l118 137h61zM486 567l118 137h61l-133 -137h-46zM611 489h48l-113 -489h-49l24 103q-79 -115 -212 -115q-96 0 -139 61q-44 62 -22 157l65 283h49l-66 -285q-16 -76 18 -124q35 -48 107 -48q86 0 146 54t84 148z" />
    <glyph glyph-name="Uogonek" unicode="&#x172;" horiz-adv-x="725" 
d="M824 670l-88 -381q-39 -162 -148 -241q-3 -3 -10.5 -9.5t-11.5 -9.5q-75 -64 -105 -96q-24 -25 -24 -49q0 -21 13 -31q14 -11 35 -11q13 0 46 11v-35q-39 -14 -59 -14q-36 0 -56 19q-21 19 -21 51t24 60q25 30 81 70q-45 -15 -98 -15q-122 0 -185 84t-32 216l88 381h50
l-88 -381q-26 -115 22 -183q48 -69 149 -69q102 0 177 69t102 183l88 381h51z" />
    <glyph glyph-name="uogonek" unicode="&#x173;" horiz-adv-x="635" 
d="M659 489l-113 -489h-1q-8 -7 -19 -16l-18 -15q-1 -1 -6.5 -5.5t-9.5 -7.5q-7 -5 -14 -12t-11 -12q-2 -2 -5.5 -6t-4.5 -6q-2 -3 -6 -11q-3 -7 -5 -13q-1 -4 -1 -12q0 -21 13 -31q14 -11 35 -11q13 0 46 11l-1 -35q-37 -14 -59 -14q-33 0 -55 20q-21 20 -21 52q0 28 22 56
q20 25 76 68h-4l24 103q-79 -115 -212 -115q-96 0 -139 61q-44 62 -22 157l65 283h49l-66 -285q-16 -76 18 -124q35 -48 107 -48q86 0 146 54t84 148l60 255h48z" />
    <glyph glyph-name="Wcircumflex" unicode="&#x174;" horiz-adv-x="954" 
d="M630 741h-55l151 138h46l87 -138h-49l-65 105zM1146 670l-366 -670h-52l-55 590l-324 -590h-53l-56 670h50l49 -592l326 592h51l53 -592l323 592h54z" />
    <glyph glyph-name="wcircumflex" unicode="&#x175;" horiz-adv-x="767" 
d="M454 560h-55l151 138h46l87 -138h-49l-65 105zM877 490l-280 -493h-49l-49 414l-241 -414h-48l-52 493h47l46 -419l244 418h40l50 -419l241 420h51z" />
    <glyph glyph-name="Ycircumflex" unicode="&#x176;" horiz-adv-x="664" 
d="M478 741h-55l151 138h46l87 -138h-49l-65 105zM475 245l-57 -245h-50l56 243l-184 427h53l164 -377l338 377h63z" />
    <glyph glyph-name="ycircumflex" unicode="&#x177;" horiz-adv-x="550" 
d="M296 560h-55l151 138h46l87 -138h-49l-65 105zM608 489l-506 -727h-58l171 246l-114 481h53l100 -426l297 426h57z" />
    <glyph glyph-name="Ydieresis" unicode="&#x178;" horiz-adv-x="664" 
d="M477 766q-16 0 -27 11t-11 26q0 14 11 27q10 11 27 11t28 -11t11 -27q0 -15 -11 -26t-28 -11zM666 766q-16 0 -27 11t-11 26q0 14 11 27q10 11 27 11t28 -11t11 -27q0 -15 -11 -26t-28 -11zM475 245l-57 -245h-50l56 243l-184 427h53l164 -377l338 377h63z" />
    <glyph glyph-name="Zacute" unicode="&#x179;" horiz-adv-x="626" 
d="M476 748h-47l118 138h63zM666 635l-566 -591h432l-10 -44h-506l7 32l572 594h-421l9 44h491z" />
    <glyph glyph-name="zacute" unicode="&#x17a;" horiz-adv-x="498" 
d="M332 567h-47l118 138h63zM481 455l-435 -413h349l-10 -42h-417l8 34l433 413h-328l10 42h398z" />
    <glyph glyph-name="Zdot" unicode="&#x17b;" horiz-adv-x="626" 
d="M457 772q-16 0 -27 11t-11 26t11 26t27 11q15 0 28 -11q11 -10 11 -26q0 -15 -11 -26t-28 -11zM666 635l-566 -591h432l-10 -44h-506l7 32l572 594h-421l9 44h491z" />
    <glyph glyph-name="zdot" unicode="&#x17c;" horiz-adv-x="498" 
d="M313 591q-16 0 -27 11t-11 26t11 26t27 11q15 0 28 -11q11 -10 11 -26q0 -15 -11 -26t-28 -11zM481 455l-435 -413h349l-10 -42h-417l8 34l433 413h-328l10 42h398z" />
    <glyph glyph-name="Zcaron" unicode="&#x17d;" horiz-adv-x="626" 
d="M422 742l-86 139h48l65 -106l115 106h55l-151 -139h-46zM666 635l-566 -591h432l-10 -44h-506l7 32l572 594h-421l9 44h491z" />
    <glyph glyph-name="zcaron" unicode="&#x17e;" horiz-adv-x="498" 
d="M278 561l-86 139h48l65 -106l115 106h55l-151 -139h-46zM481 455l-435 -413h349l-10 -42h-417l8 34l433 413h-328l10 42h398z" />
    <glyph glyph-name="florin" unicode="&#x192;" horiz-adv-x="534" 
d="M366 681q71 0 105 -40l-28 -37q-28 34 -81 34q-54 0 -98 -33q-44 -34 -67 -91l-66 -159h202l-9 -42h-210l-147 -356q-51 -122 -167 -122q-47 0 -70 23l28 40q19 -16 48 -16q36 0 67 22q29 20 43 53l147 356h-129l10 42h136l68 164q31 76 88 119q56 43 130 43z" />
    <glyph glyph-name="AEacute" unicode="&#x1fc;" horiz-adv-x="1138" 
d="M878 748h-47l118 138h63zM694 624l-61 -265h399l-10 -45h-399l-62 -268h429l-10 -46h-480l39 170h-365l-184 -170h-68l728 670h484l-11 -46h-429zM550 216l89 385l-416 -385h327z" />
    <glyph glyph-name="aeacute" unicode="&#x1fd;" horiz-adv-x="939" 
d="M592 567h-47l118 138h63zM731 501q98 0 151 -71q52 -70 37 -181l-3 -18h-418q-11 -92 34 -145q45 -54 127 -54q52 0 109 34q54 32 83 92l42 -11q-28 -68 -99 -113q-70 -45 -143 -45q-153 0 -189 142q-34 -64 -99 -103t-141 -39q-82 0 -123 34q-43 35 -43 91q0 71 56 113
t149 42h196l9 52q11 62 -23 100q-33 37 -101 37q-65 0 -114 -31q-50 -32 -66 -83l-42 11q18 66 81 106q62 40 146 40q66 0 110 -32q43 -31 52 -86q82 118 222 118zM503 269h369q6 86 -32 138q-38 51 -112 51q-82 0 -143 -51q-63 -52 -82 -138zM452 231h-195q-71 0 -112 -29
q-43 -31 -43 -82q0 -41 33 -65q34 -25 94 -25q79 0 144 54q63 53 77 138z" />
    <glyph glyph-name="Scommaaccent" unicode="&#x218;" horiz-adv-x="622" 
d="M420 681q103 0 163 -50q62 -51 68 -137l-50 -12q-5 72 -54 114t-132 42q-82 0 -135 -40q-54 -40 -54 -104q0 -38 23 -61q24 -24 72 -43l126 -49q136 -51 136 -155q0 -88 -70 -142q-72 -55 -184 -55q-113 0 -186 56q-71 55 -73 150l52 12q2 -80 58 -127t152 -47
q91 0 146 41q54 40 54 108q0 74 -100 113l-128 49q-65 26 -98 59q-32 32 -32 85q0 85 70 140q68 53 176 53zM189 -184l73 139h57l-91 -139h-39z" />
    <glyph glyph-name="scommaaccent" unicode="&#x219;" horiz-adv-x="507" 
d="M46 131l47 15q11 -54 55 -85q46 -32 107 -32q65 0 108 29q42 28 42 76q0 24 -13 40q-14 16 -30 24q-18 8 -49 20l-81 28q-50 17 -77 41q-26 23 -26 66q0 66 54 107q55 41 137 41q75 0 126 -36q52 -36 62 -93l-43 -15q-6 47 -46 75t-100 28q-65 0 -103 -28
q-39 -28 -39 -74q0 -17 6 -29t21 -21t24 -12q3 -1 13 -5.5t19 -7.5l66 -24q17 -6 49 -19q14 -6 39 -22q20 -13 30 -34q9 -20 9 -47q0 -67 -56 -107q-58 -41 -147 -41q-78 0 -135 39t-69 103zM112 -184l73 139h57l-91 -139h-39z" />
    <glyph glyph-name="Tcommabelow" unicode="&#x21a;" horiz-adv-x="630" 
d="M805 624h-262l-143 -624h-52l143 624h-261l11 46h575zM334 -45h57l-91 -139h-39z" />
    <glyph glyph-name="tcommabelow" unicode="&#x21b;" horiz-adv-x="370" 
d="M246 447l-71 -308q-12 -49 6 -76q19 -28 60 -28q50 0 100 35l8 -43q-55 -38 -114 -38q-66 0 -96 40t-13 109l71 309h-103l9 42h104l42 181h49l-42 -181h183l-9 -42h-184zM169 -45h57l-91 -139h-39z" />
    <glyph glyph-name="circumflex" unicode="&#x2c6;" horiz-adv-x="600" 
d="M651 560l-66 105l-115 -105h-54l150 138h46l87 -138h-48z" />
    <glyph glyph-name="caron" unicode="&#x2c7;" horiz-adv-x="600" 
d="M749 700l-151 -139h-46l-86 139h48l65 -106l115 106h55z" />
    <glyph glyph-name="breve" unicode="&#x2d8;" horiz-adv-x="600" 
d="M580 558q-59 0 -91 35q-31 34 -20 91h39q-7 -40 15 -65t61 -25t70 25t38 65h45q-10 -56 -54 -91t-103 -35z" />
    <glyph glyph-name="dotaccent" unicode="&#x2d9;" horiz-adv-x="600" 
d="M670 665q15 0 28 -11q11 -10 11 -26q0 -15 -11 -26t-28 -11q-16 0 -27 11t-11 26t11 26t27 11z" />
    <glyph glyph-name="ring" unicode="&#x2da;" horiz-adv-x="600" 
d="M720 651q0 -39 -31 -69t-73 -30q-38 0 -63 25t-25 61q0 41 31 71q30 29 73 29q38 0 63 -25t25 -62zM687 650q0 24 -16 40t-42 16q-27 0 -47 -20t-20 -46q0 -23 16 -39q17 -17 41 -17q28 0 48 20t20 46z" />
    <glyph glyph-name="ogonek" unicode="&#x2db;" horiz-adv-x="600" 
d="M473 10l31 -10q-8 -7 -19 -16l-18 -15q-1 -1 -6.5 -5.5t-9.5 -7.5q-7 -5 -14 -12t-11 -12q-2 -2 -5.5 -6t-4.5 -6q-2 -3 -6 -11q-4 -7 -5 -13q-1 -4 -1 -12q0 -21 13 -31q14 -11 35 -11q13 0 46 11l-1 -35q-37 -14 -59 -14q-33 0 -55 20q-21 20 -21 52t24 59t87 75z" />
    <glyph glyph-name="tilde" unicode="&#x2dc;" horiz-adv-x="600" 
d="M458 596h-38q11 44 37 66t60 22q32 0 59 -26q28 -27 51 -27q18 0 34 14q14 13 19 38h38q-11 -44 -37 -66q-28 -23 -60 -23q-28 0 -59 26t-51 26q-19 0 -33 -13q-15 -14 -20 -37z" />
    <glyph glyph-name="hungarumlaut" unicode="&#x2dd;" horiz-adv-x="600" 
d="M540 567h-46l118 137h61zM678 567h-46l118 137h61z" />
    <glyph glyph-name="uni0326" unicode="&#x326;" horiz-adv-x="0" 
d="M234 -184l73 139h57l-91 -139h-39z" />
    <glyph glyph-name="Wgrave" unicode="&#x1e80;" horiz-adv-x="954" 
d="M685 748l-134 138h63l118 -138h-47zM1146 670l-366 -670h-52l-55 590l-324 -590h-53l-56 670h50l49 -592l326 592h51l53 -592l323 592h54z" />
    <glyph glyph-name="wgrave" unicode="&#x1e81;" horiz-adv-x="767" 
d="M509 567l-134 138h63l118 -138h-47zM877 490l-280 -493h-49l-49 414l-241 -414h-48l-52 493h47l46 -419l244 418h40l50 -419l241 420h51z" />
    <glyph glyph-name="Wacute" unicode="&#x1e82;" horiz-adv-x="954" 
d="M741 748h-47l118 138h63zM1146 670l-366 -670h-52l-55 590l-324 -590h-53l-56 670h50l49 -592l326 592h51l53 -592l323 592h54z" />
    <glyph glyph-name="wacute" unicode="&#x1e83;" horiz-adv-x="767" 
d="M565 567h-47l118 138h63zM877 490l-280 -493h-49l-49 414l-241 -414h-48l-52 493h47l46 -419l244 418h40l50 -419l241 420h51z" />
    <glyph glyph-name="Wdieresis" unicode="&#x1e84;" horiz-adv-x="954" 
d="M629 766q-16 0 -27 11t-11 26q0 14 11 27q10 11 27 11t28 -11t11 -27q0 -15 -11 -26t-28 -11zM818 766q-16 0 -27 11t-11 26q0 14 11 27q10 11 27 11t28 -11t11 -27q0 -15 -11 -26t-28 -11zM1146 670l-366 -670h-52l-55 590l-324 -590h-53l-56 670h50l49 -592l326 592h51
l53 -592l323 592h54z" />
    <glyph glyph-name="wdieresis" unicode="&#x1e85;" horiz-adv-x="767" 
d="M453 585q-16 0 -27 11t-11 26q0 14 11 27q10 11 27 11t28 -11t11 -27q0 -15 -11 -26t-28 -11zM642 585q-16 0 -27 11t-11 26q0 14 11 27q10 11 27 11t28 -11t11 -27q0 -15 -11 -26t-28 -11zM877 490l-280 -493h-49l-49 414l-241 -414h-48l-52 493h47l46 -419l244 418h40
l50 -419l241 420h51z" />
    <glyph glyph-name="Ygrave" unicode="&#x1ef2;" horiz-adv-x="664" 
d="M533 748l-134 138h63l118 -138h-47zM475 245l-57 -245h-50l56 243l-184 427h53l164 -377l338 377h63z" />
    <glyph glyph-name="ygrave" unicode="&#x1ef3;" horiz-adv-x="550" 
d="M351 567l-134 138h63l118 -138h-47zM608 489l-506 -727h-58l171 246l-114 481h53l100 -426l297 426h57z" />
    <glyph glyph-name="endash" unicode="&#x2013;" horiz-adv-x="621" 
d="M616 235h-500l9 40h500z" />
    <glyph glyph-name="emdash" unicode="&#x2014;" horiz-adv-x="1041" 
d="M1036 235h-920l9 40h920z" />
    <glyph glyph-name="quoteleft" unicode="&#x2018;" horiz-adv-x="234" 
d="M331 670h41l-129 -260h-61l1 2z" />
    <glyph glyph-name="quoteright" unicode="&#x2019;" horiz-adv-x="234" 
d="M223 410h-41l130 260h60l-1 -2z" />
    <glyph glyph-name="quotesinglbase" unicode="&#x201a;" horiz-adv-x="234" 
d="M-27 -132h-41l129 261h61l-1 -3z" />
    <glyph glyph-name="quotedblleft" unicode="&#x201c;" horiz-adv-x="387" 
d="M331 670h41l-129 -260h-61l1 2zM483 670h42l-130 -260h-60l1 2z" />
    <glyph glyph-name="quotedblright" unicode="&#x201d;" horiz-adv-x="387" 
d="M223 410h-41l130 260h60l-1 -2zM376 410h-41l129 260h61l-1 -2z" />
    <glyph glyph-name="quotedblbase" unicode="&#x201e;" horiz-adv-x="387" 
d="M-27 -132h-41l129 261h61l-1 -3zM126 -132h-42l130 261h60l-1 -3z" />
    <glyph glyph-name="dagger" unicode="&#x2020;" horiz-adv-x="335" 
d="M513 650l-8 -37h-110l-55 -238h-39l55 238h-110l8 37h110l21 90h39l-21 -90h110z" />
    <glyph glyph-name="daggerdbl" unicode="&#x2021;" horiz-adv-x="335" 
d="M361 613l-26 -111h110l-8 -37h-110l-21 -90h-39l21 90h-110l9 37h109l26 111h-110l8 37h110l21 90h39l-21 -90h110l-9 -37h-109z" />
    <glyph glyph-name="bullet" unicode="&#x2022;" horiz-adv-x="393" 
d="M264 399q58 0 98 -39t40 -94q0 -56 -39 -94q-40 -38 -99 -38q-58 0 -98 38t-40 94q0 55 40 94t98 39z" />
    <glyph glyph-name="ellipsis" unicode="&#x2026;" horiz-adv-x="580" 
d="M54 72q15 0 28 -11q11 -10 11 -26t-11 -27t-28 -11q-16 0 -27 11t-11 27q0 15 11 26t27 11zM249 72q15 0 28 -11q11 -10 11 -26t-11 -27t-28 -11q-16 0 -27 11t-11 27q0 15 11 26t27 11zM444 72q15 0 28 -11q11 -10 11 -26t-11 -27t-28 -11q-16 0 -27 11t-11 27
q0 15 11 26t27 11z" />
    <glyph glyph-name="perthousand" unicode="&#x2030;" horiz-adv-x="1284" 
d="M405 681q62 0 102 -37q41 -38 41 -100q0 -77 -56 -127q-57 -51 -129 -51q-61 0 -103 39t-42 102q0 75 57 125q56 49 130 49zM198 0l660 670h42l-660 -670h-42zM403 646q-56 0 -101 -39t-45 -98q0 -46 32 -76q31 -30 76 -30q55 0 100 39q44 38 44 100q0 46 -30 75
q-31 29 -76 29zM769 304q61 0 102 -38t41 -100q0 -75 -56 -126t-129 -51q-61 0 -102 39t-41 102q0 76 57 125q56 49 128 49zM1161 304q62 0 103 -38t41 -100q0 -76 -56 -126q-57 -51 -129 -51q-59 0 -102 40q-42 39 -42 101q0 76 57 125q56 49 128 49zM767 269
q-54 0 -99 -39t-45 -98q0 -46 31 -76q32 -30 75 -30q57 0 100 39q44 39 44 99q0 48 -30 76q-31 29 -76 29zM1159 269q-54 0 -99 -39t-45 -98q0 -46 32 -76q31 -30 75 -30q56 0 100 39t44 99q0 48 -30 76q-31 29 -77 29z" />
    <glyph glyph-name="guilsinglleft" unicode="&#x2039;" horiz-adv-x="228" 
d="M60 262l168 178h53l-172 -182l85 -174h-48z" />
    <glyph glyph-name="guilsinglright" unicode="&#x203a;" horiz-adv-x="228" 
d="M196 262l-168 -178h-54l172 182l-85 174h49z" />
    <glyph glyph-name="fraction" unicode="&#x2044;" horiz-adv-x="205" 
d="M-502 0l660 670h42l-660 -670h-42z" />
    <glyph glyph-name="Euro" unicode="&#x20ac;" horiz-adv-x="818" 
d="M670 635q-85 0 -151 -56q-68 -58 -104 -153h306l-16 -39h-303q-15 -51 -20 -112h261l-16 -39h-246q3 -89 53 -145q49 -55 126 -55q75 0 139 50q61 48 99 141l47 -11q-41 -104 -118 -165q-79 -62 -174 -62q-99 0 -161 68q-61 67 -63 179h-137l10 39h129q4 58 19 112h-118
l10 39h120q42 117 126 186t189 69q97 0 155 -61q57 -60 65 -167l-51 -12q-8 93 -53 143q-47 51 -123 51z" />
    <glyph glyph-name="afii61352" unicode="&#x2116;" horiz-adv-x="1231" 
d="M1081 680q66 0 111 -42t45 -111q0 -79 -55 -131q-56 -53 -132 -53q-65 0 -109 43q-45 44 -45 112q0 77 56 130q55 52 129 52zM752 670h50l-154 -670h-44l-336 591l-136 -591h-50l154 670h45l334 -591zM1054 382q58 0 99 40q42 40 42 101q0 52 -34 85q-35 33 -84 33
q-55 0 -96 -40q-42 -41 -42 -100q0 -52 34 -85q36 -34 81 -34zM838 253h318l-7 -41h-318z" />
    <glyph glyph-name="uni2117" unicode="&#x2117;" horiz-adv-x="785" 
d="M478 681q146 0 246 -99t100 -249q0 -149 -100 -246q-101 -98 -246 -98q-144 0 -245 98t-101 246q0 150 101 249t245 99zM478 18q132 0 223 90t91 226q0 139 -91 229q-92 90 -223 90q-130 0 -222 -90t-92 -229q0 -136 92 -226t222 -90zM355 517h156q64 0 101 -33
q38 -33 38 -89q0 -55 -38 -90q-37 -34 -101 -34h-121v-129h-35v375zM390 302h120q46 0 77 26q29 25 29 67q0 41 -29 66t-77 25h-120v-184z" />
    <glyph glyph-name="trademark" unicode="&#x2122;" horiz-adv-x="642" 
d="M487 641h-96l-54 -234h-34l54 234h-95l6 29h225zM762 407h-32l46 204l-144 -204h-22l-52 206l-47 -206h-32l60 263h34l57 -217l155 217h37z" />
    <glyph glyph-name="oneeighth" unicode="&#x215b;" horiz-adv-x="729" 
d="M681 670l-660 -670h-43l661 670h42zM191 620l-107 -54l9 41l123 63h25l-84 -364h-39zM566 365q56 0 90 -26q33 -26 32 -69q-1 -34 -26 -60q-24 -25 -71 -33q66 -23 66 -85q0 -48 -39 -76q-40 -29 -102 -29q-63 0 -98 28q-37 29 -34 73q1 35 31 63q29 27 81 33
q-62 21 -62 81q0 44 37 72t95 28zM556 198q43 0 70 21q26 20 26 52q0 31 -24 47q-25 17 -63 17q-43 0 -68 -18t-27 -50q-1 -31 22 -50t64 -19zM618 94q0 31 -23 50t-68 19q-47 0 -75 -21q-29 -21 -29 -57q0 -30 25 -48q26 -18 67 -18q46 0 75 20q28 19 28 55z" />
    <glyph glyph-name="threeeighths" unicode="&#x215c;" horiz-adv-x="839" 
d="M278 304q-62 0 -96 34q-35 35 -31 90l36 6q-4 -43 22 -71q25 -27 72 -27q44 0 74 24t30 60q0 30 -23 47t-63 17h-36l6 29h22q49 0 88 18q38 18 38 56q0 28 -19 46q-18 17 -56 17q-42 0 -71 -25t-37 -67l-33 7q7 50 48 85q38 32 96 32q51 0 80 -26t28 -66q0 -70 -88 -92
q56 -18 56 -77q-1 -49 -41 -83t-102 -34zM865 670l-660 -670h-42l660 670h42zM750 365q56 0 90 -26q33 -26 32 -69q-1 -34 -26 -60q-24 -25 -71 -33q66 -23 66 -85q0 -48 -39 -76q-40 -29 -102 -29q-63 0 -98 28q-37 29 -34 73q1 35 31 63q29 27 81 33q-62 21 -62 81
q0 44 37 72t95 28zM740 198q43 0 70 21q26 20 26 52q0 31 -24 47q-25 17 -63 17q-43 0 -68 -18t-27 -50q-1 -31 22 -50t64 -19zM802 94q0 31 -23 50t-68 19q-47 0 -75 -21q-29 -21 -29 -57q0 -30 25 -48q26 -18 67 -18q46 0 75 20q28 19 28 55z" />
    <glyph glyph-name="fiveeighths" unicode="&#x215d;" horiz-adv-x="836" 
d="M270 300q-54 0 -90 30q-37 30 -38 76l38 6q1 -34 28 -56t64 -22q49 0 80 26q30 26 30 66q0 32 -22 51t-62 19h-116l40 174h231l-8 -35h-196l-24 -106h79q52 0 84 -27q31 -27 31 -74q0 -57 -41 -92q-42 -36 -108 -36zM865 670l-660 -670h-42l660 670h42zM753 365
q56 0 90 -26q33 -26 32 -69q-1 -34 -26 -60q-24 -25 -71 -33q66 -23 66 -85q0 -48 -39 -76q-40 -29 -102 -29q-63 0 -98 28q-37 29 -34 73q1 35 31 63q28 27 81 33q-62 21 -62 81q0 44 37 72t95 28zM743 198q43 0 70 21q26 20 26 52q0 31 -24 47q-25 17 -63 17
q-42 0 -68 -18q-25 -18 -27 -50q-1 -31 22 -50t64 -19zM805 94q0 31 -23 50t-68 19q-46 0 -75 -21t-29 -57q0 -30 25 -48t67 -18q46 0 75 20q28 19 28 55z" />
    <glyph glyph-name="seveneighths" unicode="&#x215e;" horiz-adv-x="745" 
d="M658 670l-660 -670h-42l660 670h42zM51 307l242 328h-208l8 35h255l-6 -29l-245 -334h-46zM565 365q56 0 90 -26q33 -26 32 -69q-1 -34 -26 -60q-24 -25 -71 -33q66 -23 66 -85q0 -48 -39 -76q-40 -29 -102 -29q-63 0 -98 28q-37 29 -34 73q1 35 31 63q28 27 81 33
q-62 21 -62 81q0 44 37 72t95 28zM555 198q43 0 70 21q26 20 26 52q0 31 -24 47q-25 17 -63 17q-42 0 -68 -18q-25 -18 -27 -50q-1 -31 22 -50t64 -19zM617 94q0 31 -23 50t-68 19q-46 0 -75 -21t-29 -57q0 -30 25 -48t67 -18q46 0 75 20q28 19 28 55z" />
    <glyph glyph-name="arrowleft" unicode="&#x2190;" horiz-adv-x="727" 
d="M697 299h-580l273 -272l-36 -37l-334 334l334 334l36 -36l-273 -273h580v-50z" />
    <glyph glyph-name="arrowup" unicode="&#x2191;" horiz-adv-x="748" 
d="M712 307l-273 274v-581h-50v581l-273 -274l-36 36l334 334l334 -334z" />
    <glyph glyph-name="arrowright" unicode="&#x2192;" horiz-adv-x="727" 
d="M757 324l-334 -334l-36 37l274 272h-581v50h581l-274 273l36 36z" />
    <glyph glyph-name="arrowdown" unicode="&#x2193;" horiz-adv-x="748" 
d="M748 327l-334 -334l-334 334l36 36l273 -273v580h50v-580l273 273z" />
    <glyph glyph-name="arrowupleft" unicode="&#x2196;" horiz-adv-x="746" 
d="M700 -7l-589 590v-406h-51v493h492v-50h-406l590 -590z" />
    <glyph glyph-name="arrowupright" unicode="&#x2197;" horiz-adv-x="746" 
d="M756 670v-493h-51v406l-590 -590l-35 37l590 590h-407l1 50h492z" />
    <glyph glyph-name="arrowdownright" unicode="&#x2198;" horiz-adv-x="746" 
d="M756 493v-493h-492l-1 51h407l-590 589l35 37l590 -590v406h51z" />
    <glyph glyph-name="arrowdownleft" unicode="&#x2199;" horiz-adv-x="746" 
d="M146 51h406v-51h-492v493h51v-406l589 590l36 -37z" />
    <glyph glyph-name="minus" unicode="&#x2212;" horiz-adv-x="580" 
d="M598 283h-430l11 44h430z" />
    <glyph glyph-name="approxequal" unicode="&#x2248;" horiz-adv-x="581" 
d="M614 421l-10 -47q-49 -23 -102 -23q-50 0 -107 30t-103 30q-71 0 -118 -36l11 45q47 33 117 33q49 0 106 -29q59 -30 104 -30q60 0 102 27zM577 257l-11 -47q-49 -23 -103 -23q-49 0 -106 30t-103 30q-73 0 -118 -36l10 45q46 33 118 33q49 0 106 -29q58 -30 104 -30
q60 0 103 27z" />
    <glyph glyph-name="notequal" unicode="&#x2260;" horiz-adv-x="581" 
d="M453 387l-122 -141h241l-10 -43h-268l-87 -100h-48l86 100h-113l10 43h141l122 141h-230l10 44h258l87 101h49l-88 -101h124l-10 -44h-152z" />
    <glyph glyph-name="lessequal" unicode="&#x2264;" horiz-adv-x="418" 
d="M120 338l259 -110l-11 -47l-315 140l9 41l381 141l-13 -54zM21 135h344l-10 -44h-345z" />
    <glyph glyph-name="greaterequal" unicode="&#x2265;" horiz-adv-x="419" 
d="M355 346l-260 111l12 47l315 -141l-9 -41l-380 -140l11 53zM356 92h-344l10 44h345z" />
    <glyph glyph-name="K.ss03" horiz-adv-x="676" 
d="M279 333l356 -333h-65l-329 311h-44l-71 -311h-50l154 670h50l-72 -313h31l451 313h71z" />
    <glyph glyph-name="Kcommaaccent.ss03" horiz-adv-x="676" 
d="M279 333l356 -333h-65l-329 311h-44l-71 -311h-50l154 670h50l-72 -313h31l451 313h71zM298 -45h57l-91 -139h-39z" />
    <glyph glyph-name="Q.ss04" horiz-adv-x="811" 
d="M850 335q-14 -90 -60 -161q-48 -73 -119 -120l146 -174l-39 -34l-154 181q-80 -39 -167 -39q-146 0 -230 101t-62 246q23 146 137 247q113 100 256 100q147 0 231 -101q84 -100 61 -246zM460 36q124 0 222 86t117 213q19 126 -51 213t-192 87q-126 0 -223 -87
q-99 -88 -118 -213q-19 -124 52 -212q71 -87 193 -87z" />
    <glyph glyph-name="I.ss05" horiz-adv-x="243" 
d="M131 0h-51l154 670h51z" />
    <glyph glyph-name="IJ.ss05" horiz-adv-x="837" 
d="M131 0h-51l154 670h51zM903 670l-99 -423q-27 -117 -107 -187q-82 -71 -187 -71q-97 0 -154 59q-56 58 -55 155l48 11q-1 -81 42 -130t122 -49q85 0 152 59t89 153l98 423h51z" />
    <glyph glyph-name="Iacute.ss05" horiz-adv-x="243" 
d="M307 748h-47l118 138h63zM131 0h-51l154 670h51z" />
    <glyph glyph-name="Icircumflex.ss05" horiz-adv-x="243" 
d="M376 741l-65 105l-115 -105h-55l151 138h46l87 -138h-49zM234 670h51l-154 -670h-51z" />
    <glyph glyph-name="Idieresis.ss05" horiz-adv-x="243" 
d="M195 841q17 0 28 -11t11 -27q0 -15 -11 -26t-28 -11q-16 0 -27 11t-11 26q0 14 11 27q10 11 27 11zM384 841q17 0 28 -11t11 -27q0 -15 -11 -26t-28 -11q-16 0 -27 11t-11 26q0 14 11 27q10 11 27 11zM131 0h-51l154 670h51z" />
    <glyph glyph-name="Idotaccent.ss05" horiz-adv-x="243" 
d="M288 846q15 0 28 -11q11 -10 11 -26q0 -15 -11 -26t-28 -11q-16 0 -27 11t-11 26t11 26t27 11zM131 0h-51l154 670h51z" />
    <glyph glyph-name="Igrave.ss05" horiz-adv-x="243" 
d="M180 886l118 -138h-47l-134 138h63zM131 0h-51l154 670h51z" />
    <glyph glyph-name="Imacron.ss05" horiz-adv-x="243" 
d="M416 770h-267l9 40h267zM131 0h-51l154 670h51z" />
    <glyph glyph-name="Iogonek.ss05" horiz-adv-x="243" 
d="M193 670l-154 -670h-1l-8 -6q-9 -6 -14 -11q-4 -4 -11 -9.5t-9 -7.5q-9 -9 -16 -15q-14 -12 -16 -14q-7 -7 -11 -12q-5 -7 -9 -14q-4 -8 -5 -13q-2 -10 -2 -14q0 -18 13 -30q14 -12 36 -12q13 0 46 11l-1 -35q-37 -14 -59 -14q-33 0 -55 20q-21 19 -21 52q0 28 22 56
q20 25 76 68h-6l154 670h51z" />
    <glyph glyph-name="J.ss05" horiz-adv-x="594" 
d="M637 670l-99 -423q-27 -117 -107 -187q-82 -71 -187 -71q-97 0 -154 59q-56 58 -55 155l48 11q-1 -81 42 -130t122 -49q85 0 152 59t89 153l98 423h51z" />
    <glyph glyph-name="i.loclTRK" horiz-adv-x="270" 
d="M275 665q15 0 28 -11q11 -10 11 -26q0 -15 -11 -26t-28 -11q-16 0 -27 11t-11 26t11 26t27 11zM157 0h-49l113 489h49z" />
    <glyph glyph-name="germandbls.case" horiz-adv-x="1223" 
d="M420 681q103 0 163 -50q62 -51 68 -137l-50 -12q-5 72 -54 114t-132 42q-82 0 -135 -40q-54 -40 -54 -104q0 -38 23 -61q24 -24 72 -43l126 -49q136 -51 136 -155q0 -88 -70 -142q-72 -55 -184 -55q-113 0 -186 56q-71 55 -73 150l52 12q2 -80 58 -127t152 -47
q91 0 146 41q54 40 54 108q0 74 -100 113l-128 49q-65 26 -98 59q-32 32 -32 85q0 85 70 140q68 53 176 53zM1022 681q103 0 163 -50q62 -51 68 -137l-50 -12q-5 72 -54 114t-132 42q-82 0 -135 -40q-54 -40 -54 -104q0 -38 23 -61q24 -24 72 -43l126 -49q136 -51 136 -155
q0 -88 -70 -142q-72 -55 -184 -55q-113 0 -186 56q-71 55 -73 150l52 12q2 -80 58 -127t152 -47q91 0 146 41q54 40 54 108q0 74 -100 113l-128 49q-65 26 -98 59q-32 32 -32 85q0 85 70 140q68 53 176 53z" />
    <glyph glyph-name="a.ss01" horiz-adv-x="654" 
d="M659 489l-113 -489h-49l22 96q-41 -50 -97 -78q-58 -29 -121 -29q-103 0 -163 72q-61 73 -43 185q18 113 100 185q80 70 186 70q77 0 129 -37t70 -105l30 130h49zM312 33q83 0 155 60q71 59 86 153q14 95 -37 153t-135 58q-87 0 -155 -58q-69 -59 -84 -153
q-15 -95 35 -154t135 -59z" />
    <glyph glyph-name="aacute.ss01" horiz-adv-x="654" 
d="M465 567h-47l118 138h63zM659 489l-113 -489h-49l22 96q-41 -50 -97 -78q-58 -29 -121 -29q-103 0 -163 72q-61 73 -43 185q18 113 100 185q80 70 186 70q77 0 129 -37t70 -105l30 130h49zM312 33q83 0 155 60q71 59 86 153q14 95 -37 153t-135 58q-87 0 -155 -58
q-69 -59 -84 -153q-15 -95 35 -154t135 -59z" />
    <glyph glyph-name="abreve.ss01" horiz-adv-x="654" 
d="M439 558q-59 0 -91 35q-31 34 -20 91h39q-7 -40 15 -65t61 -25t70 25t38 65h45q-10 -56 -54 -91t-103 -35zM659 489l-113 -489h-49l22 96q-41 -50 -97 -78q-58 -29 -121 -29q-103 0 -163 72q-61 73 -43 185q18 113 100 185q80 70 186 70q77 0 129 -37t70 -105l30 130h49z
M312 33q83 0 155 60q71 59 86 153q14 95 -37 153t-135 58q-87 0 -155 -58q-69 -59 -84 -153q-15 -95 35 -154t135 -59z" />
    <glyph glyph-name="acircumflex.ss01" horiz-adv-x="654" 
d="M354 560h-55l151 138h46l87 -138h-49l-65 105zM659 489l-113 -489h-49l22 96q-41 -50 -97 -78q-58 -29 -121 -29q-103 0 -163 72q-61 73 -43 185q18 113 100 185q80 70 186 70q77 0 129 -37t70 -105l30 130h49zM312 33q83 0 155 60q71 59 86 153q14 95 -37 153t-135 58
q-87 0 -155 -58q-69 -59 -84 -153q-15 -95 35 -154t135 -59z" />
    <glyph glyph-name="adieresis.ss01" horiz-adv-x="654" 
d="M353 585q-16 0 -27 11t-11 26q0 14 11 27q10 11 27 11t28 -11t11 -27q0 -15 -11 -26t-28 -11zM542 585q-16 0 -27 11t-11 26q0 14 11 27q10 11 27 11t28 -11t11 -27q0 -15 -11 -26t-28 -11zM659 489l-113 -489h-49l22 96q-41 -50 -97 -78q-58 -29 -121 -29
q-103 0 -163 72q-61 73 -43 185q18 113 100 185q80 70 186 70q77 0 129 -37t70 -105l30 130h49zM312 33q83 0 155 60q71 59 86 153q14 95 -37 153t-135 58q-87 0 -155 -58q-69 -59 -84 -153q-15 -95 35 -154t135 -59z" />
    <glyph glyph-name="agrave.ss01" horiz-adv-x="654" 
d="M409 567l-134 138h63l118 -138h-47zM659 489l-113 -489h-49l22 96q-41 -50 -97 -78q-58 -29 -121 -29q-103 0 -163 72q-61 73 -43 185q18 113 100 185q80 70 186 70q77 0 129 -37t70 -105l30 130h49zM312 33q83 0 155 60q71 59 86 153q14 95 -37 153t-135 58
q-87 0 -155 -58q-69 -59 -84 -153q-15 -95 35 -154t135 -59z" />
    <glyph glyph-name="amacron.ss01" horiz-adv-x="654" 
d="M574 589h-267l9 40h267zM659 489l-113 -489h-49l22 96q-41 -50 -97 -78q-58 -29 -121 -29q-103 0 -163 72q-61 73 -43 185q18 113 100 185q80 70 186 70q77 0 129 -37t70 -105l30 130h49zM312 33q83 0 155 60q71 59 86 153q14 95 -37 153t-135 58q-87 0 -155 -58
q-69 -59 -84 -153q-15 -95 35 -154t135 -59z" />
    <glyph glyph-name="aogonek.ss01" horiz-adv-x="654" 
d="M659 489l-113 -489q-8 -7 -19 -16l-18 -15q-1 -1 -6.5 -5.5t-9.5 -7.5q-7 -5 -14 -12t-11 -12q-2 -2 -5.5 -6t-4.5 -6q-2 -3 -6 -11q-4 -7 -5 -13q-1 -4 -1 -12q0 -21 13 -31q14 -11 35 -11q13 0 46 11l-1 -35q-37 -14 -59 -14q-33 0 -55 20q-21 20 -21 52q0 28 22 56
q20 25 76 68h-5l22 96q-41 -50 -97 -78q-58 -29 -121 -29q-103 0 -163 72q-61 73 -43 185q18 113 100 185q80 70 186 70q77 0 129 -37t70 -105l30 130h49zM312 33q83 0 155 60q71 59 86 153q14 95 -37 153t-135 58q-87 0 -155 -58q-69 -59 -84 -153q-15 -95 35 -154t135 -59
z" />
    <glyph glyph-name="aring.ss01" horiz-adv-x="654" 
d="M444 552q-38 0 -63 25t-25 61q0 41 31 71q30 29 73 29q38 0 63 -25t25 -62q0 -39 -31 -69t-73 -30zM457 706q-27 0 -47 -20t-20 -46q0 -23 16 -39q17 -17 41 -17q28 0 48 20t20 46q0 24 -16 40t-42 16zM659 489l-113 -489h-49l22 96q-41 -50 -97 -78q-58 -29 -121 -29
q-103 0 -163 72q-61 73 -43 185q18 113 100 185q80 70 186 70q77 0 129 -37t70 -105l30 130h49zM312 33q83 0 155 60q71 59 86 153q14 95 -37 153t-135 58q-87 0 -155 -58q-69 -59 -84 -153q-15 -95 35 -154t135 -59z" />
    <glyph glyph-name="atilde.ss01" horiz-adv-x="654" 
d="M393 646q-19 0 -33 -13q-15 -14 -20 -37h-38q11 44 37 66t60 22q32 0 59 -26q28 -27 51 -27q18 0 34 14q14 13 19 38h38q-11 -44 -37 -66q-28 -23 -60 -23q-28 0 -59 26t-51 26zM659 489l-113 -489h-49l22 96q-41 -50 -97 -78q-58 -29 -121 -29q-103 0 -163 72
q-61 73 -43 185q18 113 100 185q80 70 186 70q77 0 129 -37t70 -105l30 130h49zM312 33q83 0 155 60q71 59 86 153q14 95 -37 153t-135 58q-87 0 -155 -58q-69 -59 -84 -153q-15 -95 35 -154t135 -59z" />
    <glyph glyph-name="l.ss02" horiz-adv-x="242" 
d="M129 0h-49l178 770h49z" />
    <glyph glyph-name="lacute.ss02" horiz-adv-x="242" 
d="M331 848h-47l118 138h63zM129 0h-49l178 770h49z" />
    <glyph glyph-name="lcaron.ss02" horiz-adv-x="242" 
d="M129 0h-49l178 770h49zM393 611h-40l37 159h50z" />
    <glyph glyph-name="lcommaaccent.ss02" horiz-adv-x="242" 
d="M37 0h-49l178 770h49zM-104 -184l74 139h57l-91 -139h-40z" />
    <glyph glyph-name="ldot.ss02" horiz-adv-x="298" 
d="M129 0h-49l178 770h49zM345 369q16 0 27 -11t11 -26q0 -16 -10 -26q-11 -11 -28 -11q-16 0 -27 11t-11 26t11 26t27 11z" />
    <glyph glyph-name="lslash.ss02" horiz-adv-x="319" 
d="M359 403l-110 -62l-79 -341h-48l72 309l-100 -56l12 50l99 56l95 411h49l-88 -379l109 62z" />
    <glyph glyph-name="k.ss03" horiz-adv-x="586" 
d="M281 251l287 -251h-61l-263 229h-48l-53 -229h-49l179 770h49l-115 -494h37l318 213h69z" />
    <glyph glyph-name="kcommaaccent.ss03" horiz-adv-x="586" 
d="M281 251l287 -251h-61l-263 229h-48l-53 -229h-49l179 770h49l-115 -494h37l318 213h69zM257 -45h57l-91 -139h-39z" />
    <glyph glyph-name="f_j" horiz-adv-x="632" 
d="M638 489l-144 -626q-12 -51 -50 -82t-90 -31q-37 0 -66 17l21 42q19 -12 44 -12q34 0 60 20q25 19 33 51l133 579h-318l-103 -447h-48l103 447h-91l10 42h90l30 129q16 73 69 118q52 44 121 44q54 0 90 -27l-23 -38q-29 21 -72 21q-50 0 -87 -32t-49 -86l-30 -129h367z
M646 676q15 0 28 -11q11 -10 11 -27q0 -15 -11 -26t-28 -11q-16 0 -27 11t-11 26q0 16 11 27t27 11z" />
    <glyph glyph-name="f_t" horiz-adv-x="728" 
d="M607 447l-71 -308q-11 -50 7 -76q19 -28 60 -28q50 0 99 35l9 -43q-55 -38 -115 -38q-65 0 -95 40q-30 41 -14 109l71 309h-298l-103 -447h-49l103 447h-90l10 42h89l30 129q16 73 69 118q52 44 121 44q56 0 90 -27l-23 -38q-29 21 -71 21q-50 0 -88 -32q-37 -31 -49 -86
l-30 -129h299l42 181h49l-42 -181h183l-9 -42h-184z" />
    <glyph glyph-name="fl.ss02" horiz-adv-x="591" 
d="M260 447l-103 -447h-49l103 447h-90l10 42h90l30 129q16 75 68 119q50 43 121 43q46 0 75 -18l-15 -38q-27 13 -62 13q-53 0 -89 -33q-37 -34 -49 -86l-30 -129h193l-10 -42h-193zM670 770l-178 -770h-49l179 770h48z" />
    <glyph glyph-name="zero.tf" 
d="M429 681q122 0 180 -95t28 -251q-30 -157 -121 -251q-92 -95 -211 -95q-121 0 -180 96q-58 95 -28 250q30 157 121 251q92 95 211 95zM311 36q99 0 174 82q76 83 101 217q27 134 -18 217t-145 83q-98 0 -173 -82q-77 -84 -102 -218q-27 -132 19 -216q45 -83 144 -83z" />
    <glyph glyph-name="one.tf" 
d="M520 46l-10 -46h-466l10 46h212l129 560l-209 -104l13 54l229 114h30l-143 -624h205z" />
    <glyph glyph-name="two.tf" 
d="M154 46h365l-11 -46h-458l9 32l303 223q102 71 143 120q42 49 42 116q0 65 -42 106q-41 40 -113 40q-76 0 -125 -48q-51 -49 -58 -130l-48 8q11 97 75 156q64 58 160 58q91 0 145 -51t54 -136q0 -79 -46 -135q-45 -55 -157 -138z" />
    <glyph glyph-name="three.tf" 
d="M623 516q0 -68 -43 -112q-45 -46 -116 -61q104 -32 104 -140q0 -91 -71 -153q-70 -61 -177 -61q-104 0 -164 61q-60 62 -53 159l46 10q-4 -82 42 -134t131 -52t141 49q57 50 57 121q0 59 -40 90t-111 31h-64l12 43h63q78 0 137 37q60 38 60 108q0 57 -41 92
q-40 34 -109 34q-77 0 -126 -45t-63 -126l-46 9q16 94 80 150q62 55 158 55q88 0 140 -45q53 -45 53 -120z" />
    <glyph glyph-name="four.tf" 
d="M576 174h-113l-40 -174h-49l40 174h-374l12 51l465 445h60l-104 -453h112zM424 217l90 389l-409 -389h319z" />
    <glyph glyph-name="five.tf" 
d="M276 624l-77 -234h157q90 0 143 -46t53 -126q0 -95 -70 -162t-183 -67q-106 0 -169 63q-62 62 -61 165l48 9q-1 -88 48 -140q50 -53 136 -53q90 0 146 53t56 126q0 63 -42 99q-41 35 -112 35h-212l105 324h384l-11 -46h-339z" />
    <glyph glyph-name="six.tf" 
d="M488 637q-114 0 -193 -93t-96 -218q-4 -17 -5 -35q28 64 90 103t137 39q91 0 144 -53q54 -54 54 -137q0 -108 -71 -180q-72 -74 -183 -74q-106 0 -163 66q-58 67 -58 184q0 183 100 313q99 129 247 129q77 0 130 -37q52 -36 60 -104l-48 -9q-5 49 -45 78q-40 28 -100 28z
M409 389q-83 0 -145 -63q-61 -62 -61 -134q0 -70 46 -113q47 -44 117 -44q89 0 146 60t57 144q0 66 -44 108t-116 42z" />
    <glyph glyph-name="seven.tf" 
d="M769 670l-7 -33l-483 -637h-63l476 624h-431l11 46h497z" />
    <glyph glyph-name="eight.tf" 
d="M419 681q99 0 157 -47t53 -125q-3 -64 -49 -111q-46 -48 -139 -58q65 -20 96 -62q31 -43 31 -95q0 -86 -70 -140t-182 -54q-108 0 -172 51q-63 50 -59 132q5 66 60 117t158 60q-120 33 -120 149q0 82 65 133q63 50 171 50zM397 370q83 0 133 41q49 40 49 101q0 59 -44 93
t-118 34q-79 0 -129 -37q-51 -37 -55 -98q-4 -58 41 -96q46 -38 123 -38zM513 184q0 62 -44 98q-43 36 -126 36q-88 0 -145 -42t-57 -108q0 -61 48 -97q49 -37 127 -37q86 0 142 41q55 40 55 109z" />
    <glyph glyph-name="nine.tf" 
d="M402 680q108 0 164 -65q57 -66 57 -185q0 -184 -99 -313t-248 -129q-74 0 -129 38q-54 37 -61 103l48 9q4 -49 46 -77t99 -28q77 0 141 46q62 45 101 116q36 67 47 148q4 15 5 36q-29 -65 -89 -103q-62 -39 -138 -39q-88 0 -143 53t-55 136q0 107 71 181q70 73 183 73z
M358 280q84 0 145 63q61 62 61 134q0 71 -46 114t-117 43q-90 0 -146 -59q-57 -60 -57 -145q0 -65 44 -107q45 -43 116 -43z" />
    <glyph glyph-name="zero.zero.tf" 
d="M429 681q122 0 180 -95t28 -251q-30 -157 -121 -251q-92 -95 -211 -95q-121 0 -180 96q-58 95 -28 250q30 157 121 251q92 95 211 95zM423 635q-98 0 -173 -82q-77 -84 -102 -218q-20 -89 -3 -160l414 390q-45 70 -136 70zM311 36q99 0 174 82q76 83 101 217
q22 113 -6 189l-419 -394q43 -94 150 -94z" />
    <glyph glyph-name="zero.zero" horiz-adv-x="656" 
d="M482 681q124 0 184 -96t29 -250q-32 -155 -118 -250q-87 -96 -198 -96q-133 0 -196 96t-32 250q32 158 121 252q90 94 210 94zM202 335q-19 -88 -2 -159l416 391q-47 68 -137 68q-99 0 -174 -82q-76 -84 -103 -218zM644 335q24 113 -7 192l-421 -397q48 -94 166 -94
q88 0 162 83q73 82 100 216z" />
    <glyph glyph-name="zero.dnom" horiz-adv-x="385" 
d="M227 366q70 0 103 -52q33 -53 20 -135q-14 -88 -63 -137q-52 -52 -119 -52q-68 0 -103 51t-21 138q14 85 63 136t120 51zM172 26q50 0 88 41q37 40 49 112q11 71 -13 111q-24 41 -75 41q-52 0 -88 -42q-38 -44 -48 -110q-11 -70 13 -111q24 -42 74 -42z" />
    <glyph glyph-name="one.dnom" horiz-adv-x="223" 
d="M121 0h-39l73 314l-107 -54l9 41l123 63h25z" />
    <glyph glyph-name="two.dnom" horiz-adv-x="327" 
d="M258 268q0 -39 -26 -69q-27 -31 -91 -79l-117 -85h190l-7 -35h-259l7 26l163 118q57 42 81 69q23 26 23 54q0 31 -21 51q-20 19 -56 19q-41 0 -67 -25q-27 -25 -30 -68l-35 6q3 54 40 87t94 33q52 0 81 -28q30 -28 30 -74z" />
    <glyph glyph-name="three.dnom" horiz-adv-x="338" 
d="M199 367q51 0 80 -26t28 -66q0 -70 -88 -92q56 -18 56 -77q-1 -49 -41 -83q-41 -35 -102 -35t-96 35t-31 90l36 6q-4 -43 22 -71q25 -27 72 -27q44 0 74 24t30 60q0 30 -23 47t-63 17h-36l6 29h22q49 0 88 18q38 18 38 56q0 28 -19 46q-18 17 -56 17q-42 0 -71 -25
t-37 -67l-33 7q7 50 48 85q38 32 96 32z" />
    <glyph glyph-name="four.dnom" horiz-adv-x="362" 
d="M297 89h-64l-21 -90h-37l21 90h-212l9 37l259 237h44l-56 -241h64zM203 122l45 194l-214 -194h169z" />
    <glyph glyph-name="five.dnom" horiz-adv-x="338" 
d="M105 325l-24 -106h79q52 0 84 -27q31 -27 31 -74q0 -57 -41 -92q-42 -36 -108 -36q-54 0 -90 30q-37 30 -38 76l38 6q1 -34 28 -56t64 -22q49 0 80 26q30 26 30 66q0 32 -22 51t-62 19h-116l40 174h231l-8 -35h-196z" />
    <glyph glyph-name="six.dnom" horiz-adv-x="360" 
d="M200 232q51 0 80 -29t29 -78q0 -58 -40 -97q-41 -39 -103 -39q-58 0 -90 39q-32 40 -32 109q0 97 52 162q52 66 130 66q44 0 74 -21t35 -62l-38 -6q-7 57 -72 57q-54 0 -93 -47q-39 -46 -48 -111q20 28 49 42q31 15 67 15zM170 22q44 0 74 30q29 29 29 72q0 34 -21 57
q-21 22 -60 22q-45 0 -75 -31q-31 -33 -31 -71q0 -35 24 -57q23 -22 60 -22z" />
    <glyph glyph-name="seven.dnom" horiz-adv-x="284" 
d="M301 363l-6 -29l-245 -335h-46l242 329h-208l8 35h255z" />
    <glyph glyph-name="eight.dnom" horiz-adv-x="336" 
d="M174 365q56 0 90 -26q33 -26 32 -69q-1 -34 -26 -60q-24 -25 -71 -33q66 -23 66 -85q0 -48 -39 -76q-40 -29 -102 -29q-63 0 -98 28q-37 29 -34 73q1 35 31 63q29 27 81 33q-62 21 -62 81q0 44 37 72t95 28zM164 198q43 0 70 21q26 20 26 52q0 31 -24 47q-25 17 -63 17
q-43 0 -68 -18t-27 -50q-1 -31 22 -50t64 -19zM226 94q0 31 -23 50t-68 19q-47 0 -75 -21q-29 -21 -29 -57q0 -30 25 -48q26 -18 67 -18q46 0 75 20q28 19 28 55z" />
    <glyph glyph-name="nine.dnom" horiz-adv-x="360" 
d="M194 365q60 0 91 -38q32 -40 32 -109q0 -94 -52 -161q-53 -68 -130 -68q-45 0 -74 22q-31 23 -35 62l38 6q8 -57 72 -57q55 0 94 47q38 45 47 110q-41 -56 -116 -56q-49 0 -79 30t-30 77q0 58 40 97q39 38 102 38zM168 152q46 0 77 31q30 30 30 70q0 36 -23 58t-61 22
q-43 0 -73 -30t-30 -72q0 -33 21 -56t59 -23z" />
    <glyph glyph-name="zero.numr" horiz-adv-x="385" 
d="M373 680q70 0 103 -52q33 -53 20 -135q-14 -88 -63 -137q-52 -52 -119 -52q-68 0 -103 51t-21 138q14 85 63 136t120 51zM318 340q50 0 88 41q37 40 49 112q11 71 -13 111q-24 41 -75 41q-52 0 -88 -42q-38 -44 -48 -110q-11 -70 13 -111q24 -42 74 -42z" />
    <glyph glyph-name="one.numr" horiz-adv-x="223" 
d="M263 306h-39l73 314l-107 -54l9 41l123 63h25z" />
    <glyph glyph-name="two.numr" horiz-adv-x="327" 
d="M402 578q0 -39 -26 -69q-27 -31 -91 -79l-117 -85h190l-7 -35h-259l7 26l163 118q57 42 81 69q23 26 23 54q0 31 -21 51q-20 19 -56 19q-41 0 -67 -25q-27 -25 -30 -68l-35 6q3 54 40 87q38 33 94 33q52 0 81 -28q30 -28 30 -74z" />
    <glyph glyph-name="three.numr" horiz-adv-x="338" 
d="M345 682q51 0 80 -26t28 -66q0 -70 -88 -92q56 -18 56 -77q-1 -49 -41 -83t-102 -34t-96 34q-35 35 -31 90l36 6q-4 -43 22 -71q25 -27 72 -27q44 0 74 24t30 60q0 30 -23 47t-63 17h-36l6 29h22q49 0 88 18q38 18 38 56q0 28 -19 46q-18 17 -56 17q-42 0 -71 -25
t-37 -67l-33 7q7 50 48 85q38 32 96 32z" />
    <glyph glyph-name="four.numr" horiz-adv-x="362" 
d="M439 396h-64l-21 -89h-37l20 89h-211l9 37l259 237h44l-56 -241h64zM345 429l45 194l-214 -194h169z" />
    <glyph glyph-name="five.numr" horiz-adv-x="338" 
d="M249 635l-24 -106h79q52 0 84 -27q31 -27 31 -74q0 -57 -41 -92q-42 -36 -108 -36q-54 0 -90 30q-37 30 -38 76l38 6q1 -34 28 -56t64 -22q49 0 80 26q30 26 30 66q0 32 -22 51t-62 19h-116l40 174h231l-8 -35h-196z" />
    <glyph glyph-name="six.numr" horiz-adv-x="360" 
d="M346 547q51 0 80 -29t29 -78q0 -57 -40 -96q-41 -39 -103 -39q-58 0 -90 39q-32 40 -32 108q0 97 52 162q52 66 130 66q44 0 74 -21t35 -62l-38 -6q-7 57 -72 57q-54 0 -93 -47t-48 -111q19 27 50 42q32 15 66 15zM316 337q44 0 74 30q29 29 29 72q0 35 -21 57t-60 22
q-45 0 -75 -31q-31 -33 -31 -71q0 -34 24 -57q23 -22 60 -22z" />
    <glyph glyph-name="seven.numr" horiz-adv-x="284" 
d="M443 670l-6 -29l-245 -334h-46l242 328h-208l8 35h255z" />
    <glyph glyph-name="eight.numr" horiz-adv-x="336" 
d="M317 680q56 0 90 -26q33 -26 32 -69q-1 -34 -26 -60q-24 -25 -71 -33q66 -23 66 -85q0 -47 -39 -76q-40 -29 -102 -29q-63 0 -98 28q-37 29 -34 73q1 35 31 63q28 27 81 33q-62 21 -62 81q0 44 37 72t95 28zM307 513q43 0 70 21q26 20 26 52q0 30 -24 47q-25 17 -63 17
q-42 0 -68 -18q-25 -18 -27 -50q-1 -31 22 -50t64 -19zM369 409q0 31 -23 50t-68 19q-46 0 -75 -21t-29 -57q0 -30 25 -48q26 -18 67 -18q46 0 75 20q28 19 28 55z" />
    <glyph glyph-name="nine.numr" horiz-adv-x="360" 
d="M340 680q60 0 91 -38q32 -40 32 -109q0 -94 -52 -161t-130 -67q-43 0 -74 22q-31 21 -35 61l38 6q8 -57 72 -57q55 0 94 47q38 45 47 110q-41 -56 -116 -56q-49 0 -79 30t-30 77q0 58 40 97q39 38 102 38zM314 467q46 0 77 31q30 30 30 70q0 36 -23 58t-61 22
q-43 0 -73 -30t-30 -72q0 -34 21 -56q21 -23 59 -23z" />
    <glyph glyph-name="backslash.case" horiz-adv-x="349" 
d="M391 0h-47l-88 670h48z" />
    <glyph glyph-name="periodcentered.case" horiz-adv-x="190" 
d="M191 368q16 0 27 -11t11 -26q0 -16 -10 -26q-11 -11 -28 -11t-28 11t-11 26t12 26q13 11 27 11z" />
    <glyph glyph-name="bullet.case" horiz-adv-x="393" 
d="M296 465q58 0 98 -39t40 -94q0 -56 -39 -94q-40 -38 -99 -38q-58 0 -98 38t-40 94q0 55 40 94t98 39z" />
    <glyph glyph-name="colon.case" horiz-adv-x="192" 
d="M189 535q15 0 28 -11q11 -10 11 -26q0 -15 -11 -26t-28 -11q-16 0 -27 11t-11 26t11 26t27 11zM111 184q16 0 27 -11t11 -26t-11 -26t-27 -11q-17 0 -28 11t-11 26t12 26q13 11 27 11z" />
    <glyph glyph-name="exclamdown.case" horiz-adv-x="262" 
d="M272 598q-15 0 -27 12t-12 26q0 16 11 27q10 10 28 10q17 0 27 -10q11 -11 11 -27q0 -13 -11 -26q-11 -12 -27 -12zM100 0l7 31l106 450h50l-104 -450l-7 -31h-52z" />
    <glyph glyph-name="questiondown.case" horiz-adv-x="510" 
d="M385 601q-14 0 -27 11q-12 11 -12 26q0 16 11 27q10 10 28 10q17 0 27 -10q11 -11 11 -27q0 -15 -11 -26t-27 -11zM440 214l47 -8q-11 -96 -77 -155q-68 -60 -164 -60q-88 0 -143 50t-55 129q0 98 78 159q77 61 180 65l22 88h46l-31 -128h-27q-83 0 -151 -49
q-69 -49 -69 -130q0 -62 42 -101t109 -39q75 0 130 50q54 49 63 129z" />
    <glyph glyph-name="semicolon.case" horiz-adv-x="205" 
d="M92 535q15 0 28 -11q11 -10 11 -26q0 -15 -11 -26t-28 -11q-16 0 -27 11t-11 26t11 26t27 11zM-91 -132h-41l129 261h61l-1 -3z" />
    <glyph glyph-name="slash.case" horiz-adv-x="373" 
d="M-43 0h-47l415 670h47z" />
    <glyph glyph-name="braceleft.case" horiz-adv-x="433" 
d="M542 670l-11 -43h-72q-37 0 -64 -23q-28 -23 -37 -63l-23 -98q-19 -88 -95 -113q29 -14 41 -43q11 -29 2 -68l-20 -90q-10 -38 8 -62t54 -24h72l-10 -43h-77q-55 0 -82 35t-14 90l20 90q11 41 -9 67q-19 25 -61 27l-18 3l10 39l19 3q43 2 73 27q29 25 40 66l22 98
q14 58 56 91q43 34 99 34h77z" />
    <glyph glyph-name="braceright.case" horiz-adv-x="443" 
d="M408 359l-10 -40l-19 -2q-43 -3 -72 -28q-31 -26 -41 -66l-22 -98q-14 -56 -56 -90q-44 -35 -99 -35h-77l11 43h72q35 0 64 24q28 24 37 62l23 98q19 87 96 113q-29 13 -41 43t-3 69l20 89q11 39 -7 63q-17 23 -55 23h-72l10 43h77q56 0 83 -34t13 -91l-20 -89
q-10 -41 10 -67q20 -27 60 -28z" />
    <glyph glyph-name="bracketleft.case" horiz-adv-x="385" 
d="M273 627l-135 -584h178l-11 -43h-225l155 670h225l-10 -43h-177z" />
    <glyph glyph-name="bracketright.case" horiz-adv-x="384" 
d="M392 670l-154 -670h-226l11 43h176l135 584h-177l10 43h225z" />
    <glyph glyph-name="parenleft.case" horiz-adv-x="344" 
d="M384 681l32 -33q-172 -130 -202 -313q-29 -184 97 -317l-36 -29q-145 143 -113 346q32 204 222 346z" />
    <glyph glyph-name="parenright.case" horiz-adv-x="344" 
d="M203 652l36 29q145 -143 113 -346q-32 -204 -222 -346l-32 33q172 130 202 313q29 184 -97 317z" />
    <glyph glyph-name="emdash.case" horiz-adv-x="1041" 
d="M1076 314h-920l9 40h920z" />
    <glyph glyph-name="endash.case" horiz-adv-x="621" 
d="M652 314h-500l9 40h500z" />
    <glyph glyph-name="hyphen.case" horiz-adv-x="442" 
d="M472 312h-320l9 44h321z" />
    <glyph glyph-name="guillemotleft.case" horiz-adv-x="386" 
d="M116 322l168 178h53l-172 -182l85 -174h-48zM274 322l168 178h53l-172 -182l85 -174h-48z" />
    <glyph glyph-name="guillemotright.case" horiz-adv-x="386" 
d="M200 322l-168 -178h-54l172 182l-85 174h49zM357 322l-168 -178h-54l172 182l-85 174h49z" />
    <glyph glyph-name="guilsinglleft.case" horiz-adv-x="228" 
d="M88 322l168 178h53l-172 -182l85 -174h-48z" />
    <glyph glyph-name="guilsinglright.case" horiz-adv-x="228" 
d="M227 322l-168 -178h-53l171 182l-84 174h48z" />
    <glyph glyph-name="cent.tf" 
d="M310 34h6q60 0 116 34q55 34 80 88l45 -10q-31 -70 -98 -113q-68 -44 -146 -44h-12l-28 -119h-43l29 124q-84 19 -131 87t-32 164q18 109 99 180q82 72 180 76l31 129h43l-30 -131q68 -7 116 -49q46 -40 55 -103l-49 -13q-8 52 -44 82q-38 32 -90 38zM144 245
q-12 -79 24 -134t102 -72l96 415q-81 -6 -144 -63q-65 -58 -78 -146z" />
    <glyph glyph-name="dollar.tf" 
d="M609 482l-48 -12q-4 54 -38 91q-31 34 -89 45l-57 -242l54 -22q62 -25 93 -59q30 -33 30 -86q0 -77 -62 -125q-63 -49 -163 -49q-25 0 -32 1l-28 -124h-45l30 131q-73 17 -116 63q-44 46 -48 117l51 10q2 -58 35 -94q35 -38 90 -53l62 260l-10 4q-76 31 -108 62
q-32 30 -32 80q0 77 61 125q60 47 158 47h5l27 118h44l-28 -122q71 -10 114 -55q43 -44 50 -111zM394 610h-3q-71 0 -118 -35q-46 -34 -46 -91q0 -32 23 -55q24 -24 81 -46l8 -3zM366 319l-60 -252q6 -1 28 -1q79 0 125 36q47 36 47 93q0 36 -20 59t-66 43z" />
    <glyph glyph-name="Euro.tf" 
d="M326 36q71 0 130 50t96 139l47 -11q-41 -104 -114 -164q-74 -61 -167 -61t-150 67q-57 68 -60 180h-64l8 39h56q3 56 16 112h-45l8 39h48q38 118 118 186q81 69 183 69q92 0 147 -61t61 -166l-50 -10q-8 90 -51 141q-43 50 -115 50q-79 0 -144 -56q-64 -55 -97 -153h273
l-16 -39h-268q-14 -58 -17 -112h231l-15 -39h-216q5 -93 49 -146q45 -54 118 -54z" />
    <glyph glyph-name="florin.tf" 
d="M502 681q74 0 105 -40l-27 -37q-28 34 -82 34t-97 -33q-44 -33 -68 -91l-65 -159h202l-10 -42h-210l-146 -356q-51 -122 -167 -122q-45 0 -71 23l29 40q16 -16 48 -16q36 0 66 21q29 21 43 54l147 356h-128l9 42h136l68 164q31 76 88 119q56 43 130 43z" />
    <glyph glyph-name="sterling.tf" 
d="M430 681q99 0 147 -59q48 -58 28 -154l-48 -7q17 81 -17 128t-112 47q-79 0 -135 -47q-58 -49 -76 -122l-31 -133h266l-10 -46h-266l-56 -242h393l-10 -46h-529l7 31l88 12l56 245h-84l10 46h85l30 133q22 95 96 155q73 59 168 59z" />
    <glyph glyph-name="yen.tf" 
d="M431 301h172l-9 -40h-195l-20 -88h195l-10 -40h-194l-31 -133h-51l31 133h-193l9 40h193l20 88h-193l10 40h170l-150 369h54l143 -360l309 360h62z" />
    <glyph glyph-name="approxequal.tf" 
d="M646 421l-11 -47q-49 -23 -102 -23q-49 0 -106 30t-103 30q-72 0 -119 -36l11 45q46 33 117 33q49 0 106 -29q58 -30 104 -30q59 0 103 27zM608 257l-11 -47q-49 -23 -102 -23q-50 0 -107 30t-103 30q-73 0 -117 -36l10 45q46 33 117 33q50 0 107 -29q58 -30 103 -30
q59 0 103 27z" />
    <glyph glyph-name="divide.tf" 
d="M455 524q15 0 28 -11q11 -10 11 -26q0 -15 -11 -26t-28 -11q-16 0 -27 11t-11 26t11 26t27 11zM630 283h-430l10 44h430zM371 161q17 0 28 -11t11 -27q0 -15 -11 -26t-28 -11q-16 0 -27 11t-11 26q0 14 11 27q10 11 27 11z" />
    <glyph glyph-name="equal.tf" 
d="M633 387h-430l10 44h430zM590 203h-430l11 43h430z" />
    <glyph glyph-name="greater.tf" 
d="M560 314l-266 138l12 49l321 -168l-10 -44l-399 -168l12 55z" />
    <glyph glyph-name="greaterequal.tf" 
d="M549 346l-259 111l12 47l315 -141l-10 -41l-380 -140l11 53zM551 92h-345l11 44h344z" />
    <glyph glyph-name="less.tf" 
d="M266 308l266 -138l-12 -49l-322 168l11 44l399 168l-12 -54z" />
    <glyph glyph-name="lessequal.tf" 
d="M280 338l259 -110l-11 -47l-315 140l9 41l381 141l-13 -54zM181 135h344l-10 -44h-345z" />
    <glyph glyph-name="minus.tf" 
d="M628 283h-430l11 44h430z" />
    <glyph glyph-name="multiply.tf" 
d="M456 302l112 -142l-36 -29l-111 143l-182 -145l-25 33l181 145l-113 144l36 28l112 -144l182 146l26 -34z" />
    <glyph glyph-name="notequal.tf" 
d="M482 387l-122 -141h241l-11 -43h-268l-86 -100h-49l87 100h-114l11 43h140l122 141h-230l10 44h258l88 101h48l-87 -101h123l-10 -44h-151z" />
    <glyph glyph-name="plus.tf" 
d="M628 283h-193l-45 -194h-44l44 194h-192l11 44h192l44 194h45l-45 -194h194z" />
    <glyph glyph-name="plusminus.tf" 
d="M583 367l-10 -44h-193l-42 -179h-45l42 179h-192l10 44h192l43 184h45l-43 -184h193zM78 44h430l-10 -44h-430z" />
    <glyph glyph-name="bar.case" horiz-adv-x="241" 
d="M110 -41h-48l173 751h48z" />
    <glyph glyph-name="at.case" horiz-adv-x="967" 
d="M651 721q157 0 254 -91t97 -235q0 -49 -12 -98q-11 -44 -37 -92q-24 -43 -64 -70q-41 -27 -90 -27q-52 0 -78 26t-18 70q-69 -90 -181 -90q-72 0 -119 47q-46 46 -46 123q0 102 71 170t164 68q62 0 102 -33q41 -34 53 -91l27 115h36l-69 -301q-8 -32 11 -52
q18 -20 55 -20q72 0 115 79t43 173q0 133 -88 215t-229 82q-118 0 -219 -55q-102 -56 -165 -153t-63 -214q0 -138 85 -224q86 -88 218 -88q60 0 129 18q72 19 120 47l13 -30q-52 -33 -126 -51q-78 -19 -139 -19q-147 0 -242 96q-95 97 -95 245q0 127 68 234q66 105 180 166
q111 60 239 60zM532 149q74 0 133 57q58 57 58 140q0 65 -37 102t-96 37q-75 0 -133 -55q-59 -56 -59 -139q0 -63 38 -103q38 -39 96 -39z" />
    <glyph glyph-name="caron.alt" horiz-adv-x="600" 
d="M674 491h-40l37 159h50z" />
    </font>
</defs>
</svg>
