<?xml version="1.0" standalone="no"?>
<!DOCTYPE svg PUBLIC "-//W3C//DTD SVG 1.1//EN" "http://www.w3.org/Graphics/SVG/1.1/DTD/svg11.dtd" >
<svg xmlns="http://www.w3.org/2000/svg" xmlns:xlink="http://www.w3.org/1999/xlink" version="1.1">
<metadata>
Created by FontForge 20170731 at Fri Jan  1 02:30:17 1904
 By Aleksey,,,
Copyright (c) 2014 by Rene' Bieder. All rights reserved.
</metadata>
<defs>
<font id="GalanoGrotesqueAlt-ExtraBold" horiz-adv-x="610" >
  <font-face 
    font-family="Galano Grotesque Alt"
    font-weight="400"
    font-stretch="normal"
    units-per-em="1000"
    panose-1="0 0 9 0 0 0 0 0 0 0"
    ascent="757"
    descent="-243"
    x-height="505"
    cap-height="670"
    bbox="-167 -250 1270 992"
    underline-thickness="50"
    underline-position="-175"
    unicode-range="U+0020-FB02"
  />
<missing-glyph horiz-adv-x="774" 
d="M388 684q145 0 246 -100q102 -100 102 -250q0 -151 -102 -250t-246 -99t-247 100q-102 99 -102 249t102 250q101 100 247 100zM388 629q-120 0 -204 -84q-85 -85 -85 -211q0 -125 85 -210q84 -84 204 -84t204 84t84 210q0 127 -84 211t-204 84zM529 401q0 -38 -26 -66
t-72 -38v-25h-102v92h47q20 0 34 9q13 9 13 23q0 16 -10 25q-11 9 -28 9q-16 0 -29 -11q-12 -11 -14 -29l-104 20q9 48 49 80q38 31 105 31q62 0 99 -34q38 -35 38 -86zM378 248q26 0 42 -16t16 -39q0 -24 -16 -40q-17 -17 -42 -17q-24 0 -41 17q-16 16 -16 40q0 22 17 39
q16 16 40 16z" />
    <glyph glyph-name="fi" unicode="fi" horiz-adv-x="667" 
d="M611 505v-505h-187v359h-159v-359h-188v359h-67v146h67v78q0 89 58 144q56 53 150 53q50 0 94 -16l-28 -145q-20 4 -29 4q-25 0 -41 -14t-16 -39v-65h346zM517 551q-43 0 -74 29q-30 29 -30 73q0 42 30 72t74 30q46 0 76 -30t30 -72q0 -45 -30 -73q-31 -29 -76 -29z" />
    <glyph glyph-name="fl" unicode="fl" horiz-adv-x="734" 
d="M321 623q-26 0 -40 -14q-16 -16 -16 -39v-65h123v-146h-123v-359h-188v359h-67v146h67v78q0 89 57 143t150 54q61 0 109 -22l-37 -141q-20 6 -35 6zM708 158l27 -137q-65 -36 -127 -36q-82 0 -131 51q-50 52 -50 133v601h188v-586q0 -16 11 -27t28 -11q18 0 54 12z" />
    <glyph glyph-name=".notdef" horiz-adv-x="774" 
d="M388 684q145 0 246 -100q102 -100 102 -250q0 -151 -102 -250t-246 -99t-247 100q-102 99 -102 249t102 250q101 100 247 100zM388 629q-120 0 -204 -84q-85 -85 -85 -211q0 -125 85 -210q84 -84 204 -84t204 84t84 210q0 127 -84 211t-204 84zM529 401q0 -38 -26 -66
t-72 -38v-25h-102v92h47q20 0 34 9q13 9 13 23q0 16 -10 25q-11 9 -28 9q-16 0 -29 -11q-12 -11 -14 -29l-104 20q9 48 49 80q38 31 105 31q62 0 99 -34q38 -35 38 -86zM378 248q26 0 42 -16t16 -39q0 -24 -16 -40q-17 -17 -42 -17q-24 0 -41 17q-16 16 -16 40q0 22 17 39
q16 16 40 16z" />
    <glyph glyph-name=".null" horiz-adv-x="0" 
 />
    <glyph glyph-name="nonmarkingreturn" horiz-adv-x="333" 
 />
    <glyph glyph-name="space" unicode=" " horiz-adv-x="221" 
 />
    <glyph glyph-name="exclam" unicode="!" horiz-adv-x="306" 
d="M259 670v-31l-15 -400h-182l-15 400v31h212zM157 195q45 0 75 -30t30 -71q0 -42 -30 -70q-31 -29 -75 -29q-45 0 -74 29t-29 70t30 71t73 30z" />
    <glyph glyph-name="quotedbl" unicode="&#x22;" horiz-adv-x="471" 
d="M43 339v331h168v-331h-168zM260 339v331h168v-331h-168z" />
    <glyph glyph-name="numbersign" unicode="#" horiz-adv-x="730" 
d="M578 383l-26 -108h99l-37 -135h-96l-34 -140h-148l34 140h-104l-35 -140h-148l35 140h-99l37 135h95l27 108h-99l36 135h96l38 152h148l-38 -152h105l37 152h148l-37 -152h98l-36 -135h-96zM430 383h-104l-27 -108h105z" />
    <glyph glyph-name="dollar" unicode="$" horiz-adv-x="612" 
d="M582 217q0 -85 -54 -136q-53 -50 -139 -67v-114h-155v117q-83 20 -137 71q-57 54 -67 123l178 34q20 -92 110 -92q31 0 53 14q21 13 21 34q0 33 -43 43l-129 32q-174 40 -174 181q0 81 52 133q50 50 136 67v113h155v-116q79 -16 129 -66q49 -49 58 -122l-172 -30
q-14 87 -98 87q-31 0 -48 -13q-19 -14 -19 -37q0 -33 37 -40l126 -30q91 -23 135 -67q45 -45 45 -119z" />
    <glyph glyph-name="percent" unicode="%" horiz-adv-x="896" 
d="M220 685q74 0 126 -48t52 -125t-52 -125t-126 -48q-75 0 -127 48q-53 48 -53 125t53 125t127 48zM157 0l478 670h100l-477 -670h-101zM220 578q-26 0 -45 -18t-19 -48q0 -29 20 -47q21 -19 44 -19q25 0 44 19q18 18 18 47q0 30 -18 48t-44 18zM678 331q74 0 126 -48
t52 -125t-52 -125t-126 -48q-75 0 -127 48q-53 48 -53 125t53 125q52 48 127 48zM678 224q-26 0 -45 -18t-19 -48q0 -29 20 -47q21 -19 44 -19q25 0 44 19q18 18 18 47q0 30 -18 48t-44 18z" />
    <glyph glyph-name="ampersand" unicode="&#x26;" horiz-adv-x="696" 
d="M582 -27l-81 70q-88 -58 -204 -58q-117 0 -192 57t-75 151q0 111 113 173q-46 64 -46 129q0 86 64 138t165 52q104 0 162 -52t70 -136l-170 -32q-5 42 -19 58q-15 17 -42 17q-24 0 -37 -13q-14 -14 -14 -35q0 -41 65 -100l124 -107q4 17 4 46v37h172v-37q0 -95 -36 -168
l84 -72zM309 133q33 0 67 18l-128 111q-32 -26 -32 -57q0 -32 25 -52t68 -20z" />
    <glyph glyph-name="quotesingle" unicode="'" horiz-adv-x="255" 
d="M43 339v331h168v-331h-168z" />
    <glyph glyph-name="parenleft" unicode="(" horiz-adv-x="393" 
d="M225 336q0 -91 34 -158q36 -70 104 -144l-131 -116q-97 92 -149 192q-53 101 -53 226q0 126 53 227q53 102 149 192l126 -118q-66 -75 -100 -143q-33 -66 -33 -158z" />
    <glyph glyph-name="parenright" unicode=")" horiz-adv-x="393" 
d="M35 637l127 118q97 -94 149 -192t52 -227q0 -126 -52 -226t-149 -192l-132 116q69 75 104 143q34 67 34 159q0 93 -33 159t-100 142z" />
    <glyph glyph-name="asterisk" unicode="*" horiz-adv-x="447" 
d="M319 536l96 -55l-48 -83l-91 52v-98h-105v99l-91 -52l-48 82l95 55l-95 54l48 84l91 -52v98h105v-98l91 52l48 -83z" />
    <glyph glyph-name="plus" unicode="+" horiz-adv-x="567" 
d="M527 229h-171v-172h-145v172h-171v145h171v172h145v-172h171v-145z" />
    <glyph glyph-name="comma" unicode="," horiz-adv-x="277" 
d="M140 -132h-143l58 308h202v-4z" />
    <glyph glyph-name="hyphen" unicode="-" horiz-adv-x="455" 
d="M395 193h-335v155h335v-155z" />
    <glyph glyph-name="period" unicode="." horiz-adv-x="255" 
d="M127 201q45 0 75 -31q29 -30 29 -73q0 -45 -29 -73q-31 -29 -75 -29q-43 0 -74 29q-30 29 -30 73q0 41 30 73q30 31 74 31z" />
    <glyph glyph-name="slash" unicode="/" horiz-adv-x="451" 
d="M431 741l-288 -813h-123l288 813h123z" />
    <glyph glyph-name="zero" unicode="0" horiz-adv-x="663" 
d="M332 685q136 0 219 -96q83 -97 83 -254q0 -156 -83 -253t-219 -97q-135 0 -220 97q-84 96 -84 253q0 158 84 254t220 96zM332 149q51 0 79 49q29 50 29 137q0 88 -29 137q-28 48 -79 48q-50 0 -80 -48t-30 -137q0 -87 30 -137q30 -49 80 -49z" />
    <glyph glyph-name="one" unicode="1" horiz-adv-x="408" 
d="M350 670v-670h-189v448l-155 -79v177l220 124h124z" />
    <glyph glyph-name="two" unicode="2" horiz-adv-x="573" 
d="M541 165v-165h-515h-1v127l238 212q39 35 44 41q14 15 26 36q13 22 13 45q0 30 -18 48t-48 18q-75 0 -81 -95l-182 34q4 102 76 161q70 58 184 58q113 0 184 -60q70 -60 70 -164q0 -65 -31 -111t-103 -110l-87 -75h231z" />
    <glyph glyph-name="three" unicode="3" horiz-adv-x="584" 
d="M475 342q80 -45 80 -138q0 -96 -73 -157q-74 -62 -189 -62q-107 0 -182 57q-76 57 -89 156l185 33q16 -91 88 -91q34 0 58 19q22 18 22 48q0 29 -22 47q-21 17 -61 17h-76v136h71q36 0 59 17q22 16 22 43q0 31 -20 48q-21 18 -56 18q-34 0 -57 -24t-27 -72l-179 34
q17 101 87 158q69 56 175 56q111 0 183 -60q71 -59 71 -153q0 -85 -70 -130z" />
    <glyph glyph-name="four" unicode="4" horiz-adv-x="636" 
d="M614 110h-79v-110h-179v110h-339v173l290 388h228v-406h79v-155zM356 265v216l-153 -216h153z" />
    <glyph glyph-name="five" unicode="5" horiz-adv-x="582" 
d="M228 437h84q118 0 180 -58q63 -59 63 -159q0 -106 -72 -170q-73 -65 -189 -65q-110 0 -188 61q-76 60 -82 168l182 34q1 -53 27 -79q25 -25 63 -25q35 0 58 20q22 19 22 54q0 31 -23 51q-22 19 -61 19h-237l15 383h457v-164h-296z" />
    <glyph glyph-name="six" unicode="6" 
d="M349 435q105 0 169 -61t64 -160q0 -101 -73 -165t-187 -64q-134 0 -214 89t-80 248q0 184 96 283q83 80 200 80q95 0 160 -44t86 -125l-180 -36q-14 50 -73 50q-40 0 -70 -33q-37 -43 -39 -117q56 55 141 55zM316 135q34 0 62 25q27 24 27 60q0 39 -26 62q-27 24 -63 24
t-61 -24q-26 -24 -26 -62q0 -36 26 -60q27 -25 61 -25z" />
    <glyph glyph-name="seven" unicode="7" horiz-adv-x="523" 
d="M503 671v-141l-209 -530h-203l205 506h-286v165h493z" />
    <glyph glyph-name="eight" unicode="8" horiz-adv-x="579" 
d="M447 347q116 -48 116 -162q0 -86 -76 -143q-77 -57 -198 -57t-196 57q-76 58 -76 144q0 113 116 160q-93 46 -93 148q0 80 71 136q70 55 179 55q108 0 178 -55q71 -56 71 -136q0 -103 -92 -147zM289 545q-31 0 -54 -18t-23 -50q0 -31 23 -49q24 -19 54 -19q31 0 56 19
q23 17 23 50q0 32 -23 49q-24 18 -56 18zM289 131q33 0 58 20q24 19 24 52t-24 53q-23 19 -58 19q-33 0 -56 -19q-24 -20 -24 -53q0 -32 23 -52t57 -20z" />
    <glyph glyph-name="nine" unicode="9" 
d="M288 685q135 0 215 -89q79 -88 79 -248q0 -186 -96 -283q-80 -80 -200 -80q-95 0 -160 44t-86 125l180 36q15 -50 73 -50q40 0 70 33q38 44 40 118q-56 -56 -142 -56q-105 0 -169 61t-64 160q0 100 74 165q73 64 186 64zM294 364q34 0 61 25q26 24 26 61t-26 61
q-25 24 -61 24q-34 0 -61 -24t-27 -61t26 -61q27 -25 62 -25z" />
    <glyph glyph-name="colon" unicode=":" horiz-adv-x="255" 
d="M127 507q45 0 75 -31q29 -30 29 -73q0 -45 -29 -73q-31 -29 -75 -29q-43 0 -74 29q-30 28 -30 73q0 41 30 73q30 31 74 31zM127 201q45 0 75 -31q29 -30 29 -73q0 -45 -29 -73q-31 -29 -75 -29q-43 0 -74 29q-30 29 -30 73q0 41 30 73q30 31 74 31z" />
    <glyph glyph-name="semicolon" unicode=";" horiz-adv-x="290" 
d="M162 507q45 0 75 -31q30 -32 30 -73q0 -45 -29 -73q-31 -29 -76 -29t-74 29t-29 73q0 41 30 73q30 31 73 31zM140 -132h-143l58 308h202v-4z" />
    <glyph glyph-name="less" unicode="&#x3c;" horiz-adv-x="486" 
d="M447 98l-416 143v170l416 143v-168l-231 -60l231 -61v-167z" />
    <glyph glyph-name="equal" unicode="=" horiz-adv-x="567" 
d="M527 340h-487v138h487v-138zM527 142h-487v138h487v-138z" />
    <glyph glyph-name="greater" unicode="&#x3e;" horiz-adv-x="486" 
d="M271 326l-231 60v168l416 -143v-170l-416 -143v167z" />
    <glyph glyph-name="question" unicode="?" horiz-adv-x="551" 
d="M294 685q108 0 173 -61q66 -62 66 -153q0 -71 -45 -120q-44 -48 -124 -68v-46h-184l1 166h84q36 0 58 16t22 42q0 29 -17 45q-19 17 -46 17q-29 0 -48 -20q-20 -21 -24 -54l-187 38q16 86 87 143q68 55 184 55zM269 195q45 0 75 -30t30 -71q0 -42 -30 -70
q-31 -29 -75 -29q-45 0 -74 29t-29 70t30 71t73 30z" />
    <glyph glyph-name="at" unicode="@" horiz-adv-x="928" 
d="M679 466v-275q0 -19 12 -29q11 -10 31 -10q33 0 53 47q19 45 19 109q0 131 -91 212t-228 81q-145 0 -242 -93q-98 -93 -98 -237q0 -142 96 -232q97 -91 241 -91q126 0 237 84l45 -72q-112 -96 -281 -96q-187 0 -309 114q-121 114 -121 290q0 180 125 299q124 118 307 118
q173 0 292 -105q118 -105 118 -270q0 -46 -10 -83q-11 -42 -31 -77q-20 -36 -63 -60q-40 -22 -97 -22q-93 0 -126 61q-45 -60 -132 -60q-83 0 -137 55q-55 57 -55 148q0 93 55 148t137 55q73 0 117 -44v35h136zM466 192q32 0 55 23q22 22 22 59q0 36 -22 58t-55 22t-55 -22
q-23 -23 -23 -58q0 -36 23 -59t55 -23z" />
    <glyph glyph-name="A" unicode="A" horiz-adv-x="752" 
d="M752 0h-207l-37 102h-264l-38 -102h-206l270 670h212zM450 263l-73 201l-74 -201h147z" />
    <glyph glyph-name="B" unicode="B" horiz-adv-x="665" 
d="M496 346v-4q59 -2 101 -39q41 -37 41 -114q0 -86 -61 -137q-63 -52 -166 -52h-364v670h364q95 0 151 -49t56 -130q0 -68 -38 -105q-40 -39 -84 -40zM239 521v-124h119q33 0 52 18q20 18 20 45q0 28 -19 44q-20 17 -50 17h-122zM239 149h129q33 0 54 19q19 18 19 48
q0 29 -19 45q-20 17 -52 17h-131v-129z" />
    <glyph glyph-name="C" unicode="C" horiz-adv-x="765" 
d="M391 158q61 0 99 34q40 35 53 100l192 -44q-23 -123 -114 -192q-94 -71 -230 -71q-151 0 -256 102t-105 248q0 147 105 249q104 101 256 101q130 0 225 -70q97 -71 119 -186l-192 -46q-13 62 -53 96q-39 33 -99 33q-71 0 -119 -51t-48 -126t48 -126t119 -51z" />
    <glyph glyph-name="D" unicode="D" horiz-adv-x="725" 
d="M47 670h283q166 0 265 -92q100 -93 100 -243q0 -149 -100 -242t-265 -93h-283v670zM239 162h77q83 0 134 48t51 125t-51 125t-134 48h-77v-346z" />
    <glyph glyph-name="E" unicode="E" horiz-adv-x="617" 
d="M580 162v-162h-533v670h529v-162h-337v-99h310v-147h-310v-100h341z" />
    <glyph glyph-name="F" unicode="F" horiz-adv-x="600" 
d="M239 504v-118h304v-167h-304v-219h-192v670h535v-166h-343z" />
    <glyph glyph-name="G" unicode="G" horiz-adv-x="780" 
d="M373 400h373q4 -48 4 -66q0 -153 -99 -251q-100 -98 -256 -98q-154 0 -259 102q-106 103 -106 248q0 146 106 249q104 101 258 101q118 0 209 -53q90 -52 123 -148l-195 -49q-41 77 -137 77q-75 0 -122 -50q-48 -51 -48 -127t49 -126q49 -51 124 -51q107 0 148 84h-172
v158z" />
    <glyph glyph-name="H" unicode="H" horiz-adv-x="723" 
d="M677 670v-670h-193v255h-245v-255h-192v670h192v-250h245v250h193z" />
    <glyph glyph-name="I" unicode="I" horiz-adv-x="459" 
d="M326 505v-340h113v-165h-419v165h113v340h-113v165h419v-165h-113z" />
    <glyph glyph-name="J" unicode="J" horiz-adv-x="620" 
d="M572 670v-425q0 -117 -77 -188q-78 -72 -204 -72q-117 0 -190 63t-88 169l190 37q11 -98 88 -98q39 0 64 25q24 24 24 64v260h-209v165h402z" />
    <glyph glyph-name="K" unicode="K" horiz-adv-x="718" 
d="M725 0h-232l-155 231l-99 -119v-112h-192v670h192v-289l244 289h218l-238 -288z" />
    <glyph glyph-name="L" unicode="L" horiz-adv-x="581" 
d="M555 165v-165h-508v670h192v-505h316z" />
    <glyph glyph-name="M" unicode="M" horiz-adv-x="893" 
d="M846 670v-670h-188v303l-149 -303h-125l-149 301v-301h-188v670h203l196 -366l197 366h203z" />
    <glyph glyph-name="N" unicode="N" horiz-adv-x="752" 
d="M706 670v-670h-159l-308 345v-345h-192v670h158l308 -357v357h193z" />
    <glyph glyph-name="O" unicode="O" horiz-adv-x="782" 
d="M391 685q153 0 257 -101t104 -249q0 -147 -104 -248q-105 -102 -257 -102q-151 0 -256 102t-105 248q0 147 105 249q104 101 256 101zM391 158q72 0 120 51q47 50 47 126t-47 126q-48 51 -120 51q-71 0 -119 -51t-48 -126t48 -126t119 -51z" />
    <glyph glyph-name="P" unicode="P" horiz-adv-x="664" 
d="M47 670h347q110 0 178 -65q67 -64 67 -171q0 -110 -70 -176q-72 -67 -189 -67h-141v-191h-192v670zM239 343h118q40 0 67 24q26 23 26 62q0 37 -26 59q-28 23 -67 23h-118v-168z" />
    <glyph glyph-name="Q" unicode="Q" horiz-adv-x="782" 
d="M551 -170l-117 157q-38 -2 -43 -2q-151 0 -256 102t-105 248q0 147 105 249q104 101 256 101q153 0 257 -101t104 -249q0 -82 -35 -154q-34 -70 -98 -120l176 -231h-244zM224 335q0 -75 48 -126t119 -51q72 0 120 51q47 50 47 126t-47 126q-48 51 -120 51q-71 0 -119 -51
t-48 -126z" />
    <glyph glyph-name="R" unicode="R" horiz-adv-x="683" 
d="M680 0h-231l-184 214h-26v-214h-192v670h357q108 0 175 -62q66 -62 66 -163q0 -81 -43 -137q-45 -59 -118 -81zM239 366h129q40 0 64 21t24 53t-24 52q-23 19 -64 19h-129v-145z" />
    <glyph glyph-name="S" unicode="S" horiz-adv-x="651" 
d="M326 685q118 0 195 -51q76 -51 94 -144l-188 -38q-9 44 -38 64t-63 20q-33 0 -51 -14q-20 -15 -20 -40q0 -34 39 -43l136 -32q191 -48 191 -199q0 -75 -43 -127q-42 -51 -106 -74q-60 -22 -136 -22q-123 0 -208 56q-84 56 -98 151l196 37q23 -89 114 -89q34 0 57 14
q22 13 22 40q0 35 -46 45l-139 33q-184 43 -184 194q0 102 77 161q76 58 199 58z" />
    <glyph glyph-name="T" unicode="T" horiz-adv-x="653" 
d="M633 505h-210v-505h-193v505h-210v165h613v-165z" />
    <glyph glyph-name="U" unicode="U" horiz-adv-x="715" 
d="M667 670v-367q0 -145 -83 -231q-84 -87 -222 -87q-142 0 -228 86t-86 232v367h193v-367q0 -68 33 -106t88 -38q52 0 82 39t30 105v367h193z" />
    <glyph glyph-name="V" unicode="V" horiz-adv-x="757" 
d="M754 670l-281 -670h-189l-281 670h214l162 -400l161 400h214z" />
    <glyph glyph-name="W" unicode="W" horiz-adv-x="985" 
d="M981 670l-187 -670h-207l-95 376l-95 -376h-207l-187 670h197l105 -382l96 382h182l96 -382l105 382h197z" />
    <glyph glyph-name="X" unicode="X" horiz-adv-x="704" 
d="M477 0l-125 209l-125 -209h-224l203 335l-197 335h223l120 -206l120 206h223l-198 -335l204 -335h-224z" />
    <glyph glyph-name="Y" unicode="Y" horiz-adv-x="721" 
d="M718 670l-262 -465v-205h-200v205l-253 465h211l146 -272l145 272h213z" />
    <glyph glyph-name="Z" unicode="Z" horiz-adv-x="644" 
d="M612 162v-162h-576v124l318 384h-310v162h557v-149l-289 -359h300z" />
    <glyph glyph-name="bracketleft" unicode="[" horiz-adv-x="415" 
d="M216 592v-526h166v-148h-335v823h335v-149h-166z" />
    <glyph glyph-name="backslash" unicode="\" horiz-adv-x="451" 
d="M431 -72h-123l-288 813h123z" />
    <glyph glyph-name="bracketright" unicode="]" horiz-adv-x="415" 
d="M368 741v-823h-335v148h166v526h-166v149h335z" />
    <glyph glyph-name="asciicircum" unicode="^" horiz-adv-x="484" 
d="M172 411h-159l159 259h140l159 -259h-159l-70 120z" />
    <glyph glyph-name="underscore" unicode="_" horiz-adv-x="540" 
d="M520 -185h-500v129h500v-129z" />
    <glyph glyph-name="grave" unicode="`" horiz-adv-x="600" 
d="M342 727l75 -160h-173l-127 160h225z" />
    <glyph glyph-name="a" unicode="a" horiz-adv-x="565" 
d="M289 520q114 0 177 -54t63 -155v-311h-181v35q-59 -50 -147 -50q-81 0 -133 46q-51 45 -51 119q0 76 58 120q56 43 162 43h111v13q0 26 -15 41t-41 15q-55 0 -65 -52l-177 36q20 74 82 114t157 40zM268 119q32 0 57 20q23 19 23 54v16h-75q-27 0 -43 -12q-17 -12 -17 -33
q0 -20 16 -33q15 -12 39 -12z" />
    <glyph glyph-name="b" unicode="b" horiz-adv-x="646" 
d="M382 520q107 0 175 -74q69 -75 69 -194q0 -117 -69 -192t-175 -75q-93 0 -148 58v-43h-187v770h187v-308q55 58 148 58zM337 141q45 0 74 32q28 31 28 79q0 50 -28 81t-74 31q-43 0 -73 -32t-30 -80t30 -79q30 -32 73 -32z" />
    <glyph glyph-name="c" unicode="c" horiz-adv-x="583" 
d="M392 223l171 -33q-17 -92 -89 -148q-74 -57 -174 -57q-117 0 -198 75q-82 76 -82 192q0 117 82 193q81 75 198 75q99 0 172 -55q74 -55 90 -147l-172 -36q-7 38 -32 60q-23 20 -58 20q-44 0 -72 -31t-28 -79q0 -47 28 -78t72 -31q72 0 92 80z" />
    <glyph glyph-name="d" unicode="d" horiz-adv-x="646" 
d="M599 770v-770h-187v43q-55 -58 -148 -58q-105 0 -174 75q-70 76 -70 192q0 118 70 194q68 74 174 74q93 0 148 -58v308h187zM309 141q43 0 73 32q30 31 30 79t-30 80t-73 32q-46 0 -74 -31t-28 -81q0 -48 28 -79q29 -32 74 -32z" />
    <glyph glyph-name="e" unicode="e" horiz-adv-x="578" 
d="M558 242v-35h-355q9 -36 33 -57t59 -21q64 0 89 49l167 -33q-31 -79 -98 -119q-68 -41 -158 -41q-115 0 -195 75t-80 192q0 118 80 193t195 75t189 -74q72 -72 74 -204zM295 374q-31 0 -56 -17q-23 -16 -34 -47h172q-19 64 -82 64z" />
    <glyph glyph-name="f" unicode="f" horiz-adv-x="385" 
d="M265 505h123v-146h-123v-359h-188v359h-67v146h67v78q0 89 57 143t150 54q61 0 109 -22l-37 -141q-20 6 -35 6q-26 0 -40 -14q-16 -16 -16 -39v-65z" />
    <glyph glyph-name="g" unicode="g" horiz-adv-x="646" 
d="M599 505v-514q0 -112 -88 -176q-89 -65 -219 -65q-184 0 -260 133l158 72q25 -28 49 -40q22 -11 51 -11q52 0 87 25t35 76v38q-55 -58 -148 -58q-105 0 -174 75q-70 76 -70 192q0 118 70 194q68 74 174 74q93 0 148 -58v43h187zM309 141q43 0 73 32q30 31 30 79t-30 80
t-73 32q-46 0 -74 -31t-28 -81q0 -48 28 -79q29 -32 74 -32z" />
    <glyph glyph-name="h" unicode="h" horiz-adv-x="620" 
d="M386 520q85 0 138 -56q52 -55 52 -151v-313h-188v273q0 36 -19 58t-52 22q-38 0 -60 -28q-23 -29 -23 -80v-245h-187v770h187v-316q62 66 152 66z" />
    <glyph glyph-name="i" unicode="i" horiz-adv-x="299" 
d="M149 755q45 0 75 -30t30 -72q0 -45 -29 -73q-31 -29 -76 -29q-44 0 -75 29q-30 28 -30 73q0 42 30 72t75 30zM243 0h-187v505h187v-505z" />
    <glyph glyph-name="j" unicode="j" horiz-adv-x="310" 
d="M160 755q45 0 75 -30t30 -72q0 -45 -29 -73q-31 -29 -76 -29q-44 0 -75 29q-30 28 -30 73q0 42 30 72t75 30zM-29 -226l26 135q28 -5 34 -5q15 0 26 11q10 10 10 29v561h188v-578q0 -79 -48 -128t-126 -49q-56 0 -110 24z" />
    <glyph glyph-name="k" unicode="k" horiz-adv-x="626" 
d="M633 0h-229l-103 149l-67 -79v-70h-187v770h187v-438l151 173h220l-177 -207z" />
    <glyph glyph-name="l" unicode="l" horiz-adv-x="348" 
d="M229 770v-586q0 -16 11 -27t29 -11q19 0 53 12l28 -137q-8 -4 -19.5 -9.5t-14.5 -7.5q-10 -6 -37 -12q-30 -7 -56 -7q-81 0 -131 51q-50 52 -50 133v601h187z" />
    <glyph glyph-name="m" unicode="m" horiz-adv-x="954" 
d="M720 520q84 0 136 -56q53 -58 53 -149v-315h-187v276q0 34 -20 56q-20 21 -50 21q-36 0 -59 -27q-22 -26 -22 -75v-251h-187v276q0 34 -20 56q-20 21 -51 21q-36 0 -57 -27q-22 -28 -22 -75v-251h-187v505h187v-50q56 65 148 65q53 0 96 -23q42 -22 66 -65q64 88 176 88z
" />
    <glyph glyph-name="n" unicode="n" horiz-adv-x="620" 
d="M386 520q85 0 138 -56q52 -55 52 -151v-313h-188v273q0 36 -19 58t-52 22q-38 0 -60 -28q-23 -29 -23 -80v-245h-187v505h187v-51q62 66 152 66z" />
    <glyph glyph-name="o" unicode="o" horiz-adv-x="606" 
d="M303 519q119 0 201 -75t82 -192q0 -116 -82 -191t-201 -75q-117 0 -200 75t-83 191q0 117 83 192t200 75zM303 141q43 0 73 32q30 31 30 79t-30 79q-30 32 -73 32t-73 -32q-30 -31 -30 -79q0 -46 31 -79q30 -32 72 -32z" />
    <glyph glyph-name="p" unicode="p" horiz-adv-x="646" 
d="M382 520q107 0 175 -74q69 -75 69 -194q0 -117 -69 -192t-175 -75q-93 0 -148 58v-283h-187v745h187v-43q55 58 148 58zM337 141q45 0 74 32q28 31 28 79q0 50 -28 81t-74 31q-43 0 -73 -32t-30 -80t30 -79q30 -32 73 -32z" />
    <glyph glyph-name="q" unicode="q" horiz-adv-x="646" 
d="M599 505v-745h-187v283q-55 -58 -148 -58q-105 0 -174 75q-70 76 -70 192q0 118 70 194q68 74 174 74q93 0 148 -58v43h187zM309 141q43 0 73 32q30 31 30 79t-30 80t-73 32q-46 0 -74 -31t-28 -81q0 -48 28 -79q29 -32 74 -32z" />
    <glyph glyph-name="r" unicode="r" horiz-adv-x="444" 
d="M402 511q22 0 36 -3l-7 -193h-30q-81 0 -124 -37t-43 -125v-153h-187v505h187v-100q55 106 168 106z" />
    <glyph glyph-name="s" unicode="s" horiz-adv-x="526" 
d="M19 131l179 35q13 -49 75 -49q25 0 39 9t14 21q0 23 -46 30l-101 17q-150 27 -150 150q0 81 64 129q63 47 162 47q100 0 161 -37q62 -38 80 -104l-168 -33q-3 21 -22 35q-20 15 -50 15q-47 0 -47 -30q0 -20 33 -27l115 -23q75 -13 112 -55q37 -41 37 -105q0 -81 -66 -126
t-171 -45q-98 0 -167 37q-66 35 -83 109z" />
    <glyph glyph-name="t" unicode="t" horiz-adv-x="431" 
d="M391 163l37 -141q-68 -37 -144 -37q-98 0 -151 53t-53 149v172h-77v146h77v165h187v-165h134v-146h-134v-151q0 -61 60 -61q35 0 64 16z" />
    <glyph glyph-name="u" unicode="u" horiz-adv-x="620" 
d="M573 505v-505h-187v51q-62 -66 -152 -66q-85 0 -138 56q-52 55 -52 151v313h188v-273q0 -35 20 -58q19 -22 51 -22q39 0 61 28t22 80v245h187z" />
    <glyph glyph-name="v" unicode="v" 
d="M607 505l-208 -505h-188l-208 505h196l106 -278l106 278h196z" />
    <glyph glyph-name="w" unicode="w" horiz-adv-x="803" 
d="M800 505l-158 -505h-159l-81 249l-82 -249h-159l-158 505h184l67 -232l86 232h123l86 -232l67 232h184z" />
    <glyph glyph-name="x" unicode="x" horiz-adv-x="616" 
d="M440 243l163 -243h-210l-85 130l-84 -130h-211l164 243l-164 262h211l84 -141l85 141h210z" />
    <glyph glyph-name="y" unicode="y" horiz-adv-x="624" 
d="M621 505l-322 -745h-197l111 258l-210 487h198l107 -267l115 267h198z" />
    <glyph glyph-name="z" unicode="z" horiz-adv-x="553" 
d="M520 146v-146h-487v120l233 239h-227v146h474v-123l-232 -236h239z" />
    <glyph glyph-name="braceleft" unicode="{" horiz-adv-x="417" 
d="M276 567v-133q0 -78 -57 -105q57 -27 57 -105v-133q0 -9 7 -18q6 -7 17 -7h84v-148h-144q-60 0 -96 36q-37 37 -37 95v150q0 37 -51 50l-36 10v140l36 10q51 13 51 50v150q0 59 37 96q36 36 96 36h144v-148h-84q-10 0 -17 -7t-7 -19z" />
    <glyph glyph-name="bar" unicode="|" horiz-adv-x="263" 
d="M216 -72h-169v813h169v-813z" />
    <glyph glyph-name="braceright" unicode="}" horiz-adv-x="417" 
d="M397 399v-140l-36 -10q-50 -14 -50 -50v-150q0 -59 -37 -95q-38 -36 -97 -36h-144v148h85q23 0 23 25v133q0 78 58 105q-58 27 -58 105v133q0 26 -23 26h-85v148h144q59 0 97 -36q37 -36 37 -96v-150q0 -36 50 -50z" />
    <glyph glyph-name="asciitilde" unicode="~" horiz-adv-x="513" 
d="M169 226h-134q0 92 43 138q41 44 93 44q41 0 83 -21t54 -21q16 0 25 10t9 25h137q0 -92 -44 -138q-43 -45 -96 -45q-40 0 -82 20q-39 19 -53 19q-28 0 -35 -31z" />
    <glyph glyph-name="exclamdown" unicode="&#xa1;" horiz-adv-x="306" 
d="M157 319q-43 0 -73 30t-30 71q0 42 29 71q28 28 74 28t75 -28q30 -28 30 -71q0 -41 -30 -71t-75 -30zM47 -125l15 400h182l15 -400v-31h-212v31z" />
    <glyph glyph-name="cent" unicode="&#xa2;" horiz-adv-x="583" 
d="M392 223l171 -33q-14 -74 -63 -125q-51 -52 -123 -70v-125h-154v125q-89 23 -146 92t-57 165q0 98 57 167q56 68 146 91v120h154v-120q73 -18 122 -69t63 -123l-172 -36q-7 38 -32 60q-23 20 -58 20q-44 0 -72 -31t-28 -79q0 -47 28 -78t72 -31q72 0 92 80z" />
    <glyph glyph-name="sterling" unicode="&#xa3;" horiz-adv-x="598" 
d="M577 162v-162h-544v122l63 20v85h-63v152h63v82q0 101 66 163q65 61 174 61q102 0 167 -59q65 -60 73 -156l-180 -32q-9 80 -60 80q-23 0 -38 -15t-15 -42v-82h161v-152h-161v-65h294z" />
    <glyph glyph-name="yen" unicode="&#xa5;" horiz-adv-x="704" 
d="M497 325h118v-107h-171v-37h171v-106h-171v-75h-192v75h-162v106h162v37h-162v107h110l-187 345h201l134 -261l134 261h209z" />
    <glyph glyph-name="section" unicode="&#xa7;" horiz-adv-x="562" 
d="M539 262q0 -93 -81 -144q25 -37 25 -89q0 -85 -58 -128q-59 -44 -150 -44q-102 0 -160 49t-64 131l155 29q5 -74 60 -74q18 0 32 12q13 12 13 29q0 27 -44 45l-118 45q-129 47 -129 158q0 93 81 143q-25 38 -25 90q0 85 58 128t150 43q99 0 156 -48q58 -48 62 -126
l-156 -28q-4 67 -53 67q-18 0 -32 -11q-13 -10 -13 -30q0 -27 44 -44l118 -45q129 -46 129 -158zM344 202l9 -4q25 19 25 42q0 29 -40 48l-123 52l-10 4q-24 -18 -24 -41q0 -32 40 -48z" />
    <glyph glyph-name="dieresis" unicode="&#xa8;" horiz-adv-x="600" 
d="M181 743q44 0 72 -28t28 -68q0 -43 -28 -70q-30 -28 -72 -28q-41 0 -71 28q-28 27 -28 70q0 40 28 68t71 28zM419 743q44 0 72 -28t28 -68q0 -43 -28 -70q-30 -28 -72 -28q-41 0 -71 28q-28 27 -28 70q0 40 28 68t71 28z" />
    <glyph glyph-name="copyright" unicode="&#xa9;" horiz-adv-x="757" 
d="M378 685q147 0 248 -100q102 -100 102 -251t-102 -250t-248 -99t-248 99q-103 100 -103 250t103 251q101 100 248 100zM378 629q-120 0 -204 -84q-85 -85 -85 -211t85 -209t204 -83t204 83q84 83 84 209q0 127 -84 211t-204 84zM384 522q76 0 124 -41t53 -103l-105 -20
q-5 29 -25 43q-21 15 -50 15q-32 0 -55 -23t-23 -59t23 -59t55 -23q29 0 51 17q19 15 24 46l107 -18q-5 -65 -54 -108t-125 -43q-78 0 -136 53q-57 53 -57 135q0 84 57 136q56 52 136 52z" />
    <glyph glyph-name="ordfeminine" unicode="&#xaa;" horiz-adv-x="390" 
d="M202 675q76 0 123 -36q46 -36 46 -107v-203h-131v20q-38 -30 -93 -30q-54 0 -90 31q-35 30 -35 80t41 79q40 28 112 28h65v10q0 15 -9 24t-26 9q-29 0 -39 -27l-122 21q29 101 158 101zM191 405q21 0 36 13q13 12 13 34v14h-45q-17 0 -28 -8t-11 -22q0 -12 10 -22
q9 -9 25 -9z" />
    <glyph glyph-name="guillemotleft" unicode="&#xab;" horiz-adv-x="539" 
d="M25 262l99 178h170l-99 -178l99 -178h-170zM245 262l99 178h170l-99 -178l99 -178h-170z" />
    <glyph glyph-name="registered" unicode="&#xae;" horiz-adv-x="473" 
d="M237 685q83 0 142 -57q58 -57 58 -144q0 -86 -58 -143q-59 -57 -142 -57t-142 57q-58 57 -58 143q0 87 58 144t142 57zM237 329q64 0 109 45t45 110q0 67 -45 112t-109 45q-63 0 -108 -45t-45 -112q0 -65 45 -110t108 -45zM324 518q0 -41 -38 -58l48 -59h-61l-40 52h-20
v-52h-51v179h91q34 0 53 -17q18 -17 18 -45zM213 495h36q11 0 20 7q7 6 7 15q0 21 -27 21h-36v-43z" />
    <glyph glyph-name="macron" unicode="&#xaf;" horiz-adv-x="600" 
d="M472 569h-344v140h344v-140z" />
    <glyph glyph-name="degree" unicode="&#xb0;" horiz-adv-x="440" 
d="M220 685q67 0 116 -44q47 -43 47 -114q0 -70 -47 -113q-49 -44 -116 -44q-66 0 -115 44q-48 43 -48 113q0 71 48 114q49 44 115 44zM220 468q24 0 40 16q17 17 17 43q0 27 -17 44q-16 16 -40 16t-40 -16q-17 -17 -17 -44q0 -26 17 -43q16 -16 40 -16z" />
    <glyph glyph-name="plusminus" unicode="&#xb1;" horiz-adv-x="567" 
d="M527 482v-145h-171v-135h-145v135h-171v145h171v156h145v-156h171zM40 145h487v-145h-487v145z" />
    <glyph glyph-name="acute" unicode="&#xb4;" horiz-adv-x="600" 
d="M346 567h-173l75 160h225z" />
    <glyph glyph-name="paragraph" unicode="&#xb6;" horiz-adv-x="615" 
d="M400 0h-121v299h-50q-90 0 -150 52q-59 51 -59 137q0 88 53 135t142 47h185v-670zM569 0h-122v670h122v-670z" />
    <glyph glyph-name="periodcentered" unicode="&#xb7;" horiz-adv-x="255" 
d="M127 367q45 0 75 -31q29 -30 29 -73q0 -45 -29 -73q-31 -29 -75 -29q-43 0 -74 29q-30 28 -30 73q0 41 30 73q30 31 74 31z" />
    <glyph glyph-name="cedilla" unicode="&#xb8;" horiz-adv-x="600" 
d="M266 0h133l-43 -160h-193z" />
    <glyph glyph-name="ordmasculine" unicode="&#xba;" horiz-adv-x="418" 
d="M208 675q80 0 136 -50q55 -49 55 -128t-55 -128q-56 -50 -136 -50q-77 0 -133 50t-56 128t56 128t133 50zM208 434q28 0 44 18q17 19 17 45t-17 45q-16 18 -44 18q-26 0 -42 -18q-17 -19 -17 -45q0 -25 17 -44t42 -19z" />
    <glyph glyph-name="guillemotright" unicode="&#xbb;" horiz-adv-x="539" 
d="M25 84l99 178l-99 178h170l99 -178l-99 -178h-170zM245 84l99 178l-99 178h170l99 -178l-99 -178h-170z" />
    <glyph glyph-name="onequarter" unicode="&#xbc;" horiz-adv-x="761" 
d="M97 520l-83 -45v119l124 76h81v-387h-122v237zM665 670l-478 -670h-100l478 670h100zM746 59h-47v-59h-114v59h-196v110l167 218h143v-229h47v-99zM585 158v108l-80 -108h80z" />
    <glyph glyph-name="onehalf" unicode="&#xbd;" horiz-adv-x="801" 
d="M97 520l-83 -45v119l124 76h81v-387h-122v237zM652 670l-478 -670h-100l477 670h101zM630 103h118v-103h-300v75l138 125q13 12 26 25q8 8 13 17q6 10 6 20q0 14 -9 23q-8 8 -23 8q-39 0 -40 -52l-112 21q0 60 42 97q41 37 110 37t110 -35t41 -98q0 -39 -19 -65
q-21 -29 -59 -60z" />
    <glyph glyph-name="threequarters" unicode="&#xbe;" horiz-adv-x="829" 
d="M332 404q0 -54 -45 -91q-44 -37 -113 -37q-64 0 -108 35q-43 34 -49 91l110 21q11 -47 49 -47q39 0 39 31q0 14 -12 23t-31 9h-44v84h40q44 0 44 30q0 14 -10 23q-9 8 -29 8q-39 0 -43 -46l-110 21q4 50 48 86q43 35 104 35q66 0 110 -35q43 -34 43 -89q0 -46 -45 -73
q52 -27 52 -79zM730 670l-478 -670h-100l477 670h101zM814 59h-47v-59h-114v59h-196v110l167 218h143v-229h47v-99zM653 158v108l-80 -108h80z" />
    <glyph glyph-name="questiondown" unicode="&#xbf;" horiz-adv-x="551" 
d="M282 320q-44 0 -74 30t-30 70q0 44 30 72q29 28 74 28q46 0 75 -28t29 -72q0 -41 -29 -70q-30 -30 -75 -30zM342 66l186 -38q-16 -86 -86 -142t-184 -56q-108 0 -173 61q-67 62 -67 153q0 70 45 120q44 48 124 68v46h184l-1 -166h-84q-36 0 -58 -16t-22 -42q0 -28 18 -45
q19 -17 45 -17q29 0 49 20t24 54z" />
    <glyph glyph-name="Agrave" unicode="&#xc0;" horiz-adv-x="752" 
d="M296 732l-127 160h225l75 -160h-173zM752 0h-207l-37 102h-264l-38 -102h-206l270 670h212zM450 263l-73 201l-74 -201h147z" />
    <glyph glyph-name="Aacute" unicode="&#xc1;" horiz-adv-x="752" 
d="M462 732h-173l75 160h225zM752 0h-207l-37 102h-264l-38 -102h-206l270 670h212zM450 263l-73 201l-74 -201h147z" />
    <glyph glyph-name="Acircumflex" unicode="&#xc2;" horiz-adv-x="752" 
d="M341 729h-177l117 162h191l118 -162h-178l-35 50zM752 0h-207l-37 102h-264l-38 -102h-206l270 670h212zM450 263l-73 201l-74 -201h147z" />
    <glyph glyph-name="Atilde" unicode="&#xc3;" horiz-adv-x="752" 
d="M332 768q-14 0 -21 -6q-6 -5 -13 -24h-105q0 81 35 128q34 46 88 46q34 0 69 -18q36 -19 51 -19q13 0 21 8q7 7 13 25h105q0 -81 -35 -128q-34 -46 -88 -46q-32 0 -68 17t-52 17zM752 0h-207l-37 102h-264l-38 -102h-206l270 670h212zM450 263l-73 201l-74 -201h147z" />
    <glyph glyph-name="Adieresis" unicode="&#xc4;" horiz-adv-x="752" 
d="M258 714q-41 0 -71 28q-28 27 -28 70q0 40 28 68t71 28q44 0 72 -28t28 -68q0 -43 -28 -70q-30 -28 -72 -28zM496 714q-41 0 -71 28q-28 27 -28 70q0 40 28 68t71 28q44 0 72 -28t28 -68q0 -43 -28 -70q-30 -28 -72 -28zM752 0h-207l-37 102h-264l-38 -102h-206l270 670
h212zM450 263l-73 201l-74 -201h147z" />
    <glyph glyph-name="Aring" unicode="&#xc5;" horiz-adv-x="752" 
d="M377 708q-55 0 -95 38q-39 38 -39 91q0 55 39 92q38 37 95 37t95 -37q39 -37 39 -92q0 -53 -39 -91q-40 -38 -95 -38zM377 876q-18 0 -29 -11q-12 -12 -12 -28q0 -15 12 -27t29 -12t29 12t12 27q0 16 -12 28q-11 11 -29 11zM752 0h-207l-37 102h-264l-38 -102h-206
l270 670h212zM450 263l-73 201l-74 -201h147z" />
    <glyph glyph-name="AE" unicode="&#xc6;" horiz-adv-x="1051" 
d="M1018 162v-162h-534v95h-206l-52 -95h-226l409 670h605v-162h-337v-99h309v-147h-309v-100h341zM484 255v214l-118 -214h118z" />
    <glyph glyph-name="Ccedilla" unicode="&#xc7;" horiz-adv-x="765" 
d="M391 158q61 0 99 34q40 35 53 100l192 -44q-19 -109 -95 -177q-77 -69 -193 -83l-40 -148h-193l98 153q-121 25 -202 121q-80 95 -80 221q0 147 105 249q104 101 256 101q130 0 225 -70q97 -71 119 -186l-192 -46q-13 62 -53 96q-39 33 -99 33q-71 0 -119 -51t-48 -126
t48 -126t119 -51z" />
    <glyph glyph-name="Egrave" unicode="&#xc8;" horiz-adv-x="617" 
d="M235 732l-127 160h225l75 -160h-173zM580 162v-162h-533v670h529v-162h-337v-99h310v-147h-310v-100h341z" />
    <glyph glyph-name="Eacute" unicode="&#xc9;" horiz-adv-x="617" 
d="M402 732h-173l75 160h225zM580 162v-162h-533v670h529v-162h-337v-99h310v-147h-310v-100h341z" />
    <glyph glyph-name="Ecircumflex" unicode="&#xca;" horiz-adv-x="617" 
d="M280 729h-177l117 162h191l118 -162h-178l-35 50zM580 162v-162h-533v670h529v-162h-337v-99h310v-147h-310v-100h341z" />
    <glyph glyph-name="Edieresis" unicode="&#xcb;" horiz-adv-x="617" 
d="M197 714q-41 0 -71 28q-28 27 -28 70q0 40 28 68t71 28q44 0 72 -28t28 -68q0 -43 -28 -70q-30 -28 -72 -28zM435 714q-41 0 -71 28q-28 27 -28 70q0 40 28 68t71 28q44 0 72 -28t28 -68q0 -43 -28 -70q-30 -28 -72 -28zM580 162v-162h-533v670h529v-162h-337v-99h310
v-147h-310v-100h341z" />
    <glyph glyph-name="Igrave" unicode="&#xcc;" horiz-adv-x="459" 
d="M149 732l-127 160h225l75 -160h-173zM326 505v-340h113v-165h-419v165h113v340h-113v165h419v-165h-113z" />
    <glyph glyph-name="Iacute" unicode="&#xcd;" horiz-adv-x="459" 
d="M316 732h-173l75 160h225zM439 670v-165h-113v-340h113v-165h-419v165h113v340h-113v165h419z" />
    <glyph glyph-name="Icircumflex" unicode="&#xce;" horiz-adv-x="459" 
d="M194 729h-177l117 162h191l118 -162h-178l-35 50zM439 670v-165h-113v-340h113v-165h-419v165h113v340h-113v165h419z" />
    <glyph glyph-name="Idieresis" unicode="&#xcf;" horiz-adv-x="459" 
d="M111 714q-41 0 -71 28q-28 27 -28 70q0 40 28 68t71 28q44 0 72 -28t28 -68q0 -43 -28 -70q-30 -28 -72 -28zM349 714q-41 0 -71 28q-28 27 -28 70q0 40 28 68t71 28q44 0 72 -28t28 -68q0 -43 -28 -70q-30 -28 -72 -28zM439 670v-165h-113v-340h113v-165h-419v165h113
v340h-113v165h419z" />
    <glyph glyph-name="Eth" unicode="&#xd0;" horiz-adv-x="732" 
d="M63 670h283q167 0 266 -92q100 -93 100 -243q0 -149 -100 -242t-266 -93h-283v252h-46v165h46v253zM256 162h77q83 0 134 48q50 47 50 125t-50 125q-51 48 -134 48h-77v-91h93v-165h-93v-90z" />
    <glyph glyph-name="Ntilde" unicode="&#xd1;" horiz-adv-x="752" 
d="M334 768q-14 0 -21 -6q-6 -5 -13 -24h-105q0 81 35 128q34 46 88 46q34 0 69 -18q36 -19 51 -19q13 0 21 8q7 7 13 25h105q0 -81 -35 -128q-34 -46 -88 -46q-32 0 -68 17t-52 17zM706 670v-670h-159l-308 345v-345h-192v670h158l308 -357v357h193z" />
    <glyph glyph-name="Ograve" unicode="&#xd2;" horiz-adv-x="782" 
d="M310 732l-127 160h225l75 -160h-173zM391 685q153 0 257 -101t104 -249q0 -147 -104 -248q-105 -102 -257 -102q-151 0 -256 102t-105 248q0 147 105 249q104 101 256 101zM391 158q72 0 120 51q47 50 47 126t-47 126q-48 51 -120 51q-71 0 -119 -51t-48 -126t48 -126
t119 -51z" />
    <glyph glyph-name="Oacute" unicode="&#xd3;" horiz-adv-x="782" 
d="M477 732h-173l75 160h225zM391 685q153 0 257 -101t104 -249q0 -147 -104 -248q-105 -102 -257 -102q-151 0 -256 102t-105 248q0 147 105 249q104 101 256 101zM391 158q72 0 120 51q47 50 47 126t-47 126q-48 51 -120 51q-71 0 -119 -51t-48 -126t48 -126t119 -51z" />
    <glyph glyph-name="Ocircumflex" unicode="&#xd4;" horiz-adv-x="782" 
d="M355 729h-177l117 162h191l118 -162h-178l-35 50zM391 685q153 0 257 -101t104 -249q0 -147 -104 -248q-105 -102 -257 -102q-151 0 -256 102t-105 248q0 147 105 249q104 101 256 101zM391 158q72 0 120 51q47 50 47 126t-47 126q-48 51 -120 51q-71 0 -119 -51
t-48 -126t48 -126t119 -51z" />
    <glyph glyph-name="Otilde" unicode="&#xd5;" horiz-adv-x="782" 
d="M347 768q-13 0 -21 -6q-6 -5 -13 -24h-105q0 81 35 128q34 46 88 46q35 0 69 -18q36 -19 51 -19q13 0 21 8q7 7 13 25h105q0 -81 -35 -128q-34 -46 -88 -46q-32 0 -68 17t-52 17zM391 685q153 0 257 -101t104 -249q0 -147 -104 -248q-105 -102 -257 -102q-151 0 -256 102
t-105 248q0 147 105 249q104 101 256 101zM391 158q72 0 120 51q47 50 47 126t-47 126q-48 51 -120 51q-71 0 -119 -51t-48 -126t48 -126t119 -51z" />
    <glyph glyph-name="Odieresis" unicode="&#xd6;" horiz-adv-x="782" 
d="M272 714q-41 0 -71 28q-28 27 -28 70q0 40 28 68t71 28q44 0 72 -28t28 -68q0 -43 -28 -70q-30 -28 -72 -28zM510 714q-41 0 -71 28q-28 27 -28 70q0 40 28 68t71 28q44 0 72 -28t28 -68q0 -43 -28 -70q-30 -28 -72 -28zM391 685q153 0 257 -101t104 -249
q0 -147 -104 -248q-105 -102 -257 -102q-151 0 -256 102t-105 248q0 147 105 249q104 101 256 101zM391 158q72 0 120 51q47 50 47 126t-47 126q-48 51 -120 51q-71 0 -119 -51t-48 -126t48 -126t119 -51z" />
    <glyph glyph-name="multiply" unicode="&#xd7;" horiz-adv-x="535" 
d="M369 302l130 -130l-101 -102l-131 130l-130 -130l-102 102l130 130l-130 129l102 102l130 -130l131 130l101 -102z" />
    <glyph glyph-name="Oslash" unicode="&#xd8;" horiz-adv-x="782" 
d="M741 592l-54 -54q65 -91 65 -203q0 -147 -104 -248q-105 -102 -257 -102q-110 0 -200 57l-67 -67l-83 83l63 63q-74 92 -74 214q0 147 105 249q104 101 256 101q117 0 212 -65l55 55zM224 335q0 -42 16 -78l234 234q-39 21 -83 21q-71 0 -119 -51t-48 -126zM391 158
q72 0 120 51q47 50 47 126q0 37 -10 64l-226 -226q32 -15 69 -15z" />
    <glyph glyph-name="Ugrave" unicode="&#xd9;" horiz-adv-x="715" 
d="M276 732l-127 160h225l75 -160h-173zM667 670v-367q0 -145 -83 -231q-84 -87 -222 -87q-142 0 -228 86t-86 232v367h193v-367q0 -68 33 -106t88 -38q52 0 82 39t30 105v367h193z" />
    <glyph glyph-name="Uacute" unicode="&#xda;" horiz-adv-x="715" 
d="M443 732h-173l75 160h225zM667 670v-367q0 -145 -83 -231q-84 -87 -222 -87q-142 0 -228 86t-86 232v367h193v-367q0 -68 33 -106t88 -38q52 0 82 39t30 105v367h193z" />
    <glyph glyph-name="Ucircumflex" unicode="&#xdb;" horiz-adv-x="715" 
d="M321 729h-177l117 162h191l118 -162h-178l-35 50zM667 670v-367q0 -145 -83 -231q-84 -87 -222 -87q-142 0 -228 86t-86 232v367h193v-367q0 -68 33 -106t88 -38q52 0 82 39t30 105v367h193z" />
    <glyph glyph-name="Udieresis" unicode="&#xdc;" horiz-adv-x="715" 
d="M238 714q-41 0 -71 28q-28 27 -28 70q0 40 28 68t71 28q44 0 72 -28t28 -68q0 -43 -28 -70q-30 -28 -72 -28zM476 714q-41 0 -71 28q-28 27 -28 70q0 40 28 68t71 28q44 0 72 -28t28 -68q0 -43 -28 -70q-30 -28 -72 -28zM667 670v-367q0 -145 -83 -231q-84 -87 -222 -87
q-142 0 -228 86t-86 232v367h193v-367q0 -68 33 -106t88 -38q52 0 82 39t30 105v367h193z" />
    <glyph glyph-name="Yacute" unicode="&#xdd;" horiz-adv-x="721" 
d="M446 732h-173l75 160h225zM718 670l-262 -465v-205h-200v205l-253 465h211l146 -272l145 272h213z" />
    <glyph glyph-name="Thorn" unicode="&#xde;" horiz-adv-x="652" 
d="M239 568h138q113 0 180 -63q68 -63 68 -167q0 -106 -72 -171q-73 -65 -190 -65h-124v-102h-192v670h192v-102zM239 254h112q40 0 62 22q23 23 23 57t-23 55t-62 21h-112v-155z" />
    <glyph glyph-name="germandbls" unicode="&#xdf;" horiz-adv-x="669" 
d="M509 381q64 -17 101 -63t37 -116q0 -94 -62 -153q-64 -61 -164 -61q-71 0 -138 12l18 153q49 -9 80 -9q36 0 60 21q23 20 23 51q0 36 -27 57t-76 21h-45v150h25q37 0 57 19q21 19 21 48q0 35 -22 54t-60 19q-45 0 -74 -30q-29 -31 -29 -80v-474h-187v460q0 124 80 201
q79 76 210 76q118 0 193 -57t75 -149q0 -56 -26 -95q-27 -40 -70 -55z" />
    <glyph glyph-name="agrave" unicode="&#xe0;" horiz-adv-x="565" 
d="M207 567l-127 160h225l75 -160h-173zM289 520q114 0 177 -54t63 -155v-311h-181v35q-59 -50 -147 -50q-81 0 -133 46q-51 45 -51 119q0 76 58 120q56 43 162 43h111v13q0 26 -15 41t-41 15q-55 0 -65 -52l-177 36q20 74 82 114t157 40zM268 119q32 0 57 20q23 19 23 54
v16h-75q-27 0 -43 -12q-17 -12 -17 -33q0 -20 16 -33q15 -12 39 -12z" />
    <glyph glyph-name="aacute" unicode="&#xe1;" horiz-adv-x="565" 
d="M374 567h-173l75 160h225zM289 520q114 0 177 -54t63 -155v-311h-181v35q-59 -50 -147 -50q-81 0 -133 46q-51 45 -51 119q0 76 58 120q56 43 162 43h111v13q0 26 -15 41t-41 15q-55 0 -65 -52l-177 36q20 74 82 114t157 40zM268 119q32 0 57 20q23 19 23 54v16h-75
q-27 0 -43 -12q-17 -12 -17 -33q0 -20 16 -33q15 -12 39 -12z" />
    <glyph glyph-name="acircumflex" unicode="&#xe2;" horiz-adv-x="565" 
d="M252 564h-177l117 162h191l118 -162h-178l-35 50zM289 520q114 0 177 -54t63 -155v-311h-181v35q-59 -50 -147 -50q-81 0 -133 46q-51 45 -51 119q0 76 58 120q56 43 162 43h111v13q0 26 -15 41t-41 15q-55 0 -65 -52l-177 36q20 74 82 114t157 40zM268 119q32 0 57 20
q23 19 23 54v16h-75q-27 0 -43 -12q-17 -12 -17 -33q0 -20 16 -33q15 -12 39 -12z" />
    <glyph glyph-name="atilde" unicode="&#xe3;" horiz-adv-x="565" 
d="M244 603q-14 0 -21 -6q-6 -5 -13 -24h-105q0 81 35 128q34 46 88 46q34 0 69 -18q36 -19 51 -19q13 0 21 8q7 7 13 25h105q0 -81 -35 -128q-34 -46 -88 -46q-32 0 -68 17t-52 17zM289 520q114 0 177 -54t63 -155v-311h-181v35q-59 -50 -147 -50q-81 0 -133 46
q-51 45 -51 119q0 76 58 120q56 43 162 43h111v13q0 26 -15 41t-41 15q-55 0 -65 -52l-177 36q20 74 82 114t157 40zM268 119q32 0 57 20q23 19 23 54v16h-75q-27 0 -43 -12q-17 -12 -17 -33q0 -20 16 -33q15 -12 39 -12z" />
    <glyph glyph-name="adieresis" unicode="&#xe4;" horiz-adv-x="565" 
d="M169 549q-41 0 -71 28q-28 27 -28 70q0 40 28 68t71 28q44 0 72 -28t28 -68q0 -43 -28 -70q-30 -28 -72 -28zM407 549q-41 0 -71 28q-28 27 -28 70q0 40 28 68t71 28q44 0 72 -28t28 -68q0 -43 -28 -70q-30 -28 -72 -28zM289 520q114 0 177 -54t63 -155v-311h-181v35
q-59 -50 -147 -50q-81 0 -133 46q-51 45 -51 119q0 76 58 120q56 43 162 43h111v13q0 26 -15 41t-41 15q-55 0 -65 -52l-177 36q20 74 82 114t157 40zM268 119q32 0 57 20q23 19 23 54v16h-75q-27 0 -43 -12q-17 -12 -17 -33q0 -20 16 -33q15 -12 39 -12z" />
    <glyph glyph-name="aring" unicode="&#xe5;" horiz-adv-x="565" 
d="M288 543q-55 0 -95 38q-39 37 -39 91t39 92q38 37 95 37t95 -37q39 -38 39 -92t-39 -91q-40 -38 -95 -38zM288 711q-18 0 -29 -11q-12 -12 -12 -28q0 -15 12 -27t29 -12t29 12t12 27q0 16 -12 28q-11 11 -29 11zM289 520q114 0 177 -54t63 -155v-311h-181v35
q-59 -50 -147 -50q-81 0 -133 46q-51 45 -51 119q0 76 58 120q56 43 162 43h111v13q0 26 -15 41t-41 15q-55 0 -65 -52l-177 36q20 74 82 114t157 40zM268 119q32 0 57 20q23 19 23 54v16h-75q-27 0 -43 -12q-17 -12 -17 -33q0 -20 16 -33q15 -12 39 -12z" />
    <glyph glyph-name="ae" unicode="&#xe6;" horiz-adv-x="890" 
d="M870 203h-354q20 -74 93 -74q61 0 85 50l162 -34q-19 -70 -88 -115t-160 -45q-105 0 -179 61q-74 -61 -197 -61q-104 0 -159 43q-56 44 -56 119t56 114q55 39 160 39h115v26q0 24 -17 41q-16 16 -43 16q-54 0 -63 -53l-173 36q14 68 75 111t162 43t162 -45q71 45 156 45
q117 0 190 -74t73 -207v-36zM515 300h174q-17 75 -83 75q-73 0 -91 -75zM347 201h-79q-62 0 -62 -42q0 -20 16 -32t42 -12q33 0 58 19t25 49v18z" />
    <glyph glyph-name="ccedilla" unicode="&#xe7;" horiz-adv-x="583" 
d="M392 223l171 -33q-14 -79 -68 -130q-56 -53 -134 -69l-41 -151h-193l99 154q-90 22 -148 92t-58 166q0 117 82 193q81 75 198 75q99 0 172 -55q74 -55 90 -147l-172 -36q-7 38 -32 60q-23 20 -58 20q-44 0 -72 -31t-28 -79q0 -47 28 -78t72 -31q72 0 92 80z" />
    <glyph glyph-name="egrave" unicode="&#xe8;" horiz-adv-x="578" 
d="M215 567l-127 160h225l75 -160h-173zM558 242v-35h-355q9 -36 33 -57t59 -21q64 0 89 49l167 -33q-31 -79 -98 -119q-68 -41 -158 -41q-115 0 -195 75t-80 192q0 118 80 193t195 75t189 -74q72 -72 74 -204zM295 374q-31 0 -56 -17q-23 -16 -34 -47h172q-19 64 -82 64z
" />
    <glyph glyph-name="eacute" unicode="&#xe9;" horiz-adv-x="578" 
d="M382 567h-173l75 160h225zM558 242v-35h-355q9 -36 33 -57t59 -21q64 0 89 49l167 -33q-31 -79 -98 -119q-68 -41 -158 -41q-115 0 -195 75t-80 192q0 118 80 193t195 75t189 -74q72 -72 74 -204zM295 374q-31 0 -56 -17q-23 -16 -34 -47h172q-19 64 -82 64z" />
    <glyph glyph-name="ecircumflex" unicode="&#xea;" horiz-adv-x="578" 
d="M260 564h-177l117 162h191l118 -162h-178l-35 50zM558 242v-35h-355q9 -36 33 -57t59 -21q64 0 89 49l167 -33q-31 -79 -98 -119q-68 -41 -158 -41q-115 0 -195 75t-80 192q0 118 80 193t195 75t189 -74q72 -72 74 -204zM295 374q-31 0 -56 -17q-23 -16 -34 -47h172
q-19 64 -82 64z" />
    <glyph glyph-name="edieresis" unicode="&#xeb;" horiz-adv-x="578" 
d="M177 549q-41 0 -71 28q-28 27 -28 70q0 40 28 68t71 28q44 0 72 -28t28 -68q0 -43 -28 -70q-30 -28 -72 -28zM415 549q-41 0 -71 28q-28 27 -28 70q0 40 28 68t71 28q44 0 72 -28t28 -68q0 -43 -28 -70q-30 -28 -72 -28zM558 242v-35h-355q9 -36 33 -57t59 -21
q64 0 89 49l167 -33q-31 -79 -98 -119q-68 -41 -158 -41q-115 0 -195 75t-80 192q0 118 80 193t195 75t189 -74q72 -72 74 -204zM295 374q-31 0 -56 -17q-23 -16 -34 -47h172q-19 64 -82 64z" />
    <glyph glyph-name="igrave" unicode="&#xec;" horiz-adv-x="298" 
d="M166 727l75 -160h-173l-127 160h225zM243 0h-188v505h188v-505z" />
    <glyph glyph-name="iacute" unicode="&#xed;" horiz-adv-x="298" 
d="M235 567h-173l75 160h225zM243 0h-188v505h188v-505z" />
    <glyph glyph-name="icircumflex" unicode="&#xee;" horiz-adv-x="298" 
d="M114 564h-177l117 162h191l118 -162h-178l-35 50zM55 505h188v-505h-188v505z" />
    <glyph glyph-name="idieresis" unicode="&#xef;" horiz-adv-x="298" 
d="M30 743q44 0 72 -28t28 -68q0 -43 -28 -70q-30 -28 -72 -28q-41 0 -71 28q-28 27 -28 70q0 40 28 68t71 28zM268 743q44 0 72 -28t28 -68q0 -43 -28 -70q-30 -28 -72 -28q-41 0 -71 28q-28 27 -28 70q0 40 28 68t71 28zM243 0h-188v505h188v-505z" />
    <glyph glyph-name="eth" unicode="&#xf0;" horiz-adv-x="606" 
d="M488 647l-63 -24q161 -182 161 -368q0 -70 -25 -123q-26 -55 -66 -85q-41 -31 -90 -46q-51 -16 -99 -16q-118 0 -202 75t-84 192q0 119 72 194t181 74q26 0 52 -8q-35 35 -56 51l-131 -51l-36 84l71 28q-44 23 -133 60v36h278q16 -10 35 -27l99 39zM304 141q46 0 74 34
t28 79q0 48 -29 78q-30 31 -73 31q-44 0 -74 -32q-30 -31 -30 -79q0 -45 30 -78t74 -33z" />
    <glyph glyph-name="ntilde" unicode="&#xf1;" horiz-adv-x="620" 
d="M267 603q-13 0 -21 -6q-6 -5 -13 -24h-105q0 81 35 128q34 46 88 46q35 0 69 -18q36 -19 51 -19q13 0 21 8q7 7 13 25h105q0 -81 -35 -128q-34 -46 -88 -46q-32 0 -68 17t-52 17zM386 520q85 0 138 -56q52 -55 52 -151v-313h-188v273q0 36 -19 58t-52 22q-38 0 -60 -28
q-23 -29 -23 -80v-245h-187v505h187v-51q62 66 152 66z" />
    <glyph glyph-name="ograve" unicode="&#xf2;" horiz-adv-x="606" 
d="M222 567l-127 160h225l75 -160h-173zM303 519q119 0 201 -75t82 -192q0 -116 -82 -191t-201 -75q-117 0 -200 75t-83 191q0 117 83 192t200 75zM303 141q43 0 73 32q30 31 30 79t-30 79q-30 32 -73 32t-73 -32q-30 -31 -30 -79q0 -46 31 -79q30 -32 72 -32z" />
    <glyph glyph-name="oacute" unicode="&#xf3;" horiz-adv-x="606" 
d="M389 567h-173l75 160h225zM303 519q119 0 201 -75t82 -192q0 -116 -82 -191t-201 -75q-117 0 -200 75t-83 191q0 117 83 192t200 75zM303 141q43 0 73 32q30 31 30 79t-30 79q-30 32 -73 32t-73 -32q-30 -31 -30 -79q0 -46 31 -79q30 -32 72 -32z" />
    <glyph glyph-name="ocircumflex" unicode="&#xf4;" horiz-adv-x="606" 
d="M268 564h-177l117 162h191l118 -162h-178l-35 50zM303 519q119 0 201 -75t82 -192q0 -116 -82 -191t-201 -75q-117 0 -200 75t-83 191q0 117 83 192t200 75zM303 141q43 0 73 32q30 31 30 79t-30 79q-30 32 -73 32t-73 -32q-30 -31 -30 -79q0 -46 31 -79q30 -32 72 -32z
" />
    <glyph glyph-name="otilde" unicode="&#xf5;" horiz-adv-x="606" 
d="M259 603q-13 0 -21 -6q-6 -5 -13 -24h-105q0 81 35 128q34 46 88 46q35 0 69 -18q36 -19 51 -19q13 0 21 8q7 7 13 25h105q0 -81 -35 -128q-34 -46 -88 -46q-32 0 -68 17t-52 17zM303 519q119 0 201 -75t82 -192q0 -116 -82 -191t-201 -75q-117 0 -200 75t-83 191
q0 117 83 192t200 75zM303 141q43 0 73 32q30 31 30 79t-30 79q-30 32 -73 32t-73 -32q-30 -31 -30 -79q0 -46 31 -79q30 -32 72 -32z" />
    <glyph glyph-name="odieresis" unicode="&#xf6;" horiz-adv-x="606" 
d="M184 549q-41 0 -71 28q-28 27 -28 70q0 40 28 68t71 28q44 0 72 -28t28 -68q0 -43 -28 -70q-30 -28 -72 -28zM422 549q-41 0 -71 28q-28 27 -28 70q0 40 28 68t71 28q44 0 72 -28t28 -68q0 -43 -28 -70q-30 -28 -72 -28zM303 519q119 0 201 -75t82 -192q0 -116 -82 -191
t-201 -75q-117 0 -200 75t-83 191q0 117 83 192t200 75zM303 141q43 0 73 32q30 31 30 79t-30 79q-30 32 -73 32t-73 -32q-30 -31 -30 -79q0 -46 31 -79q30 -32 72 -32z" />
    <glyph glyph-name="divide" unicode="&#xf7;" horiz-adv-x="567" 
d="M282 606q40 0 65 -27q26 -28 26 -64q0 -37 -26 -63t-65 -26q-38 0 -64 26t-26 63q0 36 26 64q26 27 64 27zM527 249h-487v145h487v-145zM282 220q40 0 65 -27q26 -28 26 -64q0 -37 -26 -63t-65 -26q-38 0 -64 26t-26 63q0 36 26 64q26 27 64 27z" />
    <glyph glyph-name="oslash" unicode="&#xf8;" horiz-adv-x="606" 
d="M577 462l-47 -47q56 -70 56 -163q0 -116 -82 -191t-201 -75q-89 0 -159 43l-55 -55l-64 64l51 51q-56 70 -56 163q0 117 83 192t200 75q88 0 159 -44l51 51zM200 252q0 -14 5 -34l137 137q-21 8 -39 8q-43 0 -73 -32q-30 -31 -30 -79zM303 141q43 0 73 32q30 31 30 79
q0 16 -5 34l-137 -137q21 -8 39 -8z" />
    <glyph glyph-name="ugrave" unicode="&#xf9;" horiz-adv-x="620" 
d="M229 567l-127 160h225l75 -160h-173zM573 505v-505h-187v51q-62 -66 -152 -66q-85 0 -138 56q-52 55 -52 151v313h188v-273q0 -35 20 -58q19 -22 51 -22q39 0 61 28t22 80v245h187z" />
    <glyph glyph-name="uacute" unicode="&#xfa;" horiz-adv-x="620" 
d="M395 567h-173l75 160h225zM573 505v-505h-187v51q-62 -66 -152 -66q-85 0 -138 56q-52 55 -52 151v313h188v-273q0 -35 20 -58q19 -22 51 -22q39 0 61 28t22 80v245h187z" />
    <glyph glyph-name="ucircumflex" unicode="&#xfb;" horiz-adv-x="620" 
d="M274 564h-177l117 162h191l118 -162h-178l-35 50zM573 505v-505h-187v51q-62 -66 -152 -66q-85 0 -138 56q-52 55 -52 151v313h188v-273q0 -35 20 -58q19 -22 51 -22q39 0 61 28t22 80v245h187z" />
    <glyph glyph-name="udieresis" unicode="&#xfc;" horiz-adv-x="620" 
d="M191 549q-41 0 -71 28q-28 27 -28 70q0 40 28 68t71 28q44 0 72 -28t28 -68q0 -43 -28 -70q-30 -28 -72 -28zM429 549q-41 0 -71 28q-28 27 -28 70q0 40 28 68t71 28q44 0 72 -28t28 -68q0 -43 -28 -70q-30 -28 -72 -28zM573 505v-505h-187v51q-62 -66 -152 -66
q-85 0 -138 56q-52 55 -52 151v313h188v-273q0 -35 20 -58q19 -22 51 -22q39 0 61 28t22 80v245h187z" />
    <glyph glyph-name="yacute" unicode="&#xfd;" horiz-adv-x="624" 
d="M403 567h-173l75 160h225zM621 505l-322 -745h-197l111 258l-210 487h198l107 -267l115 267h198z" />
    <glyph glyph-name="thorn" unicode="&#xfe;" horiz-adv-x="646" 
d="M382 520q107 0 175 -74q69 -75 69 -194q0 -117 -69 -192t-175 -75q-93 0 -148 58v-283h-187v960h187v-258q55 58 148 58zM337 141q45 0 74 32q28 31 28 79q0 50 -28 81t-74 31q-43 0 -73 -32t-30 -80t30 -79q30 -32 73 -32z" />
    <glyph glyph-name="ydieresis" unicode="&#xff;" horiz-adv-x="624" 
d="M198 549q-41 0 -71 28q-28 27 -28 70q0 40 28 68t71 28q44 0 72 -28t28 -68q0 -43 -28 -70q-30 -28 -72 -28zM436 549q-41 0 -71 28q-28 27 -28 70q0 40 28 68t71 28q44 0 72 -28t28 -68q0 -43 -28 -70q-30 -28 -72 -28zM621 505l-322 -745h-197l111 258l-210 487h198
l107 -267l115 267h198z" />
    <glyph glyph-name="Amacron" unicode="&#x100;" horiz-adv-x="752" 
d="M549 734h-344v140h344v-140zM752 0h-207l-37 102h-264l-38 -102h-206l270 670h212zM450 263l-73 201l-74 -201h147z" />
    <glyph glyph-name="amacron" unicode="&#x101;" horiz-adv-x="565" 
d="M460 569h-344v140h344v-140zM289 520q114 0 177 -54t63 -155v-311h-181v35q-59 -50 -147 -50q-81 0 -133 46q-51 45 -51 119q0 76 58 120q56 43 162 43h111v13q0 26 -15 41t-41 15q-55 0 -65 -52l-177 36q20 74 82 114t157 40zM268 119q32 0 57 20q23 19 23 54v16h-75
q-27 0 -43 -12q-17 -12 -17 -33q0 -20 16 -33q15 -12 39 -12z" />
    <glyph glyph-name="Abreve" unicode="&#x102;" horiz-adv-x="752" 
d="M377 715q-84 0 -136 46t-52 122h142q0 -17 13 -30t33 -13q19 0 34 13q13 12 13 30h141q0 -76 -52 -122t-136 -46zM752 0h-207l-37 102h-264l-38 -102h-206l270 670h212zM450 263l-73 201l-74 -201h147z" />
    <glyph glyph-name="abreve" unicode="&#x103;" horiz-adv-x="565" 
d="M288 550q-84 0 -136 46t-52 122h142q0 -17 13 -30t33 -13q19 0 34 13q13 12 13 30h141q0 -76 -52 -122t-136 -46zM289 520q114 0 177 -54t63 -155v-311h-181v35q-59 -50 -147 -50q-81 0 -133 46q-51 45 -51 119q0 76 58 120q56 43 162 43h111v13q0 26 -15 41t-41 15
q-55 0 -65 -52l-177 36q20 74 82 114t157 40zM268 119q32 0 57 20q23 19 23 54v16h-75q-27 0 -43 -12q-17 -12 -17 -33q0 -20 16 -33q15 -12 39 -12z" />
    <glyph glyph-name="Aogonek" unicode="&#x104;" horiz-adv-x="752" 
d="M775 -90l7 -103q-49 -23 -102 -23q-48 0 -80 26q-31 25 -31 71q0 64 64 119h-88l-37 102h-264l-38 -102h-206l270 670h212l270 -670q-49 -50 -53 -63q-3 -6 -3 -13q0 -24 28 -24q18 0 51 10zM450 263l-73 201l-74 -201h147z" />
    <glyph glyph-name="aogonek" unicode="&#x105;" horiz-adv-x="565" 
d="M553 -90l7 -103q-49 -23 -102 -23q-48 0 -80 26q-31 25 -31 71q0 64 64 119h-63v35q-59 -50 -147 -50q-81 0 -133 46q-51 45 -51 119q0 76 58 120q56 43 162 43h111v13q0 26 -15 41t-41 15q-55 0 -65 -52l-177 36q20 74 82 114t157 40q114 0 177 -54t63 -155v-311h1
q-49 -50 -53 -63q-3 -6 -3 -13q0 -24 28 -24q18 0 51 10zM268 119q32 0 57 20q23 19 23 54v16h-75q-27 0 -43 -12q-17 -12 -17 -33q0 -20 16 -33q15 -12 39 -12z" />
    <glyph glyph-name="Cacute" unicode="&#x106;" horiz-adv-x="765" 
d="M476 732h-173l75 160h225zM391 158q61 0 99 34q40 35 53 100l192 -44q-23 -123 -114 -192q-94 -71 -230 -71q-151 0 -256 102t-105 248q0 147 105 249q104 101 256 101q130 0 225 -70q97 -71 119 -186l-192 -46q-13 62 -53 96q-39 33 -99 33q-71 0 -119 -51t-48 -126
t48 -126t119 -51z" />
    <glyph glyph-name="cacute" unicode="&#x107;" horiz-adv-x="583" 
d="M386 567h-173l75 160h225zM392 223l171 -33q-17 -92 -89 -148q-74 -57 -174 -57q-117 0 -198 75q-82 76 -82 192q0 117 82 193q81 75 198 75q99 0 172 -55q74 -55 90 -147l-172 -36q-7 38 -32 60q-23 20 -58 20q-44 0 -72 -31t-28 -79q0 -47 28 -78t72 -31q72 0 92 80z
" />
    <glyph glyph-name="Cdot" unicode="&#x10a;" horiz-adv-x="765" 
d="M389 721q-45 0 -73 28q-29 29 -29 72q0 40 29 71q28 29 73 29t74 -29t29 -71q0 -43 -29 -72q-28 -28 -74 -28zM391 158q61 0 99 34q40 35 53 100l192 -44q-23 -123 -114 -192q-94 -71 -230 -71q-151 0 -256 102t-105 248q0 147 105 249q104 101 256 101q130 0 225 -70
q97 -71 119 -186l-192 -46q-13 62 -53 96q-39 33 -99 33q-71 0 -119 -51t-48 -126t48 -126t119 -51z" />
    <glyph glyph-name="cdot" unicode="&#x10b;" horiz-adv-x="583" 
d="M299 556q-45 0 -73 28q-29 29 -29 72q0 40 29 71q28 29 73 29t74 -29t29 -71q0 -43 -29 -72q-28 -28 -74 -28zM392 223l171 -33q-17 -92 -89 -148q-74 -57 -174 -57q-117 0 -198 75q-82 76 -82 192q0 117 82 193q81 75 198 75q99 0 172 -55q74 -55 90 -147l-172 -36
q-7 38 -32 60q-23 20 -58 20q-44 0 -72 -31t-28 -79q0 -47 28 -78t72 -31q72 0 92 80z" />
    <glyph glyph-name="Ccaron" unicode="&#x10c;" horiz-adv-x="765" 
d="M295 729l-117 162h177l36 -50l35 50h178l-118 -162h-191zM391 158q61 0 99 34q40 35 53 100l192 -44q-23 -123 -114 -192q-94 -71 -230 -71q-151 0 -256 102t-105 248q0 147 105 249q104 101 256 101q130 0 225 -70q97 -71 119 -186l-192 -46q-13 62 -53 96
q-39 33 -99 33q-71 0 -119 -51t-48 -126t48 -126t119 -51z" />
    <glyph glyph-name="ccaron" unicode="&#x10d;" horiz-adv-x="583" 
d="M205 564l-117 162h177l36 -50l35 50h178l-118 -162h-191zM392 223l171 -33q-17 -92 -89 -148q-74 -57 -174 -57q-117 0 -198 75q-82 76 -82 192q0 117 82 193q81 75 198 75q99 0 172 -55q74 -55 90 -147l-172 -36q-7 38 -32 60q-23 20 -58 20q-44 0 -72 -31t-28 -79
q0 -47 28 -78t72 -31q72 0 92 80z" />
    <glyph glyph-name="Dcaron" unicode="&#x10e;" horiz-adv-x="725" 
d="M257 729l-117 162h177l36 -50l35 50h178l-118 -162h-191zM47 670h283q166 0 265 -92q100 -93 100 -243q0 -149 -100 -242t-265 -93h-283v670zM239 162h77q83 0 134 48t51 125t-51 125t-134 48h-77v-346z" />
    <glyph glyph-name="dcaron" unicode="&#x10f;" horiz-adv-x="646" 
d="M412 770h187v-770h-187v43q-55 -58 -148 -58q-105 0 -174 75q-70 76 -70 192q0 118 70 194q68 74 174 74q93 0 148 -58v308zM815 770l-41 -200h-126v200h167zM309 141q43 0 73 32q30 31 30 79t-30 80t-73 32q-46 0 -74 -31t-28 -81q0 -48 28 -79q29 -32 74 -32z" />
    <glyph glyph-name="Dcroat" unicode="&#x110;" horiz-adv-x="732" 
d="M63 670h283q167 0 266 -92q100 -93 100 -243q0 -149 -100 -242t-266 -93h-283v252h-46v165h46v253zM256 162h77q83 0 134 48q50 47 50 125t-50 125q-51 48 -134 48h-77v-91h93v-165h-93v-90z" />
    <glyph glyph-name="dcroat" unicode="&#x111;" horiz-adv-x="661" 
d="M643 543h-44v-543h-187v43q-55 -58 -148 -58q-105 0 -174 75q-70 76 -70 192q0 118 70 194q68 74 174 74q93 0 148 -58v81h-121v133h121v94h187v-94h44v-133zM309 141q43 0 73 32q30 31 30 79t-30 80t-73 32q-46 0 -74 -31t-28 -81q0 -48 28 -79q29 -32 74 -32z" />
    <glyph glyph-name="Emacron" unicode="&#x112;" horiz-adv-x="617" 
d="M488 734h-344v140h344v-140zM580 162v-162h-533v670h529v-162h-337v-99h310v-147h-310v-100h341z" />
    <glyph glyph-name="emacron" unicode="&#x113;" horiz-adv-x="578" 
d="M468 569h-344v140h344v-140zM558 242v-35h-355q9 -36 33 -57t59 -21q64 0 89 49l167 -33q-31 -79 -98 -119q-68 -41 -158 -41q-115 0 -195 75t-80 192q0 118 80 193t195 75t189 -74q72 -72 74 -204zM295 374q-31 0 -56 -17q-23 -16 -34 -47h172q-19 64 -82 64z" />
    <glyph glyph-name="Edot" unicode="&#x116;" horiz-adv-x="617" 
d="M315 721q-45 0 -73 28q-29 29 -29 72q0 40 29 71q28 29 73 29t74 -29t29 -71q0 -43 -29 -72q-28 -28 -74 -28zM580 162v-162h-533v670h529v-162h-337v-99h310v-147h-310v-100h341z" />
    <glyph glyph-name="edot" unicode="&#x117;" horiz-adv-x="578" 
d="M295 556q-45 0 -73 28q-29 29 -29 72q0 40 29 71q28 29 73 29t74 -29t29 -71q0 -43 -29 -72q-28 -28 -74 -28zM558 242v-35h-355q9 -36 33 -57t59 -21q64 0 89 49l167 -33q-31 -79 -98 -119q-68 -41 -158 -41q-115 0 -195 75t-80 192q0 118 80 193t195 75t189 -74
q72 -72 74 -204zM295 374q-31 0 -56 -17q-23 -16 -34 -47h172q-19 64 -82 64z" />
    <glyph glyph-name="Eogonek" unicode="&#x118;" horiz-adv-x="617" 
d="M580 0h-34q-49 -50 -53 -63q-3 -6 -3 -13q0 -24 28 -24q18 0 51 10l7 -103q-49 -23 -102 -23q-48 0 -80 26q-31 25 -31 71q0 64 64 119h-380v670h529v-162h-337v-99h310v-147h-310v-100h341v-162z" />
    <glyph glyph-name="eogonek" unicode="&#x119;" horiz-adv-x="578" 
d="M558 207h-355q18 -78 91 -78q65 0 90 49l167 -33q-21 -42 -74 -95q-21 -21 -37 -39q-12 -13 -24 -36q-12 -22 -12 -44q0 -31 31 -31q17 0 50 10l7 -99q-46 -28 -102 -28q-52 0 -84 26t-32 70q0 52 44 107l-23 -1q-115 0 -195 75t-80 192q0 118 80 193t195 75
q117 0 190 -74t73 -207v-32zM203 310h173q-15 64 -84 64q-30 0 -54 -17t-35 -47z" />
    <glyph glyph-name="Ecaron" unicode="&#x11a;" horiz-adv-x="617" 
d="M220 729l-117 162h177l36 -50l35 50h178l-118 -162h-191zM580 162v-162h-533v670h529v-162h-337v-99h310v-147h-310v-100h341z" />
    <glyph glyph-name="ecaron" unicode="&#x11b;" horiz-adv-x="578" 
d="M200 564l-117 162h177l36 -50l35 50h178l-118 -162h-191zM558 242v-35h-355q9 -36 33 -57t59 -21q64 0 89 49l167 -33q-31 -79 -98 -119q-68 -41 -158 -41q-115 0 -195 75t-80 192q0 118 80 193t195 75t189 -74q72 -72 74 -204zM295 374q-31 0 -56 -17q-23 -16 -34 -47
h172q-19 64 -82 64z" />
    <glyph glyph-name="Gbreve" unicode="&#x11e;" horiz-adv-x="780" 
d="M396 715q-84 0 -136 46t-52 122h142q0 -17 13 -30t33 -13q19 0 34 13q13 12 13 30h141q0 -76 -52 -122t-136 -46zM373 400h373q4 -48 4 -66q0 -153 -99 -251q-100 -98 -256 -98q-154 0 -259 102q-106 103 -106 248q0 146 106 249q104 101 258 101q118 0 209 -53
q90 -52 123 -148l-195 -49q-41 77 -137 77q-75 0 -122 -50q-48 -51 -48 -127t49 -126q49 -51 124 -51q107 0 148 84h-172v158z" />
    <glyph glyph-name="gbreve" unicode="&#x11f;" horiz-adv-x="646" 
d="M324 550q-84 0 -136 46t-52 122h142q0 -17 13 -30t33 -13q19 0 34 13q13 12 13 30h141q0 -76 -52 -122t-136 -46zM599 505v-514q0 -112 -88 -176q-89 -65 -219 -65q-184 0 -260 133l158 72q25 -28 49 -40q22 -11 51 -11q52 0 87 25t35 76v38q-55 -58 -148 -58
q-105 0 -174 75q-70 76 -70 192q0 118 70 194q68 74 174 74q93 0 148 -58v43h187zM309 141q43 0 73 32q30 31 30 79t-30 80t-73 32q-46 0 -74 -31t-28 -81q0 -48 28 -79q29 -32 74 -32z" />
    <glyph glyph-name="Gdot" unicode="&#x120;" horiz-adv-x="780" 
d="M395 721q-45 0 -73 28q-29 29 -29 72q0 40 29 71q28 29 73 29t74 -29t29 -71q0 -43 -29 -72q-28 -28 -74 -28zM373 400h373q4 -48 4 -66q0 -153 -99 -251q-100 -98 -256 -98q-154 0 -259 102q-106 103 -106 248q0 146 106 249q104 101 258 101q118 0 209 -53
q90 -52 123 -148l-195 -49q-41 77 -137 77q-75 0 -122 -50q-48 -51 -48 -127t49 -126q49 -51 124 -51q107 0 148 84h-172v158z" />
    <glyph glyph-name="gdot" unicode="&#x121;" horiz-adv-x="646" 
d="M323 556q-45 0 -73 28q-29 29 -29 72q0 40 29 71q28 29 73 29t74 -29t29 -71q0 -43 -29 -72q-28 -28 -74 -28zM599 505v-514q0 -112 -88 -176q-89 -65 -219 -65q-184 0 -260 133l158 72q25 -28 49 -40q22 -11 51 -11q52 0 87 25t35 76v38q-55 -58 -148 -58
q-105 0 -174 75q-70 76 -70 192q0 118 70 194q68 74 174 74q93 0 148 -58v43h187zM309 141q43 0 73 32q30 31 30 79t-30 80t-73 32q-46 0 -74 -31t-28 -81q0 -48 28 -79q29 -32 74 -32z" />
    <glyph glyph-name="Gcedilla" unicode="&#x122;" horiz-adv-x="780" 
d="M373 400h373q4 -48 4 -66q0 -153 -99 -251q-100 -98 -256 -98q-154 0 -259 102q-106 103 -106 248q0 146 106 249q104 101 258 101q118 0 209 -53q90 -52 123 -148l-195 -49q-41 77 -137 77q-75 0 -122 -50q-48 -51 -48 -127t49 -126q49 -51 124 -51q107 0 148 84h-172
v158zM300 -45h182l-101 -163h-130z" />
    <glyph glyph-name="gcedilla" unicode="&#x123;" horiz-adv-x="634" 
d="M414 564h-181l101 163h129zM599 505v-514q0 -112 -88 -176q-89 -65 -219 -65q-184 0 -260 133l158 72q25 -28 49 -40q22 -11 51 -11q52 0 87 25t35 76v38q-55 -58 -148 -58q-105 0 -174 75q-70 76 -70 192q0 118 70 194q68 74 174 74q93 0 148 -58v43h187zM309 141
q43 0 73 32q30 31 30 79t-30 80t-73 32q-46 0 -74 -31t-28 -81q0 -48 28 -79q29 -32 74 -32z" />
    <glyph glyph-name="Hbar" unicode="&#x126;" horiz-adv-x="757" 
d="M739 433h-48v-433h-192v206h-242v-206h-193v433h-47v142h47v95h193v-95h242v95h192v-95h48v-142zM499 433h-242v-75h242v75z" />
    <glyph glyph-name="hbar" unicode="&#x127;" horiz-adv-x="637" 
d="M403 520q84 0 137 -56q52 -55 52 -151v-313h-187v273q0 35 -20 58q-19 22 -52 22q-38 0 -60 -28t-22 -80v-245h-188v549h-46v123h46v98h188v-98h117v-123h-117v-95q61 66 152 66z" />
    <glyph glyph-name="Imacron" unicode="&#x12a;" horiz-adv-x="459" 
d="M402 734h-344v140h344v-140zM326 505v-340h113v-165h-419v165h113v340h-113v165h419v-165h-113z" />
    <glyph glyph-name="imacron" unicode="&#x12b;" horiz-adv-x="298" 
d="M321 569h-344v140h344v-140zM243 0h-188v505h188v-505z" />
    <glyph glyph-name="Iogonek" unicode="&#x12e;" horiz-adv-x="459" 
d="M326 505v-340h113v-165h-113q-49 -50 -53 -63q-3 -6 -3 -13q0 -24 28 -24q18 0 51 10l7 -103q-49 -23 -102 -23q-48 0 -80 26q-31 25 -31 71q0 64 64 119h-187v165h113v340h-113v165h419v-165h-113z" />
    <glyph glyph-name="iogonek" unicode="&#x12f;" horiz-adv-x="298" 
d="M148 556q-45 0 -73 28q-29 29 -29 72q0 40 29 71q28 29 73 29t74 -29t29 -71q0 -43 -29 -72q-28 -28 -74 -28zM266 -90l7 -103q-49 -23 -102 -23q-48 0 -80 26q-31 25 -31 71q0 64 64 119h-69v505h188v-505q-3 -4 -10 -10q-41 -44 -45 -57q-1 -3 -1 -9q0 -24 28 -24
q18 0 51 10z" />
    <glyph glyph-name="Idot" unicode="&#x130;" horiz-adv-x="459" 
d="M229 721q-45 0 -73 28q-29 29 -29 72q0 40 29 71q28 29 73 29t74 -29t29 -71q0 -43 -29 -72q-28 -28 -74 -28zM326 505v-340h113v-165h-419v165h113v340h-113v165h419v-165h-113z" />
    <glyph glyph-name="dotlessi" unicode="&#x131;" horiz-adv-x="298" 
d="M243 0h-188v505h188v-505z" />
    <glyph glyph-name="IJ" unicode="&#x132;" horiz-adv-x="1079" 
d="M439 670v-165h-113v-340h113v-165h-419v165h113v340h-113v165h419zM1031 670v-425q0 -117 -77 -188q-78 -72 -204 -72q-116 0 -190 63q-73 63 -88 169l190 37q11 -98 88 -98q39 0 64 25q24 24 24 64v260h-209v165h402z" />
    <glyph glyph-name="ij" unicode="&#x133;" horiz-adv-x="608" 
d="M149 755q45 0 75 -30t30 -72q0 -45 -29 -73q-31 -29 -76 -29q-44 0 -75 29q-30 28 -30 73q0 42 30 72t75 30zM459 755q45 0 75 -30t30 -72q0 -45 -29 -73q-31 -29 -76 -29q-44 0 -75 29q-30 28 -30 73q0 42 30 72t75 30zM243 0h-187v505h187v-505zM270 -226l26 135
q28 -5 34 -5q15 0 26 11q10 10 10 29v561h188v-578q0 -79 -48 -128t-126 -49q-56 0 -110 24z" />
    <glyph glyph-name="Kcedilla" unicode="&#x136;" horiz-adv-x="718" 
d="M725 0h-232l-155 231l-99 -119v-112h-192v670h192v-289l244 289h218l-238 -288zM275 -45h182l-101 -163h-130z" />
    <glyph glyph-name="kcedilla" unicode="&#x137;" horiz-adv-x="626" 
d="M633 0h-229l-103 149l-67 -79v-70h-187v770h187v-438l151 173h220l-177 -207zM233 -45h182l-101 -163h-130z" />
    <glyph glyph-name="Lacute" unicode="&#x139;" horiz-adv-x="581" 
d="M233 732h-173l75 160h225zM555 165v-165h-508v670h192v-505h316z" />
    <glyph glyph-name="lacute" unicode="&#x13a;" horiz-adv-x="348" 
d="M226 832h-173l75 160h225zM229 770v-586q0 -16 11 -27t29 -11q19 0 53 12l28 -137q-8 -4 -19.5 -9.5t-14.5 -7.5q-10 -6 -37 -12q-30 -7 -56 -7q-81 0 -131 51q-50 52 -50 133v601h187z" />
    <glyph glyph-name="Lcedilla" unicode="&#x13b;" horiz-adv-x="581" 
d="M555 165v-165h-508v670h192v-505h316zM214 -45h182l-101 -163h-130z" />
    <glyph glyph-name="lcedilla" unicode="&#x13c;" horiz-adv-x="348" 
d="M229 770v-586q0 -16 11 -27t29 -11q19 0 53 12l28 -137q-8 -4 -19.5 -9.5t-14.5 -7.5q-10 -6 -37 -12q-30 -7 -56 -7q-81 0 -131 51q-50 52 -50 133v601h187zM56 -208l49 163h182l-101 -163h-130z" />
    <glyph glyph-name="Lcaron" unicode="&#x13d;" horiz-adv-x="581" 
d="M555 165v-165h-508v670h192v-505h316zM444 470h-127v200h168z" />
    <glyph glyph-name="lcaron" unicode="&#x13e;" horiz-adv-x="348" 
d="M229 770v-586q0 -16 11 -27t29 -11q19 0 53 12l28 -137q-8 -4 -19.5 -9.5t-14.5 -7.5q-10 -6 -37 -12q-30 -7 -56 -7q-81 0 -131 51q-50 52 -50 133v601h187zM401 570h-127v200h168z" />
    <glyph glyph-name="Ldot" unicode="&#x13f;" horiz-adv-x="598" 
d="M555 165v-165h-508v670h192v-505h316zM421 267q-44 0 -72 28q-29 29 -29 72q0 41 29 70t72 29t74 -29q29 -28 29 -70q0 -43 -29 -72q-28 -28 -74 -28z" />
    <glyph glyph-name="ldot" unicode="&#x140;" horiz-adv-x="472" 
d="M233 770v-586q0 -16 11 -27t28 -11q18 0 54 12l27 -137q-65 -36 -127 -36q-82 0 -131 51q-50 52 -50 133v601h188zM368 466q43 0 74 -29q29 -28 29 -70q0 -43 -29 -72q-28 -28 -74 -28q-45 0 -73 28q-29 29 -29 72q0 41 29 70t73 29z" />
    <glyph glyph-name="Lslash" unicode="&#x141;" horiz-adv-x="608" 
d="M575 165v-165h-508v221l-50 -22v161l50 22v288h192v-202l94 42v-161l-94 -42v-142h316z" />
    <glyph glyph-name="lslash" unicode="&#x142;" horiz-adv-x="370" 
d="M344 158l27 -137q-65 -36 -127 -36q-81 0 -131 51q-50 52 -50 133v61l-46 -24v174l46 24v366h188v-269l56 29v-174l-56 -29v-143q0 -16 11 -27t28 -11q18 0 54 12z" />
    <glyph glyph-name="Nacute" unicode="&#x143;" horiz-adv-x="752" 
d="M464 732h-173l75 160h225zM706 670v-670h-159l-308 345v-345h-192v670h158l308 -357v357h193z" />
    <glyph glyph-name="nacute" unicode="&#x144;" horiz-adv-x="620" 
d="M397 567h-173l75 160h225zM386 520q85 0 138 -56q52 -55 52 -151v-313h-188v273q0 36 -19 58t-52 22q-38 0 -60 -28q-23 -29 -23 -80v-245h-187v505h187v-51q62 66 152 66z" />
    <glyph glyph-name="Ncedilla" unicode="&#x145;" horiz-adv-x="752" 
d="M706 670v-670h-159l-308 345v-345h-192v670h158l308 -357v357h193zM303 -45h182l-101 -163h-130z" />
    <glyph glyph-name="ncedilla" unicode="&#x146;" horiz-adv-x="620" 
d="M386 520q85 0 138 -56q52 -55 52 -151v-313h-188v273q0 36 -19 58t-52 22q-38 0 -60 -28q-23 -29 -23 -80v-245h-187v505h187v-51q62 66 152 66zM219 -45h182l-101 -163h-130z" />
    <glyph glyph-name="Ncaron" unicode="&#x147;" horiz-adv-x="752" 
d="M282 729l-117 162h177l36 -50l35 50h178l-118 -162h-191zM706 670v-670h-159l-308 345v-345h-192v670h158l308 -357v357h193z" />
    <glyph glyph-name="ncaron" unicode="&#x148;" horiz-adv-x="620" 
d="M216 564l-117 162h177l36 -50l35 50h178l-118 -162h-191zM386 520q85 0 138 -56q52 -55 52 -151v-313h-188v273q0 36 -19 58t-52 22q-38 0 -60 -28q-23 -29 -23 -80v-245h-187v505h187v-51q62 66 152 66z" />
    <glyph glyph-name="Eng" unicode="&#x14a;" horiz-adv-x="732" 
d="M706 670v-762q0 -74 -47 -115q-49 -43 -127 -43q-59 0 -131 21l21 145q45 -9 60 -9q36 0 36 34v91l-279 313v-345h-192v670h158l308 -357v357h193z" />
    <glyph glyph-name="eng" unicode="&#x14b;" horiz-adv-x="620" 
d="M386 520q85 0 138 -56q52 -55 52 -151v-405q0 -74 -47 -115q-49 -43 -127 -43q-65 0 -131 22l21 138q45 -9 60 -9q36 0 36 34v338q0 36 -19 58t-52 22q-38 0 -60 -28q-23 -29 -23 -80v-245h-187v505h187v-51q62 66 152 66z" />
    <glyph glyph-name="Omacron" unicode="&#x14c;" horiz-adv-x="782" 
d="M563 734h-344v140h344v-140zM391 685q153 0 257 -101t104 -249q0 -147 -104 -248q-105 -102 -257 -102q-151 0 -256 102t-105 248q0 147 105 249q104 101 256 101zM391 158q72 0 120 51q47 50 47 126t-47 126q-48 51 -120 51q-71 0 -119 -51t-48 -126t48 -126t119 -51z
" />
    <glyph glyph-name="omacron" unicode="&#x14d;" horiz-adv-x="606" 
d="M475 569h-344v140h344v-140zM303 519q119 0 201 -75t82 -192q0 -116 -82 -191t-201 -75q-117 0 -200 75t-83 191q0 117 83 192t200 75zM303 141q43 0 73 32q30 31 30 79t-30 79q-30 32 -73 32t-73 -32q-30 -31 -30 -79q0 -46 31 -79q30 -32 72 -32z" />
    <glyph glyph-name="Odblacute" unicode="&#x150;" horiz-adv-x="782" 
d="M355 732h-154l82 160h197zM416 732l82 160h204l-131 -160h-155zM391 685q153 0 257 -101t104 -249q0 -147 -104 -248q-105 -102 -257 -102q-151 0 -256 102t-105 248q0 147 105 249q104 101 256 101zM391 158q72 0 120 51q47 50 47 126t-47 126q-48 51 -120 51
q-71 0 -119 -51t-48 -126t48 -126t119 -51z" />
    <glyph glyph-name="odblacute" unicode="&#x151;" horiz-adv-x="606" 
d="M267 567h-154l82 160h197zM328 567l82 160h204l-131 -160h-155zM303 519q119 0 201 -75t82 -192q0 -116 -82 -191t-201 -75q-117 0 -200 75t-83 191q0 117 83 192t200 75zM303 141q43 0 73 32q30 31 30 79t-30 79q-30 32 -73 32t-73 -32q-30 -31 -30 -79q0 -46 31 -79
q30 -32 72 -32z" />
    <glyph glyph-name="OE" unicode="&#x152;" horiz-adv-x="1029" 
d="M992 162v-162h-573q-172 0 -281 94q-108 93 -108 241q0 149 108 242t281 93h569v-162h-337v-99h310v-147h-310v-100h341zM459 162v346h-40q-94 0 -144 -47q-51 -48 -51 -126q0 -77 51 -125t144 -48h40z" />
    <glyph glyph-name="oe" unicode="&#x153;" horiz-adv-x="964" 
d="M944 242v-35h-355q19 -78 91 -78q65 0 90 49l166 -33q-31 -79 -97 -119q-67 -41 -159 -41q-110 0 -186 67q-80 -66 -191 -66q-117 0 -200 75t-83 191q0 117 83 192t200 75q111 0 191 -66q76 67 186 67q116 0 190 -74q72 -72 74 -204zM680 374q-30 0 -55 -17
q-23 -16 -34 -47h172q-9 32 -31 48t-52 16zM303 141q43 0 73 32q30 31 30 79t-30 79q-30 32 -73 32t-73 -32q-30 -31 -30 -79q0 -46 31 -79q30 -32 72 -32z" />
    <glyph glyph-name="Racute" unicode="&#x154;" horiz-adv-x="683" 
d="M413 732h-173l75 160h225zM680 0h-231l-184 214h-26v-214h-192v670h357q108 0 175 -62q66 -62 66 -163q0 -81 -43 -137q-45 -59 -118 -81zM239 366h129q40 0 64 21t24 53t-24 52q-23 19 -64 19h-129v-145z" />
    <glyph glyph-name="racute" unicode="&#x155;" horiz-adv-x="444" 
d="M325 567h-173l75 160h225zM234 505v-100q55 106 168 106q22 0 36 -3l-7 -193h-30q-81 0 -124 -37t-43 -125v-153h-187v505h187z" />
    <glyph glyph-name="Rcedilla" unicode="&#x156;" horiz-adv-x="683" 
d="M680 0h-231l-184 214h-26v-214h-192v670h357q108 0 175 -62q66 -62 66 -163q0 -81 -43 -137q-45 -59 -118 -81zM239 366h129q40 0 64 21t24 53t-24 52q-23 19 -64 19h-129v-145zM255 -45h182l-101 -163h-130z" />
    <glyph glyph-name="rcedilla" unicode="&#x157;" horiz-adv-x="444" 
d="M402 511q22 0 36 -3l-7 -193h-30q-81 0 -124 -37t-43 -125v-153h-187v505h187v-100q55 106 168 106zM52 -45h182l-101 -163h-130z" />
    <glyph glyph-name="Rcaron" unicode="&#x158;" horiz-adv-x="683" 
d="M231 729l-117 162h177l36 -50l35 50h178l-118 -162h-191zM680 0h-231l-184 214h-26v-214h-192v670h357q108 0 175 -62q66 -62 66 -163q0 -81 -43 -137q-45 -59 -118 -81zM239 366h129q40 0 64 21t24 53t-24 52q-23 19 -64 19h-129v-145z" />
    <glyph glyph-name="rcaron" unicode="&#x159;" horiz-adv-x="444" 
d="M144 564l-117 162h177l36 -50l35 50h178l-118 -162h-191zM234 505v-100q55 106 168 106q22 0 36 -3l-7 -193h-30q-81 0 -124 -37t-43 -125v-153h-187v505h187z" />
    <glyph glyph-name="Sacute" unicode="&#x15a;" horiz-adv-x="651" 
d="M415 732h-173l75 160h225zM326 685q118 0 195 -51q76 -51 94 -144l-188 -38q-9 44 -38 64t-63 20q-33 0 -51 -14q-20 -15 -20 -40q0 -34 39 -43l136 -32q191 -48 191 -199q0 -75 -43 -127q-42 -51 -106 -74q-60 -22 -136 -22q-123 0 -208 56q-84 56 -98 151l196 37
q23 -89 114 -89q34 0 57 14q22 13 22 40q0 35 -46 45l-139 33q-184 43 -184 194q0 102 77 161q76 58 199 58z" />
    <glyph glyph-name="sacute" unicode="&#x15b;" horiz-adv-x="526" 
d="M360 567h-173l75 160h225zM19 131l179 35q13 -49 75 -49q25 0 39 9t14 21q0 23 -46 30l-101 17q-150 27 -150 150q0 81 64 129q63 47 162 47q100 0 161 -37q62 -38 80 -104l-168 -33q-3 21 -22 35q-20 15 -50 15q-47 0 -47 -30q0 -20 33 -27l115 -23q75 -13 112 -55
q37 -41 37 -105q0 -81 -66 -126t-171 -45q-98 0 -167 37q-66 35 -83 109z" />
    <glyph glyph-name="Scedilla" unicode="&#x15e;" horiz-adv-x="651" 
d="M621 208q0 -94 -63 -149q-64 -57 -161 -70l-40 -149h-193l97 151q-95 15 -157 68t-74 133l196 37q23 -89 114 -89q34 0 57 14q22 13 22 40q0 35 -46 45l-139 33q-184 43 -184 194q0 102 77 161q76 58 199 58q118 0 195 -51q76 -51 94 -144l-188 -38q-9 44 -38 64t-63 20
q-33 0 -51 -14q-20 -15 -20 -40q0 -34 39 -43l136 -32q191 -48 191 -199z" />
    <glyph glyph-name="scedilla" unicode="&#x15f;" horiz-adv-x="526" 
d="M506 156q0 -66 -45 -108q-47 -44 -121 -57l-41 -151h-193l96 150q-158 22 -183 141l179 35q13 -49 75 -49q25 0 39 9t14 21q0 23 -46 30l-101 17q-150 27 -150 150q0 81 64 129q63 47 162 47q100 0 161 -37q62 -38 80 -104l-168 -33q-3 21 -22 35q-20 15 -50 15
q-47 0 -47 -30q0 -20 33 -27l115 -23q75 -13 112 -55q37 -41 37 -105z" />
    <glyph glyph-name="Scaron" unicode="&#x160;" horiz-adv-x="651" 
d="M234 729l-117 162h177l36 -50l35 50h178l-118 -162h-191zM294 439l136 -32q191 -48 191 -199q0 -75 -43 -127q-42 -51 -106 -74q-60 -22 -136 -22q-123 0 -208 56q-84 56 -98 151l196 37q23 -89 114 -89q34 0 57 14q22 13 22 40q0 35 -46 45l-139 33q-184 43 -184 194
q0 102 77 161q76 58 199 58q118 0 195 -51q76 -51 94 -144l-188 -38q-9 44 -38 64t-63 20q-33 0 -51 -14q-20 -15 -20 -40q0 -34 39 -43z" />
    <glyph glyph-name="scaron" unicode="&#x161;" horiz-adv-x="526" 
d="M179 564l-117 162h177l36 -50l35 50h178l-118 -162h-191zM242 339l115 -23q75 -13 112 -55q37 -41 37 -105q0 -81 -66 -126t-171 -45q-98 0 -167 37q-66 35 -83 109l179 35q13 -49 75 -49q25 0 39 9t14 21q0 23 -46 30l-101 17q-150 27 -150 150q0 81 64 129
q63 47 162 47q100 0 161 -37q62 -38 80 -104l-168 -33q-3 21 -22 35q-20 15 -50 15q-47 0 -47 -30q0 -20 33 -27z" />
    <glyph glyph-name="tcedilla" unicode="&#x163;" horiz-adv-x="431" 
d="M391 163l37 -141q-49 -27 -102 -34l-39 -147h-193l102 158q-116 41 -116 188v172h-77v146h77v165h187v-165h134v-146h-134v-151q0 -61 60 -61q35 0 64 16z" />
    <glyph glyph-name="Tcaron" unicode="&#x164;" horiz-adv-x="653" 
d="M231 729l-117 162h177l36 -50l35 50h178l-118 -162h-191zM633 505h-210v-505h-193v505h-210v165h613v-165z" />
    <glyph glyph-name="tcaron" unicode="&#x165;" horiz-adv-x="431" 
d="M472 752l-41 -200h-127v200h168zM327 147q35 0 64 16l37 -141q-68 -37 -144 -37q-98 0 -151 53t-53 149v172h-77v146h77v165h187v-165h134v-146h-134v-151q0 -61 60 -61z" />
    <glyph glyph-name="Tbar" unicode="&#x166;" horiz-adv-x="653" 
d="M423 505v-115h106v-148h-106v-242h-193v242h-105v148h105v115h-210v165h613v-165h-210z" />
    <glyph glyph-name="tbar" unicode="&#x167;" horiz-adv-x="431" 
d="M399 171l22 -151q-72 -35 -140 -35q-98 0 -151 53t-53 149v34h-49v119h49v39h-73v126h73v165h188v-165h133v-126h-133v-39h83v-119h-83v-13q0 -61 60 -61q32 0 74 24z" />
    <glyph glyph-name="Umacron" unicode="&#x16a;" horiz-adv-x="715" 
d="M529 734h-344v140h344v-140zM667 670v-367q0 -145 -83 -231q-84 -87 -222 -87q-142 0 -228 86t-86 232v367h193v-367q0 -68 33 -106t88 -38q52 0 82 39t30 105v367h193z" />
    <glyph glyph-name="umacron" unicode="&#x16b;" horiz-adv-x="620" 
d="M482 569h-344v140h344v-140zM573 505v-505h-187v51q-62 -66 -152 -66q-85 0 -138 56q-52 55 -52 151v313h188v-273q0 -35 20 -58q19 -22 51 -22q39 0 61 28t22 80v245h187z" />
    <glyph glyph-name="Uring" unicode="&#x16e;" horiz-adv-x="715" 
d="M357 708q-55 0 -95 38q-39 38 -39 91q0 55 39 92q38 37 95 37t95 -37q39 -37 39 -92q0 -53 -39 -91q-40 -38 -95 -38zM357 876q-18 0 -29 -11q-12 -12 -12 -28q0 -15 12 -27t29 -12t29 12t12 27q0 16 -12 28q-11 11 -29 11zM667 670v-367q0 -145 -83 -231
q-84 -87 -222 -87q-142 0 -228 86t-86 232v367h193v-367q0 -68 33 -106t88 -38q52 0 82 39t30 105v367h193z" />
    <glyph glyph-name="uring" unicode="&#x16f;" horiz-adv-x="620" 
d="M310 543q-55 0 -95 38q-39 37 -39 91t39 92q38 37 95 37t95 -37q39 -38 39 -92t-39 -91q-40 -38 -95 -38zM310 711q-18 0 -29 -11q-12 -12 -12 -28q0 -15 12 -27t29 -12t29 12t12 27q0 16 -12 28q-11 11 -29 11zM573 505v-505h-187v51q-62 -66 -152 -66q-85 0 -138 56
q-52 55 -52 151v313h188v-273q0 -35 20 -58q19 -22 51 -22q39 0 61 28t22 80v245h187z" />
    <glyph glyph-name="Udblacute" unicode="&#x170;" horiz-adv-x="715" 
d="M321 732h-154l82 160h197zM382 732l82 160h204l-131 -160h-155zM474 670h193v-367q0 -145 -83 -231q-84 -87 -222 -87q-142 0 -228 86t-86 232v367h193v-367q0 -68 33 -106t88 -38q52 0 82 39t30 105v367z" />
    <glyph glyph-name="udblacute" unicode="&#x171;" horiz-adv-x="620" 
d="M274 567h-154l82 160h197zM335 567l82 160h204l-131 -160h-155zM386 505h187v-505h-187v51q-62 -66 -152 -66q-85 0 -138 56q-52 55 -52 151v313h188v-273q0 -35 20 -58q19 -22 51 -22q39 0 61 28t22 80v245z" />
    <glyph glyph-name="Uogonek" unicode="&#x172;" horiz-adv-x="715" 
d="M566 54q-17 -16 -39 -38q-13 -13 -26 -37q-12 -23 -12 -46q0 -31 30 -31q16 0 54 13l26 -105q-71 -33 -131 -33q-50 0 -84 29q-33 28 -33 73q0 53 47 108q-32 -2 -36 -2q-142 0 -228 84t-86 225v376h193v-376q0 -63 33 -99t88 -36q52 0 82 36t30 99v376h193v-376
q0 -153 -101 -240z" />
    <glyph glyph-name="uogonek" unicode="&#x173;" horiz-adv-x="620" 
d="M597 -90l7 -103q-49 -23 -102 -23q-48 0 -80 26q-31 25 -31 71q0 64 64 119h-69v51q-62 -66 -152 -66q-85 0 -138 56q-52 55 -52 151v313h188v-273q0 -35 20 -58q19 -22 51 -22q39 0 61 28t22 80v245h187v-505h1q-49 -50 -53 -63q-3 -6 -3 -13q0 -24 28 -24q18 0 51 10z
" />
    <glyph glyph-name="Wcircumflex" unicode="&#x174;" horiz-adv-x="985" 
d="M457 729h-177l117 162h191l118 -162h-178l-35 50zM981 670l-187 -670h-207l-95 376l-95 -376h-207l-187 670h197l105 -382l96 382h182l96 -382l105 382h197z" />
    <glyph glyph-name="wcircumflex" unicode="&#x175;" horiz-adv-x="803" 
d="M366 564h-177l117 162h191l118 -162h-178l-35 50zM800 505l-158 -505h-159l-81 249l-82 -249h-159l-158 505h184l67 -232l86 232h123l86 -232l67 232h184z" />
    <glyph glyph-name="Ycircumflex" unicode="&#x176;" horiz-adv-x="721" 
d="M325 729h-177l117 162h191l118 -162h-178l-35 50zM718 670l-262 -465v-205h-200v205l-253 465h211l146 -272l145 272h213z" />
    <glyph glyph-name="ycircumflex" unicode="&#x177;" horiz-adv-x="624" 
d="M282 564h-177l117 162h191l118 -162h-178l-35 50zM621 505l-322 -745h-197l111 258l-210 487h198l107 -267l115 267h198z" />
    <glyph glyph-name="Ydieresis" unicode="&#x178;" horiz-adv-x="721" 
d="M241 714q-41 0 -71 28q-28 27 -28 70q0 40 28 68t71 28q44 0 72 -28t28 -68q0 -43 -28 -70q-30 -28 -72 -28zM479 714q-41 0 -71 28q-28 27 -28 70q0 40 28 68t71 28q44 0 72 -28t28 -68q0 -43 -28 -70q-30 -28 -72 -28zM718 670l-262 -465v-205h-200v205l-253 465h211
l146 -272l145 272h213z" />
    <glyph glyph-name="Zacute" unicode="&#x179;" horiz-adv-x="644" 
d="M410 732h-173l75 160h225zM612 162v-162h-576v124l318 384h-310v162h557v-149l-289 -359h300z" />
    <glyph glyph-name="zacute" unicode="&#x17a;" horiz-adv-x="553" 
d="M364 567h-173l75 160h225zM520 146v-146h-487v120l233 239h-227v146h474v-123l-232 -236h239z" />
    <glyph glyph-name="Zdot" unicode="&#x17b;" horiz-adv-x="644" 
d="M323 721q-45 0 -73 28q-29 29 -29 72q0 40 29 71q28 29 73 29t74 -29t29 -71q0 -43 -29 -72q-28 -28 -74 -28zM612 162v-162h-576v124l318 384h-310v162h557v-149l-289 -359h300z" />
    <glyph glyph-name="zdot" unicode="&#x17c;" horiz-adv-x="553" 
d="M277 556q-45 0 -73 28q-29 29 -29 72q0 40 29 71q28 29 73 29t74 -29t29 -71q0 -43 -29 -72q-28 -28 -74 -28zM520 146v-146h-487v120l233 239h-227v146h474v-123l-232 -236h239z" />
    <glyph glyph-name="Zcaron" unicode="&#x17d;" horiz-adv-x="644" 
d="M228 729l-117 162h177l36 -50l35 50h178l-118 -162h-191zM612 162v-162h-576v124l318 384h-310v162h557v-149l-289 -359h300z" />
    <glyph glyph-name="zcaron" unicode="&#x17e;" horiz-adv-x="553" 
d="M183 564l-117 162h177l36 -50l35 50h178l-118 -162h-191zM520 146v-146h-487v120l233 239h-227v146h474v-123l-232 -236h239z" />
    <glyph glyph-name="florin" unicode="&#x192;" horiz-adv-x="591" 
d="M459 528q-26 0 -44 -15t-23 -44l-13 -69h121v-146h-147l-42 -231q-17 -87 -74 -137q-58 -51 -142 -51q-60 0 -118 37l52 136q33 -12 51 -12t31 11q12 10 15 29l40 218h-88v146h114l15 82q17 93 82 148t158 55q73 0 132 -34l-57 -142q-34 19 -63 19z" />
    <glyph glyph-name="AEacute" unicode="&#x1fc;" horiz-adv-x="1051" 
d="M749 732h-173l75 160h225zM1018 162v-162h-534v95h-206l-52 -95h-226l409 670h605v-162h-337v-99h309v-147h-309v-100h341zM484 255v214l-118 -214h118z" />
    <glyph glyph-name="aeacute" unicode="&#x1fd;" horiz-adv-x="890" 
d="M529 567h-173l75 160h225zM870 203h-354q20 -74 93 -74q61 0 85 50l162 -34q-19 -70 -88 -115t-160 -45q-105 0 -179 61q-74 -61 -197 -61q-104 0 -159 43q-56 44 -56 119t56 114q55 39 160 39h115v26q0 24 -17 41q-16 16 -43 16q-54 0 -63 -53l-173 36q14 68 75 111
t162 43t162 -45q71 45 156 45q117 0 190 -74t73 -207v-36zM515 300h174q-17 75 -83 75q-73 0 -91 -75zM347 201h-79q-62 0 -62 -42q0 -20 16 -32t42 -12q33 0 58 19t25 49v18z" />
    <glyph glyph-name="Scommaaccent" unicode="&#x218;" horiz-adv-x="651" 
d="M326 685q118 0 195 -51q76 -51 94 -144l-188 -38q-9 44 -38 64t-63 20q-33 0 -51 -14q-20 -15 -20 -40q0 -34 39 -43l136 -32q191 -48 191 -199q0 -75 -43 -127q-42 -51 -106 -74q-60 -22 -136 -22q-123 0 -208 56q-84 56 -98 151l196 37q23 -89 114 -89q34 0 57 14
q22 13 22 40q0 35 -46 45l-139 33q-184 43 -184 194q0 102 77 161q76 58 199 58zM193 -208l49 163h182l-101 -163h-130z" />
    <glyph glyph-name="scommaaccent" unicode="&#x219;" horiz-adv-x="526" 
d="M19 131l179 35q13 -49 75 -49q25 0 39 9t14 21q0 23 -46 30l-101 17q-150 27 -150 150q0 81 64 129q63 47 162 47q100 0 161 -37q62 -38 80 -104l-168 -33q-3 21 -22 35q-20 15 -50 15q-47 0 -47 -30q0 -20 33 -27l115 -23q75 -13 112 -55q37 -41 37 -105q0 -81 -66 -126
t-171 -45q-98 0 -167 37q-66 35 -83 109zM135 -208l49 163h182l-101 -163h-130z" />
    <glyph glyph-name="Tcommabelow" unicode="&#x21a;" horiz-adv-x="653" 
d="M633 505h-210v-505h-193v505h-210v165h613v-165zM239 -45h182l-101 -163h-130z" />
    <glyph glyph-name="tcommabelow" unicode="&#x21b;" horiz-adv-x="431" 
d="M284 -15q-98 0 -151 53t-53 149v172h-77v146h77v165h187v-165h134v-146h-134v-151q0 -61 60 -61q35 0 64 16l37 -141q-68 -37 -144 -37zM172 -44h182l-101 -163h-130z" />
    <glyph glyph-name="circumflex" unicode="&#x2c6;" horiz-adv-x="600" 
d="M336 564l-35 50l-36 -50h-177l117 162h191l118 -162h-178z" />
    <glyph glyph-name="caron" unicode="&#x2c7;" horiz-adv-x="600" 
d="M514 726l-118 -162h-191l-117 162h177l36 -50l35 50h178z" />
    <glyph glyph-name="breve" unicode="&#x2d8;" horiz-adv-x="600" 
d="M300 550q-84 0 -136 46t-52 122h142q0 -17 13 -30t33 -13q19 0 34 13q13 12 13 30h141q0 -76 -52 -122t-136 -46z" />
    <glyph glyph-name="dotaccent" unicode="&#x2d9;" horiz-adv-x="600" 
d="M300 756q45 0 74 -29t29 -71q0 -43 -29 -72q-28 -28 -74 -28q-45 0 -73 28q-29 29 -29 72q0 40 29 71q28 29 73 29z" />
    <glyph glyph-name="ring" unicode="&#x2da;" horiz-adv-x="600" 
d="M434 672q0 -54 -39 -91q-40 -38 -95 -38t-95 38q-39 37 -39 91t39 92q38 37 95 37t95 -37q39 -38 39 -92zM341 672q0 16 -12 28q-11 11 -29 11t-29 -11q-12 -12 -12 -28q0 -15 12 -27t29 -12t29 12t12 27z" />
    <glyph glyph-name="ogonek" unicode="&#x2db;" horiz-adv-x="600" 
d="M217 7l110 -7q-49 -50 -53 -63q-3 -6 -3 -13q0 -24 28 -24q18 0 51 10l7 -103q-49 -23 -102 -23q-48 0 -80 26q-31 25 -31 71q0 71 73 126z" />
    <glyph glyph-name="tilde" unicode="&#x2dc;" horiz-adv-x="600" 
d="M222 573h-105q0 81 35 128q34 46 88 46q34 0 69 -18q36 -19 51 -19q13 0 21 8q7 7 13 25h105q0 -81 -35 -128q-34 -46 -88 -46q-32 0 -68 17t-52 17q-14 0 -21 -6q-6 -5 -13 -24z" />
    <glyph glyph-name="hungarumlaut" unicode="&#x2dd;" horiz-adv-x="600" 
d="M204 567h-154l82 160h197zM420 567h-155l82 160h204z" />
    <glyph glyph-name="uni0326" unicode="&#x326;" horiz-adv-x="0" 
d="M170 -208l49 163h182l-101 -163h-130z" />
    <glyph glyph-name="Wgrave" unicode="&#x1e80;" horiz-adv-x="985" 
d="M411 732l-127 160h225l75 -160h-173zM981 670l-187 -670h-207l-95 376l-95 -376h-207l-187 670h197l105 -382l96 382h182l96 -382l105 382h197z" />
    <glyph glyph-name="wgrave" unicode="&#x1e81;" horiz-adv-x="803" 
d="M321 567l-127 160h225l75 -160h-173zM800 505l-158 -505h-159l-81 249l-82 -249h-159l-158 505h184l67 -232l86 232h123l86 -232l67 232h184z" />
    <glyph glyph-name="Wacute" unicode="&#x1e82;" horiz-adv-x="985" 
d="M578 732h-173l75 160h225zM981 670l-187 -670h-207l-95 376l-95 -376h-207l-187 670h197l105 -382l96 382h182l96 -382l105 382h197z" />
    <glyph glyph-name="wacute" unicode="&#x1e83;" horiz-adv-x="803" 
d="M488 567h-173l75 160h225zM800 505l-158 -505h-159l-81 249l-82 -249h-159l-158 505h184l67 -232l86 232h123l86 -232l67 232h184z" />
    <glyph glyph-name="Wdieresis" unicode="&#x1e84;" horiz-adv-x="985" 
d="M373 714q-41 0 -71 28q-28 27 -28 70q0 40 28 68t71 28q44 0 72 -28t28 -68q0 -43 -28 -70q-30 -28 -72 -28zM611 714q-41 0 -71 28q-28 27 -28 70q0 40 28 68t71 28q44 0 72 -28t28 -68q0 -43 -28 -70q-30 -28 -72 -28zM981 670l-187 -670h-207l-95 376l-95 -376h-207
l-187 670h197l105 -382l96 382h182l96 -382l105 382h197z" />
    <glyph glyph-name="wdieresis" unicode="&#x1e85;" horiz-adv-x="803" 
d="M283 549q-41 0 -71 28q-28 27 -28 70q0 40 28 68t71 28q44 0 72 -28t28 -68q0 -43 -28 -70q-30 -28 -72 -28zM521 549q-41 0 -71 28q-28 27 -28 70q0 40 28 68t71 28q44 0 72 -28t28 -68q0 -43 -28 -70q-30 -28 -72 -28zM800 505l-158 -505h-159l-81 249l-82 -249h-159
l-158 505h184l67 -232l86 232h123l86 -232l67 232h184z" />
    <glyph glyph-name="Ygrave" unicode="&#x1ef2;" horiz-adv-x="721" 
d="M279 732l-127 160h225l75 -160h-173zM718 670l-262 -465v-205h-200v205l-253 465h211l146 -272l145 272h213z" />
    <glyph glyph-name="ygrave" unicode="&#x1ef3;" horiz-adv-x="624" 
d="M236 567l-127 160h225l75 -160h-173zM621 505l-322 -745h-197l111 258l-210 487h198l107 -267l115 267h198z" />
    <glyph glyph-name="endash" unicode="&#x2013;" horiz-adv-x="620" 
d="M560 197h-500v147h500v-147z" />
    <glyph glyph-name="emdash" unicode="&#x2014;" horiz-adv-x="1040" 
d="M980 197h-920v147h920v-147z" />
    <glyph glyph-name="quoteleft" unicode="&#x2018;" horiz-adv-x="317" 
d="M145 670h143l-58 -308h-202v4z" />
    <glyph glyph-name="quoteright" unicode="&#x2019;" horiz-adv-x="317" 
d="M171 362h-143l58 308h202v-4z" />
    <glyph glyph-name="quotesinglbase" unicode="&#x201a;" horiz-adv-x="317" 
d="M171 -132h-143l58 308h202v-4z" />
    <glyph glyph-name="quotedblleft" unicode="&#x201c;" horiz-adv-x="553" 
d="M145 670h143l-58 -308h-202v4zM382 670h143l-58 -308h-202v4z" />
    <glyph glyph-name="quotedblright" unicode="&#x201d;" horiz-adv-x="553" 
d="M171 362h-143l58 308h202v-4zM408 362h-143l58 308h202v-4z" />
    <glyph glyph-name="quotedblbase" unicode="&#x201e;" horiz-adv-x="553" 
d="M171 -132h-143l58 308h202v-4zM408 -132h-143l58 308h202v-4z" />
    <glyph glyph-name="dagger" unicode="&#x2020;" horiz-adv-x="395" 
d="M363 650v-102h-110v-249h-111v249h-110v102h110v90h111v-90h110z" />
    <glyph glyph-name="daggerdbl" unicode="&#x2021;" horiz-adv-x="395" 
d="M253 548v-57h110v-102h-110v-90h-111v90h-110v102h110v57h-110v102h110v90h111v-90h110v-102h-110z" />
    <glyph glyph-name="bullet" unicode="&#x2022;" horiz-adv-x="407" 
d="M204 442q76 0 128 -53t52 -126q0 -76 -51 -127t-129 -51t-129 51t-51 127q0 71 52 126q50 53 128 53z" />
    <glyph glyph-name="ellipsis" unicode="&#x2026;" horiz-adv-x="821" 
d="M127 201q45 0 75 -31q29 -30 29 -73q0 -45 -29 -73q-31 -29 -75 -29q-43 0 -74 29q-30 29 -30 73q0 41 30 73q30 31 74 31zM410 201q45 0 75 -31t30 -73q0 -45 -29 -73q-31 -29 -76 -29t-74 29t-29 73q0 41 30 73q30 31 73 31zM694 201q44 0 74 -31t30 -73q0 -45 -29 -73
q-31 -29 -75 -29q-43 0 -74 29q-30 29 -30 73q0 41 30 73q30 31 74 31z" />
    <glyph glyph-name="perthousand" unicode="&#x2030;" horiz-adv-x="1310" 
d="M220 685q74 0 126 -48t52 -125t-52 -125t-126 -48q-75 0 -127 48q-53 48 -53 125t53 125t127 48zM160 0l478 670h100l-477 -670h-101zM220 578q-26 0 -45 -18t-19 -48q0 -29 20 -47q21 -19 44 -19q25 0 44 19q18 18 18 47q0 30 -18 48t-44 18zM678 331q74 0 126 -48
t52 -125t-52 -125t-126 -48q-75 0 -127 48q-53 48 -53 125t53 125q52 48 127 48zM1091 331q75 0 127 -48t52 -125t-52 -125t-127 -48t-127 48q-53 48 -53 125t53 125q52 48 127 48zM678 224q-26 0 -45 -18t-19 -48q0 -29 20 -47q21 -19 44 -19q25 0 44 19q18 18 18 47
q0 30 -18 48t-44 18zM1091 224q-25 0 -44 -18t-19 -48q0 -29 19 -47q21 -19 44 -19q25 0 44 19q18 18 18 47q0 30 -18 48t-44 18z" />
    <glyph glyph-name="guilsinglleft" unicode="&#x2039;" horiz-adv-x="319" 
d="M25 262l99 178h170l-99 -178l99 -178h-170z" />
    <glyph glyph-name="guilsinglright" unicode="&#x203a;" horiz-adv-x="319" 
d="M25 84l99 178l-99 178h170l99 -178l-99 -178h-170z" />
    <glyph glyph-name="fraction" unicode="&#x2044;" horiz-adv-x="251" 
d="M-167 0l478 670h100l-477 -670h-101z" />
    <glyph glyph-name="Euro" unicode="&#x20ac;" horiz-adv-x="743" 
d="M527 286l186 -37q-16 -118 -97 -191q-80 -73 -200 -73q-107 0 -184 62q-78 62 -106 170h-86v96h72v22v22h-72v95h86q28 108 105 171q75 62 185 62q118 0 197 -72t99 -189l-185 -35q-23 134 -111 134q-62 0 -94 -71h147l-19 -95h-147l-1 -22q0 -17 1 -22h140l-19 -96h-102
q31 -70 94 -70q86 0 111 139z" />
    <glyph glyph-name="afii61352" unicode="&#x2116;" horiz-adv-x="1196" 
d="M959 324q-77 0 -133 50t-56 128t56 128t133 50q80 0 136 -50q55 -49 55 -128t-55 -128q-56 -50 -136 -50zM513 670h193v-670h-159l-308 345v-345h-192v670h158l308 -357v357zM959 563q-25 0 -41 -17t-16 -44q0 -26 16 -43q17 -18 41 -18q25 0 42 18q17 19 17 43
q0 25 -17 44q-16 17 -42 17zM776 284h368v-134h-368v134z" />
    <glyph glyph-name="uni2117" unicode="&#x2117;" horiz-adv-x="757" 
d="M378 685q147 0 248 -100q102 -100 102 -251t-102 -250t-248 -99t-248 99q-103 100 -103 250t103 251q101 100 248 100zM378 42q119 0 204 83q84 83 84 209q0 127 -84 211t-204 84t-204 -84q-85 -85 -85 -211t85 -209t204 -83zM242 517h177q70 0 106 -35q37 -36 37 -92
q0 -61 -41 -97t-110 -36h-61v-104h-108v364zM350 344h56q24 0 38 12q13 12 13 31t-13 29q-14 11 -38 11h-56v-83z" />
    <glyph glyph-name="trademark" unicode="&#x2122;" horiz-adv-x="710" 
d="M303 587h-85v-200h-98v200h-84v83h267v-83zM665 387h-95v128l-51 -125h-43l-51 125v-128h-94v283h103l63 -149l64 149h104v-283z" />
    <glyph glyph-name="oneeighth" unicode="&#x215b;" horiz-adv-x="819" 
d="M97 520l-83 -45v119l124 76h81v-387h-122v237zM672 670l-478 -670h-100l477 670h101zM734 201q65 -26 65 -94q0 -51 -46 -84q-47 -33 -121 -33t-120 33t-46 84q0 67 64 94q-49 25 -49 82q0 46 44 79q42 32 108 32t108 -32q43 -33 43 -79q0 -56 -50 -82zM633 306
q-19 0 -31 -9t-12 -26q0 -15 13 -26q11 -10 30 -10q16 0 30 11q13 10 13 25q0 17 -12 26t-31 9zM633 83q19 0 32 11q12 11 12 26q0 16 -12 27q-11 10 -32 10q-19 0 -32 -10t-13 -27q0 -15 13 -26t32 -11z" />
    <glyph glyph-name="threeeighths" unicode="&#x215c;" horiz-adv-x="860" 
d="M332 404q0 -54 -45 -91q-44 -37 -113 -37q-64 0 -108 35q-43 34 -49 91l110 21q11 -47 49 -47q39 0 39 31q0 14 -12 23t-31 9h-44v84h40q44 0 44 30q0 14 -10 23q-9 8 -29 8q-39 0 -43 -46l-110 21q4 50 48 86q43 35 104 35q66 0 110 -35q43 -34 43 -89q0 -46 -45 -73
q52 -27 52 -79zM713 670l-478 -670h-100l478 670h100zM768 201q65 -26 65 -94q0 -51 -46 -84q-47 -33 -121 -33t-120 33t-46 84q0 67 64 94q-49 25 -49 82q0 46 44 79q42 32 108 32t108 -32q43 -33 43 -79q0 -56 -50 -82zM667 306q-19 0 -31 -9t-12 -26q0 -15 13 -26
q11 -10 30 -10q16 0 30 11q13 10 13 25q0 17 -12 26t-31 9zM667 83q19 0 32 11q12 11 12 26q0 16 -12 27q-11 10 -32 10q-19 0 -32 -10t-13 -27q0 -15 13 -26t32 -11z" />
    <glyph glyph-name="fiveeighths" unicode="&#x215d;" horiz-adv-x="851" 
d="M339 412q0 -62 -42 -99q-43 -38 -114 -38q-68 0 -113 36t-51 89l114 19q9 -43 49 -43q17 0 30 10q11 8 11 25q0 34 -44 34h-147l11 225h276v-105h-173l-1 -28h53q66 0 104 -33q37 -33 37 -92zM715 670l-478 -670h-100l478 670h100zM765 201q65 -26 65 -94q0 -51 -46 -84
t-121 -33q-73 0 -120 33q-46 33 -46 84q0 67 64 94q-49 25 -49 82q0 46 44 79q42 32 108 32t108 -32q43 -33 43 -79q0 -56 -50 -82zM664 306q-19 0 -31 -9t-12 -26q0 -15 13 -26q11 -10 30 -10q16 0 30 11q13 10 13 25q0 17 -12 26t-31 9zM664 83q19 0 32 11q12 11 12 26
q0 16 -12 27q-11 10 -32 10q-19 0 -32 -10t-13 -27q0 -15 13 -26t32 -11z" />
    <glyph glyph-name="seveneighths" unicode="&#x215e;" horiz-adv-x="782" 
d="M45 283l131 282h-168v105h298v-93l-130 -294h-131zM641 670l-478 -670h-100l478 670h100zM696 201q65 -26 65 -94q0 -51 -46 -84q-47 -33 -121 -33t-120 33t-46 84q0 67 64 94q-49 25 -49 82q0 46 44 79q42 32 108 32t108 -32q43 -33 43 -79q0 -56 -50 -82zM595 306
q-19 0 -31 -9t-12 -26q0 -15 13 -26q11 -10 30 -10q16 0 30 11q13 10 13 25q0 17 -12 26t-31 9zM595 83q19 0 32 11q12 11 12 26q0 16 -12 27q-11 10 -32 10q-19 0 -32 -10t-13 -27q0 -15 13 -26t32 -11z" />
    <glyph glyph-name="arrowleft" unicode="&#x2190;" horiz-adv-x="727" 
d="M687 245h-373l142 -142l-112 -113l-334 334l334 334l112 -112l-142 -143h373v-158z" />
    <glyph glyph-name="arrowup" unicode="&#x2191;" horiz-adv-x="748" 
d="M595 231l-142 142v-373h-158v373l-143 -142l-112 112l334 334l334 -334z" />
    <glyph glyph-name="arrowright" unicode="&#x2192;" horiz-adv-x="727" 
d="M717 324l-334 -334l-112 113l142 142h-373v158h373l-142 143l112 112z" />
    <glyph glyph-name="arrowdown" unicode="&#x2193;" horiz-adv-x="748" 
d="M708 327l-334 -334l-334 334l112 112l143 -142v373h158v-373l142 142z" />
    <glyph glyph-name="arrowupleft" unicode="&#x2196;" horiz-adv-x="749" 
d="M588 -10l-397 398v-210h-161v492h492l-1 -160h-210l398 -399z" />
    <glyph glyph-name="arrowupright" unicode="&#x2197;" horiz-adv-x="748" 
d="M718 670v-492h-161v210l-397 -398l-121 121l398 399h-210l-1 160h492z" />
    <glyph glyph-name="arrowdownright" unicode="&#x2198;" horiz-adv-x="750" 
d="M720 492v-492h-492l1 160h210l-398 399l121 121l397 -398v210h161z" />
    <glyph glyph-name="arrowdownleft" unicode="&#x2199;" horiz-adv-x="750" 
d="M521 160l1 -160h-492v492h161v-210l397 398l121 -121l-398 -399h210z" />
    <glyph glyph-name="minus" unicode="&#x2212;" horiz-adv-x="567" 
d="M527 229h-487v145h487v-145z" />
    <glyph glyph-name="approxequal" unicode="&#x2248;" horiz-adv-x="564" 
d="M524 464v-133q-45 -22 -109 -22q-55 0 -128 26q-71 25 -123 25q-81 0 -124 -29v129q44 33 124 33q54 0 126 -25q75 -26 127 -26q67 0 107 22zM524 295v-133q-45 -22 -109 -22q-55 0 -128 26q-71 25 -123 25q-81 0 -124 -29v130q44 32 124 32q54 0 126 -25q75 -26 127 -26
q67 0 107 22z" />
    <glyph glyph-name="notequal" unicode="&#x2260;" horiz-adv-x="567" 
d="M368 340l-32 -60h191v-138h-266l-47 -87h-130l47 87h-91v138h166l32 60h-198v138h273l41 76h130l-41 -76h84v-138h-159z" />
    <glyph glyph-name="lessequal" unicode="&#x2264;" horiz-adv-x="486" 
d="M447 221l-415 106v172l415 108v-152l-247 -42l247 -44v-148zM447 203v-145h-416v145h416z" />
    <glyph glyph-name="greaterequal" unicode="&#x2265;" horiz-adv-x="486" 
d="M287 413l-247 42v152l415 -108v-172l-415 -106v148zM456 58h-416v145h416v-145z" />
    <glyph glyph-name="K.ss03" horiz-adv-x="701" 
d="M708 0h-248l-187 236h-34v-236h-192v670h192v-253h24l199 253h227l-261 -337z" />
    <glyph glyph-name="Kcommaaccent.ss03" horiz-adv-x="701" 
d="M708 0h-248l-187 236h-34v-236h-192v670h192v-253h24l199 253h227l-261 -337zM253 -45h182l-101 -163h-130z" />
    <glyph glyph-name="Q.ss04" horiz-adv-x="782" 
d="M752 335q0 -155 -116 -259l102 -125l-143 -123l-134 163q-34 -6 -70 -6q-151 0 -256 102t-105 248q0 147 105 249q104 101 256 101q153 0 257 -101t104 -249zM224 335q0 -75 48 -126t119 -51q72 0 120 51q47 50 47 126t-47 126q-48 51 -120 51q-71 0 -119 -51t-48 -126z
" />
    <glyph glyph-name="I.ss05" horiz-adv-x="286" 
d="M239 0h-192v670h192v-670z" />
    <glyph glyph-name="IJ.ss05" horiz-adv-x="906" 
d="M47 670h192v-670h-192v670zM858 670v-425q0 -117 -77 -188q-78 -72 -204 -72q-116 0 -190 63q-73 63 -88 169l190 37q11 -98 88 -98q39 0 64 25q24 24 24 64v425h193z" />
    <glyph glyph-name="Iacute.ss05" horiz-adv-x="286" 
d="M229 732h-173l75 160h225zM239 0h-192v670h192v-670z" />
    <glyph glyph-name="Icircumflex.ss05" horiz-adv-x="286" 
d="M108 729h-177l117 162h191l118 -162h-178l-35 50zM47 670h192v-670h-192v670z" />
    <glyph glyph-name="Idieresis.ss05" horiz-adv-x="286" 
d="M24 908q44 0 72 -28t28 -68q0 -43 -28 -70q-30 -28 -72 -28q-41 0 -71 28q-28 27 -28 70q0 40 28 68t71 28zM262 908q44 0 72 -28t28 -68q0 -43 -28 -70q-30 -28 -72 -28q-41 0 -71 28q-28 27 -28 70q0 40 28 68t71 28zM239 0h-192v670h192v-670z" />
    <glyph glyph-name="Idotaccent.ss05" horiz-adv-x="286" 
d="M142 921q45 0 74 -29t29 -71q0 -43 -29 -72q-28 -28 -74 -28q-45 0 -73 28q-29 29 -29 72q0 40 29 71q28 29 73 29zM239 0h-192v670h192v-670z" />
    <glyph glyph-name="Igrave.ss05" horiz-adv-x="286" 
d="M160 892l75 -160h-173l-127 160h225zM239 0h-192v670h192v-670z" />
    <glyph glyph-name="Imacron.ss05" horiz-adv-x="286" 
d="M315 734h-344v140h344v-140zM239 0h-192v670h192v-670z" />
    <glyph glyph-name="Iogonek.ss05" horiz-adv-x="286" 
d="M263 -90l7 -103q-49 -23 -102 -23q-48 0 -80 26q-31 25 -31 71q0 64 64 119h-74v670h192v-670h1q-3 -4 -10 -10q-40 -44 -45 -57q-1 -3 -1 -9q0 -24 28 -24q18 0 51 10z" />
    <glyph glyph-name="J.ss05" horiz-adv-x="620" 
d="M572 670v-425q0 -117 -77 -188q-78 -72 -204 -72q-117 0 -190 63t-88 169l190 37q11 -98 88 -98q39 0 64 25q24 24 24 64v425h193z" />
    <glyph glyph-name="i.loclTRK" horiz-adv-x="298" 
d="M148 756q45 0 74 -29t29 -71q0 -43 -29 -72q-28 -28 -74 -28q-45 0 -73 28q-29 29 -29 72q0 40 29 71q28 29 73 29zM243 0h-188v505h188v-505z" />
    <glyph glyph-name="germandbls.case" horiz-adv-x="1288" 
d="M326 685q118 0 195 -51q76 -51 94 -144l-188 -38q-9 44 -38 64t-63 20q-33 0 -51 -14q-20 -15 -20 -40q0 -34 39 -43l136 -32q191 -48 191 -199q0 -75 -43 -127q-42 -51 -106 -74q-60 -22 -136 -22q-123 0 -208 56q-84 56 -98 151l196 37q23 -89 114 -89q34 0 57 14
q22 13 22 40q0 35 -46 45l-139 33q-184 43 -184 194q0 102 77 161q76 58 199 58zM963 685q119 0 195 -51t94 -144l-188 -38q-9 44 -38 64t-63 20q-33 0 -51 -14q-20 -15 -20 -40q0 -34 39 -43l136 -32q191 -48 191 -199q0 -75 -43 -127q-42 -51 -106 -74q-60 -22 -136 -22
q-123 0 -208 56q-84 56 -98 151l196 37q23 -89 114 -89q34 0 57 14q22 13 22 40q0 35 -46 45l-139 33q-184 43 -184 194q0 102 77 161q76 58 199 58z" />
    <glyph glyph-name="a.ss01" horiz-adv-x="646" 
d="M599 505v-505h-187v43q-55 -58 -148 -58q-105 0 -174 75q-70 76 -70 192q0 118 70 194q68 74 174 74q93 0 148 -58v43h187zM309 141q43 0 73 32q30 31 30 79t-30 80t-73 32q-46 0 -74 -31t-28 -81q0 -48 28 -79q29 -32 74 -32z" />
    <glyph glyph-name="aacute.ss01" horiz-adv-x="646" 
d="M417 567h-173l75 160h225zM599 505v-505h-187v43q-55 -58 -148 -58q-105 0 -174 75q-70 76 -70 192q0 118 70 194q68 74 174 74q93 0 148 -58v43h187zM309 141q43 0 73 32q30 31 30 79t-30 80t-73 32q-46 0 -74 -31t-28 -81q0 -48 28 -79q29 -32 74 -32z" />
    <glyph glyph-name="abreve.ss01" horiz-adv-x="646" 
d="M332 550q-84 0 -136 46t-52 122h142q0 -17 13 -30t33 -13q19 0 34 13q13 12 13 30h141q0 -76 -52 -122t-136 -46zM599 505v-505h-187v43q-55 -58 -148 -58q-105 0 -174 75q-70 76 -70 192q0 118 70 194q68 74 174 74q93 0 148 -58v43h187zM309 141q43 0 73 32
q30 31 30 79t-30 80t-73 32q-46 0 -74 -31t-28 -81q0 -48 28 -79q29 -32 74 -32z" />
    <glyph glyph-name="acircumflex.ss01" horiz-adv-x="646" 
d="M296 564h-177l117 162h191l118 -162h-178l-35 50zM599 505v-505h-187v43q-55 -58 -148 -58q-105 0 -174 75q-70 76 -70 192q0 118 70 194q68 74 174 74q93 0 148 -58v43h187zM309 141q43 0 73 32q30 31 30 79t-30 80t-73 32q-46 0 -74 -31t-28 -81q0 -48 28 -79
q29 -32 74 -32z" />
    <glyph glyph-name="adieresis.ss01" horiz-adv-x="646" 
d="M213 549q-41 0 -71 28q-28 27 -28 70q0 40 28 68t71 28q44 0 72 -28t28 -68q0 -43 -28 -70q-30 -28 -72 -28zM451 549q-41 0 -71 28q-28 27 -28 70q0 40 28 68t71 28q44 0 72 -28t28 -68q0 -43 -28 -70q-30 -28 -72 -28zM599 505v-505h-187v43q-55 -58 -148 -58
q-105 0 -174 75q-70 76 -70 192q0 118 70 194q68 74 174 74q93 0 148 -58v43h187zM309 141q43 0 73 32q30 31 30 79t-30 80t-73 32q-46 0 -74 -31t-28 -81q0 -48 28 -79q29 -32 74 -32z" />
    <glyph glyph-name="agrave.ss01" horiz-adv-x="646" 
d="M251 567l-127 160h225l75 -160h-173zM599 505v-505h-187v43q-55 -58 -148 -58q-105 0 -174 75q-70 76 -70 192q0 118 70 194q68 74 174 74q93 0 148 -58v43h187zM309 141q43 0 73 32q30 31 30 79t-30 80t-73 32q-46 0 -74 -31t-28 -81q0 -48 28 -79q29 -32 74 -32z" />
    <glyph glyph-name="amacron.ss01" horiz-adv-x="646" 
d="M504 569h-344v140h344v-140zM599 505v-505h-187v43q-55 -58 -148 -58q-105 0 -174 75q-70 76 -70 192q0 118 70 194q68 74 174 74q93 0 148 -58v43h187zM309 141q43 0 73 32q30 31 30 79t-30 80t-73 32q-46 0 -74 -31t-28 -81q0 -48 28 -79q29 -32 74 -32z" />
    <glyph glyph-name="aogonek.ss01" horiz-adv-x="646" 
d="M623 -90l7 -103q-49 -23 -102 -23q-48 0 -80 26q-31 25 -31 71q0 64 64 119h-69v43q-55 -58 -148 -58q-105 0 -174 75q-70 76 -70 192q0 118 70 194q68 74 174 74q93 0 148 -58v43h187v-505h1q-49 -50 -53 -63q-3 -6 -3 -13q0 -24 28 -24q18 0 51 10zM309 141q43 0 73 32
q30 31 30 79t-30 80t-73 32q-46 0 -74 -31t-28 -81q0 -48 28 -79q29 -32 74 -32z" />
    <glyph glyph-name="aring.ss01" horiz-adv-x="646" 
d="M332 543q-55 0 -95 38q-39 37 -39 91t39 92q38 37 95 37t95 -37q39 -38 39 -92t-39 -91q-40 -38 -95 -38zM332 711q-18 0 -29 -11q-12 -12 -12 -28q0 -15 12 -27t29 -12t29 12t12 27q0 16 -12 28q-11 11 -29 11zM599 505v-505h-187v43q-55 -58 -148 -58q-105 0 -174 75
q-70 76 -70 192q0 118 70 194q68 74 174 74q93 0 148 -58v43h187zM309 141q43 0 73 32q30 31 30 79t-30 80t-73 32q-46 0 -74 -31t-28 -81q0 -48 28 -79q29 -32 74 -32z" />
    <glyph glyph-name="atilde.ss01" horiz-adv-x="646" 
d="M287 603q-13 0 -21 -6q-6 -5 -13 -24h-105q0 81 35 128q34 46 88 46q35 0 69 -18q36 -19 51 -19q13 0 21 8q7 7 13 25h105q0 -81 -35 -128q-34 -46 -88 -46q-32 0 -68 17t-52 17zM599 505v-505h-187v43q-55 -58 -148 -58q-105 0 -174 75q-70 76 -70 192q0 118 70 194
q68 74 174 74q93 0 148 -58v43h187zM309 141q43 0 73 32q30 31 30 79t-30 80t-73 32q-46 0 -74 -31t-28 -81q0 -48 28 -79q29 -32 74 -32z" />
    <glyph glyph-name="l.ss02" horiz-adv-x="281" 
d="M234 0h-187v770h187v-770z" />
    <glyph glyph-name="lacute.ss02" horiz-adv-x="281" 
d="M230 832h-173l75 160h225zM234 0h-187v770h187v-770z" />
    <glyph glyph-name="lcaron.ss02" horiz-adv-x="281" 
d="M234 0h-187v770h187v-770zM413 570h-127v200h168z" />
    <glyph glyph-name="lcommaaccent.ss02" horiz-adv-x="281" 
d="M234 0h-187v770h187v-770zM3 -208l49 163h182l-101 -163h-130z" />
    <glyph glyph-name="ldot.ss02" horiz-adv-x="472" 
d="M234 0h-187v770h187v-770zM365 466q42 0 73 -29q29 -28 29 -70t-29 -71t-73 -29q-45 0 -73 28q-29 29 -29 72q0 41 29 70t73 29z" />
    <glyph glyph-name="lslash.ss02" horiz-adv-x="324" 
d="M307 356l-51 -26v-330h-188v232l-51 -26v174l51 26v364h188v-266l51 26v-174z" />
    <glyph glyph-name="k.ss03" horiz-adv-x="626" 
d="M633 0h-233l-135 168h-31v-168h-187v770h187v-432h22l137 167h221l-201 -240z" />
    <glyph glyph-name="kcommaaccent.ss03" horiz-adv-x="626" 
d="M633 0h-233l-135 168h-31v-168h-187v770h187v-432h22l137 167h221l-201 -240zM230 -45h182l-101 -163h-130z" />
    <glyph glyph-name="f_j" horiz-adv-x="692" 
d="M637 505v-578q0 -79 -48 -128t-126 -49q-56 0 -110 24l26 135q28 -5 34 -5q15 0 26 11q10 10 10 29v415h-184v-359h-188v359h-67v146h67v78q0 89 58 144q56 53 150 53q50 0 94 -16l-28 -145q-20 4 -29 4q-25 0 -41 -14t-16 -39v-65h372zM542 551q-44 0 -75 29
q-30 29 -30 73q0 42 30 72t75 30t75 -30t30 -72q0 -45 -29 -73q-31 -29 -76 -29z" />
    <glyph glyph-name="f_t" horiz-adv-x="800" 
d="M759 163l37 -141q-68 -37 -144 -37q-98 0 -151 53t-53 149v172h-183v-359h-188v359h-67v146h67v78q0 89 58 144q56 53 150 53q50 0 94 -16l-28 -145q-20 4 -29 4q-25 0 -41 -14t-16 -39v-65h183v165h187v-165h134v-146h-134v-151q0 -61 61 -61q35 0 63 16z" />
    <glyph glyph-name="fl.ss02" horiz-adv-x="666" 
d="M321 623q-26 0 -40 -14q-16 -16 -16 -39v-65h123v-146h-123v-359h-188v359h-67v146h67v78q0 89 57 143t150 54q61 0 109 -22l-37 -141q-20 6 -35 6zM619 770v-770h-187v770h187z" />
    <glyph glyph-name="zero.tf" 
d="M305 685q128 0 206 -96t78 -254q0 -157 -78 -253q-79 -97 -206 -97t-206 97t-79 253q0 157 79 254q78 96 206 96zM305 149q42 0 66 47q24 46 24 139q0 91 -24 138t-66 47q-43 0 -67 -47t-24 -138q0 -93 24 -139q24 -47 67 -47z" />
    <glyph glyph-name="one.tf" 
d="M558 169v-169h-502v169h175v275l-162 -71v177l227 120h124v-501h138z" />
    <glyph glyph-name="two.tf" 
d="M569 165v-165h-516v127l237 212q21 18 44 41q14 14 27 36t13 45q0 30 -18 48t-48 18q-74 0 -82 -95l-182 34q6 102 77 161q70 58 183 58q114 0 185 -60q70 -60 70 -164q0 -65 -31 -111q-29 -43 -104 -110l-87 -75h232z" />
    <glyph glyph-name="three.tf" 
d="M488 342q81 -45 81 -138q0 -96 -73 -157q-74 -62 -189 -62q-107 0 -182 57q-76 57 -89 156l185 33q7 -43 30 -67t58 -24q33 0 57 19q22 18 22 48q0 29 -22 47q-21 17 -60 17h-76v136h71q36 0 59 17q22 16 22 43q0 31 -20 48q-21 18 -56 18q-75 0 -84 -96l-179 34
q15 101 86 158q69 56 176 56q111 0 182 -60t71 -153q0 -87 -70 -130z" />
    <glyph glyph-name="four.tf" 
d="M592 110h-73v-110h-178v110h-320v173l270 387h228v-405h73v-155zM341 265v215l-140 -215h140z" />
    <glyph glyph-name="five.tf" 
d="M247 437h84q118 0 180 -58q63 -59 63 -159q0 -106 -72 -170q-73 -65 -189 -65q-110 0 -188 61q-76 60 -82 168l182 34q1 -53 27 -79q25 -25 63 -25q34 0 57 20q22 19 22 54q0 31 -23 51q-22 19 -60 19h-237l14 383h458v-164h-296z" />
    <glyph glyph-name="six.tf" 
d="M356 435q105 0 169 -61t64 -160q0 -101 -73 -165t-187 -64q-134 0 -214 89t-80 248q0 186 96 283q80 80 200 80q95 0 160 -44t86 -125l-180 -36q-15 50 -73 50q-40 0 -70 -33q-38 -44 -40 -118q56 56 142 56zM323 135q34 0 62 25q26 23 26 60q0 38 -26 62q-25 24 -62 24
q-35 0 -61 -24t-26 -62q0 -36 26 -60q27 -25 61 -25z" />
    <glyph glyph-name="seven.tf" 
d="M564 670v-141l-248 -529h-205l245 505h-321v165h529z" />
    <glyph glyph-name="eight.tf" 
d="M461 346q115 -46 115 -161q0 -86 -75 -143t-198 -57q-120 0 -197 57q-76 57 -76 144q0 113 116 161q-92 44 -92 147q0 80 71 136q70 55 179 55q108 0 178 -55q71 -56 71 -136q0 -101 -92 -148zM303 545q-31 0 -54 -18t-23 -50q0 -31 23 -49q24 -19 54 -19q31 0 55 19
q23 18 23 50q0 31 -23 49q-22 18 -55 18zM303 131q33 0 58 20q23 19 23 52q0 34 -23 53t-58 19t-57 -19q-23 -20 -23 -53q0 -32 23 -52t57 -20z" />
    <glyph glyph-name="nine.tf" 
d="M280 684q135 0 215 -89q79 -88 79 -248q0 -184 -96 -283q-83 -80 -200 -80q-95 0 -160 44t-86 125l180 36q14 -50 73 -50q40 0 70 33q37 44 39 117q-56 -55 -141 -55q-105 0 -169 61t-64 160q0 100 74 165q73 64 186 64zM286 363q34 0 61 25q26 24 26 61t-26 61t-61 24
t-62 -24t-27 -61t27 -61q28 -25 62 -25z" />
    <glyph glyph-name="zero.zero.tf" 
d="M305 685q128 0 206 -96t78 -254q0 -157 -78 -253q-79 -97 -206 -97t-206 97t-79 253q0 157 79 254q78 96 206 96zM305 520q-43 0 -67 -47t-24 -138q0 -8 2 -46l146 199q-23 32 -57 32zM305 149q42 0 66 47q24 46 24 139q0 33 -1 42l-146 -197q22 -31 57 -31z" />
    <glyph glyph-name="zero.zero" horiz-adv-x="657" 
d="M332 685q136 0 219 -96q83 -97 83 -254q0 -156 -83 -253t-219 -97q-135 0 -220 97q-84 96 -84 253q0 158 84 254t220 96zM332 520q-50 0 -80 -48t-30 -137q0 -28 5 -63l165 224q-26 24 -60 24zM332 149q51 0 79 49q29 50 29 137q0 30 -5 67l-166 -226q25 -27 63 -27z" />
    <glyph glyph-name="zero.dnom" horiz-adv-x="412" 
d="M207 394q82 0 131 -55t49 -147q0 -91 -49 -146q-50 -56 -131 -56t-131 56t-50 146q0 91 50 147q49 55 131 55zM207 95q53 0 53 97q0 96 -53 96q-54 0 -54 -96q0 -97 54 -97z" />
    <glyph glyph-name="one.dnom" horiz-adv-x="263" 
d="M219 0h-122v237l-83 -45v119l124 76h81v-387z" />
    <glyph glyph-name="two.dnom" horiz-adv-x="362" 
d="M212 103h118v-103h-300v75l138 125q13 12 26 25q8 8 13 17q6 10 6 20q0 14 -9 23q-8 8 -23 8q-39 0 -40 -52l-112 21q0 60 42 97q41 37 110 37t110 -35t41 -98q0 -39 -19 -65q-21 -29 -59 -60z" />
    <glyph glyph-name="three.dnom" horiz-adv-x="354" 
d="M280 197q52 -27 52 -79q0 -53 -45 -91q-44 -37 -113 -37q-64 0 -108 35q-43 34 -49 91l110 21q11 -47 49 -47q39 0 39 31q0 14 -12 23t-31 9h-44v84h40q44 0 44 30q0 14 -10 23q-9 8 -29 8q-39 0 -43 -46l-110 21q4 50 48 86q43 35 104 35q66 0 110 -35q43 -34 43 -89
q0 -46 -45 -73z" />
    <glyph glyph-name="four.dnom" horiz-adv-x="389" 
d="M374 59h-47v-59h-114v59h-196v110l167 218h143v-229h47v-99zM213 158v108l-80 -108h80z" />
    <glyph glyph-name="five.dnom" horiz-adv-x="357" 
d="M145 252h53q66 0 104 -33q37 -33 37 -92q0 -61 -42 -99q-43 -38 -114 -38q-68 0 -113 36t-51 89l114 19q9 -43 49 -43q17 0 30 10q11 8 11 25q0 34 -44 34h-147l11 225h276v-105h-173z" />
    <glyph glyph-name="six.dnom" horiz-adv-x="368" 
d="M214 252q61 0 97 -35q37 -36 37 -93q0 -59 -43 -96q-44 -38 -110 -38q-81 0 -128 51q-47 52 -47 142q0 108 57 165q46 46 119 46q59 0 99 -29q39 -29 48 -81l-113 -18q-6 30 -39 30q-20 0 -34 -17q-15 -18 -19 -49q34 22 76 22zM191 84q18 0 33 13q13 12 13 31
q0 20 -13 32q-14 12 -33 12t-33 -12q-13 -12 -13 -32q0 -19 13 -31q15 -13 33 -13z" />
    <glyph glyph-name="seven.dnom" horiz-adv-x="314" 
d="M306 386v-93l-130 -294h-131l131 282h-168v105h298z" />
    <glyph glyph-name="eight.dnom" horiz-adv-x="381" 
d="M292 201q65 -26 65 -94q0 -51 -46 -84q-47 -33 -121 -33t-120 33t-46 84q0 67 64 94q-49 25 -49 82q0 46 44 79q42 32 108 32t108 -32q43 -33 43 -79q0 -56 -50 -82zM191 306q-19 0 -31 -9t-12 -26q0 -15 13 -26q11 -10 30 -10q16 0 30 11q13 10 13 25q0 17 -12 26t-31 9
zM191 83q19 0 32 11q12 10 12 26t-12 27q-11 10 -32 10q-19 0 -32 -10t-13 -27q0 -15 13 -26t32 -11z" />
    <glyph glyph-name="nine.dnom" horiz-adv-x="368" 
d="M173 394q82 0 128 -51q47 -52 47 -142q0 -109 -57 -164q-47 -47 -118 -47q-59 0 -99 29q-38 28 -49 82l114 18q6 -31 38 -31q19 0 34 17q16 16 19 51q-34 -23 -76 -23q-59 0 -97 35q-37 34 -37 93q0 58 44 96q43 37 109 37zM177 212q18 0 33 13q13 12 13 31q0 21 -13 33
q-14 12 -33 12t-32 -12t-13 -33q0 -19 13 -31q15 -13 32 -13z" />
    <glyph glyph-name="zero.numr" horiz-adv-x="412" 
d="M207 680q82 0 131 -55t49 -147q0 -91 -49 -146q-50 -56 -131 -56t-131 56t-50 146q0 91 50 147q49 55 131 55zM207 381q53 0 53 97q0 96 -53 96q-54 0 -54 -96q0 -97 54 -97z" />
    <glyph glyph-name="one.numr" horiz-adv-x="263" 
d="M219 283h-122v237l-83 -45v119l124 76h81v-387z" />
    <glyph glyph-name="two.numr" horiz-adv-x="362" 
d="M212 387h118v-103h-300v75l138 125q13 12 26 25q8 8 13 17q6 10 6 20q0 14 -9 23q-8 8 -23 8q-39 0 -40 -52l-112 21q0 60 42 97q41 37 110 37t110 -35t41 -98q0 -39 -19 -65q-21 -29 -59 -60z" />
    <glyph glyph-name="three.numr" horiz-adv-x="354" 
d="M280 483q52 -27 52 -79q0 -54 -45 -91q-44 -37 -113 -37q-64 0 -108 35q-43 34 -49 91l110 21q11 -47 49 -47q39 0 39 31q0 14 -12 23t-31 9h-44v84h40q44 0 44 30q0 14 -10 23q-9 8 -29 8q-39 0 -43 -46l-110 21q4 50 48 86q43 35 104 35q66 0 110 -35q43 -34 43 -89
q0 -46 -45 -73z" />
    <glyph glyph-name="four.numr" horiz-adv-x="389" 
d="M374 342h-47v-59h-114v59h-196v110l167 218h143v-229h47v-99zM213 441v108l-80 -108h80z" />
    <glyph glyph-name="five.numr" horiz-adv-x="357" 
d="M145 537h53q66 0 104 -33q37 -33 37 -92q0 -62 -42 -99q-43 -38 -114 -38q-68 0 -113 36t-51 89l114 19q9 -43 49 -43q17 0 30 10q11 8 11 25q0 34 -44 34h-147l11 225h276v-105h-173z" />
    <glyph glyph-name="six.numr" horiz-adv-x="368" 
d="M214 538q61 0 97 -35q37 -36 37 -93q0 -59 -43 -96q-44 -38 -110 -38q-81 0 -128 51q-47 52 -47 142q0 108 57 165q46 46 119 46q59 0 99 -29q39 -29 48 -81l-113 -18q-6 30 -39 30q-20 0 -34 -17q-15 -18 -19 -49q34 22 76 22zM191 370q18 0 33 13q13 12 13 31
q0 20 -13 32q-14 12 -33 12t-33 -12q-13 -12 -13 -32q0 -19 13 -31q15 -13 33 -13z" />
    <glyph glyph-name="seven.numr" horiz-adv-x="314" 
d="M306 670v-93l-130 -294h-131l131 282h-168v105h298z" />
    <glyph glyph-name="eight.numr" horiz-adv-x="381" 
d="M292 487q65 -26 65 -94q0 -51 -46 -84q-47 -33 -121 -33t-120 33t-46 84q0 67 64 94q-49 25 -49 82q0 46 44 79q42 32 108 32t108 -32q43 -33 43 -79q0 -56 -50 -82zM191 592q-19 0 -31 -9t-12 -26q0 -15 13 -26q11 -10 30 -10q16 0 30 11q13 10 13 25q0 17 -12 26t-31 9
zM191 369q19 0 32 11q12 10 12 26t-12 27q-11 10 -32 10q-19 0 -32 -10t-13 -27q0 -15 13 -26t32 -11z" />
    <glyph glyph-name="nine.numr" horiz-adv-x="368" 
d="M173 680q82 0 128 -51q47 -52 47 -142q0 -108 -57 -164q-47 -47 -118 -47q-59 0 -99 29q-38 28 -49 82l114 18q6 -31 38 -31q19 0 34 17q16 16 19 51q-34 -23 -76 -23q-59 0 -97 35q-37 34 -37 93q0 58 44 96q43 37 109 37zM177 498q18 0 33 13q13 12 13 31q0 21 -13 33
q-14 12 -33 12t-32 -12t-13 -33q0 -19 13 -31q15 -13 32 -13z" />
    <glyph glyph-name="backslash.case" horiz-adv-x="451" 
d="M430 0h-170l-238 670h170z" />
    <glyph glyph-name="periodcentered.case" horiz-adv-x="255" 
d="M127 432q45 0 75 -31q29 -30 29 -73q0 -45 -29 -73q-31 -29 -75 -29q-43 0 -74 29q-30 29 -30 73q0 42 30 73t74 31z" />
    <glyph glyph-name="bullet.case" horiz-adv-x="407" 
d="M204 502q76 0 128 -53t52 -126q0 -76 -51 -127t-129 -51t-129 51t-51 127q0 71 52 126q50 53 128 53z" />
    <glyph glyph-name="colon.case" horiz-adv-x="255" 
d="M127 570q45 0 75 -30q29 -29 29 -73q0 -46 -29 -74q-31 -29 -75 -29q-43 0 -74 29q-30 29 -30 74q0 43 30 73t74 30zM127 271q45 0 75 -31q29 -30 29 -73q0 -45 -29 -73q-31 -29 -75 -29q-43 0 -74 29q-30 28 -30 73q0 41 30 73q30 31 74 31z" />
    <glyph glyph-name="exclamdown.case" horiz-adv-x="306" 
d="M157 475q-43 0 -73 30t-30 71q0 42 29 71q28 28 74 28t75 -28q30 -29 30 -71q0 -41 -30 -71t-75 -30zM47 31l15 400h182l15 -400v-31h-212v31z" />
    <glyph glyph-name="questiondown.case" horiz-adv-x="551" 
d="M282 482q-44 0 -74 30t-30 70q0 42 29 71q28 28 75 28t75 -28q29 -29 29 -71q0 -41 -29 -70q-30 -30 -75 -30zM342 227l186 -37q-17 -87 -86 -143q-70 -56 -184 -56q-105 0 -173 62q-67 61 -67 153q0 70 45 119q44 48 124 68v46h184l-1 -166h-84q-36 0 -58 -15t-22 -42
q0 -28 18 -45q19 -17 45 -17q29 0 49 20q19 19 24 53z" />
    <glyph glyph-name="semicolon.case" horiz-adv-x="290" 
d="M162 570q45 0 75 -30t30 -73q0 -44 -29 -73q-30 -30 -76 -30t-74 30q-29 31 -29 73q0 43 30 73t73 30zM140 -132h-143l58 308h202v-4z" />
    <glyph glyph-name="slash.case" horiz-adv-x="485" 
d="M192 0h-153l253 670h153z" />
    <glyph glyph-name="braceleft.case" horiz-adv-x="417" 
d="M276 496v-60q0 -78 -56 -105q56 -27 56 -105v-52q0 -26 24 -26h84v-148h-144q-60 0 -96 36q-37 37 -37 96v69q0 37 -51 51l-36 10v139l36 10q22 6 38 19q13 10 13 32v76q0 59 37 96q36 36 96 36h144v-148h-84q-10 0 -17 -7t-7 -19z" />
    <glyph glyph-name="braceright.case" horiz-adv-x="417" 
d="M397 401v-139l-36 -10q-50 -14 -50 -51v-69q0 -60 -37 -96q-38 -36 -97 -36h-144v148h85q23 0 23 26v52q0 78 57 105q-57 27 -57 105v60q0 26 -23 26h-85v148h144q59 0 97 -36q37 -36 37 -96v-76q0 -21 13 -32q14 -12 37 -19z" />
    <glyph glyph-name="bracketleft.case" horiz-adv-x="415" 
d="M216 522v-374h166v-148h-335v670h335v-148h-166z" />
    <glyph glyph-name="bracketright.case" horiz-adv-x="415" 
d="M368 670v-670h-335v148h166v374h-166v148h335z" />
    <glyph glyph-name="parenleft.case" horiz-adv-x="363" 
d="M225 335q0 -75 26 -125q25 -48 82 -116l-121 -111q-87 79 -134 162q-48 84 -48 190t48 190q47 83 134 162l116 -111q-41 -51 -54 -71q-16 -25 -33 -72q-16 -45 -16 -98z" />
    <glyph glyph-name="parenright.case" horiz-adv-x="363" 
d="M35 576l117 111q86 -80 133 -162q48 -84 48 -190q0 -105 -48 -189q-50 -87 -133 -163l-122 111q57 68 82 116q26 50 26 125q0 53 -16 98q-16 47 -33 72q-13 20 -54 71z" />
    <glyph glyph-name="emdash.case" horiz-adv-x="1040" 
d="M980 253h-920v147h920v-147z" />
    <glyph glyph-name="endash.case" horiz-adv-x="620" 
d="M560 253h-500v147h500v-147z" />
    <glyph glyph-name="hyphen.case" horiz-adv-x="455" 
d="M395 249h-335v155h335v-155z" />
    <glyph glyph-name="guillemotleft.case" horiz-adv-x="539" 
d="M25 322l99 178h170l-99 -178l99 -178h-170zM245 322l99 178h170l-99 -178l99 -178h-170z" />
    <glyph glyph-name="guillemotright.case" horiz-adv-x="539" 
d="M25 144l99 178l-99 178h170l99 -178l-99 -178h-170zM245 144l99 178l-99 178h170l99 -178l-99 -178h-170z" />
    <glyph glyph-name="guilsinglleft.case" horiz-adv-x="319" 
d="M25 322l99 178h170l-99 -178l99 -178h-170z" />
    <glyph glyph-name="guilsinglright.case" horiz-adv-x="319" 
d="M25 144l99 178l-99 178h170l99 -178l-99 -178h-170z" />
    <glyph glyph-name="cent.tf" 
d="M398 223l172 -33q-13 -73 -63 -124q-50 -52 -123 -71v-125h-154v125q-89 23 -146 92t-57 165q0 98 57 167q56 68 146 91v120h154v-120q75 -20 122 -69q50 -51 63 -123l-172 -36q-7 38 -32 60q-23 20 -58 20q-44 0 -72 -31t-28 -79q0 -47 28 -78t72 -31q34 0 58 21t33 59z
" />
    <glyph glyph-name="dollar.tf" 
d="M577 217q0 -85 -54 -136q-53 -50 -139 -67v-114h-155v117q-83 20 -137 71q-57 54 -67 123l178 34q20 -92 110 -92q31 0 53 14q21 13 21 34q0 33 -43 43l-128 32q-175 40 -175 181q0 81 52 133q50 50 136 67v113h155v-116q80 -16 129 -66q48 -48 59 -122l-172 -30
q-15 87 -99 87q-31 0 -48 -13q-18 -14 -18 -37q0 -32 36 -40l127 -30q90 -23 134 -67q45 -45 45 -119z" />
    <glyph glyph-name="Euro.tf" 
d="M403 277l188 -34q-15 -114 -87 -186t-181 -72q-99 0 -170 62q-69 60 -95 173h-46v96h34v19v19h-34v95h46q24 112 94 174q69 62 171 62q107 0 181 -72q72 -71 86 -188l-184 -33q-20 131 -83 131q-55 0 -75 -74h116l-18 -95h-110v-19v-19h107l-18 -96h-77q21 -73 75 -73
q62 0 80 130z" />
    <glyph glyph-name="florin.tf" 
d="M487 528q-26 0 -44 -15t-23 -44l-13 -69h121v-146h-147l-42 -231q-17 -87 -74 -137q-59 -51 -142 -51q-60 0 -118 37l52 136q33 -12 51 -12t31 11q12 10 15 29l40 218h-88v146h114l15 82q17 93 82 148t158 55q73 0 132 -34l-57 -142q-34 19 -63 19z" />
    <glyph glyph-name="sterling.tf" 
d="M574 162v-162h-537v122l62 20v85h-62v152h62v86q0 100 65 160q64 60 172 60q101 0 165 -58t70 -152l-176 -33q-6 45 -20 60q-15 16 -39 16q-23 0 -36 -14q-14 -16 -14 -39v-86h157v-152h-157v-65h288z" />
    <glyph glyph-name="yen.tf" 
d="M440 325h94v-107h-137v-37h137v-106h-137v-75h-193v75h-128v106h128v37h-128v107h86l-153 345h201l91 -261l90 261h209z" />
    <glyph glyph-name="approxequal.tf" 
d="M547 464v-133q-45 -22 -109 -22q-55 0 -128 26q-71 25 -123 25q-81 0 -124 -29v129q44 33 124 33q55 0 127 -25q75 -26 126 -26q67 0 107 22zM547 295v-133q-45 -22 -109 -22q-55 0 -128 26q-71 25 -123 25q-81 0 -124 -29v130q44 32 124 32q55 0 127 -25q75 -26 126 -26
q67 0 107 22z" />
    <glyph glyph-name="divide.tf" 
d="M304 570q35 0 59 -24t24 -59t-23 -58q-24 -24 -60 -24q-35 0 -59 24t-24 58q0 35 24 59t59 24zM548 229h-486v145h486v-145zM304 197q35 0 59 -24t24 -58q0 -36 -23 -59q-24 -24 -60 -24q-35 0 -59 24t-24 59q0 34 24 58t59 24z" />
    <glyph glyph-name="equal.tf" 
d="M548 340h-486v138h486v-138zM548 142h-486v138h486v-138z" />
    <glyph glyph-name="greater.tf" 
d="M340 326l-230 60v168l415 -143v-170l-415 -143v167z" />
    <glyph glyph-name="greaterequal.tf" 
d="M348 413l-247 42v152l415 -108v-172l-415 -106v148zM516 58h-415v145h415v-145z" />
    <glyph glyph-name="less.tf" 
d="M500 98l-415 143v170l415 143v-168l-230 -60l230 -61v-167z" />
    <glyph glyph-name="lessequal.tf" 
d="M510 221l-415 106v172l415 108v-152l-247 -42l247 -44v-148zM510 203v-145h-416v145h416z" />
    <glyph glyph-name="minus.tf" 
d="M548 229h-486v145h486v-145z" />
    <glyph glyph-name="multiply.tf" 
d="M407 302l130 -130l-102 -102l-130 130l-131 -130l-101 102l130 130l-130 129l101 102l131 -130l130 130l102 -102z" />
    <glyph glyph-name="notequal.tf" 
d="M389 340l-32 -60h191v-138h-266l-47 -87h-129l47 87h-91v138h166l32 60h-198v138h273l41 76h129l-41 -76h84v-138h-159z" />
    <glyph glyph-name="plus.tf" 
d="M548 229h-170v-172h-146v172h-170v145h170v172h146v-172h170v-145z" />
    <glyph glyph-name="plusminus.tf" 
d="M548 482v-145h-170v-135h-146v135h-170v145h170v156h146v-156h170zM62 145h486v-145h-486v145z" />
    <glyph glyph-name="bar.case" horiz-adv-x="263" 
d="M216 -41h-169v752h169v-752z" />
    <glyph glyph-name="at.case" horiz-adv-x="928" 
d="M679 506v-275q0 -19 12 -29q11 -10 31 -10q33 0 53 47q19 45 19 109q0 131 -91 212t-228 81q-145 0 -242 -93q-98 -93 -98 -237q0 -142 96 -232q97 -91 241 -91q126 0 237 84l45 -72q-112 -96 -281 -96q-187 0 -309 114q-121 114 -121 290q0 180 125 299q124 118 307 118
q173 0 292 -105q118 -105 118 -270q0 -46 -10 -83q-11 -42 -31 -77q-20 -36 -63 -60q-40 -22 -97 -22q-93 0 -126 61q-45 -60 -132 -60q-83 0 -137 55q-55 57 -55 148q0 93 55 148t137 55q73 0 117 -44v35h136zM466 232q32 0 55 23q22 22 22 59q0 36 -22 58t-55 22t-55 -22
q-23 -23 -23 -58q0 -36 23 -59t55 -23z" />
    <glyph glyph-name="caron.alt" horiz-adv-x="600" 
d="M352 450h-127v200h168z" />
    </font>
</defs>
</svg>
